%TF.GenerationSoftware,KiCad,Pcbnew,(6.0.2)*%
%TF.CreationDate,2022-09-17T14:06:51-08:00*%
%TF.ProjectId,HERTZ200,48455254-5a32-4303-902e-6b696361645f,VERSION 1*%
%TF.SameCoordinates,Original*%
%TF.FileFunction,Soldermask,Bot*%
%TF.FilePolarity,Negative*%
%FSLAX46Y46*%
G04 Gerber Fmt 4.6, Leading zero omitted, Abs format (unit mm)*
G04 Created by KiCad (PCBNEW (6.0.2)) date 2022-09-17 14:06:51*
%MOMM*%
%LPD*%
G01*
G04 APERTURE LIST*
G04 Aperture macros list*
%AMRoundRect*
0 Rectangle with rounded corners*
0 $1 Rounding radius*
0 $2 $3 $4 $5 $6 $7 $8 $9 X,Y pos of 4 corners*
0 Add a 4 corners polygon primitive as box body*
4,1,4,$2,$3,$4,$5,$6,$7,$8,$9,$2,$3,0*
0 Add four circle primitives for the rounded corners*
1,1,$1+$1,$2,$3*
1,1,$1+$1,$4,$5*
1,1,$1+$1,$6,$7*
1,1,$1+$1,$8,$9*
0 Add four rect primitives between the rounded corners*
20,1,$1+$1,$2,$3,$4,$5,0*
20,1,$1+$1,$4,$5,$6,$7,0*
20,1,$1+$1,$6,$7,$8,$9,0*
20,1,$1+$1,$8,$9,$2,$3,0*%
G04 Aperture macros list end*
%ADD10C,0.010000*%
%ADD11C,1.508000*%
%ADD12C,1.920000*%
%ADD13R,1.700000X1.700000*%
%ADD14O,1.700000X1.700000*%
%ADD15O,2.416000X1.208000*%
%ADD16RoundRect,0.225000X-0.250000X0.225000X-0.250000X-0.225000X0.250000X-0.225000X0.250000X0.225000X0*%
%ADD17RoundRect,0.225000X0.250000X-0.225000X0.250000X0.225000X-0.250000X0.225000X-0.250000X-0.225000X0*%
%ADD18RoundRect,0.250000X-0.650000X0.325000X-0.650000X-0.325000X0.650000X-0.325000X0.650000X0.325000X0*%
%ADD19RoundRect,0.200000X0.275000X-0.200000X0.275000X0.200000X-0.275000X0.200000X-0.275000X-0.200000X0*%
%ADD20RoundRect,0.225000X-0.225000X-0.250000X0.225000X-0.250000X0.225000X0.250000X-0.225000X0.250000X0*%
%ADD21RoundRect,0.225000X0.225000X0.250000X-0.225000X0.250000X-0.225000X-0.250000X0.225000X-0.250000X0*%
%ADD22RoundRect,0.250000X0.262500X0.450000X-0.262500X0.450000X-0.262500X-0.450000X0.262500X-0.450000X0*%
%ADD23R,0.400000X1.230000*%
%ADD24R,1.525000X0.700000*%
%ADD25RoundRect,0.200000X-0.275000X0.200000X-0.275000X-0.200000X0.275000X-0.200000X0.275000X0.200000X0*%
%ADD26RoundRect,0.250000X-0.475000X0.250000X-0.475000X-0.250000X0.475000X-0.250000X0.475000X0.250000X0*%
%ADD27R,1.329200X0.665800*%
%ADD28R,1.350000X0.600000*%
%ADD29R,1.380000X0.665800*%
%ADD30RoundRect,0.200000X0.200000X0.275000X-0.200000X0.275000X-0.200000X-0.275000X0.200000X-0.275000X0*%
G04 APERTURE END LIST*
D10*
%TO.C,J8*%
X33759788Y-47931800D02*
X33758788Y-47897800D01*
X33758788Y-47897800D02*
X33755788Y-47863800D01*
X33755788Y-47863800D02*
X33751788Y-47829800D01*
X33751788Y-47829800D02*
X33745788Y-47796800D01*
X33745788Y-47796800D02*
X33737788Y-47763800D01*
X33737788Y-47763800D02*
X33727788Y-47730800D01*
X33727788Y-47730800D02*
X33716788Y-47698800D01*
X33716788Y-47698800D02*
X33703788Y-47667800D01*
X33703788Y-47667800D02*
X33688788Y-47636800D01*
X33688788Y-47636800D02*
X33672788Y-47606800D01*
X33672788Y-47606800D02*
X33654788Y-47577800D01*
X33654788Y-47577800D02*
X33635788Y-47549800D01*
X33635788Y-47549800D02*
X33614788Y-47522800D01*
X33614788Y-47522800D02*
X33592788Y-47496800D01*
X33592788Y-47496800D02*
X33569788Y-47471800D01*
X33569788Y-47471800D02*
X33544788Y-47448800D01*
X33544788Y-47448800D02*
X33518788Y-47426800D01*
X33518788Y-47426800D02*
X33491788Y-47405800D01*
X33491788Y-47405800D02*
X33463788Y-47386800D01*
X33463788Y-47386800D02*
X33434788Y-47368800D01*
X33434788Y-47368800D02*
X33404788Y-47352800D01*
X33404788Y-47352800D02*
X33373788Y-47337800D01*
X33373788Y-47337800D02*
X33342788Y-47324800D01*
X33342788Y-47324800D02*
X33310788Y-47313800D01*
X33310788Y-47313800D02*
X33277788Y-47303800D01*
X33277788Y-47303800D02*
X33244788Y-47295800D01*
X33244788Y-47295800D02*
X33211788Y-47289800D01*
X33211788Y-47289800D02*
X33177788Y-47285800D01*
X33177788Y-47285800D02*
X33143788Y-47282800D01*
X33143788Y-47282800D02*
X33109788Y-47281800D01*
X33109788Y-47281800D02*
X32509788Y-47281800D01*
X32509788Y-47281800D02*
X32475788Y-47282800D01*
X32475788Y-47282800D02*
X32441788Y-47285800D01*
X32441788Y-47285800D02*
X32407788Y-47289800D01*
X32407788Y-47289800D02*
X32374788Y-47295800D01*
X32374788Y-47295800D02*
X32341788Y-47303800D01*
X32341788Y-47303800D02*
X32308788Y-47313800D01*
X32308788Y-47313800D02*
X32276788Y-47324800D01*
X32276788Y-47324800D02*
X32245788Y-47337800D01*
X32245788Y-47337800D02*
X32214788Y-47352800D01*
X32214788Y-47352800D02*
X32184788Y-47368800D01*
X32184788Y-47368800D02*
X32155788Y-47386800D01*
X32155788Y-47386800D02*
X32127788Y-47405800D01*
X32127788Y-47405800D02*
X32100788Y-47426800D01*
X32100788Y-47426800D02*
X32074788Y-47448800D01*
X32074788Y-47448800D02*
X32049788Y-47471800D01*
X32049788Y-47471800D02*
X32026788Y-47496800D01*
X32026788Y-47496800D02*
X32004788Y-47522800D01*
X32004788Y-47522800D02*
X31983788Y-47549800D01*
X31983788Y-47549800D02*
X31964788Y-47577800D01*
X31964788Y-47577800D02*
X31946788Y-47606800D01*
X31946788Y-47606800D02*
X31930788Y-47636800D01*
X31930788Y-47636800D02*
X31915788Y-47667800D01*
X31915788Y-47667800D02*
X31902788Y-47698800D01*
X31902788Y-47698800D02*
X31891788Y-47730800D01*
X31891788Y-47730800D02*
X31881788Y-47763800D01*
X31881788Y-47763800D02*
X31873788Y-47796800D01*
X31873788Y-47796800D02*
X31867788Y-47829800D01*
X31867788Y-47829800D02*
X31863788Y-47863800D01*
X31863788Y-47863800D02*
X31860788Y-47897800D01*
X31860788Y-47897800D02*
X31859788Y-47931800D01*
X31859788Y-47931800D02*
X31860788Y-47965800D01*
X31860788Y-47965800D02*
X31863788Y-47999800D01*
X31863788Y-47999800D02*
X31867788Y-48033800D01*
X31867788Y-48033800D02*
X31873788Y-48066800D01*
X31873788Y-48066800D02*
X31881788Y-48099800D01*
X31881788Y-48099800D02*
X31891788Y-48132800D01*
X31891788Y-48132800D02*
X31902788Y-48164800D01*
X31902788Y-48164800D02*
X31915788Y-48195800D01*
X31915788Y-48195800D02*
X31930788Y-48226800D01*
X31930788Y-48226800D02*
X31946788Y-48256800D01*
X31946788Y-48256800D02*
X31964788Y-48285800D01*
X31964788Y-48285800D02*
X31983788Y-48313800D01*
X31983788Y-48313800D02*
X32004788Y-48340800D01*
X32004788Y-48340800D02*
X32026788Y-48366800D01*
X32026788Y-48366800D02*
X32049788Y-48391800D01*
X32049788Y-48391800D02*
X32074788Y-48414800D01*
X32074788Y-48414800D02*
X32100788Y-48436800D01*
X32100788Y-48436800D02*
X32127788Y-48457800D01*
X32127788Y-48457800D02*
X32155788Y-48476800D01*
X32155788Y-48476800D02*
X32184788Y-48494800D01*
X32184788Y-48494800D02*
X32214788Y-48510800D01*
X32214788Y-48510800D02*
X32245788Y-48525800D01*
X32245788Y-48525800D02*
X32276788Y-48538800D01*
X32276788Y-48538800D02*
X32308788Y-48549800D01*
X32308788Y-48549800D02*
X32341788Y-48559800D01*
X32341788Y-48559800D02*
X32374788Y-48567800D01*
X32374788Y-48567800D02*
X32407788Y-48573800D01*
X32407788Y-48573800D02*
X32441788Y-48577800D01*
X32441788Y-48577800D02*
X32475788Y-48580800D01*
X32475788Y-48580800D02*
X32509788Y-48581800D01*
X32509788Y-48581800D02*
X33109788Y-48581800D01*
X33109788Y-48581800D02*
X33143788Y-48580800D01*
X33143788Y-48580800D02*
X33177788Y-48577800D01*
X33177788Y-48577800D02*
X33211788Y-48573800D01*
X33211788Y-48573800D02*
X33244788Y-48567800D01*
X33244788Y-48567800D02*
X33277788Y-48559800D01*
X33277788Y-48559800D02*
X33310788Y-48549800D01*
X33310788Y-48549800D02*
X33342788Y-48538800D01*
X33342788Y-48538800D02*
X33373788Y-48525800D01*
X33373788Y-48525800D02*
X33404788Y-48510800D01*
X33404788Y-48510800D02*
X33434788Y-48494800D01*
X33434788Y-48494800D02*
X33463788Y-48476800D01*
X33463788Y-48476800D02*
X33491788Y-48457800D01*
X33491788Y-48457800D02*
X33518788Y-48436800D01*
X33518788Y-48436800D02*
X33544788Y-48414800D01*
X33544788Y-48414800D02*
X33569788Y-48391800D01*
X33569788Y-48391800D02*
X33592788Y-48366800D01*
X33592788Y-48366800D02*
X33614788Y-48340800D01*
X33614788Y-48340800D02*
X33635788Y-48313800D01*
X33635788Y-48313800D02*
X33654788Y-48285800D01*
X33654788Y-48285800D02*
X33672788Y-48256800D01*
X33672788Y-48256800D02*
X33688788Y-48226800D01*
X33688788Y-48226800D02*
X33703788Y-48195800D01*
X33703788Y-48195800D02*
X33716788Y-48164800D01*
X33716788Y-48164800D02*
X33727788Y-48132800D01*
X33727788Y-48132800D02*
X33737788Y-48099800D01*
X33737788Y-48099800D02*
X33745788Y-48066800D01*
X33745788Y-48066800D02*
X33751788Y-48033800D01*
X33751788Y-48033800D02*
X33755788Y-47999800D01*
X33755788Y-47999800D02*
X33758788Y-47965800D01*
X33758788Y-47965800D02*
X33759788Y-47931800D01*
X33759788Y-47931800D02*
X33759788Y-47931800D01*
G36*
X33143788Y-47282800D02*
G01*
X33177788Y-47285800D01*
X33211788Y-47289800D01*
X33244788Y-47295800D01*
X33277788Y-47303800D01*
X33310788Y-47313800D01*
X33342788Y-47324800D01*
X33373788Y-47337800D01*
X33404788Y-47352800D01*
X33434788Y-47368800D01*
X33463788Y-47386800D01*
X33491788Y-47405800D01*
X33518788Y-47426800D01*
X33544788Y-47448800D01*
X33569788Y-47471800D01*
X33592788Y-47496800D01*
X33614788Y-47522800D01*
X33635788Y-47549800D01*
X33654788Y-47577800D01*
X33672788Y-47606800D01*
X33688788Y-47636800D01*
X33703788Y-47667800D01*
X33716788Y-47698800D01*
X33727788Y-47730800D01*
X33737788Y-47763800D01*
X33745788Y-47796800D01*
X33751788Y-47829800D01*
X33755788Y-47863800D01*
X33758788Y-47897800D01*
X33759788Y-47931800D01*
X33758788Y-47965800D01*
X33755788Y-47999800D01*
X33751788Y-48033800D01*
X33745788Y-48066800D01*
X33737788Y-48099800D01*
X33727788Y-48132800D01*
X33716788Y-48164800D01*
X33703788Y-48195800D01*
X33688788Y-48226800D01*
X33672788Y-48256800D01*
X33654788Y-48285800D01*
X33635788Y-48313800D01*
X33614788Y-48340800D01*
X33592788Y-48366800D01*
X33569788Y-48391800D01*
X33544788Y-48414800D01*
X33518788Y-48436800D01*
X33491788Y-48457800D01*
X33463788Y-48476800D01*
X33434788Y-48494800D01*
X33404788Y-48510800D01*
X33373788Y-48525800D01*
X33342788Y-48538800D01*
X33310788Y-48549800D01*
X33277788Y-48559800D01*
X33244788Y-48567800D01*
X33211788Y-48573800D01*
X33177788Y-48577800D01*
X33143788Y-48580800D01*
X33109788Y-48581800D01*
X32509788Y-48581800D01*
X32475788Y-48580800D01*
X32441788Y-48577800D01*
X32407788Y-48573800D01*
X32374788Y-48567800D01*
X32341788Y-48559800D01*
X32308788Y-48549800D01*
X32276788Y-48538800D01*
X32245788Y-48525800D01*
X32214788Y-48510800D01*
X32184788Y-48494800D01*
X32155788Y-48476800D01*
X32127788Y-48457800D01*
X32100788Y-48436800D01*
X32074788Y-48414800D01*
X32049788Y-48391800D01*
X32026788Y-48366800D01*
X32004788Y-48340800D01*
X31983788Y-48313800D01*
X31964788Y-48285800D01*
X31946788Y-48256800D01*
X31930788Y-48226800D01*
X31915788Y-48195800D01*
X31902788Y-48164800D01*
X31891788Y-48132800D01*
X31881788Y-48099800D01*
X31873788Y-48066800D01*
X31867788Y-48033800D01*
X31863788Y-47999800D01*
X31860788Y-47965800D01*
X31859788Y-47931800D01*
X31860788Y-47897800D01*
X31863788Y-47863800D01*
X31867788Y-47829800D01*
X31873788Y-47796800D01*
X31881788Y-47763800D01*
X31891788Y-47730800D01*
X31902788Y-47698800D01*
X31915788Y-47667800D01*
X31930788Y-47636800D01*
X31946788Y-47606800D01*
X31964788Y-47577800D01*
X31983788Y-47549800D01*
X32004788Y-47522800D01*
X32026788Y-47496800D01*
X32049788Y-47471800D01*
X32074788Y-47448800D01*
X32100788Y-47426800D01*
X32127788Y-47405800D01*
X32155788Y-47386800D01*
X32184788Y-47368800D01*
X32214788Y-47352800D01*
X32245788Y-47337800D01*
X32276788Y-47324800D01*
X32308788Y-47313800D01*
X32341788Y-47303800D01*
X32374788Y-47295800D01*
X32407788Y-47289800D01*
X32441788Y-47285800D01*
X32475788Y-47282800D01*
X32509788Y-47281800D01*
X33109788Y-47281800D01*
X33143788Y-47282800D01*
G37*
X33143788Y-47282800D02*
X33177788Y-47285800D01*
X33211788Y-47289800D01*
X33244788Y-47295800D01*
X33277788Y-47303800D01*
X33310788Y-47313800D01*
X33342788Y-47324800D01*
X33373788Y-47337800D01*
X33404788Y-47352800D01*
X33434788Y-47368800D01*
X33463788Y-47386800D01*
X33491788Y-47405800D01*
X33518788Y-47426800D01*
X33544788Y-47448800D01*
X33569788Y-47471800D01*
X33592788Y-47496800D01*
X33614788Y-47522800D01*
X33635788Y-47549800D01*
X33654788Y-47577800D01*
X33672788Y-47606800D01*
X33688788Y-47636800D01*
X33703788Y-47667800D01*
X33716788Y-47698800D01*
X33727788Y-47730800D01*
X33737788Y-47763800D01*
X33745788Y-47796800D01*
X33751788Y-47829800D01*
X33755788Y-47863800D01*
X33758788Y-47897800D01*
X33759788Y-47931800D01*
X33758788Y-47965800D01*
X33755788Y-47999800D01*
X33751788Y-48033800D01*
X33745788Y-48066800D01*
X33737788Y-48099800D01*
X33727788Y-48132800D01*
X33716788Y-48164800D01*
X33703788Y-48195800D01*
X33688788Y-48226800D01*
X33672788Y-48256800D01*
X33654788Y-48285800D01*
X33635788Y-48313800D01*
X33614788Y-48340800D01*
X33592788Y-48366800D01*
X33569788Y-48391800D01*
X33544788Y-48414800D01*
X33518788Y-48436800D01*
X33491788Y-48457800D01*
X33463788Y-48476800D01*
X33434788Y-48494800D01*
X33404788Y-48510800D01*
X33373788Y-48525800D01*
X33342788Y-48538800D01*
X33310788Y-48549800D01*
X33277788Y-48559800D01*
X33244788Y-48567800D01*
X33211788Y-48573800D01*
X33177788Y-48577800D01*
X33143788Y-48580800D01*
X33109788Y-48581800D01*
X32509788Y-48581800D01*
X32475788Y-48580800D01*
X32441788Y-48577800D01*
X32407788Y-48573800D01*
X32374788Y-48567800D01*
X32341788Y-48559800D01*
X32308788Y-48549800D01*
X32276788Y-48538800D01*
X32245788Y-48525800D01*
X32214788Y-48510800D01*
X32184788Y-48494800D01*
X32155788Y-48476800D01*
X32127788Y-48457800D01*
X32100788Y-48436800D01*
X32074788Y-48414800D01*
X32049788Y-48391800D01*
X32026788Y-48366800D01*
X32004788Y-48340800D01*
X31983788Y-48313800D01*
X31964788Y-48285800D01*
X31946788Y-48256800D01*
X31930788Y-48226800D01*
X31915788Y-48195800D01*
X31902788Y-48164800D01*
X31891788Y-48132800D01*
X31881788Y-48099800D01*
X31873788Y-48066800D01*
X31867788Y-48033800D01*
X31863788Y-47999800D01*
X31860788Y-47965800D01*
X31859788Y-47931800D01*
X31860788Y-47897800D01*
X31863788Y-47863800D01*
X31867788Y-47829800D01*
X31873788Y-47796800D01*
X31881788Y-47763800D01*
X31891788Y-47730800D01*
X31902788Y-47698800D01*
X31915788Y-47667800D01*
X31930788Y-47636800D01*
X31946788Y-47606800D01*
X31964788Y-47577800D01*
X31983788Y-47549800D01*
X32004788Y-47522800D01*
X32026788Y-47496800D01*
X32049788Y-47471800D01*
X32074788Y-47448800D01*
X32100788Y-47426800D01*
X32127788Y-47405800D01*
X32155788Y-47386800D01*
X32184788Y-47368800D01*
X32214788Y-47352800D01*
X32245788Y-47337800D01*
X32276788Y-47324800D01*
X32308788Y-47313800D01*
X32341788Y-47303800D01*
X32374788Y-47295800D01*
X32407788Y-47289800D01*
X32441788Y-47285800D01*
X32475788Y-47282800D01*
X32509788Y-47281800D01*
X33109788Y-47281800D01*
X33143788Y-47282800D01*
X37559788Y-39291800D02*
X37558788Y-39257800D01*
X37558788Y-39257800D02*
X37555788Y-39223800D01*
X37555788Y-39223800D02*
X37551788Y-39189800D01*
X37551788Y-39189800D02*
X37545788Y-39156800D01*
X37545788Y-39156800D02*
X37537788Y-39123800D01*
X37537788Y-39123800D02*
X37527788Y-39090800D01*
X37527788Y-39090800D02*
X37516788Y-39058800D01*
X37516788Y-39058800D02*
X37503788Y-39027800D01*
X37503788Y-39027800D02*
X37488788Y-38996800D01*
X37488788Y-38996800D02*
X37472788Y-38966800D01*
X37472788Y-38966800D02*
X37454788Y-38937800D01*
X37454788Y-38937800D02*
X37435788Y-38909800D01*
X37435788Y-38909800D02*
X37414788Y-38882800D01*
X37414788Y-38882800D02*
X37392788Y-38856800D01*
X37392788Y-38856800D02*
X37369788Y-38831800D01*
X37369788Y-38831800D02*
X37344788Y-38808800D01*
X37344788Y-38808800D02*
X37318788Y-38786800D01*
X37318788Y-38786800D02*
X37291788Y-38765800D01*
X37291788Y-38765800D02*
X37263788Y-38746800D01*
X37263788Y-38746800D02*
X37234788Y-38728800D01*
X37234788Y-38728800D02*
X37204788Y-38712800D01*
X37204788Y-38712800D02*
X37173788Y-38697800D01*
X37173788Y-38697800D02*
X37142788Y-38684800D01*
X37142788Y-38684800D02*
X37110788Y-38673800D01*
X37110788Y-38673800D02*
X37077788Y-38663800D01*
X37077788Y-38663800D02*
X37044788Y-38655800D01*
X37044788Y-38655800D02*
X37011788Y-38649800D01*
X37011788Y-38649800D02*
X36977788Y-38645800D01*
X36977788Y-38645800D02*
X36943788Y-38642800D01*
X36943788Y-38642800D02*
X36909788Y-38641800D01*
X36909788Y-38641800D02*
X36309788Y-38641800D01*
X36309788Y-38641800D02*
X36275788Y-38642800D01*
X36275788Y-38642800D02*
X36241788Y-38645800D01*
X36241788Y-38645800D02*
X36207788Y-38649800D01*
X36207788Y-38649800D02*
X36174788Y-38655800D01*
X36174788Y-38655800D02*
X36141788Y-38663800D01*
X36141788Y-38663800D02*
X36108788Y-38673800D01*
X36108788Y-38673800D02*
X36076788Y-38684800D01*
X36076788Y-38684800D02*
X36045788Y-38697800D01*
X36045788Y-38697800D02*
X36014788Y-38712800D01*
X36014788Y-38712800D02*
X35984788Y-38728800D01*
X35984788Y-38728800D02*
X35955788Y-38746800D01*
X35955788Y-38746800D02*
X35927788Y-38765800D01*
X35927788Y-38765800D02*
X35900788Y-38786800D01*
X35900788Y-38786800D02*
X35874788Y-38808800D01*
X35874788Y-38808800D02*
X35849788Y-38831800D01*
X35849788Y-38831800D02*
X35826788Y-38856800D01*
X35826788Y-38856800D02*
X35804788Y-38882800D01*
X35804788Y-38882800D02*
X35783788Y-38909800D01*
X35783788Y-38909800D02*
X35764788Y-38937800D01*
X35764788Y-38937800D02*
X35746788Y-38966800D01*
X35746788Y-38966800D02*
X35730788Y-38996800D01*
X35730788Y-38996800D02*
X35715788Y-39027800D01*
X35715788Y-39027800D02*
X35702788Y-39058800D01*
X35702788Y-39058800D02*
X35691788Y-39090800D01*
X35691788Y-39090800D02*
X35681788Y-39123800D01*
X35681788Y-39123800D02*
X35673788Y-39156800D01*
X35673788Y-39156800D02*
X35667788Y-39189800D01*
X35667788Y-39189800D02*
X35663788Y-39223800D01*
X35663788Y-39223800D02*
X35660788Y-39257800D01*
X35660788Y-39257800D02*
X35659788Y-39291800D01*
X35659788Y-39291800D02*
X35660788Y-39325800D01*
X35660788Y-39325800D02*
X35663788Y-39359800D01*
X35663788Y-39359800D02*
X35667788Y-39393800D01*
X35667788Y-39393800D02*
X35673788Y-39426800D01*
X35673788Y-39426800D02*
X35681788Y-39459800D01*
X35681788Y-39459800D02*
X35691788Y-39492800D01*
X35691788Y-39492800D02*
X35702788Y-39524800D01*
X35702788Y-39524800D02*
X35715788Y-39555800D01*
X35715788Y-39555800D02*
X35730788Y-39586800D01*
X35730788Y-39586800D02*
X35746788Y-39616800D01*
X35746788Y-39616800D02*
X35764788Y-39645800D01*
X35764788Y-39645800D02*
X35783788Y-39673800D01*
X35783788Y-39673800D02*
X35804788Y-39700800D01*
X35804788Y-39700800D02*
X35826788Y-39726800D01*
X35826788Y-39726800D02*
X35849788Y-39751800D01*
X35849788Y-39751800D02*
X35874788Y-39774800D01*
X35874788Y-39774800D02*
X35900788Y-39796800D01*
X35900788Y-39796800D02*
X35927788Y-39817800D01*
X35927788Y-39817800D02*
X35955788Y-39836800D01*
X35955788Y-39836800D02*
X35984788Y-39854800D01*
X35984788Y-39854800D02*
X36014788Y-39870800D01*
X36014788Y-39870800D02*
X36045788Y-39885800D01*
X36045788Y-39885800D02*
X36076788Y-39898800D01*
X36076788Y-39898800D02*
X36108788Y-39909800D01*
X36108788Y-39909800D02*
X36141788Y-39919800D01*
X36141788Y-39919800D02*
X36174788Y-39927800D01*
X36174788Y-39927800D02*
X36207788Y-39933800D01*
X36207788Y-39933800D02*
X36241788Y-39937800D01*
X36241788Y-39937800D02*
X36275788Y-39940800D01*
X36275788Y-39940800D02*
X36309788Y-39941800D01*
X36309788Y-39941800D02*
X36909788Y-39941800D01*
X36909788Y-39941800D02*
X36943788Y-39940800D01*
X36943788Y-39940800D02*
X36977788Y-39937800D01*
X36977788Y-39937800D02*
X37011788Y-39933800D01*
X37011788Y-39933800D02*
X37044788Y-39927800D01*
X37044788Y-39927800D02*
X37077788Y-39919800D01*
X37077788Y-39919800D02*
X37110788Y-39909800D01*
X37110788Y-39909800D02*
X37142788Y-39898800D01*
X37142788Y-39898800D02*
X37173788Y-39885800D01*
X37173788Y-39885800D02*
X37204788Y-39870800D01*
X37204788Y-39870800D02*
X37234788Y-39854800D01*
X37234788Y-39854800D02*
X37263788Y-39836800D01*
X37263788Y-39836800D02*
X37291788Y-39817800D01*
X37291788Y-39817800D02*
X37318788Y-39796800D01*
X37318788Y-39796800D02*
X37344788Y-39774800D01*
X37344788Y-39774800D02*
X37369788Y-39751800D01*
X37369788Y-39751800D02*
X37392788Y-39726800D01*
X37392788Y-39726800D02*
X37414788Y-39700800D01*
X37414788Y-39700800D02*
X37435788Y-39673800D01*
X37435788Y-39673800D02*
X37454788Y-39645800D01*
X37454788Y-39645800D02*
X37472788Y-39616800D01*
X37472788Y-39616800D02*
X37488788Y-39586800D01*
X37488788Y-39586800D02*
X37503788Y-39555800D01*
X37503788Y-39555800D02*
X37516788Y-39524800D01*
X37516788Y-39524800D02*
X37527788Y-39492800D01*
X37527788Y-39492800D02*
X37537788Y-39459800D01*
X37537788Y-39459800D02*
X37545788Y-39426800D01*
X37545788Y-39426800D02*
X37551788Y-39393800D01*
X37551788Y-39393800D02*
X37555788Y-39359800D01*
X37555788Y-39359800D02*
X37558788Y-39325800D01*
X37558788Y-39325800D02*
X37559788Y-39291800D01*
X37559788Y-39291800D02*
X37559788Y-39291800D01*
G36*
X36943788Y-38642800D02*
G01*
X36977788Y-38645800D01*
X37011788Y-38649800D01*
X37044788Y-38655800D01*
X37077788Y-38663800D01*
X37110788Y-38673800D01*
X37142788Y-38684800D01*
X37173788Y-38697800D01*
X37204788Y-38712800D01*
X37234788Y-38728800D01*
X37263788Y-38746800D01*
X37291788Y-38765800D01*
X37318788Y-38786800D01*
X37344788Y-38808800D01*
X37369788Y-38831800D01*
X37392788Y-38856800D01*
X37414788Y-38882800D01*
X37435788Y-38909800D01*
X37454788Y-38937800D01*
X37472788Y-38966800D01*
X37488788Y-38996800D01*
X37503788Y-39027800D01*
X37516788Y-39058800D01*
X37527788Y-39090800D01*
X37537788Y-39123800D01*
X37545788Y-39156800D01*
X37551788Y-39189800D01*
X37555788Y-39223800D01*
X37558788Y-39257800D01*
X37559788Y-39291800D01*
X37558788Y-39325800D01*
X37555788Y-39359800D01*
X37551788Y-39393800D01*
X37545788Y-39426800D01*
X37537788Y-39459800D01*
X37527788Y-39492800D01*
X37516788Y-39524800D01*
X37503788Y-39555800D01*
X37488788Y-39586800D01*
X37472788Y-39616800D01*
X37454788Y-39645800D01*
X37435788Y-39673800D01*
X37414788Y-39700800D01*
X37392788Y-39726800D01*
X37369788Y-39751800D01*
X37344788Y-39774800D01*
X37318788Y-39796800D01*
X37291788Y-39817800D01*
X37263788Y-39836800D01*
X37234788Y-39854800D01*
X37204788Y-39870800D01*
X37173788Y-39885800D01*
X37142788Y-39898800D01*
X37110788Y-39909800D01*
X37077788Y-39919800D01*
X37044788Y-39927800D01*
X37011788Y-39933800D01*
X36977788Y-39937800D01*
X36943788Y-39940800D01*
X36909788Y-39941800D01*
X36309788Y-39941800D01*
X36275788Y-39940800D01*
X36241788Y-39937800D01*
X36207788Y-39933800D01*
X36174788Y-39927800D01*
X36141788Y-39919800D01*
X36108788Y-39909800D01*
X36076788Y-39898800D01*
X36045788Y-39885800D01*
X36014788Y-39870800D01*
X35984788Y-39854800D01*
X35955788Y-39836800D01*
X35927788Y-39817800D01*
X35900788Y-39796800D01*
X35874788Y-39774800D01*
X35849788Y-39751800D01*
X35826788Y-39726800D01*
X35804788Y-39700800D01*
X35783788Y-39673800D01*
X35764788Y-39645800D01*
X35746788Y-39616800D01*
X35730788Y-39586800D01*
X35715788Y-39555800D01*
X35702788Y-39524800D01*
X35691788Y-39492800D01*
X35681788Y-39459800D01*
X35673788Y-39426800D01*
X35667788Y-39393800D01*
X35663788Y-39359800D01*
X35660788Y-39325800D01*
X35659788Y-39291800D01*
X35660788Y-39257800D01*
X35663788Y-39223800D01*
X35667788Y-39189800D01*
X35673788Y-39156800D01*
X35681788Y-39123800D01*
X35691788Y-39090800D01*
X35702788Y-39058800D01*
X35715788Y-39027800D01*
X35730788Y-38996800D01*
X35746788Y-38966800D01*
X35764788Y-38937800D01*
X35783788Y-38909800D01*
X35804788Y-38882800D01*
X35826788Y-38856800D01*
X35849788Y-38831800D01*
X35874788Y-38808800D01*
X35900788Y-38786800D01*
X35927788Y-38765800D01*
X35955788Y-38746800D01*
X35984788Y-38728800D01*
X36014788Y-38712800D01*
X36045788Y-38697800D01*
X36076788Y-38684800D01*
X36108788Y-38673800D01*
X36141788Y-38663800D01*
X36174788Y-38655800D01*
X36207788Y-38649800D01*
X36241788Y-38645800D01*
X36275788Y-38642800D01*
X36309788Y-38641800D01*
X36909788Y-38641800D01*
X36943788Y-38642800D01*
G37*
X36943788Y-38642800D02*
X36977788Y-38645800D01*
X37011788Y-38649800D01*
X37044788Y-38655800D01*
X37077788Y-38663800D01*
X37110788Y-38673800D01*
X37142788Y-38684800D01*
X37173788Y-38697800D01*
X37204788Y-38712800D01*
X37234788Y-38728800D01*
X37263788Y-38746800D01*
X37291788Y-38765800D01*
X37318788Y-38786800D01*
X37344788Y-38808800D01*
X37369788Y-38831800D01*
X37392788Y-38856800D01*
X37414788Y-38882800D01*
X37435788Y-38909800D01*
X37454788Y-38937800D01*
X37472788Y-38966800D01*
X37488788Y-38996800D01*
X37503788Y-39027800D01*
X37516788Y-39058800D01*
X37527788Y-39090800D01*
X37537788Y-39123800D01*
X37545788Y-39156800D01*
X37551788Y-39189800D01*
X37555788Y-39223800D01*
X37558788Y-39257800D01*
X37559788Y-39291800D01*
X37558788Y-39325800D01*
X37555788Y-39359800D01*
X37551788Y-39393800D01*
X37545788Y-39426800D01*
X37537788Y-39459800D01*
X37527788Y-39492800D01*
X37516788Y-39524800D01*
X37503788Y-39555800D01*
X37488788Y-39586800D01*
X37472788Y-39616800D01*
X37454788Y-39645800D01*
X37435788Y-39673800D01*
X37414788Y-39700800D01*
X37392788Y-39726800D01*
X37369788Y-39751800D01*
X37344788Y-39774800D01*
X37318788Y-39796800D01*
X37291788Y-39817800D01*
X37263788Y-39836800D01*
X37234788Y-39854800D01*
X37204788Y-39870800D01*
X37173788Y-39885800D01*
X37142788Y-39898800D01*
X37110788Y-39909800D01*
X37077788Y-39919800D01*
X37044788Y-39927800D01*
X37011788Y-39933800D01*
X36977788Y-39937800D01*
X36943788Y-39940800D01*
X36909788Y-39941800D01*
X36309788Y-39941800D01*
X36275788Y-39940800D01*
X36241788Y-39937800D01*
X36207788Y-39933800D01*
X36174788Y-39927800D01*
X36141788Y-39919800D01*
X36108788Y-39909800D01*
X36076788Y-39898800D01*
X36045788Y-39885800D01*
X36014788Y-39870800D01*
X35984788Y-39854800D01*
X35955788Y-39836800D01*
X35927788Y-39817800D01*
X35900788Y-39796800D01*
X35874788Y-39774800D01*
X35849788Y-39751800D01*
X35826788Y-39726800D01*
X35804788Y-39700800D01*
X35783788Y-39673800D01*
X35764788Y-39645800D01*
X35746788Y-39616800D01*
X35730788Y-39586800D01*
X35715788Y-39555800D01*
X35702788Y-39524800D01*
X35691788Y-39492800D01*
X35681788Y-39459800D01*
X35673788Y-39426800D01*
X35667788Y-39393800D01*
X35663788Y-39359800D01*
X35660788Y-39325800D01*
X35659788Y-39291800D01*
X35660788Y-39257800D01*
X35663788Y-39223800D01*
X35667788Y-39189800D01*
X35673788Y-39156800D01*
X35681788Y-39123800D01*
X35691788Y-39090800D01*
X35702788Y-39058800D01*
X35715788Y-39027800D01*
X35730788Y-38996800D01*
X35746788Y-38966800D01*
X35764788Y-38937800D01*
X35783788Y-38909800D01*
X35804788Y-38882800D01*
X35826788Y-38856800D01*
X35849788Y-38831800D01*
X35874788Y-38808800D01*
X35900788Y-38786800D01*
X35927788Y-38765800D01*
X35955788Y-38746800D01*
X35984788Y-38728800D01*
X36014788Y-38712800D01*
X36045788Y-38697800D01*
X36076788Y-38684800D01*
X36108788Y-38673800D01*
X36141788Y-38663800D01*
X36174788Y-38655800D01*
X36207788Y-38649800D01*
X36241788Y-38645800D01*
X36275788Y-38642800D01*
X36309788Y-38641800D01*
X36909788Y-38641800D01*
X36943788Y-38642800D01*
X37559788Y-47931800D02*
X37558788Y-47897800D01*
X37558788Y-47897800D02*
X37555788Y-47863800D01*
X37555788Y-47863800D02*
X37551788Y-47829800D01*
X37551788Y-47829800D02*
X37545788Y-47796800D01*
X37545788Y-47796800D02*
X37537788Y-47763800D01*
X37537788Y-47763800D02*
X37527788Y-47730800D01*
X37527788Y-47730800D02*
X37516788Y-47698800D01*
X37516788Y-47698800D02*
X37503788Y-47667800D01*
X37503788Y-47667800D02*
X37488788Y-47636800D01*
X37488788Y-47636800D02*
X37472788Y-47606800D01*
X37472788Y-47606800D02*
X37454788Y-47577800D01*
X37454788Y-47577800D02*
X37435788Y-47549800D01*
X37435788Y-47549800D02*
X37414788Y-47522800D01*
X37414788Y-47522800D02*
X37392788Y-47496800D01*
X37392788Y-47496800D02*
X37369788Y-47471800D01*
X37369788Y-47471800D02*
X37344788Y-47448800D01*
X37344788Y-47448800D02*
X37318788Y-47426800D01*
X37318788Y-47426800D02*
X37291788Y-47405800D01*
X37291788Y-47405800D02*
X37263788Y-47386800D01*
X37263788Y-47386800D02*
X37234788Y-47368800D01*
X37234788Y-47368800D02*
X37204788Y-47352800D01*
X37204788Y-47352800D02*
X37173788Y-47337800D01*
X37173788Y-47337800D02*
X37142788Y-47324800D01*
X37142788Y-47324800D02*
X37110788Y-47313800D01*
X37110788Y-47313800D02*
X37077788Y-47303800D01*
X37077788Y-47303800D02*
X37044788Y-47295800D01*
X37044788Y-47295800D02*
X37011788Y-47289800D01*
X37011788Y-47289800D02*
X36977788Y-47285800D01*
X36977788Y-47285800D02*
X36943788Y-47282800D01*
X36943788Y-47282800D02*
X36909788Y-47281800D01*
X36909788Y-47281800D02*
X36309788Y-47281800D01*
X36309788Y-47281800D02*
X36275788Y-47282800D01*
X36275788Y-47282800D02*
X36241788Y-47285800D01*
X36241788Y-47285800D02*
X36207788Y-47289800D01*
X36207788Y-47289800D02*
X36174788Y-47295800D01*
X36174788Y-47295800D02*
X36141788Y-47303800D01*
X36141788Y-47303800D02*
X36108788Y-47313800D01*
X36108788Y-47313800D02*
X36076788Y-47324800D01*
X36076788Y-47324800D02*
X36045788Y-47337800D01*
X36045788Y-47337800D02*
X36014788Y-47352800D01*
X36014788Y-47352800D02*
X35984788Y-47368800D01*
X35984788Y-47368800D02*
X35955788Y-47386800D01*
X35955788Y-47386800D02*
X35927788Y-47405800D01*
X35927788Y-47405800D02*
X35900788Y-47426800D01*
X35900788Y-47426800D02*
X35874788Y-47448800D01*
X35874788Y-47448800D02*
X35849788Y-47471800D01*
X35849788Y-47471800D02*
X35826788Y-47496800D01*
X35826788Y-47496800D02*
X35804788Y-47522800D01*
X35804788Y-47522800D02*
X35783788Y-47549800D01*
X35783788Y-47549800D02*
X35764788Y-47577800D01*
X35764788Y-47577800D02*
X35746788Y-47606800D01*
X35746788Y-47606800D02*
X35730788Y-47636800D01*
X35730788Y-47636800D02*
X35715788Y-47667800D01*
X35715788Y-47667800D02*
X35702788Y-47698800D01*
X35702788Y-47698800D02*
X35691788Y-47730800D01*
X35691788Y-47730800D02*
X35681788Y-47763800D01*
X35681788Y-47763800D02*
X35673788Y-47796800D01*
X35673788Y-47796800D02*
X35667788Y-47829800D01*
X35667788Y-47829800D02*
X35663788Y-47863800D01*
X35663788Y-47863800D02*
X35660788Y-47897800D01*
X35660788Y-47897800D02*
X35659788Y-47931800D01*
X35659788Y-47931800D02*
X35660788Y-47965800D01*
X35660788Y-47965800D02*
X35663788Y-47999800D01*
X35663788Y-47999800D02*
X35667788Y-48033800D01*
X35667788Y-48033800D02*
X35673788Y-48066800D01*
X35673788Y-48066800D02*
X35681788Y-48099800D01*
X35681788Y-48099800D02*
X35691788Y-48132800D01*
X35691788Y-48132800D02*
X35702788Y-48164800D01*
X35702788Y-48164800D02*
X35715788Y-48195800D01*
X35715788Y-48195800D02*
X35730788Y-48226800D01*
X35730788Y-48226800D02*
X35746788Y-48256800D01*
X35746788Y-48256800D02*
X35764788Y-48285800D01*
X35764788Y-48285800D02*
X35783788Y-48313800D01*
X35783788Y-48313800D02*
X35804788Y-48340800D01*
X35804788Y-48340800D02*
X35826788Y-48366800D01*
X35826788Y-48366800D02*
X35849788Y-48391800D01*
X35849788Y-48391800D02*
X35874788Y-48414800D01*
X35874788Y-48414800D02*
X35900788Y-48436800D01*
X35900788Y-48436800D02*
X35927788Y-48457800D01*
X35927788Y-48457800D02*
X35955788Y-48476800D01*
X35955788Y-48476800D02*
X35984788Y-48494800D01*
X35984788Y-48494800D02*
X36014788Y-48510800D01*
X36014788Y-48510800D02*
X36045788Y-48525800D01*
X36045788Y-48525800D02*
X36076788Y-48538800D01*
X36076788Y-48538800D02*
X36108788Y-48549800D01*
X36108788Y-48549800D02*
X36141788Y-48559800D01*
X36141788Y-48559800D02*
X36174788Y-48567800D01*
X36174788Y-48567800D02*
X36207788Y-48573800D01*
X36207788Y-48573800D02*
X36241788Y-48577800D01*
X36241788Y-48577800D02*
X36275788Y-48580800D01*
X36275788Y-48580800D02*
X36309788Y-48581800D01*
X36309788Y-48581800D02*
X36909788Y-48581800D01*
X36909788Y-48581800D02*
X36943788Y-48580800D01*
X36943788Y-48580800D02*
X36977788Y-48577800D01*
X36977788Y-48577800D02*
X37011788Y-48573800D01*
X37011788Y-48573800D02*
X37044788Y-48567800D01*
X37044788Y-48567800D02*
X37077788Y-48559800D01*
X37077788Y-48559800D02*
X37110788Y-48549800D01*
X37110788Y-48549800D02*
X37142788Y-48538800D01*
X37142788Y-48538800D02*
X37173788Y-48525800D01*
X37173788Y-48525800D02*
X37204788Y-48510800D01*
X37204788Y-48510800D02*
X37234788Y-48494800D01*
X37234788Y-48494800D02*
X37263788Y-48476800D01*
X37263788Y-48476800D02*
X37291788Y-48457800D01*
X37291788Y-48457800D02*
X37318788Y-48436800D01*
X37318788Y-48436800D02*
X37344788Y-48414800D01*
X37344788Y-48414800D02*
X37369788Y-48391800D01*
X37369788Y-48391800D02*
X37392788Y-48366800D01*
X37392788Y-48366800D02*
X37414788Y-48340800D01*
X37414788Y-48340800D02*
X37435788Y-48313800D01*
X37435788Y-48313800D02*
X37454788Y-48285800D01*
X37454788Y-48285800D02*
X37472788Y-48256800D01*
X37472788Y-48256800D02*
X37488788Y-48226800D01*
X37488788Y-48226800D02*
X37503788Y-48195800D01*
X37503788Y-48195800D02*
X37516788Y-48164800D01*
X37516788Y-48164800D02*
X37527788Y-48132800D01*
X37527788Y-48132800D02*
X37537788Y-48099800D01*
X37537788Y-48099800D02*
X37545788Y-48066800D01*
X37545788Y-48066800D02*
X37551788Y-48033800D01*
X37551788Y-48033800D02*
X37555788Y-47999800D01*
X37555788Y-47999800D02*
X37558788Y-47965800D01*
X37558788Y-47965800D02*
X37559788Y-47931800D01*
X37559788Y-47931800D02*
X37559788Y-47931800D01*
G36*
X36943788Y-47282800D02*
G01*
X36977788Y-47285800D01*
X37011788Y-47289800D01*
X37044788Y-47295800D01*
X37077788Y-47303800D01*
X37110788Y-47313800D01*
X37142788Y-47324800D01*
X37173788Y-47337800D01*
X37204788Y-47352800D01*
X37234788Y-47368800D01*
X37263788Y-47386800D01*
X37291788Y-47405800D01*
X37318788Y-47426800D01*
X37344788Y-47448800D01*
X37369788Y-47471800D01*
X37392788Y-47496800D01*
X37414788Y-47522800D01*
X37435788Y-47549800D01*
X37454788Y-47577800D01*
X37472788Y-47606800D01*
X37488788Y-47636800D01*
X37503788Y-47667800D01*
X37516788Y-47698800D01*
X37527788Y-47730800D01*
X37537788Y-47763800D01*
X37545788Y-47796800D01*
X37551788Y-47829800D01*
X37555788Y-47863800D01*
X37558788Y-47897800D01*
X37559788Y-47931800D01*
X37558788Y-47965800D01*
X37555788Y-47999800D01*
X37551788Y-48033800D01*
X37545788Y-48066800D01*
X37537788Y-48099800D01*
X37527788Y-48132800D01*
X37516788Y-48164800D01*
X37503788Y-48195800D01*
X37488788Y-48226800D01*
X37472788Y-48256800D01*
X37454788Y-48285800D01*
X37435788Y-48313800D01*
X37414788Y-48340800D01*
X37392788Y-48366800D01*
X37369788Y-48391800D01*
X37344788Y-48414800D01*
X37318788Y-48436800D01*
X37291788Y-48457800D01*
X37263788Y-48476800D01*
X37234788Y-48494800D01*
X37204788Y-48510800D01*
X37173788Y-48525800D01*
X37142788Y-48538800D01*
X37110788Y-48549800D01*
X37077788Y-48559800D01*
X37044788Y-48567800D01*
X37011788Y-48573800D01*
X36977788Y-48577800D01*
X36943788Y-48580800D01*
X36909788Y-48581800D01*
X36309788Y-48581800D01*
X36275788Y-48580800D01*
X36241788Y-48577800D01*
X36207788Y-48573800D01*
X36174788Y-48567800D01*
X36141788Y-48559800D01*
X36108788Y-48549800D01*
X36076788Y-48538800D01*
X36045788Y-48525800D01*
X36014788Y-48510800D01*
X35984788Y-48494800D01*
X35955788Y-48476800D01*
X35927788Y-48457800D01*
X35900788Y-48436800D01*
X35874788Y-48414800D01*
X35849788Y-48391800D01*
X35826788Y-48366800D01*
X35804788Y-48340800D01*
X35783788Y-48313800D01*
X35764788Y-48285800D01*
X35746788Y-48256800D01*
X35730788Y-48226800D01*
X35715788Y-48195800D01*
X35702788Y-48164800D01*
X35691788Y-48132800D01*
X35681788Y-48099800D01*
X35673788Y-48066800D01*
X35667788Y-48033800D01*
X35663788Y-47999800D01*
X35660788Y-47965800D01*
X35659788Y-47931800D01*
X35660788Y-47897800D01*
X35663788Y-47863800D01*
X35667788Y-47829800D01*
X35673788Y-47796800D01*
X35681788Y-47763800D01*
X35691788Y-47730800D01*
X35702788Y-47698800D01*
X35715788Y-47667800D01*
X35730788Y-47636800D01*
X35746788Y-47606800D01*
X35764788Y-47577800D01*
X35783788Y-47549800D01*
X35804788Y-47522800D01*
X35826788Y-47496800D01*
X35849788Y-47471800D01*
X35874788Y-47448800D01*
X35900788Y-47426800D01*
X35927788Y-47405800D01*
X35955788Y-47386800D01*
X35984788Y-47368800D01*
X36014788Y-47352800D01*
X36045788Y-47337800D01*
X36076788Y-47324800D01*
X36108788Y-47313800D01*
X36141788Y-47303800D01*
X36174788Y-47295800D01*
X36207788Y-47289800D01*
X36241788Y-47285800D01*
X36275788Y-47282800D01*
X36309788Y-47281800D01*
X36909788Y-47281800D01*
X36943788Y-47282800D01*
G37*
X36943788Y-47282800D02*
X36977788Y-47285800D01*
X37011788Y-47289800D01*
X37044788Y-47295800D01*
X37077788Y-47303800D01*
X37110788Y-47313800D01*
X37142788Y-47324800D01*
X37173788Y-47337800D01*
X37204788Y-47352800D01*
X37234788Y-47368800D01*
X37263788Y-47386800D01*
X37291788Y-47405800D01*
X37318788Y-47426800D01*
X37344788Y-47448800D01*
X37369788Y-47471800D01*
X37392788Y-47496800D01*
X37414788Y-47522800D01*
X37435788Y-47549800D01*
X37454788Y-47577800D01*
X37472788Y-47606800D01*
X37488788Y-47636800D01*
X37503788Y-47667800D01*
X37516788Y-47698800D01*
X37527788Y-47730800D01*
X37537788Y-47763800D01*
X37545788Y-47796800D01*
X37551788Y-47829800D01*
X37555788Y-47863800D01*
X37558788Y-47897800D01*
X37559788Y-47931800D01*
X37558788Y-47965800D01*
X37555788Y-47999800D01*
X37551788Y-48033800D01*
X37545788Y-48066800D01*
X37537788Y-48099800D01*
X37527788Y-48132800D01*
X37516788Y-48164800D01*
X37503788Y-48195800D01*
X37488788Y-48226800D01*
X37472788Y-48256800D01*
X37454788Y-48285800D01*
X37435788Y-48313800D01*
X37414788Y-48340800D01*
X37392788Y-48366800D01*
X37369788Y-48391800D01*
X37344788Y-48414800D01*
X37318788Y-48436800D01*
X37291788Y-48457800D01*
X37263788Y-48476800D01*
X37234788Y-48494800D01*
X37204788Y-48510800D01*
X37173788Y-48525800D01*
X37142788Y-48538800D01*
X37110788Y-48549800D01*
X37077788Y-48559800D01*
X37044788Y-48567800D01*
X37011788Y-48573800D01*
X36977788Y-48577800D01*
X36943788Y-48580800D01*
X36909788Y-48581800D01*
X36309788Y-48581800D01*
X36275788Y-48580800D01*
X36241788Y-48577800D01*
X36207788Y-48573800D01*
X36174788Y-48567800D01*
X36141788Y-48559800D01*
X36108788Y-48549800D01*
X36076788Y-48538800D01*
X36045788Y-48525800D01*
X36014788Y-48510800D01*
X35984788Y-48494800D01*
X35955788Y-48476800D01*
X35927788Y-48457800D01*
X35900788Y-48436800D01*
X35874788Y-48414800D01*
X35849788Y-48391800D01*
X35826788Y-48366800D01*
X35804788Y-48340800D01*
X35783788Y-48313800D01*
X35764788Y-48285800D01*
X35746788Y-48256800D01*
X35730788Y-48226800D01*
X35715788Y-48195800D01*
X35702788Y-48164800D01*
X35691788Y-48132800D01*
X35681788Y-48099800D01*
X35673788Y-48066800D01*
X35667788Y-48033800D01*
X35663788Y-47999800D01*
X35660788Y-47965800D01*
X35659788Y-47931800D01*
X35660788Y-47897800D01*
X35663788Y-47863800D01*
X35667788Y-47829800D01*
X35673788Y-47796800D01*
X35681788Y-47763800D01*
X35691788Y-47730800D01*
X35702788Y-47698800D01*
X35715788Y-47667800D01*
X35730788Y-47636800D01*
X35746788Y-47606800D01*
X35764788Y-47577800D01*
X35783788Y-47549800D01*
X35804788Y-47522800D01*
X35826788Y-47496800D01*
X35849788Y-47471800D01*
X35874788Y-47448800D01*
X35900788Y-47426800D01*
X35927788Y-47405800D01*
X35955788Y-47386800D01*
X35984788Y-47368800D01*
X36014788Y-47352800D01*
X36045788Y-47337800D01*
X36076788Y-47324800D01*
X36108788Y-47313800D01*
X36141788Y-47303800D01*
X36174788Y-47295800D01*
X36207788Y-47289800D01*
X36241788Y-47285800D01*
X36275788Y-47282800D01*
X36309788Y-47281800D01*
X36909788Y-47281800D01*
X36943788Y-47282800D01*
X33759788Y-39291800D02*
X33758788Y-39257800D01*
X33758788Y-39257800D02*
X33755788Y-39223800D01*
X33755788Y-39223800D02*
X33751788Y-39189800D01*
X33751788Y-39189800D02*
X33745788Y-39156800D01*
X33745788Y-39156800D02*
X33737788Y-39123800D01*
X33737788Y-39123800D02*
X33727788Y-39090800D01*
X33727788Y-39090800D02*
X33716788Y-39058800D01*
X33716788Y-39058800D02*
X33703788Y-39027800D01*
X33703788Y-39027800D02*
X33688788Y-38996800D01*
X33688788Y-38996800D02*
X33672788Y-38966800D01*
X33672788Y-38966800D02*
X33654788Y-38937800D01*
X33654788Y-38937800D02*
X33635788Y-38909800D01*
X33635788Y-38909800D02*
X33614788Y-38882800D01*
X33614788Y-38882800D02*
X33592788Y-38856800D01*
X33592788Y-38856800D02*
X33569788Y-38831800D01*
X33569788Y-38831800D02*
X33544788Y-38808800D01*
X33544788Y-38808800D02*
X33518788Y-38786800D01*
X33518788Y-38786800D02*
X33491788Y-38765800D01*
X33491788Y-38765800D02*
X33463788Y-38746800D01*
X33463788Y-38746800D02*
X33434788Y-38728800D01*
X33434788Y-38728800D02*
X33404788Y-38712800D01*
X33404788Y-38712800D02*
X33373788Y-38697800D01*
X33373788Y-38697800D02*
X33342788Y-38684800D01*
X33342788Y-38684800D02*
X33310788Y-38673800D01*
X33310788Y-38673800D02*
X33277788Y-38663800D01*
X33277788Y-38663800D02*
X33244788Y-38655800D01*
X33244788Y-38655800D02*
X33211788Y-38649800D01*
X33211788Y-38649800D02*
X33177788Y-38645800D01*
X33177788Y-38645800D02*
X33143788Y-38642800D01*
X33143788Y-38642800D02*
X33109788Y-38641800D01*
X33109788Y-38641800D02*
X32509788Y-38641800D01*
X32509788Y-38641800D02*
X32475788Y-38642800D01*
X32475788Y-38642800D02*
X32441788Y-38645800D01*
X32441788Y-38645800D02*
X32407788Y-38649800D01*
X32407788Y-38649800D02*
X32374788Y-38655800D01*
X32374788Y-38655800D02*
X32341788Y-38663800D01*
X32341788Y-38663800D02*
X32308788Y-38673800D01*
X32308788Y-38673800D02*
X32276788Y-38684800D01*
X32276788Y-38684800D02*
X32245788Y-38697800D01*
X32245788Y-38697800D02*
X32214788Y-38712800D01*
X32214788Y-38712800D02*
X32184788Y-38728800D01*
X32184788Y-38728800D02*
X32155788Y-38746800D01*
X32155788Y-38746800D02*
X32127788Y-38765800D01*
X32127788Y-38765800D02*
X32100788Y-38786800D01*
X32100788Y-38786800D02*
X32074788Y-38808800D01*
X32074788Y-38808800D02*
X32049788Y-38831800D01*
X32049788Y-38831800D02*
X32026788Y-38856800D01*
X32026788Y-38856800D02*
X32004788Y-38882800D01*
X32004788Y-38882800D02*
X31983788Y-38909800D01*
X31983788Y-38909800D02*
X31964788Y-38937800D01*
X31964788Y-38937800D02*
X31946788Y-38966800D01*
X31946788Y-38966800D02*
X31930788Y-38996800D01*
X31930788Y-38996800D02*
X31915788Y-39027800D01*
X31915788Y-39027800D02*
X31902788Y-39058800D01*
X31902788Y-39058800D02*
X31891788Y-39090800D01*
X31891788Y-39090800D02*
X31881788Y-39123800D01*
X31881788Y-39123800D02*
X31873788Y-39156800D01*
X31873788Y-39156800D02*
X31867788Y-39189800D01*
X31867788Y-39189800D02*
X31863788Y-39223800D01*
X31863788Y-39223800D02*
X31860788Y-39257800D01*
X31860788Y-39257800D02*
X31859788Y-39291800D01*
X31859788Y-39291800D02*
X31860788Y-39325800D01*
X31860788Y-39325800D02*
X31863788Y-39359800D01*
X31863788Y-39359800D02*
X31867788Y-39393800D01*
X31867788Y-39393800D02*
X31873788Y-39426800D01*
X31873788Y-39426800D02*
X31881788Y-39459800D01*
X31881788Y-39459800D02*
X31891788Y-39492800D01*
X31891788Y-39492800D02*
X31902788Y-39524800D01*
X31902788Y-39524800D02*
X31915788Y-39555800D01*
X31915788Y-39555800D02*
X31930788Y-39586800D01*
X31930788Y-39586800D02*
X31946788Y-39616800D01*
X31946788Y-39616800D02*
X31964788Y-39645800D01*
X31964788Y-39645800D02*
X31983788Y-39673800D01*
X31983788Y-39673800D02*
X32004788Y-39700800D01*
X32004788Y-39700800D02*
X32026788Y-39726800D01*
X32026788Y-39726800D02*
X32049788Y-39751800D01*
X32049788Y-39751800D02*
X32074788Y-39774800D01*
X32074788Y-39774800D02*
X32100788Y-39796800D01*
X32100788Y-39796800D02*
X32127788Y-39817800D01*
X32127788Y-39817800D02*
X32155788Y-39836800D01*
X32155788Y-39836800D02*
X32184788Y-39854800D01*
X32184788Y-39854800D02*
X32214788Y-39870800D01*
X32214788Y-39870800D02*
X32245788Y-39885800D01*
X32245788Y-39885800D02*
X32276788Y-39898800D01*
X32276788Y-39898800D02*
X32308788Y-39909800D01*
X32308788Y-39909800D02*
X32341788Y-39919800D01*
X32341788Y-39919800D02*
X32374788Y-39927800D01*
X32374788Y-39927800D02*
X32407788Y-39933800D01*
X32407788Y-39933800D02*
X32441788Y-39937800D01*
X32441788Y-39937800D02*
X32475788Y-39940800D01*
X32475788Y-39940800D02*
X32509788Y-39941800D01*
X32509788Y-39941800D02*
X33109788Y-39941800D01*
X33109788Y-39941800D02*
X33143788Y-39940800D01*
X33143788Y-39940800D02*
X33177788Y-39937800D01*
X33177788Y-39937800D02*
X33211788Y-39933800D01*
X33211788Y-39933800D02*
X33244788Y-39927800D01*
X33244788Y-39927800D02*
X33277788Y-39919800D01*
X33277788Y-39919800D02*
X33310788Y-39909800D01*
X33310788Y-39909800D02*
X33342788Y-39898800D01*
X33342788Y-39898800D02*
X33373788Y-39885800D01*
X33373788Y-39885800D02*
X33404788Y-39870800D01*
X33404788Y-39870800D02*
X33434788Y-39854800D01*
X33434788Y-39854800D02*
X33463788Y-39836800D01*
X33463788Y-39836800D02*
X33491788Y-39817800D01*
X33491788Y-39817800D02*
X33518788Y-39796800D01*
X33518788Y-39796800D02*
X33544788Y-39774800D01*
X33544788Y-39774800D02*
X33569788Y-39751800D01*
X33569788Y-39751800D02*
X33592788Y-39726800D01*
X33592788Y-39726800D02*
X33614788Y-39700800D01*
X33614788Y-39700800D02*
X33635788Y-39673800D01*
X33635788Y-39673800D02*
X33654788Y-39645800D01*
X33654788Y-39645800D02*
X33672788Y-39616800D01*
X33672788Y-39616800D02*
X33688788Y-39586800D01*
X33688788Y-39586800D02*
X33703788Y-39555800D01*
X33703788Y-39555800D02*
X33716788Y-39524800D01*
X33716788Y-39524800D02*
X33727788Y-39492800D01*
X33727788Y-39492800D02*
X33737788Y-39459800D01*
X33737788Y-39459800D02*
X33745788Y-39426800D01*
X33745788Y-39426800D02*
X33751788Y-39393800D01*
X33751788Y-39393800D02*
X33755788Y-39359800D01*
X33755788Y-39359800D02*
X33758788Y-39325800D01*
X33758788Y-39325800D02*
X33759788Y-39291800D01*
X33759788Y-39291800D02*
X33759788Y-39291800D01*
G36*
X33143788Y-38642800D02*
G01*
X33177788Y-38645800D01*
X33211788Y-38649800D01*
X33244788Y-38655800D01*
X33277788Y-38663800D01*
X33310788Y-38673800D01*
X33342788Y-38684800D01*
X33373788Y-38697800D01*
X33404788Y-38712800D01*
X33434788Y-38728800D01*
X33463788Y-38746800D01*
X33491788Y-38765800D01*
X33518788Y-38786800D01*
X33544788Y-38808800D01*
X33569788Y-38831800D01*
X33592788Y-38856800D01*
X33614788Y-38882800D01*
X33635788Y-38909800D01*
X33654788Y-38937800D01*
X33672788Y-38966800D01*
X33688788Y-38996800D01*
X33703788Y-39027800D01*
X33716788Y-39058800D01*
X33727788Y-39090800D01*
X33737788Y-39123800D01*
X33745788Y-39156800D01*
X33751788Y-39189800D01*
X33755788Y-39223800D01*
X33758788Y-39257800D01*
X33759788Y-39291800D01*
X33758788Y-39325800D01*
X33755788Y-39359800D01*
X33751788Y-39393800D01*
X33745788Y-39426800D01*
X33737788Y-39459800D01*
X33727788Y-39492800D01*
X33716788Y-39524800D01*
X33703788Y-39555800D01*
X33688788Y-39586800D01*
X33672788Y-39616800D01*
X33654788Y-39645800D01*
X33635788Y-39673800D01*
X33614788Y-39700800D01*
X33592788Y-39726800D01*
X33569788Y-39751800D01*
X33544788Y-39774800D01*
X33518788Y-39796800D01*
X33491788Y-39817800D01*
X33463788Y-39836800D01*
X33434788Y-39854800D01*
X33404788Y-39870800D01*
X33373788Y-39885800D01*
X33342788Y-39898800D01*
X33310788Y-39909800D01*
X33277788Y-39919800D01*
X33244788Y-39927800D01*
X33211788Y-39933800D01*
X33177788Y-39937800D01*
X33143788Y-39940800D01*
X33109788Y-39941800D01*
X32509788Y-39941800D01*
X32475788Y-39940800D01*
X32441788Y-39937800D01*
X32407788Y-39933800D01*
X32374788Y-39927800D01*
X32341788Y-39919800D01*
X32308788Y-39909800D01*
X32276788Y-39898800D01*
X32245788Y-39885800D01*
X32214788Y-39870800D01*
X32184788Y-39854800D01*
X32155788Y-39836800D01*
X32127788Y-39817800D01*
X32100788Y-39796800D01*
X32074788Y-39774800D01*
X32049788Y-39751800D01*
X32026788Y-39726800D01*
X32004788Y-39700800D01*
X31983788Y-39673800D01*
X31964788Y-39645800D01*
X31946788Y-39616800D01*
X31930788Y-39586800D01*
X31915788Y-39555800D01*
X31902788Y-39524800D01*
X31891788Y-39492800D01*
X31881788Y-39459800D01*
X31873788Y-39426800D01*
X31867788Y-39393800D01*
X31863788Y-39359800D01*
X31860788Y-39325800D01*
X31859788Y-39291800D01*
X31860788Y-39257800D01*
X31863788Y-39223800D01*
X31867788Y-39189800D01*
X31873788Y-39156800D01*
X31881788Y-39123800D01*
X31891788Y-39090800D01*
X31902788Y-39058800D01*
X31915788Y-39027800D01*
X31930788Y-38996800D01*
X31946788Y-38966800D01*
X31964788Y-38937800D01*
X31983788Y-38909800D01*
X32004788Y-38882800D01*
X32026788Y-38856800D01*
X32049788Y-38831800D01*
X32074788Y-38808800D01*
X32100788Y-38786800D01*
X32127788Y-38765800D01*
X32155788Y-38746800D01*
X32184788Y-38728800D01*
X32214788Y-38712800D01*
X32245788Y-38697800D01*
X32276788Y-38684800D01*
X32308788Y-38673800D01*
X32341788Y-38663800D01*
X32374788Y-38655800D01*
X32407788Y-38649800D01*
X32441788Y-38645800D01*
X32475788Y-38642800D01*
X32509788Y-38641800D01*
X33109788Y-38641800D01*
X33143788Y-38642800D01*
G37*
X33143788Y-38642800D02*
X33177788Y-38645800D01*
X33211788Y-38649800D01*
X33244788Y-38655800D01*
X33277788Y-38663800D01*
X33310788Y-38673800D01*
X33342788Y-38684800D01*
X33373788Y-38697800D01*
X33404788Y-38712800D01*
X33434788Y-38728800D01*
X33463788Y-38746800D01*
X33491788Y-38765800D01*
X33518788Y-38786800D01*
X33544788Y-38808800D01*
X33569788Y-38831800D01*
X33592788Y-38856800D01*
X33614788Y-38882800D01*
X33635788Y-38909800D01*
X33654788Y-38937800D01*
X33672788Y-38966800D01*
X33688788Y-38996800D01*
X33703788Y-39027800D01*
X33716788Y-39058800D01*
X33727788Y-39090800D01*
X33737788Y-39123800D01*
X33745788Y-39156800D01*
X33751788Y-39189800D01*
X33755788Y-39223800D01*
X33758788Y-39257800D01*
X33759788Y-39291800D01*
X33758788Y-39325800D01*
X33755788Y-39359800D01*
X33751788Y-39393800D01*
X33745788Y-39426800D01*
X33737788Y-39459800D01*
X33727788Y-39492800D01*
X33716788Y-39524800D01*
X33703788Y-39555800D01*
X33688788Y-39586800D01*
X33672788Y-39616800D01*
X33654788Y-39645800D01*
X33635788Y-39673800D01*
X33614788Y-39700800D01*
X33592788Y-39726800D01*
X33569788Y-39751800D01*
X33544788Y-39774800D01*
X33518788Y-39796800D01*
X33491788Y-39817800D01*
X33463788Y-39836800D01*
X33434788Y-39854800D01*
X33404788Y-39870800D01*
X33373788Y-39885800D01*
X33342788Y-39898800D01*
X33310788Y-39909800D01*
X33277788Y-39919800D01*
X33244788Y-39927800D01*
X33211788Y-39933800D01*
X33177788Y-39937800D01*
X33143788Y-39940800D01*
X33109788Y-39941800D01*
X32509788Y-39941800D01*
X32475788Y-39940800D01*
X32441788Y-39937800D01*
X32407788Y-39933800D01*
X32374788Y-39927800D01*
X32341788Y-39919800D01*
X32308788Y-39909800D01*
X32276788Y-39898800D01*
X32245788Y-39885800D01*
X32214788Y-39870800D01*
X32184788Y-39854800D01*
X32155788Y-39836800D01*
X32127788Y-39817800D01*
X32100788Y-39796800D01*
X32074788Y-39774800D01*
X32049788Y-39751800D01*
X32026788Y-39726800D01*
X32004788Y-39700800D01*
X31983788Y-39673800D01*
X31964788Y-39645800D01*
X31946788Y-39616800D01*
X31930788Y-39586800D01*
X31915788Y-39555800D01*
X31902788Y-39524800D01*
X31891788Y-39492800D01*
X31881788Y-39459800D01*
X31873788Y-39426800D01*
X31867788Y-39393800D01*
X31863788Y-39359800D01*
X31860788Y-39325800D01*
X31859788Y-39291800D01*
X31860788Y-39257800D01*
X31863788Y-39223800D01*
X31867788Y-39189800D01*
X31873788Y-39156800D01*
X31881788Y-39123800D01*
X31891788Y-39090800D01*
X31902788Y-39058800D01*
X31915788Y-39027800D01*
X31930788Y-38996800D01*
X31946788Y-38966800D01*
X31964788Y-38937800D01*
X31983788Y-38909800D01*
X32004788Y-38882800D01*
X32026788Y-38856800D01*
X32049788Y-38831800D01*
X32074788Y-38808800D01*
X32100788Y-38786800D01*
X32127788Y-38765800D01*
X32155788Y-38746800D01*
X32184788Y-38728800D01*
X32214788Y-38712800D01*
X32245788Y-38697800D01*
X32276788Y-38684800D01*
X32308788Y-38673800D01*
X32341788Y-38663800D01*
X32374788Y-38655800D01*
X32407788Y-38649800D01*
X32441788Y-38645800D01*
X32475788Y-38642800D01*
X32509788Y-38641800D01*
X33109788Y-38641800D01*
X33143788Y-38642800D01*
%TD*%
D11*
%TO.C,J1*%
X98602800Y-55245000D03*
D12*
X96202800Y-52845000D03*
X96202800Y-57645000D03*
X101002800Y-57645000D03*
X101002800Y-52845000D03*
%TD*%
D13*
%TO.C,J4*%
X34061400Y-66573400D03*
D14*
X34061400Y-69113400D03*
X34061400Y-71653400D03*
X34061400Y-74193400D03*
X34061400Y-76733400D03*
X34061400Y-79273400D03*
%TD*%
D13*
%TO.C,J7*%
X67244200Y-31242000D03*
D14*
X64704200Y-31242000D03*
X62164200Y-31242000D03*
%TD*%
D13*
%TO.C,BT2*%
X48077200Y-31064200D03*
D14*
X50617200Y-31064200D03*
%TD*%
D15*
%TO.C,J5*%
X100835800Y-77711600D03*
X100835800Y-69811600D03*
%TD*%
D11*
%TO.C,J3*%
X49326800Y-84099400D03*
D12*
X46926800Y-81699400D03*
X46926800Y-86499400D03*
X51726800Y-86499400D03*
X51726800Y-81699400D03*
%TD*%
D16*
%TO.C,C47*%
X58318400Y-47281800D03*
X58318400Y-48831800D03*
%TD*%
D17*
%TO.C,C32*%
X37414200Y-57493200D03*
X37414200Y-55943200D03*
%TD*%
D18*
%TO.C,C45*%
X54102000Y-47521600D03*
X54102000Y-50471600D03*
%TD*%
D17*
%TO.C,C30*%
X70281800Y-48806400D03*
X70281800Y-47256400D03*
%TD*%
%TO.C,C33*%
X61264800Y-48806400D03*
X61264800Y-47256400D03*
%TD*%
D19*
%TO.C,R43*%
X39014400Y-62978800D03*
X39014400Y-61328800D03*
%TD*%
D18*
%TO.C,C46*%
X56438800Y-47445400D03*
X56438800Y-50395400D03*
%TD*%
D19*
%TO.C,R26*%
X73914000Y-36867600D03*
X73914000Y-35217600D03*
%TD*%
D17*
%TO.C,C31*%
X38938200Y-52311600D03*
X38938200Y-50761600D03*
%TD*%
D20*
%TO.C,C24*%
X56197200Y-71272400D03*
X57747200Y-71272400D03*
%TD*%
D21*
%TO.C,C21*%
X86982600Y-72186800D03*
X85432600Y-72186800D03*
%TD*%
D20*
%TO.C,C14*%
X72072200Y-49987200D03*
X73622200Y-49987200D03*
%TD*%
%TO.C,C26*%
X57594200Y-75920600D03*
X59144200Y-75920600D03*
%TD*%
%TO.C,C22*%
X56171800Y-72796400D03*
X57721800Y-72796400D03*
%TD*%
D22*
%TO.C,R2*%
X40790500Y-56108600D03*
X38965500Y-56108600D03*
%TD*%
D23*
%TO.C,D4*%
X83098400Y-73076000D03*
X82448400Y-73076000D03*
X81798400Y-73076000D03*
X81798400Y-71196000D03*
X83098400Y-71196000D03*
%TD*%
D16*
%TO.C,C48*%
X59791600Y-47281800D03*
X59791600Y-48831800D03*
%TD*%
D24*
%TO.C,IC1*%
X68498000Y-46177200D03*
X68498000Y-47447200D03*
X68498000Y-48717200D03*
X68498000Y-49987200D03*
X63074000Y-49987200D03*
X63074000Y-48717200D03*
X63074000Y-47447200D03*
X63074000Y-46177200D03*
%TD*%
D25*
%TO.C,R49*%
X52120800Y-47384200D03*
X52120800Y-49034200D03*
%TD*%
D26*
%TO.C,C29*%
X32867600Y-50256400D03*
X32867600Y-52156400D03*
%TD*%
D27*
%TO.C,PS1*%
X34802200Y-54257100D03*
D28*
X34791800Y-53340000D03*
D29*
X34776800Y-52422900D03*
X37206800Y-52422900D03*
X37206800Y-54257100D03*
%TD*%
D16*
%TO.C,C4*%
X65125600Y-56324200D03*
X65125600Y-57874200D03*
%TD*%
D19*
%TO.C,R44*%
X32969200Y-62928000D03*
X32969200Y-61278000D03*
%TD*%
%TO.C,R45*%
X35941000Y-62928000D03*
X35941000Y-61278000D03*
%TD*%
D21*
%TO.C,C15*%
X72555400Y-56769000D03*
X71005400Y-56769000D03*
%TD*%
D30*
%TO.C,R51*%
X52234600Y-50469800D03*
X50584600Y-50469800D03*
%TD*%
D19*
%TO.C,R27*%
X72618600Y-40753800D03*
X72618600Y-39103800D03*
%TD*%
M02*
