%TF.GenerationSoftware,KiCad,Pcbnew,(6.0.2)*%
%TF.CreationDate,2022-09-17T14:06:50-08:00*%
%TF.ProjectId,HERTZ200,48455254-5a32-4303-902e-6b696361645f,VERSION 1*%
%TF.SameCoordinates,Original*%
%TF.FileFunction,Paste,Bot*%
%TF.FilePolarity,Positive*%
%FSLAX46Y46*%
G04 Gerber Fmt 4.6, Leading zero omitted, Abs format (unit mm)*
G04 Created by KiCad (PCBNEW (6.0.2)) date 2022-09-17 14:06:50*
%MOMM*%
%LPD*%
G01*
G04 APERTURE LIST*
G04 Aperture macros list*
%AMRoundRect*
0 Rectangle with rounded corners*
0 $1 Rounding radius*
0 $2 $3 $4 $5 $6 $7 $8 $9 X,Y pos of 4 corners*
0 Add a 4 corners polygon primitive as box body*
4,1,4,$2,$3,$4,$5,$6,$7,$8,$9,$2,$3,0*
0 Add four circle primitives for the rounded corners*
1,1,$1+$1,$2,$3*
1,1,$1+$1,$4,$5*
1,1,$1+$1,$6,$7*
1,1,$1+$1,$8,$9*
0 Add four rect primitives between the rounded corners*
20,1,$1+$1,$2,$3,$4,$5,0*
20,1,$1+$1,$4,$5,$6,$7,0*
20,1,$1+$1,$6,$7,$8,$9,0*
20,1,$1+$1,$8,$9,$2,$3,0*%
G04 Aperture macros list end*
%ADD10RoundRect,0.225000X-0.250000X0.225000X-0.250000X-0.225000X0.250000X-0.225000X0.250000X0.225000X0*%
%ADD11RoundRect,0.225000X0.250000X-0.225000X0.250000X0.225000X-0.250000X0.225000X-0.250000X-0.225000X0*%
%ADD12RoundRect,0.250000X-0.650000X0.325000X-0.650000X-0.325000X0.650000X-0.325000X0.650000X0.325000X0*%
%ADD13RoundRect,0.200000X0.275000X-0.200000X0.275000X0.200000X-0.275000X0.200000X-0.275000X-0.200000X0*%
%ADD14RoundRect,0.225000X-0.225000X-0.250000X0.225000X-0.250000X0.225000X0.250000X-0.225000X0.250000X0*%
%ADD15RoundRect,0.225000X0.225000X0.250000X-0.225000X0.250000X-0.225000X-0.250000X0.225000X-0.250000X0*%
%ADD16RoundRect,0.250000X0.262500X0.450000X-0.262500X0.450000X-0.262500X-0.450000X0.262500X-0.450000X0*%
%ADD17R,0.400000X1.230000*%
%ADD18R,1.525000X0.700000*%
%ADD19RoundRect,0.200000X-0.275000X0.200000X-0.275000X-0.200000X0.275000X-0.200000X0.275000X0.200000X0*%
%ADD20RoundRect,0.250000X-0.475000X0.250000X-0.475000X-0.250000X0.475000X-0.250000X0.475000X0.250000X0*%
%ADD21R,1.329200X0.665800*%
%ADD22R,1.350000X0.600000*%
%ADD23R,1.380000X0.665800*%
%ADD24RoundRect,0.200000X0.200000X0.275000X-0.200000X0.275000X-0.200000X-0.275000X0.200000X-0.275000X0*%
G04 APERTURE END LIST*
D10*
%TO.C,C47*%
X58318400Y-47281800D03*
X58318400Y-48831800D03*
%TD*%
D11*
%TO.C,C32*%
X37414200Y-57493200D03*
X37414200Y-55943200D03*
%TD*%
D12*
%TO.C,C45*%
X54102000Y-47521600D03*
X54102000Y-50471600D03*
%TD*%
D11*
%TO.C,C30*%
X70281800Y-48806400D03*
X70281800Y-47256400D03*
%TD*%
%TO.C,C33*%
X61264800Y-48806400D03*
X61264800Y-47256400D03*
%TD*%
D13*
%TO.C,R43*%
X39014400Y-62978800D03*
X39014400Y-61328800D03*
%TD*%
D12*
%TO.C,C46*%
X56438800Y-47445400D03*
X56438800Y-50395400D03*
%TD*%
D13*
%TO.C,R26*%
X73914000Y-36867600D03*
X73914000Y-35217600D03*
%TD*%
D11*
%TO.C,C31*%
X38938200Y-52311600D03*
X38938200Y-50761600D03*
%TD*%
D14*
%TO.C,C24*%
X56197200Y-71272400D03*
X57747200Y-71272400D03*
%TD*%
D15*
%TO.C,C21*%
X86982600Y-72186800D03*
X85432600Y-72186800D03*
%TD*%
D14*
%TO.C,C14*%
X72072200Y-49987200D03*
X73622200Y-49987200D03*
%TD*%
%TO.C,C26*%
X57594200Y-75920600D03*
X59144200Y-75920600D03*
%TD*%
%TO.C,C22*%
X56171800Y-72796400D03*
X57721800Y-72796400D03*
%TD*%
D16*
%TO.C,R2*%
X40790500Y-56108600D03*
X38965500Y-56108600D03*
%TD*%
D17*
%TO.C,D4*%
X83098400Y-73076000D03*
X82448400Y-73076000D03*
X81798400Y-73076000D03*
X81798400Y-71196000D03*
X83098400Y-71196000D03*
%TD*%
D10*
%TO.C,C48*%
X59791600Y-47281800D03*
X59791600Y-48831800D03*
%TD*%
D18*
%TO.C,IC1*%
X68498000Y-46177200D03*
X68498000Y-47447200D03*
X68498000Y-48717200D03*
X68498000Y-49987200D03*
X63074000Y-49987200D03*
X63074000Y-48717200D03*
X63074000Y-47447200D03*
X63074000Y-46177200D03*
%TD*%
D19*
%TO.C,R49*%
X52120800Y-47384200D03*
X52120800Y-49034200D03*
%TD*%
D20*
%TO.C,C29*%
X32867600Y-50256400D03*
X32867600Y-52156400D03*
%TD*%
D21*
%TO.C,PS1*%
X34802200Y-54257100D03*
D22*
X34791800Y-53340000D03*
D23*
X34776800Y-52422900D03*
X37206800Y-52422900D03*
X37206800Y-54257100D03*
%TD*%
D10*
%TO.C,C4*%
X65125600Y-56324200D03*
X65125600Y-57874200D03*
%TD*%
D13*
%TO.C,R44*%
X32969200Y-62928000D03*
X32969200Y-61278000D03*
%TD*%
%TO.C,R45*%
X35941000Y-62928000D03*
X35941000Y-61278000D03*
%TD*%
D15*
%TO.C,C15*%
X72555400Y-56769000D03*
X71005400Y-56769000D03*
%TD*%
D24*
%TO.C,R51*%
X52234600Y-50469800D03*
X50584600Y-50469800D03*
%TD*%
D13*
%TO.C,R27*%
X72618600Y-40753800D03*
X72618600Y-39103800D03*
%TD*%
M02*
