%TF.GenerationSoftware,KiCad,Pcbnew,(6.0.2)*%
%TF.CreationDate,2022-09-17T14:06:51-08:00*%
%TF.ProjectId,HERTZ200,48455254-5a32-4303-902e-6b696361645f,VERSION 1*%
%TF.SameCoordinates,Original*%
%TF.FileFunction,Legend,Top*%
%TF.FilePolarity,Positive*%
%FSLAX46Y46*%
G04 Gerber Fmt 4.6, Leading zero omitted, Abs format (unit mm)*
G04 Created by KiCad (PCBNEW (6.0.2)) date 2022-09-17 14:06:51*
%MOMM*%
%LPD*%
G01*
G04 APERTURE LIST*
%ADD10C,0.100000*%
%ADD11C,0.120000*%
%ADD12C,0.125000*%
%ADD13C,0.130000*%
%ADD14C,0.300000*%
%ADD15C,0.150000*%
%ADD16C,0.254000*%
%ADD17C,0.127000*%
%ADD18C,0.200000*%
%ADD19C,0.250000*%
G04 APERTURE END LIST*
D10*
X35347333Y-75390352D02*
X35347333Y-74990352D01*
X35499714Y-74990352D01*
X35537809Y-75009400D01*
X35556857Y-75028447D01*
X35575904Y-75066542D01*
X35575904Y-75123685D01*
X35556857Y-75161780D01*
X35537809Y-75180828D01*
X35499714Y-75199876D01*
X35347333Y-75199876D01*
X35728285Y-75276066D02*
X35918761Y-75276066D01*
X35690190Y-75390352D02*
X35823523Y-74990352D01*
X35956857Y-75390352D01*
X36261619Y-75123685D02*
X36261619Y-75390352D01*
X36166380Y-74971304D02*
X36071142Y-75257019D01*
X36318761Y-75257019D01*
X35585438Y-69853200D02*
X35547342Y-69834152D01*
X35490200Y-69834152D01*
X35433057Y-69853200D01*
X35394961Y-69891295D01*
X35375914Y-69929390D01*
X35356866Y-70005580D01*
X35356866Y-70062723D01*
X35375914Y-70138914D01*
X35394961Y-70177009D01*
X35433057Y-70215104D01*
X35490200Y-70234152D01*
X35528295Y-70234152D01*
X35585438Y-70215104D01*
X35604485Y-70196057D01*
X35604485Y-70062723D01*
X35528295Y-70062723D01*
X35775914Y-70234152D02*
X35775914Y-69834152D01*
X36004485Y-70234152D01*
X36004485Y-69834152D01*
X36194961Y-70234152D02*
X36194961Y-69834152D01*
X36290200Y-69834152D01*
X36347342Y-69853200D01*
X36385438Y-69891295D01*
X36404485Y-69929390D01*
X36423533Y-70005580D01*
X36423533Y-70062723D01*
X36404485Y-70138914D01*
X36385438Y-70177009D01*
X36347342Y-70215104D01*
X36290200Y-70234152D01*
X36194961Y-70234152D01*
D11*
X34570171Y-65482742D02*
X34593980Y-65506552D01*
X34617790Y-65577980D01*
X34617790Y-65625600D01*
X34593980Y-65697028D01*
X34546361Y-65744647D01*
X34498742Y-65768457D01*
X34403504Y-65792266D01*
X34332076Y-65792266D01*
X34236838Y-65768457D01*
X34189219Y-65744647D01*
X34141600Y-65697028D01*
X34117790Y-65625600D01*
X34117790Y-65577980D01*
X34141600Y-65506552D01*
X34165409Y-65482742D01*
X34617790Y-65268457D02*
X34117790Y-65268457D01*
X34355885Y-65268457D02*
X34355885Y-64982742D01*
X34617790Y-64982742D02*
X34117790Y-64982742D01*
X34141600Y-64482742D02*
X34117790Y-64530361D01*
X34117790Y-64601790D01*
X34141600Y-64673219D01*
X34189219Y-64720838D01*
X34236838Y-64744647D01*
X34332076Y-64768457D01*
X34403504Y-64768457D01*
X34498742Y-64744647D01*
X34546361Y-64720838D01*
X34593980Y-64673219D01*
X34617790Y-64601790D01*
X34617790Y-64554171D01*
X34593980Y-64482742D01*
X34570171Y-64458933D01*
X34403504Y-64458933D01*
X34403504Y-64554171D01*
X37497533Y-65981152D02*
X37497533Y-65743057D01*
X37640390Y-66028771D02*
X37140390Y-65862104D01*
X37640390Y-65695438D01*
X37592771Y-65243057D02*
X37616580Y-65266866D01*
X37640390Y-65338295D01*
X37640390Y-65385914D01*
X37616580Y-65457342D01*
X37568961Y-65504961D01*
X37521342Y-65528771D01*
X37426104Y-65552580D01*
X37354676Y-65552580D01*
X37259438Y-65528771D01*
X37211819Y-65504961D01*
X37164200Y-65457342D01*
X37140390Y-65385914D01*
X37140390Y-65338295D01*
X37164200Y-65266866D01*
X37188009Y-65243057D01*
X37140390Y-64933533D02*
X37140390Y-64838295D01*
X37164200Y-64790676D01*
X37211819Y-64743057D01*
X37307057Y-64719247D01*
X37473723Y-64719247D01*
X37568961Y-64743057D01*
X37616580Y-64790676D01*
X37640390Y-64838295D01*
X37640390Y-64933533D01*
X37616580Y-64981152D01*
X37568961Y-65028771D01*
X37473723Y-65052580D01*
X37307057Y-65052580D01*
X37211819Y-65028771D01*
X37164200Y-64981152D01*
X37140390Y-64933533D01*
X37640390Y-64504961D02*
X37140390Y-64504961D01*
X37640390Y-64219247D02*
X37354676Y-64433533D01*
X37140390Y-64219247D02*
X37426104Y-64504961D01*
D10*
X40767038Y-85296400D02*
X40728942Y-85277352D01*
X40671800Y-85277352D01*
X40614657Y-85296400D01*
X40576561Y-85334495D01*
X40557514Y-85372590D01*
X40538466Y-85448780D01*
X40538466Y-85505923D01*
X40557514Y-85582114D01*
X40576561Y-85620209D01*
X40614657Y-85658304D01*
X40671800Y-85677352D01*
X40709895Y-85677352D01*
X40767038Y-85658304D01*
X40786085Y-85639257D01*
X40786085Y-85505923D01*
X40709895Y-85505923D01*
X40957514Y-85677352D02*
X40957514Y-85277352D01*
X41186085Y-85677352D01*
X41186085Y-85277352D01*
X41376561Y-85677352D02*
X41376561Y-85277352D01*
X41471800Y-85277352D01*
X41528942Y-85296400D01*
X41567038Y-85334495D01*
X41586085Y-85372590D01*
X41605133Y-85448780D01*
X41605133Y-85505923D01*
X41586085Y-85582114D01*
X41567038Y-85620209D01*
X41528942Y-85658304D01*
X41471800Y-85677352D01*
X41376561Y-85677352D01*
X35372733Y-80419552D02*
X35372733Y-80019552D01*
X35525114Y-80019552D01*
X35563209Y-80038600D01*
X35582257Y-80057647D01*
X35601304Y-80095742D01*
X35601304Y-80152885D01*
X35582257Y-80190980D01*
X35563209Y-80210028D01*
X35525114Y-80229076D01*
X35372733Y-80229076D01*
X35753685Y-80305266D02*
X35944161Y-80305266D01*
X35715590Y-80419552D02*
X35848923Y-80019552D01*
X35982257Y-80419552D01*
X36287019Y-80019552D02*
X36210828Y-80019552D01*
X36172733Y-80038600D01*
X36153685Y-80057647D01*
X36115590Y-80114790D01*
X36096542Y-80190980D01*
X36096542Y-80343361D01*
X36115590Y-80381457D01*
X36134638Y-80400504D01*
X36172733Y-80419552D01*
X36248923Y-80419552D01*
X36287019Y-80400504D01*
X36306066Y-80381457D01*
X36325114Y-80343361D01*
X36325114Y-80248123D01*
X36306066Y-80210028D01*
X36287019Y-80190980D01*
X36248923Y-80171933D01*
X36172733Y-80171933D01*
X36134638Y-80190980D01*
X36115590Y-80210028D01*
X36096542Y-80248123D01*
D11*
X40350285Y-66194666D02*
X40374095Y-66123238D01*
X40397904Y-66099428D01*
X40445523Y-66075619D01*
X40516952Y-66075619D01*
X40564571Y-66099428D01*
X40588380Y-66123238D01*
X40612190Y-66170857D01*
X40612190Y-66361333D01*
X40112190Y-66361333D01*
X40112190Y-66194666D01*
X40136000Y-66147047D01*
X40159809Y-66123238D01*
X40207428Y-66099428D01*
X40255047Y-66099428D01*
X40302666Y-66123238D01*
X40326476Y-66147047D01*
X40350285Y-66194666D01*
X40350285Y-66361333D01*
X40112190Y-65766095D02*
X40112190Y-65670857D01*
X40136000Y-65623238D01*
X40183619Y-65575619D01*
X40278857Y-65551809D01*
X40445523Y-65551809D01*
X40540761Y-65575619D01*
X40588380Y-65623238D01*
X40612190Y-65670857D01*
X40612190Y-65766095D01*
X40588380Y-65813714D01*
X40540761Y-65861333D01*
X40445523Y-65885142D01*
X40278857Y-65885142D01*
X40183619Y-65861333D01*
X40136000Y-65813714D01*
X40112190Y-65766095D01*
X40112190Y-65242285D02*
X40112190Y-65147047D01*
X40136000Y-65099428D01*
X40183619Y-65051809D01*
X40278857Y-65028000D01*
X40445523Y-65028000D01*
X40540761Y-65051809D01*
X40588380Y-65099428D01*
X40612190Y-65147047D01*
X40612190Y-65242285D01*
X40588380Y-65289904D01*
X40540761Y-65337523D01*
X40445523Y-65361333D01*
X40278857Y-65361333D01*
X40183619Y-65337523D01*
X40136000Y-65289904D01*
X40112190Y-65242285D01*
X40588380Y-64837523D02*
X40612190Y-64766095D01*
X40612190Y-64647047D01*
X40588380Y-64599428D01*
X40564571Y-64575619D01*
X40516952Y-64551809D01*
X40469333Y-64551809D01*
X40421714Y-64575619D01*
X40397904Y-64599428D01*
X40374095Y-64647047D01*
X40350285Y-64742285D01*
X40326476Y-64789904D01*
X40302666Y-64813714D01*
X40255047Y-64837523D01*
X40207428Y-64837523D01*
X40159809Y-64813714D01*
X40136000Y-64789904D01*
X40112190Y-64742285D01*
X40112190Y-64623238D01*
X40136000Y-64551809D01*
X40112190Y-64408952D02*
X40112190Y-64123238D01*
X40612190Y-64266095D02*
X40112190Y-64266095D01*
D10*
X35248923Y-72526552D02*
X35496542Y-72526552D01*
X35363209Y-72678933D01*
X35420352Y-72678933D01*
X35458447Y-72697980D01*
X35477495Y-72717028D01*
X35496542Y-72755123D01*
X35496542Y-72850361D01*
X35477495Y-72888457D01*
X35458447Y-72907504D01*
X35420352Y-72926552D01*
X35306066Y-72926552D01*
X35267971Y-72907504D01*
X35248923Y-72888457D01*
X35667971Y-72888457D02*
X35687019Y-72907504D01*
X35667971Y-72926552D01*
X35648923Y-72907504D01*
X35667971Y-72888457D01*
X35667971Y-72926552D01*
X35820352Y-72526552D02*
X36067971Y-72526552D01*
X35934638Y-72678933D01*
X35991780Y-72678933D01*
X36029876Y-72697980D01*
X36048923Y-72717028D01*
X36067971Y-72755123D01*
X36067971Y-72850361D01*
X36048923Y-72888457D01*
X36029876Y-72907504D01*
X35991780Y-72926552D01*
X35877495Y-72926552D01*
X35839400Y-72907504D01*
X35820352Y-72888457D01*
X36182257Y-72526552D02*
X36315590Y-72926552D01*
X36448923Y-72526552D01*
X35318761Y-82527752D02*
X35318761Y-82127752D01*
X35471142Y-82127752D01*
X35509238Y-82146800D01*
X35528285Y-82165847D01*
X35547333Y-82203942D01*
X35547333Y-82261085D01*
X35528285Y-82299180D01*
X35509238Y-82318228D01*
X35471142Y-82337276D01*
X35318761Y-82337276D01*
X35852095Y-82318228D02*
X35909238Y-82337276D01*
X35928285Y-82356323D01*
X35947333Y-82394419D01*
X35947333Y-82451561D01*
X35928285Y-82489657D01*
X35909238Y-82508704D01*
X35871142Y-82527752D01*
X35718761Y-82527752D01*
X35718761Y-82127752D01*
X35852095Y-82127752D01*
X35890190Y-82146800D01*
X35909238Y-82165847D01*
X35928285Y-82203942D01*
X35928285Y-82242038D01*
X35909238Y-82280133D01*
X35890190Y-82299180D01*
X35852095Y-82318228D01*
X35718761Y-82318228D01*
X36194952Y-82127752D02*
X36233047Y-82127752D01*
X36271142Y-82146800D01*
X36290190Y-82165847D01*
X36309238Y-82203942D01*
X36328285Y-82280133D01*
X36328285Y-82375371D01*
X36309238Y-82451561D01*
X36290190Y-82489657D01*
X36271142Y-82508704D01*
X36233047Y-82527752D01*
X36194952Y-82527752D01*
X36156857Y-82508704D01*
X36137809Y-82489657D01*
X36118761Y-82451561D01*
X36099714Y-82375371D01*
X36099714Y-82280133D01*
X36118761Y-82203942D01*
X36137809Y-82165847D01*
X36156857Y-82146800D01*
X36194952Y-82127752D01*
X35372733Y-77854152D02*
X35372733Y-77454152D01*
X35525114Y-77454152D01*
X35563209Y-77473200D01*
X35582257Y-77492247D01*
X35601304Y-77530342D01*
X35601304Y-77587485D01*
X35582257Y-77625580D01*
X35563209Y-77644628D01*
X35525114Y-77663676D01*
X35372733Y-77663676D01*
X35753685Y-77739866D02*
X35944161Y-77739866D01*
X35715590Y-77854152D02*
X35848923Y-77454152D01*
X35982257Y-77854152D01*
X36306066Y-77454152D02*
X36115590Y-77454152D01*
X36096542Y-77644628D01*
X36115590Y-77625580D01*
X36153685Y-77606533D01*
X36248923Y-77606533D01*
X36287019Y-77625580D01*
X36306066Y-77644628D01*
X36325114Y-77682723D01*
X36325114Y-77777961D01*
X36306066Y-77816057D01*
X36287019Y-77835104D01*
X36248923Y-77854152D01*
X36153685Y-77854152D01*
X36115590Y-77835104D01*
X36096542Y-77816057D01*
D12*
X69932704Y-37057780D02*
X70004133Y-37081590D01*
X70123180Y-37081590D01*
X70170800Y-37057780D01*
X70194609Y-37033971D01*
X70218419Y-36986352D01*
X70218419Y-36938733D01*
X70194609Y-36891114D01*
X70170800Y-36867304D01*
X70123180Y-36843495D01*
X70027942Y-36819685D01*
X69980323Y-36795876D01*
X69956514Y-36772066D01*
X69932704Y-36724447D01*
X69932704Y-36676828D01*
X69956514Y-36629209D01*
X69980323Y-36605400D01*
X70027942Y-36581590D01*
X70146990Y-36581590D01*
X70218419Y-36605400D01*
X70361276Y-36581590D02*
X70646990Y-36581590D01*
X70504133Y-37081590D02*
X70504133Y-36581590D01*
X70789847Y-36938733D02*
X71027942Y-36938733D01*
X70742228Y-37081590D02*
X70908895Y-36581590D01*
X71075561Y-37081590D01*
X71170800Y-36581590D02*
X71456514Y-36581590D01*
X71313657Y-37081590D02*
X71313657Y-36581590D01*
X71623180Y-36581590D02*
X71623180Y-36986352D01*
X71646990Y-37033971D01*
X71670800Y-37057780D01*
X71718419Y-37081590D01*
X71813657Y-37081590D01*
X71861276Y-37057780D01*
X71885085Y-37033971D01*
X71908895Y-36986352D01*
X71908895Y-36581590D01*
X72123180Y-37057780D02*
X72194609Y-37081590D01*
X72313657Y-37081590D01*
X72361276Y-37057780D01*
X72385085Y-37033971D01*
X72408895Y-36986352D01*
X72408895Y-36938733D01*
X72385085Y-36891114D01*
X72361276Y-36867304D01*
X72313657Y-36843495D01*
X72218419Y-36819685D01*
X72170800Y-36795876D01*
X72146990Y-36772066D01*
X72123180Y-36724447D01*
X72123180Y-36676828D01*
X72146990Y-36629209D01*
X72170800Y-36605400D01*
X72218419Y-36581590D01*
X72337466Y-36581590D01*
X72408895Y-36605400D01*
D10*
X60955323Y-33273180D02*
X61026752Y-33296990D01*
X61145800Y-33296990D01*
X61193419Y-33273180D01*
X61217228Y-33249371D01*
X61241038Y-33201752D01*
X61241038Y-33154133D01*
X61217228Y-33106514D01*
X61193419Y-33082704D01*
X61145800Y-33058895D01*
X61050561Y-33035085D01*
X61002942Y-33011276D01*
X60979133Y-32987466D01*
X60955323Y-32939847D01*
X60955323Y-32892228D01*
X60979133Y-32844609D01*
X61002942Y-32820800D01*
X61050561Y-32796990D01*
X61169609Y-32796990D01*
X61241038Y-32820800D01*
X61407704Y-32796990D02*
X61526752Y-33296990D01*
X61621990Y-32939847D01*
X61717228Y-33296990D01*
X61836276Y-32796990D01*
X62121990Y-32796990D02*
X62217228Y-32796990D01*
X62264847Y-32820800D01*
X62312466Y-32868419D01*
X62336276Y-32963657D01*
X62336276Y-33130323D01*
X62312466Y-33225561D01*
X62264847Y-33273180D01*
X62217228Y-33296990D01*
X62121990Y-33296990D01*
X62074371Y-33273180D01*
X62026752Y-33225561D01*
X62002942Y-33130323D01*
X62002942Y-32963657D01*
X62026752Y-32868419D01*
X62074371Y-32820800D01*
X62121990Y-32796990D01*
X63258047Y-33298580D02*
X63329476Y-33322390D01*
X63448523Y-33322390D01*
X63496142Y-33298580D01*
X63519952Y-33274771D01*
X63543761Y-33227152D01*
X63543761Y-33179533D01*
X63519952Y-33131914D01*
X63496142Y-33108104D01*
X63448523Y-33084295D01*
X63353285Y-33060485D01*
X63305666Y-33036676D01*
X63281857Y-33012866D01*
X63258047Y-32965247D01*
X63258047Y-32917628D01*
X63281857Y-32870009D01*
X63305666Y-32846200D01*
X63353285Y-32822390D01*
X63472333Y-32822390D01*
X63543761Y-32846200D01*
X63710428Y-32822390D02*
X63829476Y-33322390D01*
X63924714Y-32965247D01*
X64019952Y-33322390D01*
X64139000Y-32822390D01*
X64615190Y-33274771D02*
X64591380Y-33298580D01*
X64519952Y-33322390D01*
X64472333Y-33322390D01*
X64400904Y-33298580D01*
X64353285Y-33250961D01*
X64329476Y-33203342D01*
X64305666Y-33108104D01*
X64305666Y-33036676D01*
X64329476Y-32941438D01*
X64353285Y-32893819D01*
X64400904Y-32846200D01*
X64472333Y-32822390D01*
X64519952Y-32822390D01*
X64591380Y-32846200D01*
X64615190Y-32870009D01*
X65067571Y-33322390D02*
X64829476Y-33322390D01*
X64829476Y-32822390D01*
X65234238Y-33322390D02*
X65234238Y-32822390D01*
X65519952Y-33322390D02*
X65305666Y-33036676D01*
X65519952Y-32822390D02*
X65234238Y-33108104D01*
D13*
X70565266Y-33158866D02*
X70565266Y-32458866D01*
X70965266Y-33158866D01*
X70965266Y-32458866D01*
X71298600Y-32792200D02*
X71531933Y-32792200D01*
X71631933Y-33158866D02*
X71298600Y-33158866D01*
X71298600Y-32458866D01*
X71631933Y-32458866D01*
X71831933Y-32458866D02*
X72231933Y-32458866D01*
X72031933Y-33158866D02*
X72031933Y-32458866D01*
D14*
X47244095Y-28819457D02*
X48767904Y-28819457D01*
X48006000Y-29581361D02*
X48006000Y-28057552D01*
D10*
X66275876Y-33273180D02*
X66347304Y-33296990D01*
X66466352Y-33296990D01*
X66513971Y-33273180D01*
X66537780Y-33249371D01*
X66561590Y-33201752D01*
X66561590Y-33154133D01*
X66537780Y-33106514D01*
X66513971Y-33082704D01*
X66466352Y-33058895D01*
X66371114Y-33035085D01*
X66323495Y-33011276D01*
X66299685Y-32987466D01*
X66275876Y-32939847D01*
X66275876Y-32892228D01*
X66299685Y-32844609D01*
X66323495Y-32820800D01*
X66371114Y-32796990D01*
X66490161Y-32796990D01*
X66561590Y-32820800D01*
X66728257Y-32796990D02*
X66847304Y-33296990D01*
X66942542Y-32939847D01*
X67037780Y-33296990D01*
X67156828Y-32796990D01*
X67347304Y-33296990D02*
X67347304Y-32796990D01*
X67466352Y-32796990D01*
X67537780Y-32820800D01*
X67585400Y-32868419D01*
X67609209Y-32916038D01*
X67633019Y-33011276D01*
X67633019Y-33082704D01*
X67609209Y-33177942D01*
X67585400Y-33225561D01*
X67537780Y-33273180D01*
X67466352Y-33296990D01*
X67347304Y-33296990D01*
X67847304Y-33296990D02*
X67847304Y-32796990D01*
X68180638Y-32796990D02*
X68275876Y-32796990D01*
X68323495Y-32820800D01*
X68371114Y-32868419D01*
X68394923Y-32963657D01*
X68394923Y-33130323D01*
X68371114Y-33225561D01*
X68323495Y-33273180D01*
X68275876Y-33296990D01*
X68180638Y-33296990D01*
X68133019Y-33273180D01*
X68085400Y-33225561D01*
X68061590Y-33130323D01*
X68061590Y-32963657D01*
X68085400Y-32868419D01*
X68133019Y-32820800D01*
X68180638Y-32796990D01*
D15*
%TO.C,R3*%
X71615580Y-41822666D02*
X71139390Y-42156000D01*
X71615580Y-42394095D02*
X70615580Y-42394095D01*
X70615580Y-42013142D01*
X70663200Y-41917904D01*
X70710819Y-41870285D01*
X70806057Y-41822666D01*
X70948914Y-41822666D01*
X71044152Y-41870285D01*
X71091771Y-41917904D01*
X71139390Y-42013142D01*
X71139390Y-42394095D01*
X70615580Y-41489333D02*
X70615580Y-40870285D01*
X70996533Y-41203619D01*
X70996533Y-41060761D01*
X71044152Y-40965523D01*
X71091771Y-40917904D01*
X71187009Y-40870285D01*
X71425104Y-40870285D01*
X71520342Y-40917904D01*
X71567961Y-40965523D01*
X71615580Y-41060761D01*
X71615580Y-41346476D01*
X71567961Y-41441714D01*
X71520342Y-41489333D01*
%TO.C,D7*%
X98427164Y-76074541D02*
X97797243Y-76074541D01*
X97797243Y-75924560D01*
X97827239Y-75834571D01*
X97887231Y-75774579D01*
X97947224Y-75744583D01*
X98067209Y-75714586D01*
X98157198Y-75714586D01*
X98277183Y-75744583D01*
X98337175Y-75774579D01*
X98397168Y-75834571D01*
X98427164Y-75924560D01*
X98427164Y-76074541D01*
X97797243Y-75504613D02*
X97797243Y-75084665D01*
X98427164Y-75354631D01*
%TO.C,U4*%
X59784703Y-74489925D02*
X60422124Y-74489925D01*
X60497115Y-74452430D01*
X60534610Y-74414934D01*
X60572105Y-74339944D01*
X60572105Y-74189962D01*
X60534610Y-74114972D01*
X60497115Y-74077476D01*
X60422124Y-74039981D01*
X59784703Y-74039981D01*
X60047171Y-73327570D02*
X60572105Y-73327570D01*
X59747208Y-73515046D02*
X60309638Y-73702523D01*
X60309638Y-73215084D01*
%TO.C,C3*%
X54916342Y-61990266D02*
X54963961Y-62037885D01*
X55011580Y-62180742D01*
X55011580Y-62275980D01*
X54963961Y-62418838D01*
X54868723Y-62514076D01*
X54773485Y-62561695D01*
X54583009Y-62609314D01*
X54440152Y-62609314D01*
X54249676Y-62561695D01*
X54154438Y-62514076D01*
X54059200Y-62418838D01*
X54011580Y-62275980D01*
X54011580Y-62180742D01*
X54059200Y-62037885D01*
X54106819Y-61990266D01*
X54011580Y-61656933D02*
X54011580Y-61037885D01*
X54392533Y-61371219D01*
X54392533Y-61228361D01*
X54440152Y-61133123D01*
X54487771Y-61085504D01*
X54583009Y-61037885D01*
X54821104Y-61037885D01*
X54916342Y-61085504D01*
X54963961Y-61133123D01*
X55011580Y-61228361D01*
X55011580Y-61514076D01*
X54963961Y-61609314D01*
X54916342Y-61656933D01*
%TO.C,C7*%
X67954142Y-64809666D02*
X68001761Y-64857285D01*
X68049380Y-65000142D01*
X68049380Y-65095380D01*
X68001761Y-65238238D01*
X67906523Y-65333476D01*
X67811285Y-65381095D01*
X67620809Y-65428714D01*
X67477952Y-65428714D01*
X67287476Y-65381095D01*
X67192238Y-65333476D01*
X67097000Y-65238238D01*
X67049380Y-65095380D01*
X67049380Y-65000142D01*
X67097000Y-64857285D01*
X67144619Y-64809666D01*
X67049380Y-64476333D02*
X67049380Y-63809666D01*
X68049380Y-64238238D01*
%TO.C,R6*%
X82383333Y-69547980D02*
X82050000Y-69071790D01*
X81811904Y-69547980D02*
X81811904Y-68547980D01*
X82192857Y-68547980D01*
X82288095Y-68595600D01*
X82335714Y-68643219D01*
X82383333Y-68738457D01*
X82383333Y-68881314D01*
X82335714Y-68976552D01*
X82288095Y-69024171D01*
X82192857Y-69071790D01*
X81811904Y-69071790D01*
X83240476Y-68547980D02*
X83050000Y-68547980D01*
X82954761Y-68595600D01*
X82907142Y-68643219D01*
X82811904Y-68786076D01*
X82764285Y-68976552D01*
X82764285Y-69357504D01*
X82811904Y-69452742D01*
X82859523Y-69500361D01*
X82954761Y-69547980D01*
X83145238Y-69547980D01*
X83240476Y-69500361D01*
X83288095Y-69452742D01*
X83335714Y-69357504D01*
X83335714Y-69119409D01*
X83288095Y-69024171D01*
X83240476Y-68976552D01*
X83145238Y-68928933D01*
X82954761Y-68928933D01*
X82859523Y-68976552D01*
X82811904Y-69024171D01*
X82764285Y-69119409D01*
%TO.C,C44*%
X51635542Y-36507657D02*
X51683161Y-36555276D01*
X51730780Y-36698133D01*
X51730780Y-36793371D01*
X51683161Y-36936228D01*
X51587923Y-37031466D01*
X51492685Y-37079085D01*
X51302209Y-37126704D01*
X51159352Y-37126704D01*
X50968876Y-37079085D01*
X50873638Y-37031466D01*
X50778400Y-36936228D01*
X50730780Y-36793371D01*
X50730780Y-36698133D01*
X50778400Y-36555276D01*
X50826019Y-36507657D01*
X51064114Y-35650514D02*
X51730780Y-35650514D01*
X50683161Y-35888609D02*
X51397447Y-36126704D01*
X51397447Y-35507657D01*
X51064114Y-34698133D02*
X51730780Y-34698133D01*
X50683161Y-34936228D02*
X51397447Y-35174323D01*
X51397447Y-34555276D01*
%TO.C,R42*%
X49136580Y-41486057D02*
X48660390Y-41819390D01*
X49136580Y-42057485D02*
X48136580Y-42057485D01*
X48136580Y-41676533D01*
X48184200Y-41581295D01*
X48231819Y-41533676D01*
X48327057Y-41486057D01*
X48469914Y-41486057D01*
X48565152Y-41533676D01*
X48612771Y-41581295D01*
X48660390Y-41676533D01*
X48660390Y-42057485D01*
X48469914Y-40628914D02*
X49136580Y-40628914D01*
X48088961Y-40867009D02*
X48803247Y-41105104D01*
X48803247Y-40486057D01*
X48231819Y-40152723D02*
X48184200Y-40105104D01*
X48136580Y-40009866D01*
X48136580Y-39771771D01*
X48184200Y-39676533D01*
X48231819Y-39628914D01*
X48327057Y-39581295D01*
X48422295Y-39581295D01*
X48565152Y-39628914D01*
X49136580Y-40200342D01*
X49136580Y-39581295D01*
%TO.C,R13*%
X38142942Y-29832580D02*
X37809609Y-29356390D01*
X37571514Y-29832580D02*
X37571514Y-28832580D01*
X37952466Y-28832580D01*
X38047704Y-28880200D01*
X38095323Y-28927819D01*
X38142942Y-29023057D01*
X38142942Y-29165914D01*
X38095323Y-29261152D01*
X38047704Y-29308771D01*
X37952466Y-29356390D01*
X37571514Y-29356390D01*
X39095323Y-29832580D02*
X38523895Y-29832580D01*
X38809609Y-29832580D02*
X38809609Y-28832580D01*
X38714371Y-28975438D01*
X38619133Y-29070676D01*
X38523895Y-29118295D01*
X39428657Y-28832580D02*
X40047704Y-28832580D01*
X39714371Y-29213533D01*
X39857228Y-29213533D01*
X39952466Y-29261152D01*
X40000085Y-29308771D01*
X40047704Y-29404009D01*
X40047704Y-29642104D01*
X40000085Y-29737342D01*
X39952466Y-29784961D01*
X39857228Y-29832580D01*
X39571514Y-29832580D01*
X39476276Y-29784961D01*
X39428657Y-29737342D01*
%TO.C,Q3*%
X37268161Y-38566419D02*
X37172923Y-38518800D01*
X37077685Y-38423561D01*
X36934828Y-38280704D01*
X36839590Y-38233085D01*
X36744352Y-38233085D01*
X36791971Y-38471180D02*
X36696733Y-38423561D01*
X36601495Y-38328323D01*
X36553876Y-38137847D01*
X36553876Y-37804514D01*
X36601495Y-37614038D01*
X36696733Y-37518800D01*
X36791971Y-37471180D01*
X36982447Y-37471180D01*
X37077685Y-37518800D01*
X37172923Y-37614038D01*
X37220542Y-37804514D01*
X37220542Y-38137847D01*
X37172923Y-38328323D01*
X37077685Y-38423561D01*
X36982447Y-38471180D01*
X36791971Y-38471180D01*
X37553876Y-37471180D02*
X38172923Y-37471180D01*
X37839590Y-37852133D01*
X37982447Y-37852133D01*
X38077685Y-37899752D01*
X38125304Y-37947371D01*
X38172923Y-38042609D01*
X38172923Y-38280704D01*
X38125304Y-38375942D01*
X38077685Y-38423561D01*
X37982447Y-38471180D01*
X37696733Y-38471180D01*
X37601495Y-38423561D01*
X37553876Y-38375942D01*
%TO.C,C9*%
X87590333Y-41894542D02*
X87542714Y-41942161D01*
X87399857Y-41989780D01*
X87304619Y-41989780D01*
X87161761Y-41942161D01*
X87066523Y-41846923D01*
X87018904Y-41751685D01*
X86971285Y-41561209D01*
X86971285Y-41418352D01*
X87018904Y-41227876D01*
X87066523Y-41132638D01*
X87161761Y-41037400D01*
X87304619Y-40989780D01*
X87399857Y-40989780D01*
X87542714Y-41037400D01*
X87590333Y-41085019D01*
X88066523Y-41989780D02*
X88257000Y-41989780D01*
X88352238Y-41942161D01*
X88399857Y-41894542D01*
X88495095Y-41751685D01*
X88542714Y-41561209D01*
X88542714Y-41180257D01*
X88495095Y-41085019D01*
X88447476Y-41037400D01*
X88352238Y-40989780D01*
X88161761Y-40989780D01*
X88066523Y-41037400D01*
X88018904Y-41085019D01*
X87971285Y-41180257D01*
X87971285Y-41418352D01*
X88018904Y-41513590D01*
X88066523Y-41561209D01*
X88161761Y-41608828D01*
X88352238Y-41608828D01*
X88447476Y-41561209D01*
X88495095Y-41513590D01*
X88542714Y-41418352D01*
%TO.C,R46*%
X55033942Y-38251380D02*
X54700609Y-37775190D01*
X54462514Y-38251380D02*
X54462514Y-37251380D01*
X54843466Y-37251380D01*
X54938704Y-37299000D01*
X54986323Y-37346619D01*
X55033942Y-37441857D01*
X55033942Y-37584714D01*
X54986323Y-37679952D01*
X54938704Y-37727571D01*
X54843466Y-37775190D01*
X54462514Y-37775190D01*
X55891085Y-37584714D02*
X55891085Y-38251380D01*
X55652990Y-37203761D02*
X55414895Y-37918047D01*
X56033942Y-37918047D01*
X56843466Y-37251380D02*
X56652990Y-37251380D01*
X56557752Y-37299000D01*
X56510133Y-37346619D01*
X56414895Y-37489476D01*
X56367276Y-37679952D01*
X56367276Y-38060904D01*
X56414895Y-38156142D01*
X56462514Y-38203761D01*
X56557752Y-38251380D01*
X56748228Y-38251380D01*
X56843466Y-38203761D01*
X56891085Y-38156142D01*
X56938704Y-38060904D01*
X56938704Y-37822809D01*
X56891085Y-37727571D01*
X56843466Y-37679952D01*
X56748228Y-37632333D01*
X56557752Y-37632333D01*
X56462514Y-37679952D01*
X56414895Y-37727571D01*
X56367276Y-37822809D01*
%TO.C,R14*%
X42359342Y-35503380D02*
X42026009Y-35027190D01*
X41787914Y-35503380D02*
X41787914Y-34503380D01*
X42168866Y-34503380D01*
X42264104Y-34551000D01*
X42311723Y-34598619D01*
X42359342Y-34693857D01*
X42359342Y-34836714D01*
X42311723Y-34931952D01*
X42264104Y-34979571D01*
X42168866Y-35027190D01*
X41787914Y-35027190D01*
X43311723Y-35503380D02*
X42740295Y-35503380D01*
X43026009Y-35503380D02*
X43026009Y-34503380D01*
X42930771Y-34646238D01*
X42835533Y-34741476D01*
X42740295Y-34789095D01*
X44168866Y-34836714D02*
X44168866Y-35503380D01*
X43930771Y-34455761D02*
X43692676Y-35170047D01*
X44311723Y-35170047D01*
%TO.C,R33*%
X40911542Y-49288980D02*
X40578209Y-48812790D01*
X40340114Y-49288980D02*
X40340114Y-48288980D01*
X40721066Y-48288980D01*
X40816304Y-48336600D01*
X40863923Y-48384219D01*
X40911542Y-48479457D01*
X40911542Y-48622314D01*
X40863923Y-48717552D01*
X40816304Y-48765171D01*
X40721066Y-48812790D01*
X40340114Y-48812790D01*
X41244876Y-48288980D02*
X41863923Y-48288980D01*
X41530590Y-48669933D01*
X41673447Y-48669933D01*
X41768685Y-48717552D01*
X41816304Y-48765171D01*
X41863923Y-48860409D01*
X41863923Y-49098504D01*
X41816304Y-49193742D01*
X41768685Y-49241361D01*
X41673447Y-49288980D01*
X41387733Y-49288980D01*
X41292495Y-49241361D01*
X41244876Y-49193742D01*
X42197257Y-48288980D02*
X42816304Y-48288980D01*
X42482971Y-48669933D01*
X42625828Y-48669933D01*
X42721066Y-48717552D01*
X42768685Y-48765171D01*
X42816304Y-48860409D01*
X42816304Y-49098504D01*
X42768685Y-49193742D01*
X42721066Y-49241361D01*
X42625828Y-49288980D01*
X42340114Y-49288980D01*
X42244876Y-49241361D01*
X42197257Y-49193742D01*
%TO.C,J1*%
X97944466Y-50062380D02*
X97944466Y-50776666D01*
X97896847Y-50919523D01*
X97801609Y-51014761D01*
X97658752Y-51062380D01*
X97563514Y-51062380D01*
X98944466Y-51062380D02*
X98373038Y-51062380D01*
X98658752Y-51062380D02*
X98658752Y-50062380D01*
X98563514Y-50205238D01*
X98468276Y-50300476D01*
X98373038Y-50348095D01*
%TO.C,C28*%
X40886142Y-46171142D02*
X40838523Y-46218761D01*
X40695666Y-46266380D01*
X40600428Y-46266380D01*
X40457571Y-46218761D01*
X40362333Y-46123523D01*
X40314714Y-46028285D01*
X40267095Y-45837809D01*
X40267095Y-45694952D01*
X40314714Y-45504476D01*
X40362333Y-45409238D01*
X40457571Y-45314000D01*
X40600428Y-45266380D01*
X40695666Y-45266380D01*
X40838523Y-45314000D01*
X40886142Y-45361619D01*
X41267095Y-45361619D02*
X41314714Y-45314000D01*
X41409952Y-45266380D01*
X41648047Y-45266380D01*
X41743285Y-45314000D01*
X41790904Y-45361619D01*
X41838523Y-45456857D01*
X41838523Y-45552095D01*
X41790904Y-45694952D01*
X41219476Y-46266380D01*
X41838523Y-46266380D01*
X42409952Y-45694952D02*
X42314714Y-45647333D01*
X42267095Y-45599714D01*
X42219476Y-45504476D01*
X42219476Y-45456857D01*
X42267095Y-45361619D01*
X42314714Y-45314000D01*
X42409952Y-45266380D01*
X42600428Y-45266380D01*
X42695666Y-45314000D01*
X42743285Y-45361619D01*
X42790904Y-45456857D01*
X42790904Y-45504476D01*
X42743285Y-45599714D01*
X42695666Y-45647333D01*
X42600428Y-45694952D01*
X42409952Y-45694952D01*
X42314714Y-45742571D01*
X42267095Y-45790190D01*
X42219476Y-45885428D01*
X42219476Y-46075904D01*
X42267095Y-46171142D01*
X42314714Y-46218761D01*
X42409952Y-46266380D01*
X42600428Y-46266380D01*
X42695666Y-46218761D01*
X42743285Y-46171142D01*
X42790904Y-46075904D01*
X42790904Y-45885428D01*
X42743285Y-45790190D01*
X42695666Y-45742571D01*
X42600428Y-45694952D01*
%TO.C,R11*%
X62156580Y-82380057D02*
X61680390Y-82713390D01*
X62156580Y-82951485D02*
X61156580Y-82951485D01*
X61156580Y-82570533D01*
X61204200Y-82475295D01*
X61251819Y-82427676D01*
X61347057Y-82380057D01*
X61489914Y-82380057D01*
X61585152Y-82427676D01*
X61632771Y-82475295D01*
X61680390Y-82570533D01*
X61680390Y-82951485D01*
X62156580Y-81427676D02*
X62156580Y-81999104D01*
X62156580Y-81713390D02*
X61156580Y-81713390D01*
X61299438Y-81808628D01*
X61394676Y-81903866D01*
X61442295Y-81999104D01*
X62156580Y-80475295D02*
X62156580Y-81046723D01*
X62156580Y-80761009D02*
X61156580Y-80761009D01*
X61299438Y-80856247D01*
X61394676Y-80951485D01*
X61442295Y-81046723D01*
%TO.C,D11*%
X42369980Y-63368085D02*
X41369980Y-63368085D01*
X41369980Y-63129990D01*
X41417600Y-62987133D01*
X41512838Y-62891895D01*
X41608076Y-62844276D01*
X41798552Y-62796657D01*
X41941409Y-62796657D01*
X42131885Y-62844276D01*
X42227123Y-62891895D01*
X42322361Y-62987133D01*
X42369980Y-63129990D01*
X42369980Y-63368085D01*
X42369980Y-61844276D02*
X42369980Y-62415704D01*
X42369980Y-62129990D02*
X41369980Y-62129990D01*
X41512838Y-62225228D01*
X41608076Y-62320466D01*
X41655695Y-62415704D01*
X42369980Y-60891895D02*
X42369980Y-61463323D01*
X42369980Y-61177609D02*
X41369980Y-61177609D01*
X41512838Y-61272847D01*
X41608076Y-61368085D01*
X41655695Y-61463323D01*
%TO.C,U6*%
X47862233Y-42768933D02*
X47862233Y-43902266D01*
X47928900Y-44035600D01*
X47995566Y-44102266D01*
X48128900Y-44168933D01*
X48395566Y-44168933D01*
X48528900Y-44102266D01*
X48595566Y-44035600D01*
X48662233Y-43902266D01*
X48662233Y-42768933D01*
X49928900Y-42768933D02*
X49662233Y-42768933D01*
X49528900Y-42835600D01*
X49462233Y-42902266D01*
X49328900Y-43102266D01*
X49262233Y-43368933D01*
X49262233Y-43902266D01*
X49328900Y-44035600D01*
X49395566Y-44102266D01*
X49528900Y-44168933D01*
X49795566Y-44168933D01*
X49928900Y-44102266D01*
X49995566Y-44035600D01*
X50062233Y-43902266D01*
X50062233Y-43568933D01*
X49995566Y-43435600D01*
X49928900Y-43368933D01*
X49795566Y-43302266D01*
X49528900Y-43302266D01*
X49395566Y-43368933D01*
X49328900Y-43435600D01*
X49262233Y-43568933D01*
%TO.C,C13*%
X81272142Y-41802342D02*
X81224523Y-41849961D01*
X81081666Y-41897580D01*
X80986428Y-41897580D01*
X80843571Y-41849961D01*
X80748333Y-41754723D01*
X80700714Y-41659485D01*
X80653095Y-41469009D01*
X80653095Y-41326152D01*
X80700714Y-41135676D01*
X80748333Y-41040438D01*
X80843571Y-40945200D01*
X80986428Y-40897580D01*
X81081666Y-40897580D01*
X81224523Y-40945200D01*
X81272142Y-40992819D01*
X82224523Y-41897580D02*
X81653095Y-41897580D01*
X81938809Y-41897580D02*
X81938809Y-40897580D01*
X81843571Y-41040438D01*
X81748333Y-41135676D01*
X81653095Y-41183295D01*
X82557857Y-40897580D02*
X83176904Y-40897580D01*
X82843571Y-41278533D01*
X82986428Y-41278533D01*
X83081666Y-41326152D01*
X83129285Y-41373771D01*
X83176904Y-41469009D01*
X83176904Y-41707104D01*
X83129285Y-41802342D01*
X83081666Y-41849961D01*
X82986428Y-41897580D01*
X82700714Y-41897580D01*
X82605476Y-41849961D01*
X82557857Y-41802342D01*
%TO.C,D12*%
X39347380Y-63317285D02*
X38347380Y-63317285D01*
X38347380Y-63079190D01*
X38395000Y-62936333D01*
X38490238Y-62841095D01*
X38585476Y-62793476D01*
X38775952Y-62745857D01*
X38918809Y-62745857D01*
X39109285Y-62793476D01*
X39204523Y-62841095D01*
X39299761Y-62936333D01*
X39347380Y-63079190D01*
X39347380Y-63317285D01*
X39347380Y-61793476D02*
X39347380Y-62364904D01*
X39347380Y-62079190D02*
X38347380Y-62079190D01*
X38490238Y-62174428D01*
X38585476Y-62269666D01*
X38633095Y-62364904D01*
X38442619Y-61412523D02*
X38395000Y-61364904D01*
X38347380Y-61269666D01*
X38347380Y-61031571D01*
X38395000Y-60936333D01*
X38442619Y-60888714D01*
X38537857Y-60841095D01*
X38633095Y-60841095D01*
X38775952Y-60888714D01*
X39347380Y-61460142D01*
X39347380Y-60841095D01*
%TO.C,C19*%
X80400142Y-67343257D02*
X80447761Y-67390876D01*
X80495380Y-67533733D01*
X80495380Y-67628971D01*
X80447761Y-67771828D01*
X80352523Y-67867066D01*
X80257285Y-67914685D01*
X80066809Y-67962304D01*
X79923952Y-67962304D01*
X79733476Y-67914685D01*
X79638238Y-67867066D01*
X79543000Y-67771828D01*
X79495380Y-67628971D01*
X79495380Y-67533733D01*
X79543000Y-67390876D01*
X79590619Y-67343257D01*
X80495380Y-66390876D02*
X80495380Y-66962304D01*
X80495380Y-66676590D02*
X79495380Y-66676590D01*
X79638238Y-66771828D01*
X79733476Y-66867066D01*
X79781095Y-66962304D01*
X80495380Y-65914685D02*
X80495380Y-65724209D01*
X80447761Y-65628971D01*
X80400142Y-65581352D01*
X80257285Y-65486114D01*
X80066809Y-65438495D01*
X79685857Y-65438495D01*
X79590619Y-65486114D01*
X79543000Y-65533733D01*
X79495380Y-65628971D01*
X79495380Y-65819447D01*
X79543000Y-65914685D01*
X79590619Y-65962304D01*
X79685857Y-66009923D01*
X79923952Y-66009923D01*
X80019190Y-65962304D01*
X80066809Y-65914685D01*
X80114428Y-65819447D01*
X80114428Y-65628971D01*
X80066809Y-65533733D01*
X80019190Y-65486114D01*
X79923952Y-65438495D01*
%TO.C,C17*%
X81907142Y-68004942D02*
X81859523Y-68052561D01*
X81716666Y-68100180D01*
X81621428Y-68100180D01*
X81478571Y-68052561D01*
X81383333Y-67957323D01*
X81335714Y-67862085D01*
X81288095Y-67671609D01*
X81288095Y-67528752D01*
X81335714Y-67338276D01*
X81383333Y-67243038D01*
X81478571Y-67147800D01*
X81621428Y-67100180D01*
X81716666Y-67100180D01*
X81859523Y-67147800D01*
X81907142Y-67195419D01*
X82859523Y-68100180D02*
X82288095Y-68100180D01*
X82573809Y-68100180D02*
X82573809Y-67100180D01*
X82478571Y-67243038D01*
X82383333Y-67338276D01*
X82288095Y-67385895D01*
X83192857Y-67100180D02*
X83859523Y-67100180D01*
X83430952Y-68100180D01*
%TO.C,C10*%
X87291942Y-40278342D02*
X87244323Y-40325961D01*
X87101466Y-40373580D01*
X87006228Y-40373580D01*
X86863371Y-40325961D01*
X86768133Y-40230723D01*
X86720514Y-40135485D01*
X86672895Y-39945009D01*
X86672895Y-39802152D01*
X86720514Y-39611676D01*
X86768133Y-39516438D01*
X86863371Y-39421200D01*
X87006228Y-39373580D01*
X87101466Y-39373580D01*
X87244323Y-39421200D01*
X87291942Y-39468819D01*
X88244323Y-40373580D02*
X87672895Y-40373580D01*
X87958609Y-40373580D02*
X87958609Y-39373580D01*
X87863371Y-39516438D01*
X87768133Y-39611676D01*
X87672895Y-39659295D01*
X88863371Y-39373580D02*
X88958609Y-39373580D01*
X89053847Y-39421200D01*
X89101466Y-39468819D01*
X89149085Y-39564057D01*
X89196704Y-39754533D01*
X89196704Y-39992628D01*
X89149085Y-40183104D01*
X89101466Y-40278342D01*
X89053847Y-40325961D01*
X88958609Y-40373580D01*
X88863371Y-40373580D01*
X88768133Y-40325961D01*
X88720514Y-40278342D01*
X88672895Y-40183104D01*
X88625276Y-39992628D01*
X88625276Y-39754533D01*
X88672895Y-39564057D01*
X88720514Y-39468819D01*
X88768133Y-39421200D01*
X88863371Y-39373580D01*
%TO.C,U7*%
X91330473Y-36071196D02*
X91330473Y-36881880D01*
X91378160Y-36977254D01*
X91425848Y-37024941D01*
X91521222Y-37072629D01*
X91711971Y-37072629D01*
X91807346Y-37024941D01*
X91855033Y-36977254D01*
X91902720Y-36881880D01*
X91902720Y-36071196D01*
X92284219Y-36071196D02*
X92951841Y-36071196D01*
X92522655Y-37072629D01*
%TO.C,D12*%
X39347380Y-63317285D02*
X38347380Y-63317285D01*
X38347380Y-63079190D01*
X38395000Y-62936333D01*
X38490238Y-62841095D01*
X38585476Y-62793476D01*
X38775952Y-62745857D01*
X38918809Y-62745857D01*
X39109285Y-62793476D01*
X39204523Y-62841095D01*
X39299761Y-62936333D01*
X39347380Y-63079190D01*
X39347380Y-63317285D01*
X39347380Y-61793476D02*
X39347380Y-62364904D01*
X39347380Y-62079190D02*
X38347380Y-62079190D01*
X38490238Y-62174428D01*
X38585476Y-62269666D01*
X38633095Y-62364904D01*
X38442619Y-61412523D02*
X38395000Y-61364904D01*
X38347380Y-61269666D01*
X38347380Y-61031571D01*
X38395000Y-60936333D01*
X38442619Y-60888714D01*
X38537857Y-60841095D01*
X38633095Y-60841095D01*
X38775952Y-60888714D01*
X39347380Y-61460142D01*
X39347380Y-60841095D01*
D16*
%TO.C,J2*%
X82952462Y-77869523D02*
X82952462Y-78776666D01*
X82891986Y-78958095D01*
X82771034Y-79079047D01*
X82589605Y-79139523D01*
X82468653Y-79139523D01*
X83496748Y-77990476D02*
X83557224Y-77930000D01*
X83678176Y-77869523D01*
X83980557Y-77869523D01*
X84101510Y-77930000D01*
X84161986Y-77990476D01*
X84222462Y-78111428D01*
X84222462Y-78232380D01*
X84161986Y-78413809D01*
X83436272Y-79139523D01*
X84222462Y-79139523D01*
D15*
%TO.C,R29*%
X68724542Y-65062380D02*
X68391209Y-64586190D01*
X68153114Y-65062380D02*
X68153114Y-64062380D01*
X68534066Y-64062380D01*
X68629304Y-64110000D01*
X68676923Y-64157619D01*
X68724542Y-64252857D01*
X68724542Y-64395714D01*
X68676923Y-64490952D01*
X68629304Y-64538571D01*
X68534066Y-64586190D01*
X68153114Y-64586190D01*
X69105495Y-64157619D02*
X69153114Y-64110000D01*
X69248352Y-64062380D01*
X69486447Y-64062380D01*
X69581685Y-64110000D01*
X69629304Y-64157619D01*
X69676923Y-64252857D01*
X69676923Y-64348095D01*
X69629304Y-64490952D01*
X69057876Y-65062380D01*
X69676923Y-65062380D01*
X70153114Y-65062380D02*
X70343590Y-65062380D01*
X70438828Y-65014761D01*
X70486447Y-64967142D01*
X70581685Y-64824285D01*
X70629304Y-64633809D01*
X70629304Y-64252857D01*
X70581685Y-64157619D01*
X70534066Y-64110000D01*
X70438828Y-64062380D01*
X70248352Y-64062380D01*
X70153114Y-64110000D01*
X70105495Y-64157619D01*
X70057876Y-64252857D01*
X70057876Y-64490952D01*
X70105495Y-64586190D01*
X70153114Y-64633809D01*
X70248352Y-64681428D01*
X70438828Y-64681428D01*
X70534066Y-64633809D01*
X70581685Y-64586190D01*
X70629304Y-64490952D01*
D16*
%TO.C,L3*%
X61602923Y-44685866D02*
X61602923Y-45290628D01*
X60332923Y-45290628D01*
X60332923Y-44383485D02*
X60332923Y-43597295D01*
X60816733Y-44020628D01*
X60816733Y-43839200D01*
X60877209Y-43718247D01*
X60937685Y-43657771D01*
X61058638Y-43597295D01*
X61361019Y-43597295D01*
X61481971Y-43657771D01*
X61542447Y-43718247D01*
X61602923Y-43839200D01*
X61602923Y-44202057D01*
X61542447Y-44323009D01*
X61481971Y-44383485D01*
D15*
%TO.C,C2*%
X55068742Y-59551866D02*
X55116361Y-59599485D01*
X55163980Y-59742342D01*
X55163980Y-59837580D01*
X55116361Y-59980438D01*
X55021123Y-60075676D01*
X54925885Y-60123295D01*
X54735409Y-60170914D01*
X54592552Y-60170914D01*
X54402076Y-60123295D01*
X54306838Y-60075676D01*
X54211600Y-59980438D01*
X54163980Y-59837580D01*
X54163980Y-59742342D01*
X54211600Y-59599485D01*
X54259219Y-59551866D01*
X54259219Y-59170914D02*
X54211600Y-59123295D01*
X54163980Y-59028057D01*
X54163980Y-58789961D01*
X54211600Y-58694723D01*
X54259219Y-58647104D01*
X54354457Y-58599485D01*
X54449695Y-58599485D01*
X54592552Y-58647104D01*
X55163980Y-59218533D01*
X55163980Y-58599485D01*
%TO.C,R10*%
X62842380Y-66555857D02*
X62366190Y-66889190D01*
X62842380Y-67127285D02*
X61842380Y-67127285D01*
X61842380Y-66746333D01*
X61890000Y-66651095D01*
X61937619Y-66603476D01*
X62032857Y-66555857D01*
X62175714Y-66555857D01*
X62270952Y-66603476D01*
X62318571Y-66651095D01*
X62366190Y-66746333D01*
X62366190Y-67127285D01*
X62842380Y-65603476D02*
X62842380Y-66174904D01*
X62842380Y-65889190D02*
X61842380Y-65889190D01*
X61985238Y-65984428D01*
X62080476Y-66079666D01*
X62128095Y-66174904D01*
X61842380Y-64984428D02*
X61842380Y-64889190D01*
X61890000Y-64793952D01*
X61937619Y-64746333D01*
X62032857Y-64698714D01*
X62223333Y-64651095D01*
X62461428Y-64651095D01*
X62651904Y-64698714D01*
X62747142Y-64746333D01*
X62794761Y-64793952D01*
X62842380Y-64889190D01*
X62842380Y-64984428D01*
X62794761Y-65079666D01*
X62747142Y-65127285D01*
X62651904Y-65174904D01*
X62461428Y-65222523D01*
X62223333Y-65222523D01*
X62032857Y-65174904D01*
X61937619Y-65127285D01*
X61890000Y-65079666D01*
X61842380Y-64984428D01*
%TO.C,C16*%
X86572342Y-67597257D02*
X86619961Y-67644876D01*
X86667580Y-67787733D01*
X86667580Y-67882971D01*
X86619961Y-68025828D01*
X86524723Y-68121066D01*
X86429485Y-68168685D01*
X86239009Y-68216304D01*
X86096152Y-68216304D01*
X85905676Y-68168685D01*
X85810438Y-68121066D01*
X85715200Y-68025828D01*
X85667580Y-67882971D01*
X85667580Y-67787733D01*
X85715200Y-67644876D01*
X85762819Y-67597257D01*
X86667580Y-66644876D02*
X86667580Y-67216304D01*
X86667580Y-66930590D02*
X85667580Y-66930590D01*
X85810438Y-67025828D01*
X85905676Y-67121066D01*
X85953295Y-67216304D01*
X85667580Y-65787733D02*
X85667580Y-65978209D01*
X85715200Y-66073447D01*
X85762819Y-66121066D01*
X85905676Y-66216304D01*
X86096152Y-66263923D01*
X86477104Y-66263923D01*
X86572342Y-66216304D01*
X86619961Y-66168685D01*
X86667580Y-66073447D01*
X86667580Y-65882971D01*
X86619961Y-65787733D01*
X86572342Y-65740114D01*
X86477104Y-65692495D01*
X86239009Y-65692495D01*
X86143771Y-65740114D01*
X86096152Y-65787733D01*
X86048533Y-65882971D01*
X86048533Y-66073447D01*
X86096152Y-66168685D01*
X86143771Y-66216304D01*
X86239009Y-66263923D01*
%TO.C,R37*%
X50472580Y-41486057D02*
X49996390Y-41819390D01*
X50472580Y-42057485D02*
X49472580Y-42057485D01*
X49472580Y-41676533D01*
X49520200Y-41581295D01*
X49567819Y-41533676D01*
X49663057Y-41486057D01*
X49805914Y-41486057D01*
X49901152Y-41533676D01*
X49948771Y-41581295D01*
X49996390Y-41676533D01*
X49996390Y-42057485D01*
X49472580Y-41152723D02*
X49472580Y-40533676D01*
X49853533Y-40867009D01*
X49853533Y-40724152D01*
X49901152Y-40628914D01*
X49948771Y-40581295D01*
X50044009Y-40533676D01*
X50282104Y-40533676D01*
X50377342Y-40581295D01*
X50424961Y-40628914D01*
X50472580Y-40724152D01*
X50472580Y-41009866D01*
X50424961Y-41105104D01*
X50377342Y-41152723D01*
X49472580Y-40200342D02*
X49472580Y-39533676D01*
X50472580Y-39962247D01*
%TO.C,R30*%
X71747142Y-67922380D02*
X71413809Y-67446190D01*
X71175714Y-67922380D02*
X71175714Y-66922380D01*
X71556666Y-66922380D01*
X71651904Y-66970000D01*
X71699523Y-67017619D01*
X71747142Y-67112857D01*
X71747142Y-67255714D01*
X71699523Y-67350952D01*
X71651904Y-67398571D01*
X71556666Y-67446190D01*
X71175714Y-67446190D01*
X72080476Y-66922380D02*
X72699523Y-66922380D01*
X72366190Y-67303333D01*
X72509047Y-67303333D01*
X72604285Y-67350952D01*
X72651904Y-67398571D01*
X72699523Y-67493809D01*
X72699523Y-67731904D01*
X72651904Y-67827142D01*
X72604285Y-67874761D01*
X72509047Y-67922380D01*
X72223333Y-67922380D01*
X72128095Y-67874761D01*
X72080476Y-67827142D01*
X73318571Y-66922380D02*
X73413809Y-66922380D01*
X73509047Y-66970000D01*
X73556666Y-67017619D01*
X73604285Y-67112857D01*
X73651904Y-67303333D01*
X73651904Y-67541428D01*
X73604285Y-67731904D01*
X73556666Y-67827142D01*
X73509047Y-67874761D01*
X73413809Y-67922380D01*
X73318571Y-67922380D01*
X73223333Y-67874761D01*
X73175714Y-67827142D01*
X73128095Y-67731904D01*
X73080476Y-67541428D01*
X73080476Y-67303333D01*
X73128095Y-67112857D01*
X73175714Y-67017619D01*
X73223333Y-66970000D01*
X73318571Y-66922380D01*
%TO.C,U8*%
X91432073Y-40947996D02*
X91432073Y-41758680D01*
X91479760Y-41854054D01*
X91527448Y-41901741D01*
X91622822Y-41949429D01*
X91813571Y-41949429D01*
X91908946Y-41901741D01*
X91956633Y-41854054D01*
X92004320Y-41758680D01*
X92004320Y-40947996D01*
X92624255Y-41377181D02*
X92528881Y-41329494D01*
X92481193Y-41281807D01*
X92433506Y-41186432D01*
X92433506Y-41138745D01*
X92481193Y-41043370D01*
X92528881Y-40995683D01*
X92624255Y-40947996D01*
X92815004Y-40947996D01*
X92910379Y-40995683D01*
X92958066Y-41043370D01*
X93005753Y-41138745D01*
X93005753Y-41186432D01*
X92958066Y-41281807D01*
X92910379Y-41329494D01*
X92815004Y-41377181D01*
X92624255Y-41377181D01*
X92528881Y-41424869D01*
X92481193Y-41472556D01*
X92433506Y-41567930D01*
X92433506Y-41758680D01*
X92481193Y-41854054D01*
X92528881Y-41901741D01*
X92624255Y-41949429D01*
X92815004Y-41949429D01*
X92910379Y-41901741D01*
X92958066Y-41854054D01*
X93005753Y-41758680D01*
X93005753Y-41567930D01*
X92958066Y-41472556D01*
X92910379Y-41424869D01*
X92815004Y-41377181D01*
%TO.C,IC3*%
X40076923Y-31219961D02*
X39436923Y-31219961D01*
X40015971Y-30549485D02*
X40046447Y-30579961D01*
X40076923Y-30671390D01*
X40076923Y-30732342D01*
X40046447Y-30823771D01*
X39985495Y-30884723D01*
X39924542Y-30915200D01*
X39802638Y-30945676D01*
X39711209Y-30945676D01*
X39589304Y-30915200D01*
X39528352Y-30884723D01*
X39467400Y-30823771D01*
X39436923Y-30732342D01*
X39436923Y-30671390D01*
X39467400Y-30579961D01*
X39497876Y-30549485D01*
X39436923Y-30336152D02*
X39436923Y-29939961D01*
X39680733Y-30153295D01*
X39680733Y-30061866D01*
X39711209Y-30000914D01*
X39741685Y-29970438D01*
X39802638Y-29939961D01*
X39955019Y-29939961D01*
X40015971Y-29970438D01*
X40046447Y-30000914D01*
X40076923Y-30061866D01*
X40076923Y-30244723D01*
X40046447Y-30305676D01*
X40015971Y-30336152D01*
%TO.C,U2*%
X82804095Y-42808380D02*
X82804095Y-43617904D01*
X82851714Y-43713142D01*
X82899333Y-43760761D01*
X82994571Y-43808380D01*
X83185047Y-43808380D01*
X83280285Y-43760761D01*
X83327904Y-43713142D01*
X83375523Y-43617904D01*
X83375523Y-42808380D01*
X83804095Y-42903619D02*
X83851714Y-42856000D01*
X83946952Y-42808380D01*
X84185047Y-42808380D01*
X84280285Y-42856000D01*
X84327904Y-42903619D01*
X84375523Y-42998857D01*
X84375523Y-43094095D01*
X84327904Y-43236952D01*
X83756476Y-43808380D01*
X84375523Y-43808380D01*
%TO.C,R15*%
X38346142Y-32076380D02*
X38012809Y-31600190D01*
X37774714Y-32076380D02*
X37774714Y-31076380D01*
X38155666Y-31076380D01*
X38250904Y-31124000D01*
X38298523Y-31171619D01*
X38346142Y-31266857D01*
X38346142Y-31409714D01*
X38298523Y-31504952D01*
X38250904Y-31552571D01*
X38155666Y-31600190D01*
X37774714Y-31600190D01*
X39298523Y-32076380D02*
X38727095Y-32076380D01*
X39012809Y-32076380D02*
X39012809Y-31076380D01*
X38917571Y-31219238D01*
X38822333Y-31314476D01*
X38727095Y-31362095D01*
X40203285Y-31076380D02*
X39727095Y-31076380D01*
X39679476Y-31552571D01*
X39727095Y-31504952D01*
X39822333Y-31457333D01*
X40060428Y-31457333D01*
X40155666Y-31504952D01*
X40203285Y-31552571D01*
X40250904Y-31647809D01*
X40250904Y-31885904D01*
X40203285Y-31981142D01*
X40155666Y-32028761D01*
X40060428Y-32076380D01*
X39822333Y-32076380D01*
X39727095Y-32028761D01*
X39679476Y-31981142D01*
%TO.C,R8*%
X94448333Y-48450780D02*
X94115000Y-47974590D01*
X93876904Y-48450780D02*
X93876904Y-47450780D01*
X94257857Y-47450780D01*
X94353095Y-47498400D01*
X94400714Y-47546019D01*
X94448333Y-47641257D01*
X94448333Y-47784114D01*
X94400714Y-47879352D01*
X94353095Y-47926971D01*
X94257857Y-47974590D01*
X93876904Y-47974590D01*
X95019761Y-47879352D02*
X94924523Y-47831733D01*
X94876904Y-47784114D01*
X94829285Y-47688876D01*
X94829285Y-47641257D01*
X94876904Y-47546019D01*
X94924523Y-47498400D01*
X95019761Y-47450780D01*
X95210238Y-47450780D01*
X95305476Y-47498400D01*
X95353095Y-47546019D01*
X95400714Y-47641257D01*
X95400714Y-47688876D01*
X95353095Y-47784114D01*
X95305476Y-47831733D01*
X95210238Y-47879352D01*
X95019761Y-47879352D01*
X94924523Y-47926971D01*
X94876904Y-47974590D01*
X94829285Y-48069828D01*
X94829285Y-48260304D01*
X94876904Y-48355542D01*
X94924523Y-48403161D01*
X95019761Y-48450780D01*
X95210238Y-48450780D01*
X95305476Y-48403161D01*
X95353095Y-48355542D01*
X95400714Y-48260304D01*
X95400714Y-48069828D01*
X95353095Y-47974590D01*
X95305476Y-47926971D01*
X95210238Y-47879352D01*
%TO.C,C20*%
X44840142Y-45677057D02*
X44887761Y-45724676D01*
X44935380Y-45867533D01*
X44935380Y-45962771D01*
X44887761Y-46105628D01*
X44792523Y-46200866D01*
X44697285Y-46248485D01*
X44506809Y-46296104D01*
X44363952Y-46296104D01*
X44173476Y-46248485D01*
X44078238Y-46200866D01*
X43983000Y-46105628D01*
X43935380Y-45962771D01*
X43935380Y-45867533D01*
X43983000Y-45724676D01*
X44030619Y-45677057D01*
X44030619Y-45296104D02*
X43983000Y-45248485D01*
X43935380Y-45153247D01*
X43935380Y-44915152D01*
X43983000Y-44819914D01*
X44030619Y-44772295D01*
X44125857Y-44724676D01*
X44221095Y-44724676D01*
X44363952Y-44772295D01*
X44935380Y-45343723D01*
X44935380Y-44724676D01*
X43935380Y-44105628D02*
X43935380Y-44010390D01*
X43983000Y-43915152D01*
X44030619Y-43867533D01*
X44125857Y-43819914D01*
X44316333Y-43772295D01*
X44554428Y-43772295D01*
X44744904Y-43819914D01*
X44840142Y-43867533D01*
X44887761Y-43915152D01*
X44935380Y-44010390D01*
X44935380Y-44105628D01*
X44887761Y-44200866D01*
X44840142Y-44248485D01*
X44744904Y-44296104D01*
X44554428Y-44343723D01*
X44316333Y-44343723D01*
X44125857Y-44296104D01*
X44030619Y-44248485D01*
X43983000Y-44200866D01*
X43935380Y-44105628D01*
%TO.C,S2*%
X77493695Y-32736161D02*
X77636552Y-32783780D01*
X77874647Y-32783780D01*
X77969885Y-32736161D01*
X78017504Y-32688542D01*
X78065123Y-32593304D01*
X78065123Y-32498066D01*
X78017504Y-32402828D01*
X77969885Y-32355209D01*
X77874647Y-32307590D01*
X77684171Y-32259971D01*
X77588933Y-32212352D01*
X77541314Y-32164733D01*
X77493695Y-32069495D01*
X77493695Y-31974257D01*
X77541314Y-31879019D01*
X77588933Y-31831400D01*
X77684171Y-31783780D01*
X77922266Y-31783780D01*
X78065123Y-31831400D01*
X78446076Y-31879019D02*
X78493695Y-31831400D01*
X78588933Y-31783780D01*
X78827028Y-31783780D01*
X78922266Y-31831400D01*
X78969885Y-31879019D01*
X79017504Y-31974257D01*
X79017504Y-32069495D01*
X78969885Y-32212352D01*
X78398457Y-32783780D01*
X79017504Y-32783780D01*
%TO.C,C38*%
X49222542Y-36507657D02*
X49270161Y-36555276D01*
X49317780Y-36698133D01*
X49317780Y-36793371D01*
X49270161Y-36936228D01*
X49174923Y-37031466D01*
X49079685Y-37079085D01*
X48889209Y-37126704D01*
X48746352Y-37126704D01*
X48555876Y-37079085D01*
X48460638Y-37031466D01*
X48365400Y-36936228D01*
X48317780Y-36793371D01*
X48317780Y-36698133D01*
X48365400Y-36555276D01*
X48413019Y-36507657D01*
X48317780Y-36174323D02*
X48317780Y-35555276D01*
X48698733Y-35888609D01*
X48698733Y-35745752D01*
X48746352Y-35650514D01*
X48793971Y-35602895D01*
X48889209Y-35555276D01*
X49127304Y-35555276D01*
X49222542Y-35602895D01*
X49270161Y-35650514D01*
X49317780Y-35745752D01*
X49317780Y-36031466D01*
X49270161Y-36126704D01*
X49222542Y-36174323D01*
X48746352Y-34983847D02*
X48698733Y-35079085D01*
X48651114Y-35126704D01*
X48555876Y-35174323D01*
X48508257Y-35174323D01*
X48413019Y-35126704D01*
X48365400Y-35079085D01*
X48317780Y-34983847D01*
X48317780Y-34793371D01*
X48365400Y-34698133D01*
X48413019Y-34650514D01*
X48508257Y-34602895D01*
X48555876Y-34602895D01*
X48651114Y-34650514D01*
X48698733Y-34698133D01*
X48746352Y-34793371D01*
X48746352Y-34983847D01*
X48793971Y-35079085D01*
X48841590Y-35126704D01*
X48936828Y-35174323D01*
X49127304Y-35174323D01*
X49222542Y-35126704D01*
X49270161Y-35079085D01*
X49317780Y-34983847D01*
X49317780Y-34793371D01*
X49270161Y-34698133D01*
X49222542Y-34650514D01*
X49127304Y-34602895D01*
X48936828Y-34602895D01*
X48841590Y-34650514D01*
X48793971Y-34698133D01*
X48746352Y-34793371D01*
%TO.C,C6*%
X56856333Y-53918142D02*
X56808714Y-53965761D01*
X56665857Y-54013380D01*
X56570619Y-54013380D01*
X56427761Y-53965761D01*
X56332523Y-53870523D01*
X56284904Y-53775285D01*
X56237285Y-53584809D01*
X56237285Y-53441952D01*
X56284904Y-53251476D01*
X56332523Y-53156238D01*
X56427761Y-53061000D01*
X56570619Y-53013380D01*
X56665857Y-53013380D01*
X56808714Y-53061000D01*
X56856333Y-53108619D01*
X57713476Y-53013380D02*
X57523000Y-53013380D01*
X57427761Y-53061000D01*
X57380142Y-53108619D01*
X57284904Y-53251476D01*
X57237285Y-53441952D01*
X57237285Y-53822904D01*
X57284904Y-53918142D01*
X57332523Y-53965761D01*
X57427761Y-54013380D01*
X57618238Y-54013380D01*
X57713476Y-53965761D01*
X57761095Y-53918142D01*
X57808714Y-53822904D01*
X57808714Y-53584809D01*
X57761095Y-53489571D01*
X57713476Y-53441952D01*
X57618238Y-53394333D01*
X57427761Y-53394333D01*
X57332523Y-53441952D01*
X57284904Y-53489571D01*
X57237285Y-53584809D01*
%TO.C,Q1*%
X41078161Y-38591819D02*
X40982923Y-38544200D01*
X40887685Y-38448961D01*
X40744828Y-38306104D01*
X40649590Y-38258485D01*
X40554352Y-38258485D01*
X40601971Y-38496580D02*
X40506733Y-38448961D01*
X40411495Y-38353723D01*
X40363876Y-38163247D01*
X40363876Y-37829914D01*
X40411495Y-37639438D01*
X40506733Y-37544200D01*
X40601971Y-37496580D01*
X40792447Y-37496580D01*
X40887685Y-37544200D01*
X40982923Y-37639438D01*
X41030542Y-37829914D01*
X41030542Y-38163247D01*
X40982923Y-38353723D01*
X40887685Y-38448961D01*
X40792447Y-38496580D01*
X40601971Y-38496580D01*
X41982923Y-38496580D02*
X41411495Y-38496580D01*
X41697209Y-38496580D02*
X41697209Y-37496580D01*
X41601971Y-37639438D01*
X41506733Y-37734676D01*
X41411495Y-37782295D01*
%TO.C,R12*%
X57584580Y-82354657D02*
X57108390Y-82687990D01*
X57584580Y-82926085D02*
X56584580Y-82926085D01*
X56584580Y-82545133D01*
X56632200Y-82449895D01*
X56679819Y-82402276D01*
X56775057Y-82354657D01*
X56917914Y-82354657D01*
X57013152Y-82402276D01*
X57060771Y-82449895D01*
X57108390Y-82545133D01*
X57108390Y-82926085D01*
X57584580Y-81402276D02*
X57584580Y-81973704D01*
X57584580Y-81687990D02*
X56584580Y-81687990D01*
X56727438Y-81783228D01*
X56822676Y-81878466D01*
X56870295Y-81973704D01*
X56679819Y-81021323D02*
X56632200Y-80973704D01*
X56584580Y-80878466D01*
X56584580Y-80640371D01*
X56632200Y-80545133D01*
X56679819Y-80497514D01*
X56775057Y-80449895D01*
X56870295Y-80449895D01*
X57013152Y-80497514D01*
X57584580Y-81068942D01*
X57584580Y-80449895D01*
%TO.C,J4*%
X33728066Y-63695780D02*
X33728066Y-64410066D01*
X33680447Y-64552923D01*
X33585209Y-64648161D01*
X33442352Y-64695780D01*
X33347114Y-64695780D01*
X34632828Y-64029114D02*
X34632828Y-64695780D01*
X34394733Y-63648161D02*
X34156638Y-64362447D01*
X34775685Y-64362447D01*
%TO.C,R38*%
X51920380Y-53652657D02*
X51444190Y-53985990D01*
X51920380Y-54224085D02*
X50920380Y-54224085D01*
X50920380Y-53843133D01*
X50968000Y-53747895D01*
X51015619Y-53700276D01*
X51110857Y-53652657D01*
X51253714Y-53652657D01*
X51348952Y-53700276D01*
X51396571Y-53747895D01*
X51444190Y-53843133D01*
X51444190Y-54224085D01*
X50920380Y-53319323D02*
X50920380Y-52700276D01*
X51301333Y-53033609D01*
X51301333Y-52890752D01*
X51348952Y-52795514D01*
X51396571Y-52747895D01*
X51491809Y-52700276D01*
X51729904Y-52700276D01*
X51825142Y-52747895D01*
X51872761Y-52795514D01*
X51920380Y-52890752D01*
X51920380Y-53176466D01*
X51872761Y-53271704D01*
X51825142Y-53319323D01*
X51348952Y-52128847D02*
X51301333Y-52224085D01*
X51253714Y-52271704D01*
X51158476Y-52319323D01*
X51110857Y-52319323D01*
X51015619Y-52271704D01*
X50968000Y-52224085D01*
X50920380Y-52128847D01*
X50920380Y-51938371D01*
X50968000Y-51843133D01*
X51015619Y-51795514D01*
X51110857Y-51747895D01*
X51158476Y-51747895D01*
X51253714Y-51795514D01*
X51301333Y-51843133D01*
X51348952Y-51938371D01*
X51348952Y-52128847D01*
X51396571Y-52224085D01*
X51444190Y-52271704D01*
X51539428Y-52319323D01*
X51729904Y-52319323D01*
X51825142Y-52271704D01*
X51872761Y-52224085D01*
X51920380Y-52128847D01*
X51920380Y-51938371D01*
X51872761Y-51843133D01*
X51825142Y-51795514D01*
X51729904Y-51747895D01*
X51539428Y-51747895D01*
X51444190Y-51795514D01*
X51396571Y-51843133D01*
X51348952Y-51938371D01*
%TO.C,R50*%
X47587180Y-53678057D02*
X47110990Y-54011390D01*
X47587180Y-54249485D02*
X46587180Y-54249485D01*
X46587180Y-53868533D01*
X46634800Y-53773295D01*
X46682419Y-53725676D01*
X46777657Y-53678057D01*
X46920514Y-53678057D01*
X47015752Y-53725676D01*
X47063371Y-53773295D01*
X47110990Y-53868533D01*
X47110990Y-54249485D01*
X46587180Y-52773295D02*
X46587180Y-53249485D01*
X47063371Y-53297104D01*
X47015752Y-53249485D01*
X46968133Y-53154247D01*
X46968133Y-52916152D01*
X47015752Y-52820914D01*
X47063371Y-52773295D01*
X47158609Y-52725676D01*
X47396704Y-52725676D01*
X47491942Y-52773295D01*
X47539561Y-52820914D01*
X47587180Y-52916152D01*
X47587180Y-53154247D01*
X47539561Y-53249485D01*
X47491942Y-53297104D01*
X46587180Y-52106628D02*
X46587180Y-52011390D01*
X46634800Y-51916152D01*
X46682419Y-51868533D01*
X46777657Y-51820914D01*
X46968133Y-51773295D01*
X47206228Y-51773295D01*
X47396704Y-51820914D01*
X47491942Y-51868533D01*
X47539561Y-51916152D01*
X47587180Y-52011390D01*
X47587180Y-52106628D01*
X47539561Y-52201866D01*
X47491942Y-52249485D01*
X47396704Y-52297104D01*
X47206228Y-52344723D01*
X46968133Y-52344723D01*
X46777657Y-52297104D01*
X46682419Y-52249485D01*
X46634800Y-52201866D01*
X46587180Y-52106628D01*
%TO.C,R47*%
X42126180Y-42451257D02*
X41649990Y-42784590D01*
X42126180Y-43022685D02*
X41126180Y-43022685D01*
X41126180Y-42641733D01*
X41173800Y-42546495D01*
X41221419Y-42498876D01*
X41316657Y-42451257D01*
X41459514Y-42451257D01*
X41554752Y-42498876D01*
X41602371Y-42546495D01*
X41649990Y-42641733D01*
X41649990Y-43022685D01*
X41459514Y-41594114D02*
X42126180Y-41594114D01*
X41078561Y-41832209D02*
X41792847Y-42070304D01*
X41792847Y-41451257D01*
X41126180Y-41165542D02*
X41126180Y-40498876D01*
X42126180Y-40927447D01*
%TO.C,U3*%
X72955580Y-55854504D02*
X73765104Y-55854504D01*
X73860342Y-55806885D01*
X73907961Y-55759266D01*
X73955580Y-55664028D01*
X73955580Y-55473552D01*
X73907961Y-55378314D01*
X73860342Y-55330695D01*
X73765104Y-55283076D01*
X72955580Y-55283076D01*
X72955580Y-54902123D02*
X72955580Y-54283076D01*
X73336533Y-54616409D01*
X73336533Y-54473552D01*
X73384152Y-54378314D01*
X73431771Y-54330695D01*
X73527009Y-54283076D01*
X73765104Y-54283076D01*
X73860342Y-54330695D01*
X73907961Y-54378314D01*
X73955580Y-54473552D01*
X73955580Y-54759266D01*
X73907961Y-54854504D01*
X73860342Y-54902123D01*
%TO.C,Q2*%
X76714361Y-39168619D02*
X76619123Y-39121000D01*
X76523885Y-39025761D01*
X76381028Y-38882904D01*
X76285790Y-38835285D01*
X76190552Y-38835285D01*
X76238171Y-39073380D02*
X76142933Y-39025761D01*
X76047695Y-38930523D01*
X76000076Y-38740047D01*
X76000076Y-38406714D01*
X76047695Y-38216238D01*
X76142933Y-38121000D01*
X76238171Y-38073380D01*
X76428647Y-38073380D01*
X76523885Y-38121000D01*
X76619123Y-38216238D01*
X76666742Y-38406714D01*
X76666742Y-38740047D01*
X76619123Y-38930523D01*
X76523885Y-39025761D01*
X76428647Y-39073380D01*
X76238171Y-39073380D01*
X77047695Y-38168619D02*
X77095314Y-38121000D01*
X77190552Y-38073380D01*
X77428647Y-38073380D01*
X77523885Y-38121000D01*
X77571504Y-38168619D01*
X77619123Y-38263857D01*
X77619123Y-38359095D01*
X77571504Y-38501952D01*
X77000076Y-39073380D01*
X77619123Y-39073380D01*
%TO.C,J7*%
X69026580Y-31575333D02*
X69740866Y-31575333D01*
X69883723Y-31622952D01*
X69978961Y-31718190D01*
X70026580Y-31861047D01*
X70026580Y-31956285D01*
X69026580Y-31194380D02*
X69026580Y-30527714D01*
X70026580Y-30956285D01*
%TO.C,R40*%
X40886142Y-50599580D02*
X40552809Y-50123390D01*
X40314714Y-50599580D02*
X40314714Y-49599580D01*
X40695666Y-49599580D01*
X40790904Y-49647200D01*
X40838523Y-49694819D01*
X40886142Y-49790057D01*
X40886142Y-49932914D01*
X40838523Y-50028152D01*
X40790904Y-50075771D01*
X40695666Y-50123390D01*
X40314714Y-50123390D01*
X41743285Y-49932914D02*
X41743285Y-50599580D01*
X41505190Y-49551961D02*
X41267095Y-50266247D01*
X41886142Y-50266247D01*
X42457571Y-49599580D02*
X42552809Y-49599580D01*
X42648047Y-49647200D01*
X42695666Y-49694819D01*
X42743285Y-49790057D01*
X42790904Y-49980533D01*
X42790904Y-50218628D01*
X42743285Y-50409104D01*
X42695666Y-50504342D01*
X42648047Y-50551961D01*
X42552809Y-50599580D01*
X42457571Y-50599580D01*
X42362333Y-50551961D01*
X42314714Y-50504342D01*
X42267095Y-50409104D01*
X42219476Y-50218628D01*
X42219476Y-49980533D01*
X42267095Y-49790057D01*
X42314714Y-49694819D01*
X42362333Y-49647200D01*
X42457571Y-49599580D01*
%TO.C,R7*%
X82095580Y-66867066D02*
X81619390Y-67200400D01*
X82095580Y-67438495D02*
X81095580Y-67438495D01*
X81095580Y-67057542D01*
X81143200Y-66962304D01*
X81190819Y-66914685D01*
X81286057Y-66867066D01*
X81428914Y-66867066D01*
X81524152Y-66914685D01*
X81571771Y-66962304D01*
X81619390Y-67057542D01*
X81619390Y-67438495D01*
X81095580Y-66533733D02*
X81095580Y-65867066D01*
X82095580Y-66295638D01*
%TO.C,R34*%
X45656780Y-53652657D02*
X45180590Y-53985990D01*
X45656780Y-54224085D02*
X44656780Y-54224085D01*
X44656780Y-53843133D01*
X44704400Y-53747895D01*
X44752019Y-53700276D01*
X44847257Y-53652657D01*
X44990114Y-53652657D01*
X45085352Y-53700276D01*
X45132971Y-53747895D01*
X45180590Y-53843133D01*
X45180590Y-54224085D01*
X44656780Y-53319323D02*
X44656780Y-52700276D01*
X45037733Y-53033609D01*
X45037733Y-52890752D01*
X45085352Y-52795514D01*
X45132971Y-52747895D01*
X45228209Y-52700276D01*
X45466304Y-52700276D01*
X45561542Y-52747895D01*
X45609161Y-52795514D01*
X45656780Y-52890752D01*
X45656780Y-53176466D01*
X45609161Y-53271704D01*
X45561542Y-53319323D01*
X44990114Y-51843133D02*
X45656780Y-51843133D01*
X44609161Y-52081228D02*
X45323447Y-52319323D01*
X45323447Y-51700276D01*
%TO.C,C18*%
X42858942Y-42476657D02*
X42906561Y-42524276D01*
X42954180Y-42667133D01*
X42954180Y-42762371D01*
X42906561Y-42905228D01*
X42811323Y-43000466D01*
X42716085Y-43048085D01*
X42525609Y-43095704D01*
X42382752Y-43095704D01*
X42192276Y-43048085D01*
X42097038Y-43000466D01*
X42001800Y-42905228D01*
X41954180Y-42762371D01*
X41954180Y-42667133D01*
X42001800Y-42524276D01*
X42049419Y-42476657D01*
X42954180Y-41524276D02*
X42954180Y-42095704D01*
X42954180Y-41809990D02*
X41954180Y-41809990D01*
X42097038Y-41905228D01*
X42192276Y-42000466D01*
X42239895Y-42095704D01*
X42382752Y-40952847D02*
X42335133Y-41048085D01*
X42287514Y-41095704D01*
X42192276Y-41143323D01*
X42144657Y-41143323D01*
X42049419Y-41095704D01*
X42001800Y-41048085D01*
X41954180Y-40952847D01*
X41954180Y-40762371D01*
X42001800Y-40667133D01*
X42049419Y-40619514D01*
X42144657Y-40571895D01*
X42192276Y-40571895D01*
X42287514Y-40619514D01*
X42335133Y-40667133D01*
X42382752Y-40762371D01*
X42382752Y-40952847D01*
X42430371Y-41048085D01*
X42477990Y-41095704D01*
X42573228Y-41143323D01*
X42763704Y-41143323D01*
X42858942Y-41095704D01*
X42906561Y-41048085D01*
X42954180Y-40952847D01*
X42954180Y-40762371D01*
X42906561Y-40667133D01*
X42858942Y-40619514D01*
X42763704Y-40571895D01*
X42573228Y-40571895D01*
X42477990Y-40619514D01*
X42430371Y-40667133D01*
X42382752Y-40762371D01*
%TO.C,D2*%
X67892704Y-38780980D02*
X67892704Y-37780980D01*
X68130800Y-37780980D01*
X68273657Y-37828600D01*
X68368895Y-37923838D01*
X68416514Y-38019076D01*
X68464133Y-38209552D01*
X68464133Y-38352409D01*
X68416514Y-38542885D01*
X68368895Y-38638123D01*
X68273657Y-38733361D01*
X68130800Y-38780980D01*
X67892704Y-38780980D01*
X68845085Y-37876219D02*
X68892704Y-37828600D01*
X68987942Y-37780980D01*
X69226038Y-37780980D01*
X69321276Y-37828600D01*
X69368895Y-37876219D01*
X69416514Y-37971457D01*
X69416514Y-38066695D01*
X69368895Y-38209552D01*
X68797466Y-38780980D01*
X69416514Y-38780980D01*
%TO.C,C8*%
X87590333Y-42834342D02*
X87542714Y-42881961D01*
X87399857Y-42929580D01*
X87304619Y-42929580D01*
X87161761Y-42881961D01*
X87066523Y-42786723D01*
X87018904Y-42691485D01*
X86971285Y-42501009D01*
X86971285Y-42358152D01*
X87018904Y-42167676D01*
X87066523Y-42072438D01*
X87161761Y-41977200D01*
X87304619Y-41929580D01*
X87399857Y-41929580D01*
X87542714Y-41977200D01*
X87590333Y-42024819D01*
X88161761Y-42358152D02*
X88066523Y-42310533D01*
X88018904Y-42262914D01*
X87971285Y-42167676D01*
X87971285Y-42120057D01*
X88018904Y-42024819D01*
X88066523Y-41977200D01*
X88161761Y-41929580D01*
X88352238Y-41929580D01*
X88447476Y-41977200D01*
X88495095Y-42024819D01*
X88542714Y-42120057D01*
X88542714Y-42167676D01*
X88495095Y-42262914D01*
X88447476Y-42310533D01*
X88352238Y-42358152D01*
X88161761Y-42358152D01*
X88066523Y-42405771D01*
X88018904Y-42453390D01*
X87971285Y-42548628D01*
X87971285Y-42739104D01*
X88018904Y-42834342D01*
X88066523Y-42881961D01*
X88161761Y-42929580D01*
X88352238Y-42929580D01*
X88447476Y-42881961D01*
X88495095Y-42834342D01*
X88542714Y-42739104D01*
X88542714Y-42548628D01*
X88495095Y-42453390D01*
X88447476Y-42405771D01*
X88352238Y-42358152D01*
%TO.C,R5*%
X88191580Y-67121066D02*
X87715390Y-67454400D01*
X88191580Y-67692495D02*
X87191580Y-67692495D01*
X87191580Y-67311542D01*
X87239200Y-67216304D01*
X87286819Y-67168685D01*
X87382057Y-67121066D01*
X87524914Y-67121066D01*
X87620152Y-67168685D01*
X87667771Y-67216304D01*
X87715390Y-67311542D01*
X87715390Y-67692495D01*
X87191580Y-66216304D02*
X87191580Y-66692495D01*
X87667771Y-66740114D01*
X87620152Y-66692495D01*
X87572533Y-66597257D01*
X87572533Y-66359161D01*
X87620152Y-66263923D01*
X87667771Y-66216304D01*
X87763009Y-66168685D01*
X88001104Y-66168685D01*
X88096342Y-66216304D01*
X88143961Y-66263923D01*
X88191580Y-66359161D01*
X88191580Y-66597257D01*
X88143961Y-66692495D01*
X88096342Y-66740114D01*
%TO.C,U1*%
X58987095Y-54514380D02*
X58987095Y-55323904D01*
X59034714Y-55419142D01*
X59082333Y-55466761D01*
X59177571Y-55514380D01*
X59368047Y-55514380D01*
X59463285Y-55466761D01*
X59510904Y-55419142D01*
X59558523Y-55323904D01*
X59558523Y-54514380D01*
X60558523Y-55514380D02*
X59987095Y-55514380D01*
X60272809Y-55514380D02*
X60272809Y-54514380D01*
X60177571Y-54657238D01*
X60082333Y-54752476D01*
X59987095Y-54800095D01*
%TO.C,D3*%
X98499704Y-50336380D02*
X98499704Y-49336380D01*
X98737800Y-49336380D01*
X98880657Y-49384000D01*
X98975895Y-49479238D01*
X99023514Y-49574476D01*
X99071133Y-49764952D01*
X99071133Y-49907809D01*
X99023514Y-50098285D01*
X98975895Y-50193523D01*
X98880657Y-50288761D01*
X98737800Y-50336380D01*
X98499704Y-50336380D01*
X99404466Y-49336380D02*
X100023514Y-49336380D01*
X99690180Y-49717333D01*
X99833038Y-49717333D01*
X99928276Y-49764952D01*
X99975895Y-49812571D01*
X100023514Y-49907809D01*
X100023514Y-50145904D01*
X99975895Y-50241142D01*
X99928276Y-50288761D01*
X99833038Y-50336380D01*
X99547323Y-50336380D01*
X99452085Y-50288761D01*
X99404466Y-50241142D01*
%TO.C,D10*%
X36324780Y-63317285D02*
X35324780Y-63317285D01*
X35324780Y-63079190D01*
X35372400Y-62936333D01*
X35467638Y-62841095D01*
X35562876Y-62793476D01*
X35753352Y-62745857D01*
X35896209Y-62745857D01*
X36086685Y-62793476D01*
X36181923Y-62841095D01*
X36277161Y-62936333D01*
X36324780Y-63079190D01*
X36324780Y-63317285D01*
X36324780Y-61793476D02*
X36324780Y-62364904D01*
X36324780Y-62079190D02*
X35324780Y-62079190D01*
X35467638Y-62174428D01*
X35562876Y-62269666D01*
X35610495Y-62364904D01*
X35324780Y-61174428D02*
X35324780Y-61079190D01*
X35372400Y-60983952D01*
X35420019Y-60936333D01*
X35515257Y-60888714D01*
X35705733Y-60841095D01*
X35943828Y-60841095D01*
X36134304Y-60888714D01*
X36229542Y-60936333D01*
X36277161Y-60983952D01*
X36324780Y-61079190D01*
X36324780Y-61174428D01*
X36277161Y-61269666D01*
X36229542Y-61317285D01*
X36134304Y-61364904D01*
X35943828Y-61412523D01*
X35705733Y-61412523D01*
X35515257Y-61364904D01*
X35420019Y-61317285D01*
X35372400Y-61269666D01*
X35324780Y-61174428D01*
%TO.C,D5*%
X41910804Y-77974180D02*
X41910804Y-76974180D01*
X42148900Y-76974180D01*
X42291757Y-77021800D01*
X42386995Y-77117038D01*
X42434614Y-77212276D01*
X42482233Y-77402752D01*
X42482233Y-77545609D01*
X42434614Y-77736085D01*
X42386995Y-77831323D01*
X42291757Y-77926561D01*
X42148900Y-77974180D01*
X41910804Y-77974180D01*
X43386995Y-76974180D02*
X42910804Y-76974180D01*
X42863185Y-77450371D01*
X42910804Y-77402752D01*
X43006042Y-77355133D01*
X43244138Y-77355133D01*
X43339376Y-77402752D01*
X43386995Y-77450371D01*
X43434614Y-77545609D01*
X43434614Y-77783704D01*
X43386995Y-77878942D01*
X43339376Y-77926561D01*
X43244138Y-77974180D01*
X43006042Y-77974180D01*
X42910804Y-77926561D01*
X42863185Y-77878942D01*
%TO.C,D9*%
X94827164Y-71743541D02*
X94197243Y-71743541D01*
X94197243Y-71593560D01*
X94227239Y-71503571D01*
X94287231Y-71443579D01*
X94347224Y-71413583D01*
X94467209Y-71383586D01*
X94557198Y-71383586D01*
X94677183Y-71413583D01*
X94737175Y-71443579D01*
X94797168Y-71503571D01*
X94827164Y-71593560D01*
X94827164Y-71743541D01*
X94827164Y-71083624D02*
X94827164Y-70963639D01*
X94797168Y-70903647D01*
X94767171Y-70873650D01*
X94677183Y-70813658D01*
X94557198Y-70783662D01*
X94317228Y-70783662D01*
X94257235Y-70813658D01*
X94227239Y-70843654D01*
X94197243Y-70903647D01*
X94197243Y-71023631D01*
X94227239Y-71083624D01*
X94257235Y-71113620D01*
X94317228Y-71143616D01*
X94467209Y-71143616D01*
X94527201Y-71113620D01*
X94557198Y-71083624D01*
X94587194Y-71023631D01*
X94587194Y-70903647D01*
X94557198Y-70843654D01*
X94527201Y-70813658D01*
X94467209Y-70783662D01*
%TO.C,BT2*%
X45675771Y-31849914D02*
X45723390Y-31707057D01*
X45771009Y-31659438D01*
X45866247Y-31611819D01*
X46009104Y-31611819D01*
X46104342Y-31659438D01*
X46151961Y-31707057D01*
X46199580Y-31802295D01*
X46199580Y-32183247D01*
X45199580Y-32183247D01*
X45199580Y-31849914D01*
X45247200Y-31754676D01*
X45294819Y-31707057D01*
X45390057Y-31659438D01*
X45485295Y-31659438D01*
X45580533Y-31707057D01*
X45628152Y-31754676D01*
X45675771Y-31849914D01*
X45675771Y-32183247D01*
X45199580Y-31326104D02*
X45199580Y-30754676D01*
X46199580Y-31040390D02*
X45199580Y-31040390D01*
X45294819Y-30468961D02*
X45247200Y-30421342D01*
X45199580Y-30326104D01*
X45199580Y-30088009D01*
X45247200Y-29992771D01*
X45294819Y-29945152D01*
X45390057Y-29897533D01*
X45485295Y-29897533D01*
X45628152Y-29945152D01*
X46199580Y-30516580D01*
X46199580Y-29897533D01*
%TO.C,R48*%
X50558980Y-53728857D02*
X50082790Y-54062190D01*
X50558980Y-54300285D02*
X49558980Y-54300285D01*
X49558980Y-53919333D01*
X49606600Y-53824095D01*
X49654219Y-53776476D01*
X49749457Y-53728857D01*
X49892314Y-53728857D01*
X49987552Y-53776476D01*
X50035171Y-53824095D01*
X50082790Y-53919333D01*
X50082790Y-54300285D01*
X49892314Y-52871714D02*
X50558980Y-52871714D01*
X49511361Y-53109809D02*
X50225647Y-53347904D01*
X50225647Y-52728857D01*
X49987552Y-52205047D02*
X49939933Y-52300285D01*
X49892314Y-52347904D01*
X49797076Y-52395523D01*
X49749457Y-52395523D01*
X49654219Y-52347904D01*
X49606600Y-52300285D01*
X49558980Y-52205047D01*
X49558980Y-52014571D01*
X49606600Y-51919333D01*
X49654219Y-51871714D01*
X49749457Y-51824095D01*
X49797076Y-51824095D01*
X49892314Y-51871714D01*
X49939933Y-51919333D01*
X49987552Y-52014571D01*
X49987552Y-52205047D01*
X50035171Y-52300285D01*
X50082790Y-52347904D01*
X50178028Y-52395523D01*
X50368504Y-52395523D01*
X50463742Y-52347904D01*
X50511361Y-52300285D01*
X50558980Y-52205047D01*
X50558980Y-52014571D01*
X50511361Y-51919333D01*
X50463742Y-51871714D01*
X50368504Y-51824095D01*
X50178028Y-51824095D01*
X50082790Y-51871714D01*
X50035171Y-51919333D01*
X49987552Y-52014571D01*
%TO.C,R4*%
X73114180Y-41822666D02*
X72637990Y-42156000D01*
X73114180Y-42394095D02*
X72114180Y-42394095D01*
X72114180Y-42013142D01*
X72161800Y-41917904D01*
X72209419Y-41870285D01*
X72304657Y-41822666D01*
X72447514Y-41822666D01*
X72542752Y-41870285D01*
X72590371Y-41917904D01*
X72637990Y-42013142D01*
X72637990Y-42394095D01*
X72447514Y-40965523D02*
X73114180Y-40965523D01*
X72066561Y-41203619D02*
X72780847Y-41441714D01*
X72780847Y-40822666D01*
%TO.C,C27*%
X46135542Y-53601857D02*
X46183161Y-53649476D01*
X46230780Y-53792333D01*
X46230780Y-53887571D01*
X46183161Y-54030428D01*
X46087923Y-54125666D01*
X45992685Y-54173285D01*
X45802209Y-54220904D01*
X45659352Y-54220904D01*
X45468876Y-54173285D01*
X45373638Y-54125666D01*
X45278400Y-54030428D01*
X45230780Y-53887571D01*
X45230780Y-53792333D01*
X45278400Y-53649476D01*
X45326019Y-53601857D01*
X45326019Y-53220904D02*
X45278400Y-53173285D01*
X45230780Y-53078047D01*
X45230780Y-52839952D01*
X45278400Y-52744714D01*
X45326019Y-52697095D01*
X45421257Y-52649476D01*
X45516495Y-52649476D01*
X45659352Y-52697095D01*
X46230780Y-53268523D01*
X46230780Y-52649476D01*
X45230780Y-52316142D02*
X45230780Y-51649476D01*
X46230780Y-52078047D01*
%TO.C,R9*%
X64366380Y-66079666D02*
X63890190Y-66413000D01*
X64366380Y-66651095D02*
X63366380Y-66651095D01*
X63366380Y-66270142D01*
X63414000Y-66174904D01*
X63461619Y-66127285D01*
X63556857Y-66079666D01*
X63699714Y-66079666D01*
X63794952Y-66127285D01*
X63842571Y-66174904D01*
X63890190Y-66270142D01*
X63890190Y-66651095D01*
X64366380Y-65603476D02*
X64366380Y-65413000D01*
X64318761Y-65317761D01*
X64271142Y-65270142D01*
X64128285Y-65174904D01*
X63937809Y-65127285D01*
X63556857Y-65127285D01*
X63461619Y-65174904D01*
X63414000Y-65222523D01*
X63366380Y-65317761D01*
X63366380Y-65508238D01*
X63414000Y-65603476D01*
X63461619Y-65651095D01*
X63556857Y-65698714D01*
X63794952Y-65698714D01*
X63890190Y-65651095D01*
X63937809Y-65603476D01*
X63985428Y-65508238D01*
X63985428Y-65317761D01*
X63937809Y-65222523D01*
X63890190Y-65174904D01*
X63794952Y-65127285D01*
%TO.C,R24*%
X95389980Y-79001857D02*
X94913790Y-79335190D01*
X95389980Y-79573285D02*
X94389980Y-79573285D01*
X94389980Y-79192333D01*
X94437600Y-79097095D01*
X94485219Y-79049476D01*
X94580457Y-79001857D01*
X94723314Y-79001857D01*
X94818552Y-79049476D01*
X94866171Y-79097095D01*
X94913790Y-79192333D01*
X94913790Y-79573285D01*
X94485219Y-78620904D02*
X94437600Y-78573285D01*
X94389980Y-78478047D01*
X94389980Y-78239952D01*
X94437600Y-78144714D01*
X94485219Y-78097095D01*
X94580457Y-78049476D01*
X94675695Y-78049476D01*
X94818552Y-78097095D01*
X95389980Y-78668523D01*
X95389980Y-78049476D01*
X94723314Y-77192333D02*
X95389980Y-77192333D01*
X94342361Y-77430428D02*
X95056647Y-77668523D01*
X95056647Y-77049476D01*
%TO.C,D1*%
X73455304Y-33980380D02*
X73455304Y-32980380D01*
X73693400Y-32980380D01*
X73836257Y-33028000D01*
X73931495Y-33123238D01*
X73979114Y-33218476D01*
X74026733Y-33408952D01*
X74026733Y-33551809D01*
X73979114Y-33742285D01*
X73931495Y-33837523D01*
X73836257Y-33932761D01*
X73693400Y-33980380D01*
X73455304Y-33980380D01*
X74979114Y-33980380D02*
X74407685Y-33980380D01*
X74693400Y-33980380D02*
X74693400Y-32980380D01*
X74598161Y-33123238D01*
X74502923Y-33218476D01*
X74407685Y-33266095D01*
%TO.C,R16*%
X43451542Y-30222180D02*
X43118209Y-29745990D01*
X42880114Y-30222180D02*
X42880114Y-29222180D01*
X43261066Y-29222180D01*
X43356304Y-29269800D01*
X43403923Y-29317419D01*
X43451542Y-29412657D01*
X43451542Y-29555514D01*
X43403923Y-29650752D01*
X43356304Y-29698371D01*
X43261066Y-29745990D01*
X42880114Y-29745990D01*
X44403923Y-30222180D02*
X43832495Y-30222180D01*
X44118209Y-30222180D02*
X44118209Y-29222180D01*
X44022971Y-29365038D01*
X43927733Y-29460276D01*
X43832495Y-29507895D01*
X45261066Y-29222180D02*
X45070590Y-29222180D01*
X44975352Y-29269800D01*
X44927733Y-29317419D01*
X44832495Y-29460276D01*
X44784876Y-29650752D01*
X44784876Y-30031704D01*
X44832495Y-30126942D01*
X44880114Y-30174561D01*
X44975352Y-30222180D01*
X45165828Y-30222180D01*
X45261066Y-30174561D01*
X45308685Y-30126942D01*
X45356304Y-30031704D01*
X45356304Y-29793609D01*
X45308685Y-29698371D01*
X45261066Y-29650752D01*
X45165828Y-29603133D01*
X44975352Y-29603133D01*
X44880114Y-29650752D01*
X44832495Y-29698371D01*
X44784876Y-29793609D01*
%TO.C,J5*%
X96127156Y-75483422D02*
X96584430Y-75483422D01*
X96675884Y-75513907D01*
X96736854Y-75574877D01*
X96767339Y-75666331D01*
X96767339Y-75727301D01*
X96127156Y-74873724D02*
X96127156Y-75178573D01*
X96432005Y-75209058D01*
X96401520Y-75178573D01*
X96371035Y-75117603D01*
X96371035Y-74965178D01*
X96401520Y-74904209D01*
X96432005Y-74873724D01*
X96492975Y-74843239D01*
X96645399Y-74843239D01*
X96706369Y-74873724D01*
X96736854Y-74904209D01*
X96767339Y-74965178D01*
X96767339Y-75117603D01*
X96736854Y-75178573D01*
X96706369Y-75209058D01*
%TO.C,R39*%
X48923180Y-41486057D02*
X48446990Y-41819390D01*
X48923180Y-42057485D02*
X47923180Y-42057485D01*
X47923180Y-41676533D01*
X47970800Y-41581295D01*
X48018419Y-41533676D01*
X48113657Y-41486057D01*
X48256514Y-41486057D01*
X48351752Y-41533676D01*
X48399371Y-41581295D01*
X48446990Y-41676533D01*
X48446990Y-42057485D01*
X47923180Y-41152723D02*
X47923180Y-40533676D01*
X48304133Y-40867009D01*
X48304133Y-40724152D01*
X48351752Y-40628914D01*
X48399371Y-40581295D01*
X48494609Y-40533676D01*
X48732704Y-40533676D01*
X48827942Y-40581295D01*
X48875561Y-40628914D01*
X48923180Y-40724152D01*
X48923180Y-41009866D01*
X48875561Y-41105104D01*
X48827942Y-41152723D01*
X48923180Y-40057485D02*
X48923180Y-39867009D01*
X48875561Y-39771771D01*
X48827942Y-39724152D01*
X48685085Y-39628914D01*
X48494609Y-39581295D01*
X48113657Y-39581295D01*
X48018419Y-39628914D01*
X47970800Y-39676533D01*
X47923180Y-39771771D01*
X47923180Y-39962247D01*
X47970800Y-40057485D01*
X48018419Y-40105104D01*
X48113657Y-40152723D01*
X48351752Y-40152723D01*
X48446990Y-40105104D01*
X48494609Y-40057485D01*
X48542228Y-39962247D01*
X48542228Y-39771771D01*
X48494609Y-39676533D01*
X48446990Y-39628914D01*
X48351752Y-39581295D01*
D16*
%TO.C,IC2*%
X71110323Y-71953361D02*
X69840323Y-71953361D01*
X70989371Y-70622885D02*
X71049847Y-70683361D01*
X71110323Y-70864790D01*
X71110323Y-70985742D01*
X71049847Y-71167171D01*
X70928895Y-71288123D01*
X70807942Y-71348600D01*
X70566038Y-71409076D01*
X70384609Y-71409076D01*
X70142704Y-71348600D01*
X70021752Y-71288123D01*
X69900800Y-71167171D01*
X69840323Y-70985742D01*
X69840323Y-70864790D01*
X69900800Y-70683361D01*
X69961276Y-70622885D01*
X69961276Y-70139076D02*
X69900800Y-70078600D01*
X69840323Y-69957647D01*
X69840323Y-69655266D01*
X69900800Y-69534314D01*
X69961276Y-69473838D01*
X70082228Y-69413361D01*
X70203180Y-69413361D01*
X70384609Y-69473838D01*
X71110323Y-70199552D01*
X71110323Y-69413361D01*
D15*
%TO.C,J3*%
X48668466Y-78916780D02*
X48668466Y-79631066D01*
X48620847Y-79773923D01*
X48525609Y-79869161D01*
X48382752Y-79916780D01*
X48287514Y-79916780D01*
X49049419Y-78916780D02*
X49668466Y-78916780D01*
X49335133Y-79297733D01*
X49477990Y-79297733D01*
X49573228Y-79345352D01*
X49620847Y-79392971D01*
X49668466Y-79488209D01*
X49668466Y-79726304D01*
X49620847Y-79821542D01*
X49573228Y-79869161D01*
X49477990Y-79916780D01*
X49192276Y-79916780D01*
X49097038Y-79869161D01*
X49049419Y-79821542D01*
%TO.C,C34*%
X43451542Y-28120342D02*
X43403923Y-28167961D01*
X43261066Y-28215580D01*
X43165828Y-28215580D01*
X43022971Y-28167961D01*
X42927733Y-28072723D01*
X42880114Y-27977485D01*
X42832495Y-27787009D01*
X42832495Y-27644152D01*
X42880114Y-27453676D01*
X42927733Y-27358438D01*
X43022971Y-27263200D01*
X43165828Y-27215580D01*
X43261066Y-27215580D01*
X43403923Y-27263200D01*
X43451542Y-27310819D01*
X43784876Y-27215580D02*
X44403923Y-27215580D01*
X44070590Y-27596533D01*
X44213447Y-27596533D01*
X44308685Y-27644152D01*
X44356304Y-27691771D01*
X44403923Y-27787009D01*
X44403923Y-28025104D01*
X44356304Y-28120342D01*
X44308685Y-28167961D01*
X44213447Y-28215580D01*
X43927733Y-28215580D01*
X43832495Y-28167961D01*
X43784876Y-28120342D01*
X45261066Y-27548914D02*
X45261066Y-28215580D01*
X45022971Y-27167961D02*
X44784876Y-27882247D01*
X45403923Y-27882247D01*
%TO.C,C11*%
X69638942Y-72587142D02*
X69591323Y-72634761D01*
X69448466Y-72682380D01*
X69353228Y-72682380D01*
X69210371Y-72634761D01*
X69115133Y-72539523D01*
X69067514Y-72444285D01*
X69019895Y-72253809D01*
X69019895Y-72110952D01*
X69067514Y-71920476D01*
X69115133Y-71825238D01*
X69210371Y-71730000D01*
X69353228Y-71682380D01*
X69448466Y-71682380D01*
X69591323Y-71730000D01*
X69638942Y-71777619D01*
X70591323Y-72682380D02*
X70019895Y-72682380D01*
X70305609Y-72682380D02*
X70305609Y-71682380D01*
X70210371Y-71825238D01*
X70115133Y-71920476D01*
X70019895Y-71968095D01*
X71543704Y-72682380D02*
X70972276Y-72682380D01*
X71257990Y-72682380D02*
X71257990Y-71682380D01*
X71162752Y-71825238D01*
X71067514Y-71920476D01*
X70972276Y-71968095D01*
%TO.C,C1*%
X45781933Y-63570142D02*
X45734314Y-63617761D01*
X45591457Y-63665380D01*
X45496219Y-63665380D01*
X45353361Y-63617761D01*
X45258123Y-63522523D01*
X45210504Y-63427285D01*
X45162885Y-63236809D01*
X45162885Y-63093952D01*
X45210504Y-62903476D01*
X45258123Y-62808238D01*
X45353361Y-62713000D01*
X45496219Y-62665380D01*
X45591457Y-62665380D01*
X45734314Y-62713000D01*
X45781933Y-62760619D01*
X46734314Y-63665380D02*
X46162885Y-63665380D01*
X46448600Y-63665380D02*
X46448600Y-62665380D01*
X46353361Y-62808238D01*
X46258123Y-62903476D01*
X46162885Y-62951095D01*
%TO.C,J8*%
X38197168Y-43820133D02*
X38911454Y-43820133D01*
X39054311Y-43867752D01*
X39149549Y-43962990D01*
X39197168Y-44105847D01*
X39197168Y-44201085D01*
X38625740Y-43201085D02*
X38578121Y-43296323D01*
X38530502Y-43343942D01*
X38435264Y-43391561D01*
X38387645Y-43391561D01*
X38292407Y-43343942D01*
X38244788Y-43296323D01*
X38197168Y-43201085D01*
X38197168Y-43010609D01*
X38244788Y-42915371D01*
X38292407Y-42867752D01*
X38387645Y-42820133D01*
X38435264Y-42820133D01*
X38530502Y-42867752D01*
X38578121Y-42915371D01*
X38625740Y-43010609D01*
X38625740Y-43201085D01*
X38673359Y-43296323D01*
X38720978Y-43343942D01*
X38816216Y-43391561D01*
X39006692Y-43391561D01*
X39101930Y-43343942D01*
X39149549Y-43296323D01*
X39197168Y-43201085D01*
X39197168Y-43010609D01*
X39149549Y-42915371D01*
X39101930Y-42867752D01*
X39006692Y-42820133D01*
X38816216Y-42820133D01*
X38720978Y-42867752D01*
X38673359Y-42915371D01*
X38625740Y-43010609D01*
%TO.C,R25*%
X41955242Y-76416180D02*
X41621909Y-75939990D01*
X41383814Y-76416180D02*
X41383814Y-75416180D01*
X41764766Y-75416180D01*
X41860004Y-75463800D01*
X41907623Y-75511419D01*
X41955242Y-75606657D01*
X41955242Y-75749514D01*
X41907623Y-75844752D01*
X41860004Y-75892371D01*
X41764766Y-75939990D01*
X41383814Y-75939990D01*
X42336195Y-75511419D02*
X42383814Y-75463800D01*
X42479052Y-75416180D01*
X42717147Y-75416180D01*
X42812385Y-75463800D01*
X42860004Y-75511419D01*
X42907623Y-75606657D01*
X42907623Y-75701895D01*
X42860004Y-75844752D01*
X42288576Y-76416180D01*
X42907623Y-76416180D01*
X43812385Y-75416180D02*
X43336195Y-75416180D01*
X43288576Y-75892371D01*
X43336195Y-75844752D01*
X43431433Y-75797133D01*
X43669528Y-75797133D01*
X43764766Y-75844752D01*
X43812385Y-75892371D01*
X43860004Y-75987609D01*
X43860004Y-76225704D01*
X43812385Y-76320942D01*
X43764766Y-76368561D01*
X43669528Y-76416180D01*
X43431433Y-76416180D01*
X43336195Y-76368561D01*
X43288576Y-76320942D01*
%TO.C,R1*%
X53545980Y-61939466D02*
X53069790Y-62272800D01*
X53545980Y-62510895D02*
X52545980Y-62510895D01*
X52545980Y-62129942D01*
X52593600Y-62034704D01*
X52641219Y-61987085D01*
X52736457Y-61939466D01*
X52879314Y-61939466D01*
X52974552Y-61987085D01*
X53022171Y-62034704D01*
X53069790Y-62129942D01*
X53069790Y-62510895D01*
X53545980Y-60987085D02*
X53545980Y-61558514D01*
X53545980Y-61272800D02*
X52545980Y-61272800D01*
X52688838Y-61368038D01*
X52784076Y-61463276D01*
X52831695Y-61558514D01*
%TO.C,L1*%
X57821533Y-84330780D02*
X57345342Y-84330780D01*
X57345342Y-83330780D01*
X58678676Y-84330780D02*
X58107247Y-84330780D01*
X58392961Y-84330780D02*
X58392961Y-83330780D01*
X58297723Y-83473638D01*
X58202485Y-83568876D01*
X58107247Y-83616495D01*
%TO.C,S1*%
X40483161Y-72307004D02*
X40530780Y-72164147D01*
X40530780Y-71926052D01*
X40483161Y-71830814D01*
X40435542Y-71783195D01*
X40340304Y-71735576D01*
X40245066Y-71735576D01*
X40149828Y-71783195D01*
X40102209Y-71830814D01*
X40054590Y-71926052D01*
X40006971Y-72116528D01*
X39959352Y-72211766D01*
X39911733Y-72259385D01*
X39816495Y-72307004D01*
X39721257Y-72307004D01*
X39626019Y-72259385D01*
X39578400Y-72211766D01*
X39530780Y-72116528D01*
X39530780Y-71878433D01*
X39578400Y-71735576D01*
X40530780Y-70783195D02*
X40530780Y-71354623D01*
X40530780Y-71068909D02*
X39530780Y-71068909D01*
X39673638Y-71164147D01*
X39768876Y-71259385D01*
X39816495Y-71354623D01*
%TO.C,R36*%
X40911542Y-55146180D02*
X40578209Y-54669990D01*
X40340114Y-55146180D02*
X40340114Y-54146180D01*
X40721066Y-54146180D01*
X40816304Y-54193800D01*
X40863923Y-54241419D01*
X40911542Y-54336657D01*
X40911542Y-54479514D01*
X40863923Y-54574752D01*
X40816304Y-54622371D01*
X40721066Y-54669990D01*
X40340114Y-54669990D01*
X41244876Y-54146180D02*
X41863923Y-54146180D01*
X41530590Y-54527133D01*
X41673447Y-54527133D01*
X41768685Y-54574752D01*
X41816304Y-54622371D01*
X41863923Y-54717609D01*
X41863923Y-54955704D01*
X41816304Y-55050942D01*
X41768685Y-55098561D01*
X41673447Y-55146180D01*
X41387733Y-55146180D01*
X41292495Y-55098561D01*
X41244876Y-55050942D01*
X42721066Y-54146180D02*
X42530590Y-54146180D01*
X42435352Y-54193800D01*
X42387733Y-54241419D01*
X42292495Y-54384276D01*
X42244876Y-54574752D01*
X42244876Y-54955704D01*
X42292495Y-55050942D01*
X42340114Y-55098561D01*
X42435352Y-55146180D01*
X42625828Y-55146180D01*
X42721066Y-55098561D01*
X42768685Y-55050942D01*
X42816304Y-54955704D01*
X42816304Y-54717609D01*
X42768685Y-54622371D01*
X42721066Y-54574752D01*
X42625828Y-54527133D01*
X42435352Y-54527133D01*
X42340114Y-54574752D01*
X42292495Y-54622371D01*
X42244876Y-54717609D01*
%TO.C,C5*%
X63628542Y-64758866D02*
X63676161Y-64806485D01*
X63723780Y-64949342D01*
X63723780Y-65044580D01*
X63676161Y-65187438D01*
X63580923Y-65282676D01*
X63485685Y-65330295D01*
X63295209Y-65377914D01*
X63152352Y-65377914D01*
X62961876Y-65330295D01*
X62866638Y-65282676D01*
X62771400Y-65187438D01*
X62723780Y-65044580D01*
X62723780Y-64949342D01*
X62771400Y-64806485D01*
X62819019Y-64758866D01*
X62723780Y-63854104D02*
X62723780Y-64330295D01*
X63199971Y-64377914D01*
X63152352Y-64330295D01*
X63104733Y-64235057D01*
X63104733Y-63996961D01*
X63152352Y-63901723D01*
X63199971Y-63854104D01*
X63295209Y-63806485D01*
X63533304Y-63806485D01*
X63628542Y-63854104D01*
X63676161Y-63901723D01*
X63723780Y-63996961D01*
X63723780Y-64235057D01*
X63676161Y-64330295D01*
X63628542Y-64377914D01*
%TO.C,R35*%
X40936942Y-53647580D02*
X40603609Y-53171390D01*
X40365514Y-53647580D02*
X40365514Y-52647580D01*
X40746466Y-52647580D01*
X40841704Y-52695200D01*
X40889323Y-52742819D01*
X40936942Y-52838057D01*
X40936942Y-52980914D01*
X40889323Y-53076152D01*
X40841704Y-53123771D01*
X40746466Y-53171390D01*
X40365514Y-53171390D01*
X41270276Y-52647580D02*
X41889323Y-52647580D01*
X41555990Y-53028533D01*
X41698847Y-53028533D01*
X41794085Y-53076152D01*
X41841704Y-53123771D01*
X41889323Y-53219009D01*
X41889323Y-53457104D01*
X41841704Y-53552342D01*
X41794085Y-53599961D01*
X41698847Y-53647580D01*
X41413133Y-53647580D01*
X41317895Y-53599961D01*
X41270276Y-53552342D01*
X42794085Y-52647580D02*
X42317895Y-52647580D01*
X42270276Y-53123771D01*
X42317895Y-53076152D01*
X42413133Y-53028533D01*
X42651228Y-53028533D01*
X42746466Y-53076152D01*
X42794085Y-53123771D01*
X42841704Y-53219009D01*
X42841704Y-53457104D01*
X42794085Y-53552342D01*
X42746466Y-53599961D01*
X42651228Y-53647580D01*
X42413133Y-53647580D01*
X42317895Y-53599961D01*
X42270276Y-53552342D01*
%TO.C,C12*%
X41373942Y-41740057D02*
X41421561Y-41787676D01*
X41469180Y-41930533D01*
X41469180Y-42025771D01*
X41421561Y-42168628D01*
X41326323Y-42263866D01*
X41231085Y-42311485D01*
X41040609Y-42359104D01*
X40897752Y-42359104D01*
X40707276Y-42311485D01*
X40612038Y-42263866D01*
X40516800Y-42168628D01*
X40469180Y-42025771D01*
X40469180Y-41930533D01*
X40516800Y-41787676D01*
X40564419Y-41740057D01*
X41469180Y-40787676D02*
X41469180Y-41359104D01*
X41469180Y-41073390D02*
X40469180Y-41073390D01*
X40612038Y-41168628D01*
X40707276Y-41263866D01*
X40754895Y-41359104D01*
X40564419Y-40406723D02*
X40516800Y-40359104D01*
X40469180Y-40263866D01*
X40469180Y-40025771D01*
X40516800Y-39930533D01*
X40564419Y-39882914D01*
X40659657Y-39835295D01*
X40754895Y-39835295D01*
X40897752Y-39882914D01*
X41469180Y-40454342D01*
X41469180Y-39835295D01*
D11*
%TO.C,R3*%
X72070700Y-41893258D02*
X72070700Y-41418742D01*
X73115700Y-41893258D02*
X73115700Y-41418742D01*
D17*
%TO.C,D7*%
X95927200Y-75059600D02*
X95927200Y-74259600D01*
X96757200Y-74259600D02*
X96757200Y-75059600D01*
D18*
X96442200Y-73008600D02*
G75*
G03*
X96442200Y-73008600I-100000J0D01*
G01*
D17*
%TO.C,U4*%
X54500900Y-68810000D02*
X54500900Y-78462000D01*
X64675900Y-68810000D02*
X64533900Y-68810000D01*
X54500900Y-78462000D02*
X54627900Y-78462000D01*
X64675900Y-78462000D02*
X64533900Y-78462000D01*
X64675900Y-68810000D02*
X64675900Y-78462000D01*
X54627900Y-68810000D02*
X54500900Y-68810000D01*
X64332503Y-70334000D02*
G75*
G03*
X64332503Y-70334000I-179603J0D01*
G01*
D11*
%TO.C,C3*%
X53697600Y-61913380D02*
X53697600Y-61632220D01*
X52677600Y-61913380D02*
X52677600Y-61632220D01*
%TO.C,C7*%
X66677000Y-64502420D02*
X66677000Y-64783580D01*
X65657000Y-64502420D02*
X65657000Y-64783580D01*
%TO.C,R6*%
X82787258Y-68188100D02*
X82312742Y-68188100D01*
X82787258Y-67143100D02*
X82312742Y-67143100D01*
%TO.C,C44*%
X50338400Y-35153548D02*
X50338400Y-36576052D01*
X48518400Y-35153548D02*
X48518400Y-36576052D01*
%TO.C,R42*%
X49591700Y-41080458D02*
X49591700Y-40605942D01*
X50636700Y-41080458D02*
X50636700Y-40605942D01*
%TO.C,R13*%
X38548542Y-30287700D02*
X39023058Y-30287700D01*
X38548542Y-31332700D02*
X39023058Y-31332700D01*
%TO.C,Q3*%
X38513400Y-37228800D02*
X36253400Y-37228800D01*
X36253400Y-35188800D02*
X36253400Y-35008800D01*
X38473400Y-35008800D02*
X36253400Y-35008800D01*
X38473400Y-35188800D02*
X38473400Y-35008800D01*
X36253400Y-37228800D02*
X36253400Y-37048800D01*
%TO.C,C9*%
X87649164Y-43057400D02*
X87864836Y-43057400D01*
X87649164Y-42337400D02*
X87864836Y-42337400D01*
%TO.C,R46*%
X57853864Y-33469000D02*
X53499736Y-33469000D01*
X57853864Y-36889000D02*
X53499736Y-36889000D01*
%TO.C,R14*%
X43229264Y-32666000D02*
X42775136Y-32666000D01*
X43229264Y-34136000D02*
X42775136Y-34136000D01*
%TO.C,R33*%
X41317142Y-49744100D02*
X41791658Y-49744100D01*
X41317142Y-50789100D02*
X41791658Y-50789100D01*
D17*
%TO.C,J1*%
X101802800Y-54245000D02*
X101802800Y-56245000D01*
X99602800Y-58445000D02*
X97602800Y-58445000D01*
X97602800Y-52045000D02*
X99602800Y-52045000D01*
X95402800Y-56245000D02*
X95402800Y-54245000D01*
D11*
%TO.C,C28*%
X41388420Y-47754000D02*
X41669580Y-47754000D01*
X41388420Y-46734000D02*
X41669580Y-46734000D01*
%TO.C,R11*%
X60796700Y-81499942D02*
X60796700Y-81974458D01*
X59751700Y-81499942D02*
X59751700Y-81974458D01*
%TO.C,D11*%
X41222600Y-62953800D02*
X41222600Y-60668800D01*
X41222600Y-60668800D02*
X39752600Y-60668800D01*
X39752600Y-60668800D02*
X39752600Y-62953800D01*
D17*
%TO.C,U6*%
X50508900Y-44649600D02*
X49793900Y-44649600D01*
X50508900Y-45064600D02*
X50508900Y-44649600D01*
X46078900Y-49279600D02*
X46793900Y-49279600D01*
X46078900Y-48864600D02*
X46078900Y-49279600D01*
X46078900Y-45064600D02*
X46078900Y-44649600D01*
X50508900Y-49279600D02*
X49793900Y-49279600D01*
X46078900Y-44649600D02*
X46793900Y-44649600D01*
X50508900Y-48864600D02*
X50508900Y-49279600D01*
D18*
X45493900Y-45164600D02*
G75*
G03*
X45493900Y-45164600I-100000J0D01*
G01*
D11*
%TO.C,C13*%
X81774420Y-43385200D02*
X82055580Y-43385200D01*
X81774420Y-42365200D02*
X82055580Y-42365200D01*
%TO.C,D12*%
X38200000Y-60618000D02*
X36730000Y-60618000D01*
X36730000Y-60618000D02*
X36730000Y-62903000D01*
X38200000Y-62903000D02*
X38200000Y-60618000D01*
%TO.C,C19*%
X78103000Y-66559820D02*
X78103000Y-66840980D01*
X79123000Y-66559820D02*
X79123000Y-66840980D01*
%TO.C,C17*%
X82690580Y-66727800D02*
X82409420Y-66727800D01*
X82690580Y-65707800D02*
X82409420Y-65707800D01*
%TO.C,C10*%
X87794220Y-40841200D02*
X88075380Y-40841200D01*
X87794220Y-41861200D02*
X88075380Y-41861200D01*
%TO.C,D12*%
X38200000Y-60618000D02*
X36730000Y-60618000D01*
X38200000Y-62903000D02*
X38200000Y-60618000D01*
X36730000Y-60618000D02*
X36730000Y-62903000D01*
D10*
%TO.C,J2*%
X91113796Y-77690000D02*
X91113796Y-72690000D01*
X75613796Y-77690000D02*
X75613796Y-72690000D01*
X91113796Y-87190000D02*
X75613796Y-87190000D01*
D11*
%TO.C,R29*%
X69130142Y-66562500D02*
X69604658Y-66562500D01*
X69130142Y-65517500D02*
X69604658Y-65517500D01*
D17*
%TO.C,L3*%
X52128400Y-44824200D02*
X52128400Y-37674200D01*
X59328400Y-44824200D02*
X59328400Y-37674200D01*
D11*
%TO.C,C2*%
X54150800Y-61913380D02*
X54150800Y-61632220D01*
X55170800Y-61913380D02*
X55170800Y-61632220D01*
%TO.C,R10*%
X60437500Y-65675742D02*
X60437500Y-66150258D01*
X61482500Y-65675742D02*
X61482500Y-66150258D01*
%TO.C,C16*%
X84275200Y-66813820D02*
X84275200Y-67094980D01*
X85295200Y-66813820D02*
X85295200Y-67094980D01*
%TO.C,R37*%
X49112700Y-40605942D02*
X49112700Y-41080458D01*
X48067700Y-40605942D02*
X48067700Y-41080458D01*
%TO.C,R30*%
X72627258Y-66562500D02*
X72152742Y-66562500D01*
X72627258Y-65517500D02*
X72152742Y-65517500D01*
D17*
%TO.C,IC3*%
X42280800Y-31687200D02*
X42280800Y-30187200D01*
X40370800Y-31687200D02*
X40370800Y-30187200D01*
D18*
X40925800Y-32712200D02*
G75*
G03*
X40925800Y-32712200I-100000J0D01*
G01*
D11*
%TO.C,U2*%
X91526000Y-63266000D02*
X91526000Y-60956000D01*
X91526000Y-45446000D02*
X88566000Y-45446000D01*
X75606000Y-63266000D02*
X78566000Y-63266000D01*
X91526000Y-63266000D02*
X88566000Y-63266000D01*
X91526000Y-45446000D02*
X91526000Y-47756000D01*
X75716000Y-45446000D02*
X78566000Y-45446000D01*
X75606000Y-63266000D02*
X75606000Y-60956000D01*
%TO.C,R15*%
X38761936Y-34009000D02*
X39216064Y-34009000D01*
X38761936Y-32539000D02*
X39216064Y-32539000D01*
%TO.C,R8*%
X94377742Y-49950900D02*
X94852258Y-49950900D01*
X94377742Y-48905900D02*
X94852258Y-48905900D01*
%TO.C,C20*%
X43563000Y-44893620D02*
X43563000Y-45174780D01*
X42543000Y-44893620D02*
X42543000Y-45174780D01*
D17*
%TO.C,S2*%
X81980600Y-38216400D02*
X77480600Y-38216400D01*
X81980600Y-33716400D02*
X81980600Y-38216400D01*
X77480600Y-38216400D02*
X77480600Y-33716400D01*
X77480600Y-33716400D02*
X81980600Y-33716400D01*
D18*
X74830600Y-37466400D02*
G75*
G03*
X74830600Y-37466400I-100000J0D01*
G01*
D11*
%TO.C,C38*%
X46105400Y-35153548D02*
X46105400Y-36576052D01*
X47925400Y-35153548D02*
X47925400Y-36576052D01*
%TO.C,C6*%
X56882420Y-54481000D02*
X57163580Y-54481000D01*
X56882420Y-55501000D02*
X57163580Y-55501000D01*
%TO.C,Q1*%
X40063400Y-37254200D02*
X40063400Y-37074200D01*
X42283400Y-35214200D02*
X42283400Y-35034200D01*
X42323400Y-37254200D02*
X40063400Y-37254200D01*
X42283400Y-35034200D02*
X40063400Y-35034200D01*
X40063400Y-35214200D02*
X40063400Y-35034200D01*
%TO.C,R12*%
X55179700Y-81474542D02*
X55179700Y-81949058D01*
X56224700Y-81474542D02*
X56224700Y-81949058D01*
%TO.C,J4*%
X35391400Y-67843400D02*
X35391400Y-80603400D01*
X32731400Y-80603400D02*
X35391400Y-80603400D01*
X32731400Y-66573400D02*
X32731400Y-65243400D01*
X32731400Y-65243400D02*
X34061400Y-65243400D01*
X32731400Y-67843400D02*
X32731400Y-80603400D01*
X32731400Y-67843400D02*
X35391400Y-67843400D01*
%TO.C,R38*%
X50560500Y-52772542D02*
X50560500Y-53247058D01*
X49515500Y-52772542D02*
X49515500Y-53247058D01*
%TO.C,R50*%
X49087300Y-53272458D02*
X49087300Y-52797942D01*
X48042300Y-53272458D02*
X48042300Y-52797942D01*
%TO.C,R47*%
X43626300Y-42045658D02*
X43626300Y-41571142D01*
X42581300Y-42045658D02*
X42581300Y-41571142D01*
%TO.C,U3*%
X67443200Y-55092600D02*
X67443200Y-57292600D01*
X72663200Y-55092600D02*
X72663200Y-51492600D01*
X67443200Y-55092600D02*
X67443200Y-52892600D01*
X72663200Y-55092600D02*
X72663200Y-57292600D01*
%TO.C,Q2*%
X76809600Y-42581000D02*
X76159600Y-42581000D01*
X76809600Y-39461000D02*
X77459600Y-39461000D01*
X76809600Y-42581000D02*
X77459600Y-42581000D01*
X76809600Y-39461000D02*
X75134600Y-39461000D01*
%TO.C,J7*%
X67244200Y-29912000D02*
X68574200Y-29912000D01*
X68574200Y-29912000D02*
X68574200Y-31242000D01*
X65974200Y-32572000D02*
X60834200Y-32572000D01*
X60834200Y-29912000D02*
X60834200Y-32572000D01*
X65974200Y-29912000D02*
X65974200Y-32572000D01*
X65974200Y-29912000D02*
X60834200Y-29912000D01*
%TO.C,R40*%
X41766258Y-48194700D02*
X41291742Y-48194700D01*
X41766258Y-49239700D02*
X41291742Y-49239700D01*
%TO.C,R7*%
X80735700Y-66463142D02*
X80735700Y-66937658D01*
X79690700Y-66463142D02*
X79690700Y-66937658D01*
%TO.C,R34*%
X47156900Y-53247058D02*
X47156900Y-52772542D01*
X46111900Y-53247058D02*
X46111900Y-52772542D01*
%TO.C,C18*%
X41581800Y-41693220D02*
X41581800Y-41974380D01*
X40561800Y-41693220D02*
X40561800Y-41974380D01*
%TO.C,D2*%
X72424800Y-37394000D02*
X69739800Y-37394000D01*
X69739800Y-39314000D02*
X72424800Y-39314000D01*
X69739800Y-37394000D02*
X69739800Y-39314000D01*
%TO.C,C8*%
X87649164Y-43997200D02*
X87864836Y-43997200D01*
X87649164Y-43277200D02*
X87864836Y-43277200D01*
%TO.C,R5*%
X85786700Y-66717142D02*
X85786700Y-67191658D01*
X86831700Y-66717142D02*
X86831700Y-67191658D01*
%TO.C,U1*%
X56614000Y-56272000D02*
X56139000Y-56272000D01*
X62884000Y-56272000D02*
X63359000Y-56272000D01*
X62884000Y-63492000D02*
X63359000Y-63492000D01*
X63359000Y-63492000D02*
X63359000Y-63017000D01*
X56139000Y-63492000D02*
X56139000Y-63017000D01*
X63359000Y-56272000D02*
X63359000Y-56747000D01*
X56614000Y-63492000D02*
X56139000Y-63492000D01*
D10*
%TO.C,D3*%
X98197800Y-51054000D02*
G75*
G03*
X98197800Y-51054000I-50000J0D01*
G01*
D11*
%TO.C,D10*%
X35177400Y-60618000D02*
X33707400Y-60618000D01*
X35177400Y-62903000D02*
X35177400Y-60618000D01*
X33707400Y-60618000D02*
X33707400Y-62903000D01*
%TO.C,D5*%
X40963900Y-80131800D02*
X43648900Y-80131800D01*
X43648900Y-78211800D02*
X40963900Y-78211800D01*
X40963900Y-78211800D02*
X40963900Y-80131800D01*
D17*
%TO.C,D9*%
X95927200Y-72628600D02*
X95927200Y-71828600D01*
X96757200Y-71828600D02*
X96757200Y-72628600D01*
D18*
X96442200Y-73879600D02*
G75*
G03*
X96442200Y-73879600I-100000J0D01*
G01*
D11*
%TO.C,BT2*%
X49347200Y-29734200D02*
X51947200Y-29734200D01*
X46747200Y-32394200D02*
X46747200Y-31064200D01*
X51947200Y-32394200D02*
X51947200Y-29734200D01*
X49347200Y-32394200D02*
X51947200Y-32394200D01*
X48077200Y-32394200D02*
X46747200Y-32394200D01*
X49347200Y-32394200D02*
X49347200Y-29734200D01*
%TO.C,R48*%
X51014100Y-53323258D02*
X51014100Y-52848742D01*
X52059100Y-53323258D02*
X52059100Y-52848742D01*
%TO.C,R4*%
X74614300Y-41893258D02*
X74614300Y-41418742D01*
X73569300Y-41893258D02*
X73569300Y-41418742D01*
%TO.C,C27*%
X44858400Y-52818420D02*
X44858400Y-53099580D01*
X43838400Y-52818420D02*
X43838400Y-53099580D01*
%TO.C,R9*%
X63006500Y-65675742D02*
X63006500Y-66150258D01*
X61961500Y-65675742D02*
X61961500Y-66150258D01*
%TO.C,R24*%
X95845100Y-78596258D02*
X95845100Y-78121742D01*
X96890100Y-78596258D02*
X96890100Y-78121742D01*
%TO.C,D1*%
X69765200Y-33507800D02*
X69765200Y-35427800D01*
X72450200Y-33507800D02*
X69765200Y-33507800D01*
X69765200Y-35427800D02*
X72450200Y-35427800D01*
%TO.C,R16*%
X43867336Y-30684800D02*
X44321464Y-30684800D01*
X43867336Y-32154800D02*
X44321464Y-32154800D01*
D17*
%TO.C,J5*%
X99365800Y-77861600D02*
X97835800Y-77861600D01*
X99365800Y-69661600D02*
X97835800Y-69661600D01*
X97835800Y-77861600D02*
X97835800Y-77241600D01*
X97835800Y-69661600D02*
X97835800Y-70281600D01*
D18*
X96985800Y-72461600D02*
G75*
G03*
X96985800Y-72461600I-100000J0D01*
G01*
D11*
%TO.C,R39*%
X47563300Y-40605942D02*
X47563300Y-41080458D01*
X46518300Y-40605942D02*
X46518300Y-41080458D01*
D18*
%TO.C,IC2*%
X69535800Y-70763600D02*
X69535800Y-70663600D01*
X69535800Y-70663600D02*
X71535800Y-70663600D01*
X71535800Y-70663600D02*
X71535800Y-70763600D01*
X71535800Y-70763600D02*
X69535800Y-70763600D01*
D19*
X69260800Y-72313600D02*
G75*
G03*
X69260800Y-72313600I-125000J0D01*
G01*
D17*
%TO.C,J3*%
X50326800Y-87299400D02*
X48326800Y-87299400D01*
X46126800Y-85099400D02*
X46126800Y-83099400D01*
X48326800Y-80899400D02*
X50326800Y-80899400D01*
X52526800Y-83099400D02*
X52526800Y-85099400D01*
D11*
%TO.C,C34*%
X43867336Y-30148200D02*
X44321464Y-30148200D01*
X43867336Y-28678200D02*
X44321464Y-28678200D01*
%TO.C,C11*%
X70141220Y-74170000D02*
X70422380Y-74170000D01*
X70141220Y-73150000D02*
X70422380Y-73150000D01*
%TO.C,C1*%
X45808020Y-64133000D02*
X46089180Y-64133000D01*
X45808020Y-65153000D02*
X46089180Y-65153000D01*
D18*
%TO.C,J8*%
X31359788Y-39141800D02*
X30209788Y-39141800D01*
X30209788Y-39141800D02*
X30209788Y-48081800D01*
X30209788Y-48081800D02*
X31359788Y-48081800D01*
D11*
%TO.C,R25*%
X42360842Y-77916300D02*
X42835358Y-77916300D01*
X42360842Y-76871300D02*
X42835358Y-76871300D01*
%TO.C,R1*%
X51141100Y-61535542D02*
X51141100Y-62010058D01*
X52186100Y-61535542D02*
X52186100Y-62010058D01*
%TO.C,L1*%
X58150979Y-81938400D02*
X57825421Y-81938400D01*
X58150979Y-82958400D02*
X57825421Y-82958400D01*
D17*
%TO.C,S1*%
X41463400Y-67820100D02*
X45963400Y-67820100D01*
X45963400Y-72320100D02*
X41463400Y-72320100D01*
X45963400Y-67820100D02*
X45963400Y-72320100D01*
X41463400Y-72320100D02*
X41463400Y-67820100D01*
D18*
X45313400Y-75070100D02*
G75*
G03*
X45313400Y-75070100I-100000J0D01*
G01*
D11*
%TO.C,R36*%
X41791658Y-53786300D02*
X41317142Y-53786300D01*
X41791658Y-52741300D02*
X41317142Y-52741300D01*
%TO.C,C5*%
X65153000Y-64502420D02*
X65153000Y-64783580D01*
X64133000Y-64502420D02*
X64133000Y-64783580D01*
%TO.C,R35*%
X41817058Y-51242700D02*
X41342542Y-51242700D01*
X41817058Y-52287700D02*
X41342542Y-52287700D01*
%TO.C,C12*%
X40076800Y-40385948D02*
X40076800Y-41808452D01*
X38256800Y-40385948D02*
X38256800Y-41808452D01*
%TD*%
M02*
