%TF.GenerationSoftware,KiCad,Pcbnew,(6.0.2)*%
%TF.CreationDate,2022-09-17T14:06:50-08:00*%
%TF.ProjectId,HERTZ200,48455254-5a32-4303-902e-6b696361645f,VERSION 1*%
%TF.SameCoordinates,Original*%
%TF.FileFunction,Copper,L1,Top*%
%TF.FilePolarity,Positive*%
%FSLAX46Y46*%
G04 Gerber Fmt 4.6, Leading zero omitted, Abs format (unit mm)*
G04 Created by KiCad (PCBNEW (6.0.2)) date 2022-09-17 14:06:50*
%MOMM*%
%LPD*%
G01*
G04 APERTURE LIST*
G04 Aperture macros list*
%AMRoundRect*
0 Rectangle with rounded corners*
0 $1 Rounding radius*
0 $2 $3 $4 $5 $6 $7 $8 $9 X,Y pos of 4 corners*
0 Add a 4 corners polygon primitive as box body*
4,1,4,$2,$3,$4,$5,$6,$7,$8,$9,$2,$3,0*
0 Add four circle primitives for the rounded corners*
1,1,$1+$1,$2,$3*
1,1,$1+$1,$4,$5*
1,1,$1+$1,$6,$7*
1,1,$1+$1,$8,$9*
0 Add four rect primitives between the rounded corners*
20,1,$1+$1,$2,$3,$4,$5,0*
20,1,$1+$1,$4,$5,$6,$7,0*
20,1,$1+$1,$6,$7,$8,$9,0*
20,1,$1+$1,$8,$9,$2,$3,0*%
G04 Aperture macros list end*
%TA.AperFunction,EtchedComponent*%
%ADD10C,0.010000*%
%TD*%
%TA.AperFunction,SMDPad,CuDef*%
%ADD11RoundRect,0.200000X0.275000X-0.200000X0.275000X0.200000X-0.275000X0.200000X-0.275000X-0.200000X0*%
%TD*%
%TA.AperFunction,SMDPad,CuDef*%
%ADD12R,0.200000X0.940000*%
%TD*%
%TA.AperFunction,SMDPad,CuDef*%
%ADD13R,0.700000X2.000000*%
%TD*%
%TA.AperFunction,SMDPad,CuDef*%
%ADD14RoundRect,0.225000X0.250000X-0.225000X0.250000X0.225000X-0.250000X0.225000X-0.250000X-0.225000X0*%
%TD*%
%TA.AperFunction,SMDPad,CuDef*%
%ADD15RoundRect,0.225000X-0.250000X0.225000X-0.250000X-0.225000X0.250000X-0.225000X0.250000X0.225000X0*%
%TD*%
%TA.AperFunction,SMDPad,CuDef*%
%ADD16RoundRect,0.200000X0.200000X0.275000X-0.200000X0.275000X-0.200000X-0.275000X0.200000X-0.275000X0*%
%TD*%
%TA.AperFunction,SMDPad,CuDef*%
%ADD17RoundRect,0.250000X-0.650000X0.325000X-0.650000X-0.325000X0.650000X-0.325000X0.650000X0.325000X0*%
%TD*%
%TA.AperFunction,SMDPad,CuDef*%
%ADD18RoundRect,0.200000X-0.200000X-0.275000X0.200000X-0.275000X0.200000X0.275000X-0.200000X0.275000X0*%
%TD*%
%TA.AperFunction,SMDPad,CuDef*%
%ADD19RoundRect,0.050100X0.174900X0.099900X-0.174900X0.099900X-0.174900X-0.099900X0.174900X-0.099900X0*%
%TD*%
%TA.AperFunction,SMDPad,CuDef*%
%ADD20RoundRect,0.050100X0.324900X0.099900X-0.324900X0.099900X-0.324900X-0.099900X0.324900X-0.099900X0*%
%TD*%
%TA.AperFunction,SMDPad,CuDef*%
%ADD21RoundRect,0.050350X0.449650X0.424650X-0.449650X0.424650X-0.449650X-0.424650X0.449650X-0.424650X0*%
%TD*%
%TA.AperFunction,SMDPad,CuDef*%
%ADD22RoundRect,0.140000X-0.140000X-0.170000X0.140000X-0.170000X0.140000X0.170000X-0.140000X0.170000X0*%
%TD*%
%TA.AperFunction,SMDPad,CuDef*%
%ADD23RoundRect,0.250000X0.362500X1.425000X-0.362500X1.425000X-0.362500X-1.425000X0.362500X-1.425000X0*%
%TD*%
%TA.AperFunction,SMDPad,CuDef*%
%ADD24RoundRect,0.250000X0.262500X0.450000X-0.262500X0.450000X-0.262500X-0.450000X0.262500X-0.450000X0*%
%TD*%
%TA.AperFunction,ComponentPad*%
%ADD25C,1.508000*%
%TD*%
%TA.AperFunction,ComponentPad*%
%ADD26C,1.920000*%
%TD*%
%TA.AperFunction,SMDPad,CuDef*%
%ADD27RoundRect,0.225000X-0.225000X-0.250000X0.225000X-0.250000X0.225000X0.250000X-0.225000X0.250000X0*%
%TD*%
%TA.AperFunction,SMDPad,CuDef*%
%ADD28RoundRect,0.200000X-0.275000X0.200000X-0.275000X-0.200000X0.275000X-0.200000X0.275000X0.200000X0*%
%TD*%
%TA.AperFunction,SMDPad,CuDef*%
%ADD29RoundRect,0.218750X-0.256250X0.218750X-0.256250X-0.218750X0.256250X-0.218750X0.256250X0.218750X0*%
%TD*%
%TA.AperFunction,SMDPad,CuDef*%
%ADD30R,0.800000X0.200000*%
%TD*%
%TA.AperFunction,SMDPad,CuDef*%
%ADD31R,0.400000X0.500000*%
%TD*%
%TA.AperFunction,SMDPad,CuDef*%
%ADD32R,0.200000X0.800000*%
%TD*%
%TA.AperFunction,SMDPad,CuDef*%
%ADD33R,1.800000X0.300000*%
%TD*%
%TA.AperFunction,SMDPad,CuDef*%
%ADD34RoundRect,0.225000X0.225000X0.250000X-0.225000X0.250000X-0.225000X-0.250000X0.225000X-0.250000X0*%
%TD*%
%TA.AperFunction,SMDPad,CuDef*%
%ADD35R,2.550000X2.700000*%
%TD*%
%TA.AperFunction,SMDPad,CuDef*%
%ADD36R,0.700000X0.700000*%
%TD*%
%TA.AperFunction,SMDPad,CuDef*%
%ADD37R,0.800000X1.500000*%
%TD*%
%TA.AperFunction,SMDPad,CuDef*%
%ADD38R,1.000000X3.400001*%
%TD*%
%TA.AperFunction,SMDPad,CuDef*%
%ADD39R,1.000000X2.400000*%
%TD*%
%TA.AperFunction,SMDPad,CuDef*%
%ADD40R,3.000000X2.500000*%
%TD*%
%TA.AperFunction,SMDPad,CuDef*%
%ADD41RoundRect,0.008100X0.126900X-0.461900X0.126900X0.461900X-0.126900X0.461900X-0.126900X-0.461900X0*%
%TD*%
%TA.AperFunction,SMDPad,CuDef*%
%ADD42O,1.600000X0.600000*%
%TD*%
%TA.AperFunction,SMDPad,CuDef*%
%ADD43O,0.600000X1.600000*%
%TD*%
%TA.AperFunction,SMDPad,CuDef*%
%ADD44RoundRect,0.250000X-0.262500X-0.450000X0.262500X-0.450000X0.262500X0.450000X-0.262500X0.450000X0*%
%TD*%
%TA.AperFunction,SMDPad,CuDef*%
%ADD45R,1.600000X1.400000*%
%TD*%
%TA.AperFunction,ComponentPad*%
%ADD46R,1.700000X1.700000*%
%TD*%
%TA.AperFunction,ComponentPad*%
%ADD47O,1.700000X1.700000*%
%TD*%
%TA.AperFunction,SMDPad,CuDef*%
%ADD48RoundRect,0.100000X-0.100000X0.637500X-0.100000X-0.637500X0.100000X-0.637500X0.100000X0.637500X0*%
%TD*%
%TA.AperFunction,SMDPad,CuDef*%
%ADD49RoundRect,0.150000X-0.587500X-0.150000X0.587500X-0.150000X0.587500X0.150000X-0.587500X0.150000X0*%
%TD*%
%TA.AperFunction,SMDPad,CuDef*%
%ADD50RoundRect,0.243750X-0.243750X-0.456250X0.243750X-0.456250X0.243750X0.456250X-0.243750X0.456250X0*%
%TD*%
%TA.AperFunction,SMDPad,CuDef*%
%ADD51RoundRect,0.062500X-0.375000X-0.062500X0.375000X-0.062500X0.375000X0.062500X-0.375000X0.062500X0*%
%TD*%
%TA.AperFunction,SMDPad,CuDef*%
%ADD52RoundRect,0.062500X-0.062500X-0.375000X0.062500X-0.375000X0.062500X0.375000X-0.062500X0.375000X0*%
%TD*%
%TA.AperFunction,SMDPad,CuDef*%
%ADD53R,5.600000X5.600000*%
%TD*%
%TA.AperFunction,SMDPad,CuDef*%
%ADD54RoundRect,0.147500X-0.147500X-0.172500X0.147500X-0.172500X0.147500X0.172500X-0.147500X0.172500X0*%
%TD*%
%TA.AperFunction,SMDPad,CuDef*%
%ADD55R,1.380000X0.450000*%
%TD*%
%TA.AperFunction,ComponentPad*%
%ADD56O,2.416000X1.208000*%
%TD*%
%TA.AperFunction,SMDPad,CuDef*%
%ADD57R,2.100000X1.475000*%
%TD*%
%TA.AperFunction,SMDPad,CuDef*%
%ADD58R,1.900000X1.375000*%
%TD*%
%TA.AperFunction,SMDPad,CuDef*%
%ADD59R,0.300000X1.200000*%
%TD*%
%TA.AperFunction,SMDPad,CuDef*%
%ADD60R,1.200000X0.700000*%
%TD*%
%TA.AperFunction,SMDPad,CuDef*%
%ADD61R,1.200000X0.760000*%
%TD*%
%TA.AperFunction,SMDPad,CuDef*%
%ADD62R,1.200000X0.800000*%
%TD*%
%TA.AperFunction,ComponentPad*%
%ADD63O,1.600000X0.800000*%
%TD*%
%TA.AperFunction,SMDPad,CuDef*%
%ADD64RoundRect,0.218750X0.218750X0.256250X-0.218750X0.256250X-0.218750X-0.256250X0.218750X-0.256250X0*%
%TD*%
%TA.AperFunction,SMDPad,CuDef*%
%ADD65R,1.400000X1.600000*%
%TD*%
%TA.AperFunction,ViaPad*%
%ADD66C,0.600000*%
%TD*%
%TA.AperFunction,ViaPad*%
%ADD67C,0.800000*%
%TD*%
%TA.AperFunction,ViaPad*%
%ADD68C,0.500000*%
%TD*%
%TA.AperFunction,Conductor*%
%ADD69C,0.203200*%
%TD*%
%TA.AperFunction,Conductor*%
%ADD70C,0.250000*%
%TD*%
%TA.AperFunction,Conductor*%
%ADD71C,0.254000*%
%TD*%
%TA.AperFunction,Conductor*%
%ADD72C,0.381000*%
%TD*%
%TA.AperFunction,Conductor*%
%ADD73C,0.180000*%
%TD*%
%TA.AperFunction,Conductor*%
%ADD74C,0.293370*%
%TD*%
%TA.AperFunction,Conductor*%
%ADD75C,0.261112*%
%TD*%
%TA.AperFunction,Conductor*%
%ADD76C,0.152400*%
%TD*%
G04 APERTURE END LIST*
D10*
%TO.C,J8*%
X37459788Y-47931800D02*
X37458788Y-47902800D01*
X37458788Y-47902800D02*
X37456788Y-47874800D01*
X37456788Y-47874800D02*
X37452788Y-47845800D01*
X37452788Y-47845800D02*
X37447788Y-47817800D01*
X37447788Y-47817800D02*
X37440788Y-47789800D01*
X37440788Y-47789800D02*
X37432788Y-47761800D01*
X37432788Y-47761800D02*
X37422788Y-47734800D01*
X37422788Y-47734800D02*
X37411788Y-47707800D01*
X37411788Y-47707800D02*
X37399788Y-47681800D01*
X37399788Y-47681800D02*
X37385788Y-47656800D01*
X37385788Y-47656800D02*
X37370788Y-47631800D01*
X37370788Y-47631800D02*
X37354788Y-47608800D01*
X37354788Y-47608800D02*
X37336788Y-47585800D01*
X37336788Y-47585800D02*
X37318788Y-47563800D01*
X37318788Y-47563800D02*
X37298788Y-47542800D01*
X37298788Y-47542800D02*
X37277788Y-47522800D01*
X37277788Y-47522800D02*
X37255788Y-47504800D01*
X37255788Y-47504800D02*
X37232788Y-47486800D01*
X37232788Y-47486800D02*
X37209788Y-47470800D01*
X37209788Y-47470800D02*
X37184788Y-47455800D01*
X37184788Y-47455800D02*
X37159788Y-47441800D01*
X37159788Y-47441800D02*
X37133788Y-47429800D01*
X37133788Y-47429800D02*
X37106788Y-47418800D01*
X37106788Y-47418800D02*
X37079788Y-47408800D01*
X37079788Y-47408800D02*
X37051788Y-47400800D01*
X37051788Y-47400800D02*
X37023788Y-47393800D01*
X37023788Y-47393800D02*
X36995788Y-47388800D01*
X36995788Y-47388800D02*
X36966788Y-47384800D01*
X36966788Y-47384800D02*
X36938788Y-47382800D01*
X36938788Y-47382800D02*
X36909788Y-47381800D01*
X36909788Y-47381800D02*
X36309788Y-47381800D01*
X36309788Y-47381800D02*
X36280788Y-47382800D01*
X36280788Y-47382800D02*
X36252788Y-47384800D01*
X36252788Y-47384800D02*
X36223788Y-47388800D01*
X36223788Y-47388800D02*
X36195788Y-47393800D01*
X36195788Y-47393800D02*
X36167788Y-47400800D01*
X36167788Y-47400800D02*
X36139788Y-47408800D01*
X36139788Y-47408800D02*
X36112788Y-47418800D01*
X36112788Y-47418800D02*
X36085788Y-47429800D01*
X36085788Y-47429800D02*
X36059788Y-47441800D01*
X36059788Y-47441800D02*
X36034788Y-47455800D01*
X36034788Y-47455800D02*
X36009788Y-47470800D01*
X36009788Y-47470800D02*
X35986788Y-47486800D01*
X35986788Y-47486800D02*
X35963788Y-47504800D01*
X35963788Y-47504800D02*
X35941788Y-47522800D01*
X35941788Y-47522800D02*
X35920788Y-47542800D01*
X35920788Y-47542800D02*
X35900788Y-47563800D01*
X35900788Y-47563800D02*
X35882788Y-47585800D01*
X35882788Y-47585800D02*
X35864788Y-47608800D01*
X35864788Y-47608800D02*
X35848788Y-47631800D01*
X35848788Y-47631800D02*
X35833788Y-47656800D01*
X35833788Y-47656800D02*
X35819788Y-47681800D01*
X35819788Y-47681800D02*
X35807788Y-47707800D01*
X35807788Y-47707800D02*
X35796788Y-47734800D01*
X35796788Y-47734800D02*
X35786788Y-47761800D01*
X35786788Y-47761800D02*
X35778788Y-47789800D01*
X35778788Y-47789800D02*
X35771788Y-47817800D01*
X35771788Y-47817800D02*
X35766788Y-47845800D01*
X35766788Y-47845800D02*
X35762788Y-47874800D01*
X35762788Y-47874800D02*
X35760788Y-47902800D01*
X35760788Y-47902800D02*
X35759788Y-47931800D01*
X35759788Y-47931800D02*
X35760788Y-47960800D01*
X35760788Y-47960800D02*
X35762788Y-47988800D01*
X35762788Y-47988800D02*
X35766788Y-48017800D01*
X35766788Y-48017800D02*
X35771788Y-48045800D01*
X35771788Y-48045800D02*
X35778788Y-48073800D01*
X35778788Y-48073800D02*
X35786788Y-48101800D01*
X35786788Y-48101800D02*
X35796788Y-48128800D01*
X35796788Y-48128800D02*
X35807788Y-48155800D01*
X35807788Y-48155800D02*
X35819788Y-48181800D01*
X35819788Y-48181800D02*
X35833788Y-48206800D01*
X35833788Y-48206800D02*
X35848788Y-48231800D01*
X35848788Y-48231800D02*
X35864788Y-48254800D01*
X35864788Y-48254800D02*
X35882788Y-48277800D01*
X35882788Y-48277800D02*
X35900788Y-48299800D01*
X35900788Y-48299800D02*
X35920788Y-48320800D01*
X35920788Y-48320800D02*
X35941788Y-48340800D01*
X35941788Y-48340800D02*
X35963788Y-48358800D01*
X35963788Y-48358800D02*
X35986788Y-48376800D01*
X35986788Y-48376800D02*
X36009788Y-48392800D01*
X36009788Y-48392800D02*
X36034788Y-48407800D01*
X36034788Y-48407800D02*
X36059788Y-48421800D01*
X36059788Y-48421800D02*
X36085788Y-48433800D01*
X36085788Y-48433800D02*
X36112788Y-48444800D01*
X36112788Y-48444800D02*
X36139788Y-48454800D01*
X36139788Y-48454800D02*
X36167788Y-48462800D01*
X36167788Y-48462800D02*
X36195788Y-48469800D01*
X36195788Y-48469800D02*
X36223788Y-48474800D01*
X36223788Y-48474800D02*
X36252788Y-48478800D01*
X36252788Y-48478800D02*
X36280788Y-48480800D01*
X36280788Y-48480800D02*
X36309788Y-48481800D01*
X36309788Y-48481800D02*
X36909788Y-48481800D01*
X36909788Y-48481800D02*
X36938788Y-48480800D01*
X36938788Y-48480800D02*
X36966788Y-48478800D01*
X36966788Y-48478800D02*
X36995788Y-48474800D01*
X36995788Y-48474800D02*
X37023788Y-48469800D01*
X37023788Y-48469800D02*
X37051788Y-48462800D01*
X37051788Y-48462800D02*
X37079788Y-48454800D01*
X37079788Y-48454800D02*
X37106788Y-48444800D01*
X37106788Y-48444800D02*
X37133788Y-48433800D01*
X37133788Y-48433800D02*
X37159788Y-48421800D01*
X37159788Y-48421800D02*
X37184788Y-48407800D01*
X37184788Y-48407800D02*
X37209788Y-48392800D01*
X37209788Y-48392800D02*
X37232788Y-48376800D01*
X37232788Y-48376800D02*
X37255788Y-48358800D01*
X37255788Y-48358800D02*
X37277788Y-48340800D01*
X37277788Y-48340800D02*
X37298788Y-48320800D01*
X37298788Y-48320800D02*
X37318788Y-48299800D01*
X37318788Y-48299800D02*
X37336788Y-48277800D01*
X37336788Y-48277800D02*
X37354788Y-48254800D01*
X37354788Y-48254800D02*
X37370788Y-48231800D01*
X37370788Y-48231800D02*
X37385788Y-48206800D01*
X37385788Y-48206800D02*
X37399788Y-48181800D01*
X37399788Y-48181800D02*
X37411788Y-48155800D01*
X37411788Y-48155800D02*
X37422788Y-48128800D01*
X37422788Y-48128800D02*
X37432788Y-48101800D01*
X37432788Y-48101800D02*
X37440788Y-48073800D01*
X37440788Y-48073800D02*
X37447788Y-48045800D01*
X37447788Y-48045800D02*
X37452788Y-48017800D01*
X37452788Y-48017800D02*
X37456788Y-47988800D01*
X37456788Y-47988800D02*
X37458788Y-47960800D01*
X37458788Y-47960800D02*
X37459788Y-47931800D01*
X37459788Y-47931800D02*
X37459788Y-47931800D01*
G36*
X36938788Y-47382800D02*
G01*
X36966788Y-47384800D01*
X36995788Y-47388800D01*
X37023788Y-47393800D01*
X37051788Y-47400800D01*
X37079788Y-47408800D01*
X37106788Y-47418800D01*
X37133788Y-47429800D01*
X37159788Y-47441800D01*
X37184788Y-47455800D01*
X37209788Y-47470800D01*
X37232788Y-47486800D01*
X37255788Y-47504800D01*
X37277788Y-47522800D01*
X37298788Y-47542800D01*
X37318788Y-47563800D01*
X37336788Y-47585800D01*
X37354788Y-47608800D01*
X37370788Y-47631800D01*
X37385788Y-47656800D01*
X37399788Y-47681800D01*
X37411788Y-47707800D01*
X37422788Y-47734800D01*
X37432788Y-47761800D01*
X37440788Y-47789800D01*
X37447788Y-47817800D01*
X37452788Y-47845800D01*
X37456788Y-47874800D01*
X37458788Y-47902800D01*
X37459788Y-47931800D01*
X37458788Y-47960800D01*
X37456788Y-47988800D01*
X37452788Y-48017800D01*
X37447788Y-48045800D01*
X37440788Y-48073800D01*
X37432788Y-48101800D01*
X37422788Y-48128800D01*
X37411788Y-48155800D01*
X37399788Y-48181800D01*
X37385788Y-48206800D01*
X37370788Y-48231800D01*
X37354788Y-48254800D01*
X37336788Y-48277800D01*
X37318788Y-48299800D01*
X37298788Y-48320800D01*
X37277788Y-48340800D01*
X37255788Y-48358800D01*
X37232788Y-48376800D01*
X37209788Y-48392800D01*
X37184788Y-48407800D01*
X37159788Y-48421800D01*
X37133788Y-48433800D01*
X37106788Y-48444800D01*
X37079788Y-48454800D01*
X37051788Y-48462800D01*
X37023788Y-48469800D01*
X36995788Y-48474800D01*
X36966788Y-48478800D01*
X36938788Y-48480800D01*
X36909788Y-48481800D01*
X36309788Y-48481800D01*
X36280788Y-48480800D01*
X36252788Y-48478800D01*
X36223788Y-48474800D01*
X36195788Y-48469800D01*
X36167788Y-48462800D01*
X36139788Y-48454800D01*
X36112788Y-48444800D01*
X36085788Y-48433800D01*
X36059788Y-48421800D01*
X36034788Y-48407800D01*
X36009788Y-48392800D01*
X35986788Y-48376800D01*
X35963788Y-48358800D01*
X35941788Y-48340800D01*
X35920788Y-48320800D01*
X35900788Y-48299800D01*
X35882788Y-48277800D01*
X35864788Y-48254800D01*
X35848788Y-48231800D01*
X35833788Y-48206800D01*
X35819788Y-48181800D01*
X35807788Y-48155800D01*
X35796788Y-48128800D01*
X35786788Y-48101800D01*
X35778788Y-48073800D01*
X35771788Y-48045800D01*
X35766788Y-48017800D01*
X35762788Y-47988800D01*
X35760788Y-47960800D01*
X35759788Y-47931800D01*
X35760788Y-47902800D01*
X35762788Y-47874800D01*
X35766788Y-47845800D01*
X35771788Y-47817800D01*
X35778788Y-47789800D01*
X35786788Y-47761800D01*
X35796788Y-47734800D01*
X35807788Y-47707800D01*
X35819788Y-47681800D01*
X35833788Y-47656800D01*
X35848788Y-47631800D01*
X35864788Y-47608800D01*
X35882788Y-47585800D01*
X35900788Y-47563800D01*
X35920788Y-47542800D01*
X35941788Y-47522800D01*
X35963788Y-47504800D01*
X35986788Y-47486800D01*
X36009788Y-47470800D01*
X36034788Y-47455800D01*
X36059788Y-47441800D01*
X36085788Y-47429800D01*
X36112788Y-47418800D01*
X36139788Y-47408800D01*
X36167788Y-47400800D01*
X36195788Y-47393800D01*
X36223788Y-47388800D01*
X36252788Y-47384800D01*
X36280788Y-47382800D01*
X36309788Y-47381800D01*
X36909788Y-47381800D01*
X36938788Y-47382800D01*
G37*
X36938788Y-47382800D02*
X36966788Y-47384800D01*
X36995788Y-47388800D01*
X37023788Y-47393800D01*
X37051788Y-47400800D01*
X37079788Y-47408800D01*
X37106788Y-47418800D01*
X37133788Y-47429800D01*
X37159788Y-47441800D01*
X37184788Y-47455800D01*
X37209788Y-47470800D01*
X37232788Y-47486800D01*
X37255788Y-47504800D01*
X37277788Y-47522800D01*
X37298788Y-47542800D01*
X37318788Y-47563800D01*
X37336788Y-47585800D01*
X37354788Y-47608800D01*
X37370788Y-47631800D01*
X37385788Y-47656800D01*
X37399788Y-47681800D01*
X37411788Y-47707800D01*
X37422788Y-47734800D01*
X37432788Y-47761800D01*
X37440788Y-47789800D01*
X37447788Y-47817800D01*
X37452788Y-47845800D01*
X37456788Y-47874800D01*
X37458788Y-47902800D01*
X37459788Y-47931800D01*
X37458788Y-47960800D01*
X37456788Y-47988800D01*
X37452788Y-48017800D01*
X37447788Y-48045800D01*
X37440788Y-48073800D01*
X37432788Y-48101800D01*
X37422788Y-48128800D01*
X37411788Y-48155800D01*
X37399788Y-48181800D01*
X37385788Y-48206800D01*
X37370788Y-48231800D01*
X37354788Y-48254800D01*
X37336788Y-48277800D01*
X37318788Y-48299800D01*
X37298788Y-48320800D01*
X37277788Y-48340800D01*
X37255788Y-48358800D01*
X37232788Y-48376800D01*
X37209788Y-48392800D01*
X37184788Y-48407800D01*
X37159788Y-48421800D01*
X37133788Y-48433800D01*
X37106788Y-48444800D01*
X37079788Y-48454800D01*
X37051788Y-48462800D01*
X37023788Y-48469800D01*
X36995788Y-48474800D01*
X36966788Y-48478800D01*
X36938788Y-48480800D01*
X36909788Y-48481800D01*
X36309788Y-48481800D01*
X36280788Y-48480800D01*
X36252788Y-48478800D01*
X36223788Y-48474800D01*
X36195788Y-48469800D01*
X36167788Y-48462800D01*
X36139788Y-48454800D01*
X36112788Y-48444800D01*
X36085788Y-48433800D01*
X36059788Y-48421800D01*
X36034788Y-48407800D01*
X36009788Y-48392800D01*
X35986788Y-48376800D01*
X35963788Y-48358800D01*
X35941788Y-48340800D01*
X35920788Y-48320800D01*
X35900788Y-48299800D01*
X35882788Y-48277800D01*
X35864788Y-48254800D01*
X35848788Y-48231800D01*
X35833788Y-48206800D01*
X35819788Y-48181800D01*
X35807788Y-48155800D01*
X35796788Y-48128800D01*
X35786788Y-48101800D01*
X35778788Y-48073800D01*
X35771788Y-48045800D01*
X35766788Y-48017800D01*
X35762788Y-47988800D01*
X35760788Y-47960800D01*
X35759788Y-47931800D01*
X35760788Y-47902800D01*
X35762788Y-47874800D01*
X35766788Y-47845800D01*
X35771788Y-47817800D01*
X35778788Y-47789800D01*
X35786788Y-47761800D01*
X35796788Y-47734800D01*
X35807788Y-47707800D01*
X35819788Y-47681800D01*
X35833788Y-47656800D01*
X35848788Y-47631800D01*
X35864788Y-47608800D01*
X35882788Y-47585800D01*
X35900788Y-47563800D01*
X35920788Y-47542800D01*
X35941788Y-47522800D01*
X35963788Y-47504800D01*
X35986788Y-47486800D01*
X36009788Y-47470800D01*
X36034788Y-47455800D01*
X36059788Y-47441800D01*
X36085788Y-47429800D01*
X36112788Y-47418800D01*
X36139788Y-47408800D01*
X36167788Y-47400800D01*
X36195788Y-47393800D01*
X36223788Y-47388800D01*
X36252788Y-47384800D01*
X36280788Y-47382800D01*
X36309788Y-47381800D01*
X36909788Y-47381800D01*
X36938788Y-47382800D01*
X33659788Y-39291800D02*
X33658788Y-39262800D01*
X33658788Y-39262800D02*
X33656788Y-39234800D01*
X33656788Y-39234800D02*
X33652788Y-39205800D01*
X33652788Y-39205800D02*
X33647788Y-39177800D01*
X33647788Y-39177800D02*
X33640788Y-39149800D01*
X33640788Y-39149800D02*
X33632788Y-39121800D01*
X33632788Y-39121800D02*
X33622788Y-39094800D01*
X33622788Y-39094800D02*
X33611788Y-39067800D01*
X33611788Y-39067800D02*
X33599788Y-39041800D01*
X33599788Y-39041800D02*
X33585788Y-39016800D01*
X33585788Y-39016800D02*
X33570788Y-38991800D01*
X33570788Y-38991800D02*
X33554788Y-38968800D01*
X33554788Y-38968800D02*
X33536788Y-38945800D01*
X33536788Y-38945800D02*
X33518788Y-38923800D01*
X33518788Y-38923800D02*
X33498788Y-38902800D01*
X33498788Y-38902800D02*
X33477788Y-38882800D01*
X33477788Y-38882800D02*
X33455788Y-38864800D01*
X33455788Y-38864800D02*
X33432788Y-38846800D01*
X33432788Y-38846800D02*
X33409788Y-38830800D01*
X33409788Y-38830800D02*
X33384788Y-38815800D01*
X33384788Y-38815800D02*
X33359788Y-38801800D01*
X33359788Y-38801800D02*
X33333788Y-38789800D01*
X33333788Y-38789800D02*
X33306788Y-38778800D01*
X33306788Y-38778800D02*
X33279788Y-38768800D01*
X33279788Y-38768800D02*
X33251788Y-38760800D01*
X33251788Y-38760800D02*
X33223788Y-38753800D01*
X33223788Y-38753800D02*
X33195788Y-38748800D01*
X33195788Y-38748800D02*
X33166788Y-38744800D01*
X33166788Y-38744800D02*
X33138788Y-38742800D01*
X33138788Y-38742800D02*
X33109788Y-38741800D01*
X33109788Y-38741800D02*
X32509788Y-38741800D01*
X32509788Y-38741800D02*
X32480788Y-38742800D01*
X32480788Y-38742800D02*
X32452788Y-38744800D01*
X32452788Y-38744800D02*
X32423788Y-38748800D01*
X32423788Y-38748800D02*
X32395788Y-38753800D01*
X32395788Y-38753800D02*
X32367788Y-38760800D01*
X32367788Y-38760800D02*
X32339788Y-38768800D01*
X32339788Y-38768800D02*
X32312788Y-38778800D01*
X32312788Y-38778800D02*
X32285788Y-38789800D01*
X32285788Y-38789800D02*
X32259788Y-38801800D01*
X32259788Y-38801800D02*
X32234788Y-38815800D01*
X32234788Y-38815800D02*
X32209788Y-38830800D01*
X32209788Y-38830800D02*
X32186788Y-38846800D01*
X32186788Y-38846800D02*
X32163788Y-38864800D01*
X32163788Y-38864800D02*
X32141788Y-38882800D01*
X32141788Y-38882800D02*
X32120788Y-38902800D01*
X32120788Y-38902800D02*
X32100788Y-38923800D01*
X32100788Y-38923800D02*
X32082788Y-38945800D01*
X32082788Y-38945800D02*
X32064788Y-38968800D01*
X32064788Y-38968800D02*
X32048788Y-38991800D01*
X32048788Y-38991800D02*
X32033788Y-39016800D01*
X32033788Y-39016800D02*
X32019788Y-39041800D01*
X32019788Y-39041800D02*
X32007788Y-39067800D01*
X32007788Y-39067800D02*
X31996788Y-39094800D01*
X31996788Y-39094800D02*
X31986788Y-39121800D01*
X31986788Y-39121800D02*
X31978788Y-39149800D01*
X31978788Y-39149800D02*
X31971788Y-39177800D01*
X31971788Y-39177800D02*
X31966788Y-39205800D01*
X31966788Y-39205800D02*
X31962788Y-39234800D01*
X31962788Y-39234800D02*
X31960788Y-39262800D01*
X31960788Y-39262800D02*
X31959788Y-39291800D01*
X31959788Y-39291800D02*
X31960788Y-39320800D01*
X31960788Y-39320800D02*
X31962788Y-39348800D01*
X31962788Y-39348800D02*
X31966788Y-39377800D01*
X31966788Y-39377800D02*
X31971788Y-39405800D01*
X31971788Y-39405800D02*
X31978788Y-39433800D01*
X31978788Y-39433800D02*
X31986788Y-39461800D01*
X31986788Y-39461800D02*
X31996788Y-39488800D01*
X31996788Y-39488800D02*
X32007788Y-39515800D01*
X32007788Y-39515800D02*
X32019788Y-39541800D01*
X32019788Y-39541800D02*
X32033788Y-39566800D01*
X32033788Y-39566800D02*
X32048788Y-39591800D01*
X32048788Y-39591800D02*
X32064788Y-39614800D01*
X32064788Y-39614800D02*
X32082788Y-39637800D01*
X32082788Y-39637800D02*
X32100788Y-39659800D01*
X32100788Y-39659800D02*
X32120788Y-39680800D01*
X32120788Y-39680800D02*
X32141788Y-39700800D01*
X32141788Y-39700800D02*
X32163788Y-39718800D01*
X32163788Y-39718800D02*
X32186788Y-39736800D01*
X32186788Y-39736800D02*
X32209788Y-39752800D01*
X32209788Y-39752800D02*
X32234788Y-39767800D01*
X32234788Y-39767800D02*
X32259788Y-39781800D01*
X32259788Y-39781800D02*
X32285788Y-39793800D01*
X32285788Y-39793800D02*
X32312788Y-39804800D01*
X32312788Y-39804800D02*
X32339788Y-39814800D01*
X32339788Y-39814800D02*
X32367788Y-39822800D01*
X32367788Y-39822800D02*
X32395788Y-39829800D01*
X32395788Y-39829800D02*
X32423788Y-39834800D01*
X32423788Y-39834800D02*
X32452788Y-39838800D01*
X32452788Y-39838800D02*
X32480788Y-39840800D01*
X32480788Y-39840800D02*
X32509788Y-39841800D01*
X32509788Y-39841800D02*
X33109788Y-39841800D01*
X33109788Y-39841800D02*
X33138788Y-39840800D01*
X33138788Y-39840800D02*
X33166788Y-39838800D01*
X33166788Y-39838800D02*
X33195788Y-39834800D01*
X33195788Y-39834800D02*
X33223788Y-39829800D01*
X33223788Y-39829800D02*
X33251788Y-39822800D01*
X33251788Y-39822800D02*
X33279788Y-39814800D01*
X33279788Y-39814800D02*
X33306788Y-39804800D01*
X33306788Y-39804800D02*
X33333788Y-39793800D01*
X33333788Y-39793800D02*
X33359788Y-39781800D01*
X33359788Y-39781800D02*
X33384788Y-39767800D01*
X33384788Y-39767800D02*
X33409788Y-39752800D01*
X33409788Y-39752800D02*
X33432788Y-39736800D01*
X33432788Y-39736800D02*
X33455788Y-39718800D01*
X33455788Y-39718800D02*
X33477788Y-39700800D01*
X33477788Y-39700800D02*
X33498788Y-39680800D01*
X33498788Y-39680800D02*
X33518788Y-39659800D01*
X33518788Y-39659800D02*
X33536788Y-39637800D01*
X33536788Y-39637800D02*
X33554788Y-39614800D01*
X33554788Y-39614800D02*
X33570788Y-39591800D01*
X33570788Y-39591800D02*
X33585788Y-39566800D01*
X33585788Y-39566800D02*
X33599788Y-39541800D01*
X33599788Y-39541800D02*
X33611788Y-39515800D01*
X33611788Y-39515800D02*
X33622788Y-39488800D01*
X33622788Y-39488800D02*
X33632788Y-39461800D01*
X33632788Y-39461800D02*
X33640788Y-39433800D01*
X33640788Y-39433800D02*
X33647788Y-39405800D01*
X33647788Y-39405800D02*
X33652788Y-39377800D01*
X33652788Y-39377800D02*
X33656788Y-39348800D01*
X33656788Y-39348800D02*
X33658788Y-39320800D01*
X33658788Y-39320800D02*
X33659788Y-39291800D01*
X33659788Y-39291800D02*
X33659788Y-39291800D01*
G36*
X33138788Y-38742800D02*
G01*
X33166788Y-38744800D01*
X33195788Y-38748800D01*
X33223788Y-38753800D01*
X33251788Y-38760800D01*
X33279788Y-38768800D01*
X33306788Y-38778800D01*
X33333788Y-38789800D01*
X33359788Y-38801800D01*
X33384788Y-38815800D01*
X33409788Y-38830800D01*
X33432788Y-38846800D01*
X33455788Y-38864800D01*
X33477788Y-38882800D01*
X33498788Y-38902800D01*
X33518788Y-38923800D01*
X33536788Y-38945800D01*
X33554788Y-38968800D01*
X33570788Y-38991800D01*
X33585788Y-39016800D01*
X33599788Y-39041800D01*
X33611788Y-39067800D01*
X33622788Y-39094800D01*
X33632788Y-39121800D01*
X33640788Y-39149800D01*
X33647788Y-39177800D01*
X33652788Y-39205800D01*
X33656788Y-39234800D01*
X33658788Y-39262800D01*
X33659788Y-39291800D01*
X33658788Y-39320800D01*
X33656788Y-39348800D01*
X33652788Y-39377800D01*
X33647788Y-39405800D01*
X33640788Y-39433800D01*
X33632788Y-39461800D01*
X33622788Y-39488800D01*
X33611788Y-39515800D01*
X33599788Y-39541800D01*
X33585788Y-39566800D01*
X33570788Y-39591800D01*
X33554788Y-39614800D01*
X33536788Y-39637800D01*
X33518788Y-39659800D01*
X33498788Y-39680800D01*
X33477788Y-39700800D01*
X33455788Y-39718800D01*
X33432788Y-39736800D01*
X33409788Y-39752800D01*
X33384788Y-39767800D01*
X33359788Y-39781800D01*
X33333788Y-39793800D01*
X33306788Y-39804800D01*
X33279788Y-39814800D01*
X33251788Y-39822800D01*
X33223788Y-39829800D01*
X33195788Y-39834800D01*
X33166788Y-39838800D01*
X33138788Y-39840800D01*
X33109788Y-39841800D01*
X32509788Y-39841800D01*
X32480788Y-39840800D01*
X32452788Y-39838800D01*
X32423788Y-39834800D01*
X32395788Y-39829800D01*
X32367788Y-39822800D01*
X32339788Y-39814800D01*
X32312788Y-39804800D01*
X32285788Y-39793800D01*
X32259788Y-39781800D01*
X32234788Y-39767800D01*
X32209788Y-39752800D01*
X32186788Y-39736800D01*
X32163788Y-39718800D01*
X32141788Y-39700800D01*
X32120788Y-39680800D01*
X32100788Y-39659800D01*
X32082788Y-39637800D01*
X32064788Y-39614800D01*
X32048788Y-39591800D01*
X32033788Y-39566800D01*
X32019788Y-39541800D01*
X32007788Y-39515800D01*
X31996788Y-39488800D01*
X31986788Y-39461800D01*
X31978788Y-39433800D01*
X31971788Y-39405800D01*
X31966788Y-39377800D01*
X31962788Y-39348800D01*
X31960788Y-39320800D01*
X31959788Y-39291800D01*
X31960788Y-39262800D01*
X31962788Y-39234800D01*
X31966788Y-39205800D01*
X31971788Y-39177800D01*
X31978788Y-39149800D01*
X31986788Y-39121800D01*
X31996788Y-39094800D01*
X32007788Y-39067800D01*
X32019788Y-39041800D01*
X32033788Y-39016800D01*
X32048788Y-38991800D01*
X32064788Y-38968800D01*
X32082788Y-38945800D01*
X32100788Y-38923800D01*
X32120788Y-38902800D01*
X32141788Y-38882800D01*
X32163788Y-38864800D01*
X32186788Y-38846800D01*
X32209788Y-38830800D01*
X32234788Y-38815800D01*
X32259788Y-38801800D01*
X32285788Y-38789800D01*
X32312788Y-38778800D01*
X32339788Y-38768800D01*
X32367788Y-38760800D01*
X32395788Y-38753800D01*
X32423788Y-38748800D01*
X32452788Y-38744800D01*
X32480788Y-38742800D01*
X32509788Y-38741800D01*
X33109788Y-38741800D01*
X33138788Y-38742800D01*
G37*
X33138788Y-38742800D02*
X33166788Y-38744800D01*
X33195788Y-38748800D01*
X33223788Y-38753800D01*
X33251788Y-38760800D01*
X33279788Y-38768800D01*
X33306788Y-38778800D01*
X33333788Y-38789800D01*
X33359788Y-38801800D01*
X33384788Y-38815800D01*
X33409788Y-38830800D01*
X33432788Y-38846800D01*
X33455788Y-38864800D01*
X33477788Y-38882800D01*
X33498788Y-38902800D01*
X33518788Y-38923800D01*
X33536788Y-38945800D01*
X33554788Y-38968800D01*
X33570788Y-38991800D01*
X33585788Y-39016800D01*
X33599788Y-39041800D01*
X33611788Y-39067800D01*
X33622788Y-39094800D01*
X33632788Y-39121800D01*
X33640788Y-39149800D01*
X33647788Y-39177800D01*
X33652788Y-39205800D01*
X33656788Y-39234800D01*
X33658788Y-39262800D01*
X33659788Y-39291800D01*
X33658788Y-39320800D01*
X33656788Y-39348800D01*
X33652788Y-39377800D01*
X33647788Y-39405800D01*
X33640788Y-39433800D01*
X33632788Y-39461800D01*
X33622788Y-39488800D01*
X33611788Y-39515800D01*
X33599788Y-39541800D01*
X33585788Y-39566800D01*
X33570788Y-39591800D01*
X33554788Y-39614800D01*
X33536788Y-39637800D01*
X33518788Y-39659800D01*
X33498788Y-39680800D01*
X33477788Y-39700800D01*
X33455788Y-39718800D01*
X33432788Y-39736800D01*
X33409788Y-39752800D01*
X33384788Y-39767800D01*
X33359788Y-39781800D01*
X33333788Y-39793800D01*
X33306788Y-39804800D01*
X33279788Y-39814800D01*
X33251788Y-39822800D01*
X33223788Y-39829800D01*
X33195788Y-39834800D01*
X33166788Y-39838800D01*
X33138788Y-39840800D01*
X33109788Y-39841800D01*
X32509788Y-39841800D01*
X32480788Y-39840800D01*
X32452788Y-39838800D01*
X32423788Y-39834800D01*
X32395788Y-39829800D01*
X32367788Y-39822800D01*
X32339788Y-39814800D01*
X32312788Y-39804800D01*
X32285788Y-39793800D01*
X32259788Y-39781800D01*
X32234788Y-39767800D01*
X32209788Y-39752800D01*
X32186788Y-39736800D01*
X32163788Y-39718800D01*
X32141788Y-39700800D01*
X32120788Y-39680800D01*
X32100788Y-39659800D01*
X32082788Y-39637800D01*
X32064788Y-39614800D01*
X32048788Y-39591800D01*
X32033788Y-39566800D01*
X32019788Y-39541800D01*
X32007788Y-39515800D01*
X31996788Y-39488800D01*
X31986788Y-39461800D01*
X31978788Y-39433800D01*
X31971788Y-39405800D01*
X31966788Y-39377800D01*
X31962788Y-39348800D01*
X31960788Y-39320800D01*
X31959788Y-39291800D01*
X31960788Y-39262800D01*
X31962788Y-39234800D01*
X31966788Y-39205800D01*
X31971788Y-39177800D01*
X31978788Y-39149800D01*
X31986788Y-39121800D01*
X31996788Y-39094800D01*
X32007788Y-39067800D01*
X32019788Y-39041800D01*
X32033788Y-39016800D01*
X32048788Y-38991800D01*
X32064788Y-38968800D01*
X32082788Y-38945800D01*
X32100788Y-38923800D01*
X32120788Y-38902800D01*
X32141788Y-38882800D01*
X32163788Y-38864800D01*
X32186788Y-38846800D01*
X32209788Y-38830800D01*
X32234788Y-38815800D01*
X32259788Y-38801800D01*
X32285788Y-38789800D01*
X32312788Y-38778800D01*
X32339788Y-38768800D01*
X32367788Y-38760800D01*
X32395788Y-38753800D01*
X32423788Y-38748800D01*
X32452788Y-38744800D01*
X32480788Y-38742800D01*
X32509788Y-38741800D01*
X33109788Y-38741800D01*
X33138788Y-38742800D01*
X33659788Y-47931800D02*
X33658788Y-47902800D01*
X33658788Y-47902800D02*
X33656788Y-47874800D01*
X33656788Y-47874800D02*
X33652788Y-47845800D01*
X33652788Y-47845800D02*
X33647788Y-47817800D01*
X33647788Y-47817800D02*
X33640788Y-47789800D01*
X33640788Y-47789800D02*
X33632788Y-47761800D01*
X33632788Y-47761800D02*
X33622788Y-47734800D01*
X33622788Y-47734800D02*
X33611788Y-47707800D01*
X33611788Y-47707800D02*
X33599788Y-47681800D01*
X33599788Y-47681800D02*
X33585788Y-47656800D01*
X33585788Y-47656800D02*
X33570788Y-47631800D01*
X33570788Y-47631800D02*
X33554788Y-47608800D01*
X33554788Y-47608800D02*
X33536788Y-47585800D01*
X33536788Y-47585800D02*
X33518788Y-47563800D01*
X33518788Y-47563800D02*
X33498788Y-47542800D01*
X33498788Y-47542800D02*
X33477788Y-47522800D01*
X33477788Y-47522800D02*
X33455788Y-47504800D01*
X33455788Y-47504800D02*
X33432788Y-47486800D01*
X33432788Y-47486800D02*
X33409788Y-47470800D01*
X33409788Y-47470800D02*
X33384788Y-47455800D01*
X33384788Y-47455800D02*
X33359788Y-47441800D01*
X33359788Y-47441800D02*
X33333788Y-47429800D01*
X33333788Y-47429800D02*
X33306788Y-47418800D01*
X33306788Y-47418800D02*
X33279788Y-47408800D01*
X33279788Y-47408800D02*
X33251788Y-47400800D01*
X33251788Y-47400800D02*
X33223788Y-47393800D01*
X33223788Y-47393800D02*
X33195788Y-47388800D01*
X33195788Y-47388800D02*
X33166788Y-47384800D01*
X33166788Y-47384800D02*
X33138788Y-47382800D01*
X33138788Y-47382800D02*
X33109788Y-47381800D01*
X33109788Y-47381800D02*
X32509788Y-47381800D01*
X32509788Y-47381800D02*
X32480788Y-47382800D01*
X32480788Y-47382800D02*
X32452788Y-47384800D01*
X32452788Y-47384800D02*
X32423788Y-47388800D01*
X32423788Y-47388800D02*
X32395788Y-47393800D01*
X32395788Y-47393800D02*
X32367788Y-47400800D01*
X32367788Y-47400800D02*
X32339788Y-47408800D01*
X32339788Y-47408800D02*
X32312788Y-47418800D01*
X32312788Y-47418800D02*
X32285788Y-47429800D01*
X32285788Y-47429800D02*
X32259788Y-47441800D01*
X32259788Y-47441800D02*
X32234788Y-47455800D01*
X32234788Y-47455800D02*
X32209788Y-47470800D01*
X32209788Y-47470800D02*
X32186788Y-47486800D01*
X32186788Y-47486800D02*
X32163788Y-47504800D01*
X32163788Y-47504800D02*
X32141788Y-47522800D01*
X32141788Y-47522800D02*
X32120788Y-47542800D01*
X32120788Y-47542800D02*
X32100788Y-47563800D01*
X32100788Y-47563800D02*
X32082788Y-47585800D01*
X32082788Y-47585800D02*
X32064788Y-47608800D01*
X32064788Y-47608800D02*
X32048788Y-47631800D01*
X32048788Y-47631800D02*
X32033788Y-47656800D01*
X32033788Y-47656800D02*
X32019788Y-47681800D01*
X32019788Y-47681800D02*
X32007788Y-47707800D01*
X32007788Y-47707800D02*
X31996788Y-47734800D01*
X31996788Y-47734800D02*
X31986788Y-47761800D01*
X31986788Y-47761800D02*
X31978788Y-47789800D01*
X31978788Y-47789800D02*
X31971788Y-47817800D01*
X31971788Y-47817800D02*
X31966788Y-47845800D01*
X31966788Y-47845800D02*
X31962788Y-47874800D01*
X31962788Y-47874800D02*
X31960788Y-47902800D01*
X31960788Y-47902800D02*
X31959788Y-47931800D01*
X31959788Y-47931800D02*
X31960788Y-47960800D01*
X31960788Y-47960800D02*
X31962788Y-47988800D01*
X31962788Y-47988800D02*
X31966788Y-48017800D01*
X31966788Y-48017800D02*
X31971788Y-48045800D01*
X31971788Y-48045800D02*
X31978788Y-48073800D01*
X31978788Y-48073800D02*
X31986788Y-48101800D01*
X31986788Y-48101800D02*
X31996788Y-48128800D01*
X31996788Y-48128800D02*
X32007788Y-48155800D01*
X32007788Y-48155800D02*
X32019788Y-48181800D01*
X32019788Y-48181800D02*
X32033788Y-48206800D01*
X32033788Y-48206800D02*
X32048788Y-48231800D01*
X32048788Y-48231800D02*
X32064788Y-48254800D01*
X32064788Y-48254800D02*
X32082788Y-48277800D01*
X32082788Y-48277800D02*
X32100788Y-48299800D01*
X32100788Y-48299800D02*
X32120788Y-48320800D01*
X32120788Y-48320800D02*
X32141788Y-48340800D01*
X32141788Y-48340800D02*
X32163788Y-48358800D01*
X32163788Y-48358800D02*
X32186788Y-48376800D01*
X32186788Y-48376800D02*
X32209788Y-48392800D01*
X32209788Y-48392800D02*
X32234788Y-48407800D01*
X32234788Y-48407800D02*
X32259788Y-48421800D01*
X32259788Y-48421800D02*
X32285788Y-48433800D01*
X32285788Y-48433800D02*
X32312788Y-48444800D01*
X32312788Y-48444800D02*
X32339788Y-48454800D01*
X32339788Y-48454800D02*
X32367788Y-48462800D01*
X32367788Y-48462800D02*
X32395788Y-48469800D01*
X32395788Y-48469800D02*
X32423788Y-48474800D01*
X32423788Y-48474800D02*
X32452788Y-48478800D01*
X32452788Y-48478800D02*
X32480788Y-48480800D01*
X32480788Y-48480800D02*
X32509788Y-48481800D01*
X32509788Y-48481800D02*
X33109788Y-48481800D01*
X33109788Y-48481800D02*
X33138788Y-48480800D01*
X33138788Y-48480800D02*
X33166788Y-48478800D01*
X33166788Y-48478800D02*
X33195788Y-48474800D01*
X33195788Y-48474800D02*
X33223788Y-48469800D01*
X33223788Y-48469800D02*
X33251788Y-48462800D01*
X33251788Y-48462800D02*
X33279788Y-48454800D01*
X33279788Y-48454800D02*
X33306788Y-48444800D01*
X33306788Y-48444800D02*
X33333788Y-48433800D01*
X33333788Y-48433800D02*
X33359788Y-48421800D01*
X33359788Y-48421800D02*
X33384788Y-48407800D01*
X33384788Y-48407800D02*
X33409788Y-48392800D01*
X33409788Y-48392800D02*
X33432788Y-48376800D01*
X33432788Y-48376800D02*
X33455788Y-48358800D01*
X33455788Y-48358800D02*
X33477788Y-48340800D01*
X33477788Y-48340800D02*
X33498788Y-48320800D01*
X33498788Y-48320800D02*
X33518788Y-48299800D01*
X33518788Y-48299800D02*
X33536788Y-48277800D01*
X33536788Y-48277800D02*
X33554788Y-48254800D01*
X33554788Y-48254800D02*
X33570788Y-48231800D01*
X33570788Y-48231800D02*
X33585788Y-48206800D01*
X33585788Y-48206800D02*
X33599788Y-48181800D01*
X33599788Y-48181800D02*
X33611788Y-48155800D01*
X33611788Y-48155800D02*
X33622788Y-48128800D01*
X33622788Y-48128800D02*
X33632788Y-48101800D01*
X33632788Y-48101800D02*
X33640788Y-48073800D01*
X33640788Y-48073800D02*
X33647788Y-48045800D01*
X33647788Y-48045800D02*
X33652788Y-48017800D01*
X33652788Y-48017800D02*
X33656788Y-47988800D01*
X33656788Y-47988800D02*
X33658788Y-47960800D01*
X33658788Y-47960800D02*
X33659788Y-47931800D01*
X33659788Y-47931800D02*
X33659788Y-47931800D01*
G36*
X33138788Y-47382800D02*
G01*
X33166788Y-47384800D01*
X33195788Y-47388800D01*
X33223788Y-47393800D01*
X33251788Y-47400800D01*
X33279788Y-47408800D01*
X33306788Y-47418800D01*
X33333788Y-47429800D01*
X33359788Y-47441800D01*
X33384788Y-47455800D01*
X33409788Y-47470800D01*
X33432788Y-47486800D01*
X33455788Y-47504800D01*
X33477788Y-47522800D01*
X33498788Y-47542800D01*
X33518788Y-47563800D01*
X33536788Y-47585800D01*
X33554788Y-47608800D01*
X33570788Y-47631800D01*
X33585788Y-47656800D01*
X33599788Y-47681800D01*
X33611788Y-47707800D01*
X33622788Y-47734800D01*
X33632788Y-47761800D01*
X33640788Y-47789800D01*
X33647788Y-47817800D01*
X33652788Y-47845800D01*
X33656788Y-47874800D01*
X33658788Y-47902800D01*
X33659788Y-47931800D01*
X33658788Y-47960800D01*
X33656788Y-47988800D01*
X33652788Y-48017800D01*
X33647788Y-48045800D01*
X33640788Y-48073800D01*
X33632788Y-48101800D01*
X33622788Y-48128800D01*
X33611788Y-48155800D01*
X33599788Y-48181800D01*
X33585788Y-48206800D01*
X33570788Y-48231800D01*
X33554788Y-48254800D01*
X33536788Y-48277800D01*
X33518788Y-48299800D01*
X33498788Y-48320800D01*
X33477788Y-48340800D01*
X33455788Y-48358800D01*
X33432788Y-48376800D01*
X33409788Y-48392800D01*
X33384788Y-48407800D01*
X33359788Y-48421800D01*
X33333788Y-48433800D01*
X33306788Y-48444800D01*
X33279788Y-48454800D01*
X33251788Y-48462800D01*
X33223788Y-48469800D01*
X33195788Y-48474800D01*
X33166788Y-48478800D01*
X33138788Y-48480800D01*
X33109788Y-48481800D01*
X32509788Y-48481800D01*
X32480788Y-48480800D01*
X32452788Y-48478800D01*
X32423788Y-48474800D01*
X32395788Y-48469800D01*
X32367788Y-48462800D01*
X32339788Y-48454800D01*
X32312788Y-48444800D01*
X32285788Y-48433800D01*
X32259788Y-48421800D01*
X32234788Y-48407800D01*
X32209788Y-48392800D01*
X32186788Y-48376800D01*
X32163788Y-48358800D01*
X32141788Y-48340800D01*
X32120788Y-48320800D01*
X32100788Y-48299800D01*
X32082788Y-48277800D01*
X32064788Y-48254800D01*
X32048788Y-48231800D01*
X32033788Y-48206800D01*
X32019788Y-48181800D01*
X32007788Y-48155800D01*
X31996788Y-48128800D01*
X31986788Y-48101800D01*
X31978788Y-48073800D01*
X31971788Y-48045800D01*
X31966788Y-48017800D01*
X31962788Y-47988800D01*
X31960788Y-47960800D01*
X31959788Y-47931800D01*
X31960788Y-47902800D01*
X31962788Y-47874800D01*
X31966788Y-47845800D01*
X31971788Y-47817800D01*
X31978788Y-47789800D01*
X31986788Y-47761800D01*
X31996788Y-47734800D01*
X32007788Y-47707800D01*
X32019788Y-47681800D01*
X32033788Y-47656800D01*
X32048788Y-47631800D01*
X32064788Y-47608800D01*
X32082788Y-47585800D01*
X32100788Y-47563800D01*
X32120788Y-47542800D01*
X32141788Y-47522800D01*
X32163788Y-47504800D01*
X32186788Y-47486800D01*
X32209788Y-47470800D01*
X32234788Y-47455800D01*
X32259788Y-47441800D01*
X32285788Y-47429800D01*
X32312788Y-47418800D01*
X32339788Y-47408800D01*
X32367788Y-47400800D01*
X32395788Y-47393800D01*
X32423788Y-47388800D01*
X32452788Y-47384800D01*
X32480788Y-47382800D01*
X32509788Y-47381800D01*
X33109788Y-47381800D01*
X33138788Y-47382800D01*
G37*
X33138788Y-47382800D02*
X33166788Y-47384800D01*
X33195788Y-47388800D01*
X33223788Y-47393800D01*
X33251788Y-47400800D01*
X33279788Y-47408800D01*
X33306788Y-47418800D01*
X33333788Y-47429800D01*
X33359788Y-47441800D01*
X33384788Y-47455800D01*
X33409788Y-47470800D01*
X33432788Y-47486800D01*
X33455788Y-47504800D01*
X33477788Y-47522800D01*
X33498788Y-47542800D01*
X33518788Y-47563800D01*
X33536788Y-47585800D01*
X33554788Y-47608800D01*
X33570788Y-47631800D01*
X33585788Y-47656800D01*
X33599788Y-47681800D01*
X33611788Y-47707800D01*
X33622788Y-47734800D01*
X33632788Y-47761800D01*
X33640788Y-47789800D01*
X33647788Y-47817800D01*
X33652788Y-47845800D01*
X33656788Y-47874800D01*
X33658788Y-47902800D01*
X33659788Y-47931800D01*
X33658788Y-47960800D01*
X33656788Y-47988800D01*
X33652788Y-48017800D01*
X33647788Y-48045800D01*
X33640788Y-48073800D01*
X33632788Y-48101800D01*
X33622788Y-48128800D01*
X33611788Y-48155800D01*
X33599788Y-48181800D01*
X33585788Y-48206800D01*
X33570788Y-48231800D01*
X33554788Y-48254800D01*
X33536788Y-48277800D01*
X33518788Y-48299800D01*
X33498788Y-48320800D01*
X33477788Y-48340800D01*
X33455788Y-48358800D01*
X33432788Y-48376800D01*
X33409788Y-48392800D01*
X33384788Y-48407800D01*
X33359788Y-48421800D01*
X33333788Y-48433800D01*
X33306788Y-48444800D01*
X33279788Y-48454800D01*
X33251788Y-48462800D01*
X33223788Y-48469800D01*
X33195788Y-48474800D01*
X33166788Y-48478800D01*
X33138788Y-48480800D01*
X33109788Y-48481800D01*
X32509788Y-48481800D01*
X32480788Y-48480800D01*
X32452788Y-48478800D01*
X32423788Y-48474800D01*
X32395788Y-48469800D01*
X32367788Y-48462800D01*
X32339788Y-48454800D01*
X32312788Y-48444800D01*
X32285788Y-48433800D01*
X32259788Y-48421800D01*
X32234788Y-48407800D01*
X32209788Y-48392800D01*
X32186788Y-48376800D01*
X32163788Y-48358800D01*
X32141788Y-48340800D01*
X32120788Y-48320800D01*
X32100788Y-48299800D01*
X32082788Y-48277800D01*
X32064788Y-48254800D01*
X32048788Y-48231800D01*
X32033788Y-48206800D01*
X32019788Y-48181800D01*
X32007788Y-48155800D01*
X31996788Y-48128800D01*
X31986788Y-48101800D01*
X31978788Y-48073800D01*
X31971788Y-48045800D01*
X31966788Y-48017800D01*
X31962788Y-47988800D01*
X31960788Y-47960800D01*
X31959788Y-47931800D01*
X31960788Y-47902800D01*
X31962788Y-47874800D01*
X31966788Y-47845800D01*
X31971788Y-47817800D01*
X31978788Y-47789800D01*
X31986788Y-47761800D01*
X31996788Y-47734800D01*
X32007788Y-47707800D01*
X32019788Y-47681800D01*
X32033788Y-47656800D01*
X32048788Y-47631800D01*
X32064788Y-47608800D01*
X32082788Y-47585800D01*
X32100788Y-47563800D01*
X32120788Y-47542800D01*
X32141788Y-47522800D01*
X32163788Y-47504800D01*
X32186788Y-47486800D01*
X32209788Y-47470800D01*
X32234788Y-47455800D01*
X32259788Y-47441800D01*
X32285788Y-47429800D01*
X32312788Y-47418800D01*
X32339788Y-47408800D01*
X32367788Y-47400800D01*
X32395788Y-47393800D01*
X32423788Y-47388800D01*
X32452788Y-47384800D01*
X32480788Y-47382800D01*
X32509788Y-47381800D01*
X33109788Y-47381800D01*
X33138788Y-47382800D01*
X37459788Y-39291800D02*
X37458788Y-39262800D01*
X37458788Y-39262800D02*
X37456788Y-39234800D01*
X37456788Y-39234800D02*
X37452788Y-39205800D01*
X37452788Y-39205800D02*
X37447788Y-39177800D01*
X37447788Y-39177800D02*
X37440788Y-39149800D01*
X37440788Y-39149800D02*
X37432788Y-39121800D01*
X37432788Y-39121800D02*
X37422788Y-39094800D01*
X37422788Y-39094800D02*
X37411788Y-39067800D01*
X37411788Y-39067800D02*
X37399788Y-39041800D01*
X37399788Y-39041800D02*
X37385788Y-39016800D01*
X37385788Y-39016800D02*
X37370788Y-38991800D01*
X37370788Y-38991800D02*
X37354788Y-38968800D01*
X37354788Y-38968800D02*
X37336788Y-38945800D01*
X37336788Y-38945800D02*
X37318788Y-38923800D01*
X37318788Y-38923800D02*
X37298788Y-38902800D01*
X37298788Y-38902800D02*
X37277788Y-38882800D01*
X37277788Y-38882800D02*
X37255788Y-38864800D01*
X37255788Y-38864800D02*
X37232788Y-38846800D01*
X37232788Y-38846800D02*
X37209788Y-38830800D01*
X37209788Y-38830800D02*
X37184788Y-38815800D01*
X37184788Y-38815800D02*
X37159788Y-38801800D01*
X37159788Y-38801800D02*
X37133788Y-38789800D01*
X37133788Y-38789800D02*
X37106788Y-38778800D01*
X37106788Y-38778800D02*
X37079788Y-38768800D01*
X37079788Y-38768800D02*
X37051788Y-38760800D01*
X37051788Y-38760800D02*
X37023788Y-38753800D01*
X37023788Y-38753800D02*
X36995788Y-38748800D01*
X36995788Y-38748800D02*
X36966788Y-38744800D01*
X36966788Y-38744800D02*
X36938788Y-38742800D01*
X36938788Y-38742800D02*
X36909788Y-38741800D01*
X36909788Y-38741800D02*
X36309788Y-38741800D01*
X36309788Y-38741800D02*
X36280788Y-38742800D01*
X36280788Y-38742800D02*
X36252788Y-38744800D01*
X36252788Y-38744800D02*
X36223788Y-38748800D01*
X36223788Y-38748800D02*
X36195788Y-38753800D01*
X36195788Y-38753800D02*
X36167788Y-38760800D01*
X36167788Y-38760800D02*
X36139788Y-38768800D01*
X36139788Y-38768800D02*
X36112788Y-38778800D01*
X36112788Y-38778800D02*
X36085788Y-38789800D01*
X36085788Y-38789800D02*
X36059788Y-38801800D01*
X36059788Y-38801800D02*
X36034788Y-38815800D01*
X36034788Y-38815800D02*
X36009788Y-38830800D01*
X36009788Y-38830800D02*
X35986788Y-38846800D01*
X35986788Y-38846800D02*
X35963788Y-38864800D01*
X35963788Y-38864800D02*
X35941788Y-38882800D01*
X35941788Y-38882800D02*
X35920788Y-38902800D01*
X35920788Y-38902800D02*
X35900788Y-38923800D01*
X35900788Y-38923800D02*
X35882788Y-38945800D01*
X35882788Y-38945800D02*
X35864788Y-38968800D01*
X35864788Y-38968800D02*
X35848788Y-38991800D01*
X35848788Y-38991800D02*
X35833788Y-39016800D01*
X35833788Y-39016800D02*
X35819788Y-39041800D01*
X35819788Y-39041800D02*
X35807788Y-39067800D01*
X35807788Y-39067800D02*
X35796788Y-39094800D01*
X35796788Y-39094800D02*
X35786788Y-39121800D01*
X35786788Y-39121800D02*
X35778788Y-39149800D01*
X35778788Y-39149800D02*
X35771788Y-39177800D01*
X35771788Y-39177800D02*
X35766788Y-39205800D01*
X35766788Y-39205800D02*
X35762788Y-39234800D01*
X35762788Y-39234800D02*
X35760788Y-39262800D01*
X35760788Y-39262800D02*
X35759788Y-39291800D01*
X35759788Y-39291800D02*
X35760788Y-39320800D01*
X35760788Y-39320800D02*
X35762788Y-39348800D01*
X35762788Y-39348800D02*
X35766788Y-39377800D01*
X35766788Y-39377800D02*
X35771788Y-39405800D01*
X35771788Y-39405800D02*
X35778788Y-39433800D01*
X35778788Y-39433800D02*
X35786788Y-39461800D01*
X35786788Y-39461800D02*
X35796788Y-39488800D01*
X35796788Y-39488800D02*
X35807788Y-39515800D01*
X35807788Y-39515800D02*
X35819788Y-39541800D01*
X35819788Y-39541800D02*
X35833788Y-39566800D01*
X35833788Y-39566800D02*
X35848788Y-39591800D01*
X35848788Y-39591800D02*
X35864788Y-39614800D01*
X35864788Y-39614800D02*
X35882788Y-39637800D01*
X35882788Y-39637800D02*
X35900788Y-39659800D01*
X35900788Y-39659800D02*
X35920788Y-39680800D01*
X35920788Y-39680800D02*
X35941788Y-39700800D01*
X35941788Y-39700800D02*
X35963788Y-39718800D01*
X35963788Y-39718800D02*
X35986788Y-39736800D01*
X35986788Y-39736800D02*
X36009788Y-39752800D01*
X36009788Y-39752800D02*
X36034788Y-39767800D01*
X36034788Y-39767800D02*
X36059788Y-39781800D01*
X36059788Y-39781800D02*
X36085788Y-39793800D01*
X36085788Y-39793800D02*
X36112788Y-39804800D01*
X36112788Y-39804800D02*
X36139788Y-39814800D01*
X36139788Y-39814800D02*
X36167788Y-39822800D01*
X36167788Y-39822800D02*
X36195788Y-39829800D01*
X36195788Y-39829800D02*
X36223788Y-39834800D01*
X36223788Y-39834800D02*
X36252788Y-39838800D01*
X36252788Y-39838800D02*
X36280788Y-39840800D01*
X36280788Y-39840800D02*
X36309788Y-39841800D01*
X36309788Y-39841800D02*
X36909788Y-39841800D01*
X36909788Y-39841800D02*
X36938788Y-39840800D01*
X36938788Y-39840800D02*
X36966788Y-39838800D01*
X36966788Y-39838800D02*
X36995788Y-39834800D01*
X36995788Y-39834800D02*
X37023788Y-39829800D01*
X37023788Y-39829800D02*
X37051788Y-39822800D01*
X37051788Y-39822800D02*
X37079788Y-39814800D01*
X37079788Y-39814800D02*
X37106788Y-39804800D01*
X37106788Y-39804800D02*
X37133788Y-39793800D01*
X37133788Y-39793800D02*
X37159788Y-39781800D01*
X37159788Y-39781800D02*
X37184788Y-39767800D01*
X37184788Y-39767800D02*
X37209788Y-39752800D01*
X37209788Y-39752800D02*
X37232788Y-39736800D01*
X37232788Y-39736800D02*
X37255788Y-39718800D01*
X37255788Y-39718800D02*
X37277788Y-39700800D01*
X37277788Y-39700800D02*
X37298788Y-39680800D01*
X37298788Y-39680800D02*
X37318788Y-39659800D01*
X37318788Y-39659800D02*
X37336788Y-39637800D01*
X37336788Y-39637800D02*
X37354788Y-39614800D01*
X37354788Y-39614800D02*
X37370788Y-39591800D01*
X37370788Y-39591800D02*
X37385788Y-39566800D01*
X37385788Y-39566800D02*
X37399788Y-39541800D01*
X37399788Y-39541800D02*
X37411788Y-39515800D01*
X37411788Y-39515800D02*
X37422788Y-39488800D01*
X37422788Y-39488800D02*
X37432788Y-39461800D01*
X37432788Y-39461800D02*
X37440788Y-39433800D01*
X37440788Y-39433800D02*
X37447788Y-39405800D01*
X37447788Y-39405800D02*
X37452788Y-39377800D01*
X37452788Y-39377800D02*
X37456788Y-39348800D01*
X37456788Y-39348800D02*
X37458788Y-39320800D01*
X37458788Y-39320800D02*
X37459788Y-39291800D01*
X37459788Y-39291800D02*
X37459788Y-39291800D01*
G36*
X36938788Y-38742800D02*
G01*
X36966788Y-38744800D01*
X36995788Y-38748800D01*
X37023788Y-38753800D01*
X37051788Y-38760800D01*
X37079788Y-38768800D01*
X37106788Y-38778800D01*
X37133788Y-38789800D01*
X37159788Y-38801800D01*
X37184788Y-38815800D01*
X37209788Y-38830800D01*
X37232788Y-38846800D01*
X37255788Y-38864800D01*
X37277788Y-38882800D01*
X37298788Y-38902800D01*
X37318788Y-38923800D01*
X37336788Y-38945800D01*
X37354788Y-38968800D01*
X37370788Y-38991800D01*
X37385788Y-39016800D01*
X37399788Y-39041800D01*
X37411788Y-39067800D01*
X37422788Y-39094800D01*
X37432788Y-39121800D01*
X37440788Y-39149800D01*
X37447788Y-39177800D01*
X37452788Y-39205800D01*
X37456788Y-39234800D01*
X37458788Y-39262800D01*
X37459788Y-39291800D01*
X37458788Y-39320800D01*
X37456788Y-39348800D01*
X37452788Y-39377800D01*
X37447788Y-39405800D01*
X37440788Y-39433800D01*
X37432788Y-39461800D01*
X37422788Y-39488800D01*
X37411788Y-39515800D01*
X37399788Y-39541800D01*
X37385788Y-39566800D01*
X37370788Y-39591800D01*
X37354788Y-39614800D01*
X37336788Y-39637800D01*
X37318788Y-39659800D01*
X37298788Y-39680800D01*
X37277788Y-39700800D01*
X37255788Y-39718800D01*
X37232788Y-39736800D01*
X37209788Y-39752800D01*
X37184788Y-39767800D01*
X37159788Y-39781800D01*
X37133788Y-39793800D01*
X37106788Y-39804800D01*
X37079788Y-39814800D01*
X37051788Y-39822800D01*
X37023788Y-39829800D01*
X36995788Y-39834800D01*
X36966788Y-39838800D01*
X36938788Y-39840800D01*
X36909788Y-39841800D01*
X36309788Y-39841800D01*
X36280788Y-39840800D01*
X36252788Y-39838800D01*
X36223788Y-39834800D01*
X36195788Y-39829800D01*
X36167788Y-39822800D01*
X36139788Y-39814800D01*
X36112788Y-39804800D01*
X36085788Y-39793800D01*
X36059788Y-39781800D01*
X36034788Y-39767800D01*
X36009788Y-39752800D01*
X35986788Y-39736800D01*
X35963788Y-39718800D01*
X35941788Y-39700800D01*
X35920788Y-39680800D01*
X35900788Y-39659800D01*
X35882788Y-39637800D01*
X35864788Y-39614800D01*
X35848788Y-39591800D01*
X35833788Y-39566800D01*
X35819788Y-39541800D01*
X35807788Y-39515800D01*
X35796788Y-39488800D01*
X35786788Y-39461800D01*
X35778788Y-39433800D01*
X35771788Y-39405800D01*
X35766788Y-39377800D01*
X35762788Y-39348800D01*
X35760788Y-39320800D01*
X35759788Y-39291800D01*
X35760788Y-39262800D01*
X35762788Y-39234800D01*
X35766788Y-39205800D01*
X35771788Y-39177800D01*
X35778788Y-39149800D01*
X35786788Y-39121800D01*
X35796788Y-39094800D01*
X35807788Y-39067800D01*
X35819788Y-39041800D01*
X35833788Y-39016800D01*
X35848788Y-38991800D01*
X35864788Y-38968800D01*
X35882788Y-38945800D01*
X35900788Y-38923800D01*
X35920788Y-38902800D01*
X35941788Y-38882800D01*
X35963788Y-38864800D01*
X35986788Y-38846800D01*
X36009788Y-38830800D01*
X36034788Y-38815800D01*
X36059788Y-38801800D01*
X36085788Y-38789800D01*
X36112788Y-38778800D01*
X36139788Y-38768800D01*
X36167788Y-38760800D01*
X36195788Y-38753800D01*
X36223788Y-38748800D01*
X36252788Y-38744800D01*
X36280788Y-38742800D01*
X36309788Y-38741800D01*
X36909788Y-38741800D01*
X36938788Y-38742800D01*
G37*
X36938788Y-38742800D02*
X36966788Y-38744800D01*
X36995788Y-38748800D01*
X37023788Y-38753800D01*
X37051788Y-38760800D01*
X37079788Y-38768800D01*
X37106788Y-38778800D01*
X37133788Y-38789800D01*
X37159788Y-38801800D01*
X37184788Y-38815800D01*
X37209788Y-38830800D01*
X37232788Y-38846800D01*
X37255788Y-38864800D01*
X37277788Y-38882800D01*
X37298788Y-38902800D01*
X37318788Y-38923800D01*
X37336788Y-38945800D01*
X37354788Y-38968800D01*
X37370788Y-38991800D01*
X37385788Y-39016800D01*
X37399788Y-39041800D01*
X37411788Y-39067800D01*
X37422788Y-39094800D01*
X37432788Y-39121800D01*
X37440788Y-39149800D01*
X37447788Y-39177800D01*
X37452788Y-39205800D01*
X37456788Y-39234800D01*
X37458788Y-39262800D01*
X37459788Y-39291800D01*
X37458788Y-39320800D01*
X37456788Y-39348800D01*
X37452788Y-39377800D01*
X37447788Y-39405800D01*
X37440788Y-39433800D01*
X37432788Y-39461800D01*
X37422788Y-39488800D01*
X37411788Y-39515800D01*
X37399788Y-39541800D01*
X37385788Y-39566800D01*
X37370788Y-39591800D01*
X37354788Y-39614800D01*
X37336788Y-39637800D01*
X37318788Y-39659800D01*
X37298788Y-39680800D01*
X37277788Y-39700800D01*
X37255788Y-39718800D01*
X37232788Y-39736800D01*
X37209788Y-39752800D01*
X37184788Y-39767800D01*
X37159788Y-39781800D01*
X37133788Y-39793800D01*
X37106788Y-39804800D01*
X37079788Y-39814800D01*
X37051788Y-39822800D01*
X37023788Y-39829800D01*
X36995788Y-39834800D01*
X36966788Y-39838800D01*
X36938788Y-39840800D01*
X36909788Y-39841800D01*
X36309788Y-39841800D01*
X36280788Y-39840800D01*
X36252788Y-39838800D01*
X36223788Y-39834800D01*
X36195788Y-39829800D01*
X36167788Y-39822800D01*
X36139788Y-39814800D01*
X36112788Y-39804800D01*
X36085788Y-39793800D01*
X36059788Y-39781800D01*
X36034788Y-39767800D01*
X36009788Y-39752800D01*
X35986788Y-39736800D01*
X35963788Y-39718800D01*
X35941788Y-39700800D01*
X35920788Y-39680800D01*
X35900788Y-39659800D01*
X35882788Y-39637800D01*
X35864788Y-39614800D01*
X35848788Y-39591800D01*
X35833788Y-39566800D01*
X35819788Y-39541800D01*
X35807788Y-39515800D01*
X35796788Y-39488800D01*
X35786788Y-39461800D01*
X35778788Y-39433800D01*
X35771788Y-39405800D01*
X35766788Y-39377800D01*
X35762788Y-39348800D01*
X35760788Y-39320800D01*
X35759788Y-39291800D01*
X35760788Y-39262800D01*
X35762788Y-39234800D01*
X35766788Y-39205800D01*
X35771788Y-39177800D01*
X35778788Y-39149800D01*
X35786788Y-39121800D01*
X35796788Y-39094800D01*
X35807788Y-39067800D01*
X35819788Y-39041800D01*
X35833788Y-39016800D01*
X35848788Y-38991800D01*
X35864788Y-38968800D01*
X35882788Y-38945800D01*
X35900788Y-38923800D01*
X35920788Y-38902800D01*
X35941788Y-38882800D01*
X35963788Y-38864800D01*
X35986788Y-38846800D01*
X36009788Y-38830800D01*
X36034788Y-38815800D01*
X36059788Y-38801800D01*
X36085788Y-38789800D01*
X36112788Y-38778800D01*
X36139788Y-38768800D01*
X36167788Y-38760800D01*
X36195788Y-38753800D01*
X36223788Y-38748800D01*
X36252788Y-38744800D01*
X36280788Y-38742800D01*
X36309788Y-38741800D01*
X36909788Y-38741800D01*
X36938788Y-38742800D01*
%TD*%
D11*
%TO.P,R3,1*%
%TO.N,SIM7020E_PWR*%
X72593200Y-42481000D03*
%TO.P,R3,2*%
%TO.N,Net-(Q2-Pad1)*%
X72593200Y-40831000D03*
%TD*%
D12*
%TO.P,D7,A*%
%TO.N,GND*%
X96342200Y-75239600D03*
%TO.P,D7,C*%
%TO.N,/SIM7020E/SIM7020E_D+*%
X96342200Y-74079600D03*
%TD*%
D13*
%TO.P,U4,1,GND*%
%TO.N,GND*%
X64025900Y-68810000D03*
%TO.P,U4,2,TXD0*%
%TO.N,Net-(R9-Pad2)*%
X62925900Y-68810000D03*
%TO.P,U4,3,RXD0*%
%TO.N,Net-(R10-Pad2)*%
X61825900Y-68810000D03*
%TO.P,U4,4,PPS*%
%TO.N,unconnected-(U4-Pad4)*%
X60725900Y-68810000D03*
%TO.P,U4,5,EXTINT*%
%TO.N,SIM68M_EXTINT*%
X59625900Y-68810000D03*
%TO.P,U4,6,VBAT*%
%TO.N,unconnected-(U4-Pad6)*%
X58525900Y-68810000D03*
%TO.P,U4,7,NC*%
%TO.N,unconnected-(U4-Pad7)*%
X57425900Y-68810000D03*
%TO.P,U4,8,VCC*%
%TO.N,+3V3*%
X56325900Y-68810000D03*
%TO.P,U4,9,NRESET*%
%TO.N,unconnected-(U4-Pad9)*%
X55225900Y-68810000D03*
%TO.P,U4,10,GND@2*%
%TO.N,GND*%
X55225900Y-78510000D03*
%TO.P,U4,11,RF_IN*%
%TO.N,Net-(R12-Pad1)*%
X56325900Y-78510000D03*
%TO.P,U4,12,GND@1*%
%TO.N,GND*%
X57425900Y-78510000D03*
%TO.P,U4,13,ANTON*%
%TO.N,unconnected-(U4-Pad13)*%
X58525900Y-78510000D03*
%TO.P,U4,14,VCC_RF*%
%TO.N,Net-(C26-Pad2)*%
X59625900Y-78510000D03*
%TO.P,U4,15,NC@2*%
%TO.N,unconnected-(U4-Pad15)*%
X60725900Y-78510000D03*
%TO.P,U4,16,TXD1*%
%TO.N,unconnected-(U4-Pad16)*%
X61825900Y-78510000D03*
%TO.P,U4,17,RXD1*%
%TO.N,unconnected-(U4-Pad17)*%
X62925900Y-78510000D03*
%TO.P,U4,18,FORCE_ON*%
%TO.N,unconnected-(U4-Pad18)*%
X64025900Y-78510000D03*
%TD*%
D14*
%TO.P,C3,1*%
%TO.N,/STM32L431_MCU/VDDA*%
X53187600Y-62547800D03*
%TO.P,C3,2*%
%TO.N,GND*%
X53187600Y-60997800D03*
%TD*%
D15*
%TO.P,C7,1*%
%TO.N,+3V3*%
X66167000Y-63868000D03*
%TO.P,C7,2*%
%TO.N,GND*%
X66167000Y-65418000D03*
%TD*%
D16*
%TO.P,R6,1*%
%TO.N,/SIM7020E/SIM_CLK*%
X83375000Y-67665600D03*
%TO.P,R6,2*%
%TO.N,/SIM7020E/CLK_SC*%
X81725000Y-67665600D03*
%TD*%
D17*
%TO.P,C44,1*%
%TO.N,/MP2636/BATT*%
X49428400Y-34389800D03*
%TO.P,C44,2*%
%TO.N,GND*%
X49428400Y-37339800D03*
%TD*%
D11*
%TO.P,R42,1*%
%TO.N,/MP2636/VB*%
X50114200Y-41668200D03*
%TO.P,R42,2*%
%TO.N,/MP2636/VCC*%
X50114200Y-40018200D03*
%TD*%
D18*
%TO.P,R13,1*%
%TO.N,GND*%
X37960800Y-30810200D03*
%TO.P,R13,2*%
%TO.N,Net-(IC3-Pad6)*%
X39610800Y-30810200D03*
%TD*%
D19*
%TO.P,Q3,1,D*%
%TO.N,Net-(Q1-Pad1)*%
X38338400Y-36768800D03*
%TO.P,Q3,2,D*%
X38338400Y-36118800D03*
%TO.P,Q3,3,G*%
%TO.N,Net-(IC3-Pad2)*%
X38338400Y-35468800D03*
%TO.P,Q3,4,S*%
%TO.N,GND*%
X36388400Y-35468800D03*
%TO.P,Q3,5,D*%
%TO.N,Net-(Q1-Pad1)*%
X36388400Y-36118800D03*
%TO.P,Q3,6,D*%
X36388400Y-36768800D03*
D20*
%TO.P,Q3,7,S*%
%TO.N,GND*%
X37268400Y-35468800D03*
D21*
%TO.P,Q3,8,D*%
%TO.N,Net-(Q1-Pad1)*%
X37363400Y-36443800D03*
%TD*%
D22*
%TO.P,C9,1*%
%TO.N,+3V3*%
X87277000Y-42697400D03*
%TO.P,C9,2*%
%TO.N,GND*%
X88237000Y-42697400D03*
%TD*%
D23*
%TO.P,R46,1*%
%TO.N,Net-(L3-Pad2)*%
X58639300Y-35179000D03*
%TO.P,R46,2*%
%TO.N,/MP2636/BATT*%
X52714300Y-35179000D03*
%TD*%
D24*
%TO.P,R14,1*%
%TO.N,GND*%
X43914700Y-33401000D03*
%TO.P,R14,2*%
%TO.N,Net-(IC3-Pad3)*%
X42089700Y-33401000D03*
%TD*%
D18*
%TO.P,R33,1*%
%TO.N,GND*%
X40729400Y-50266600D03*
%TO.P,R33,2*%
%TO.N,Net-(R33-Pad2)*%
X42379400Y-50266600D03*
%TD*%
D25*
%TO.P,J1,1*%
%TO.N,Net-(D3-Pad1)*%
X98602800Y-55245000D03*
D26*
%TO.P,J1,G1*%
%TO.N,GND*%
X96202800Y-52845000D03*
%TO.P,J1,G2*%
X96202800Y-57645000D03*
%TO.P,J1,G3*%
X101002800Y-57645000D03*
%TO.P,J1,G4*%
X101002800Y-52845000D03*
%TD*%
D27*
%TO.P,C28,1*%
%TO.N,GND*%
X40754000Y-47244000D03*
%TO.P,C28,2*%
%TO.N,/MP2636/VCC*%
X42304000Y-47244000D03*
%TD*%
D28*
%TO.P,R11,1*%
%TO.N,Net-(C26-Pad2)*%
X60274200Y-80912200D03*
%TO.P,R11,2*%
%TO.N,Net-(L1-Pad1)*%
X60274200Y-82562200D03*
%TD*%
D29*
%TO.P,D11,1,K*%
%TO.N,Net-(D11-Pad1)*%
X40487600Y-61366300D03*
%TO.P,D11,2,A*%
%TO.N,Net-(D11-Pad2)*%
X40487600Y-62941300D03*
%TD*%
D30*
%TO.P,U6,1,IB*%
%TO.N,/MP2636/IB*%
X46393900Y-45564600D03*
D31*
%TO.P,U6,1_1,IB*%
X46593900Y-45214600D03*
D30*
%TO.P,U6,2,SW*%
%TO.N,Net-(L3-Pad1)*%
X46393900Y-45964600D03*
%TO.P,U6,3,SYS*%
%TO.N,+5V*%
X46393900Y-46364600D03*
%TO.P,U6,4,VIN*%
%TO.N,/MP2636/VIN*%
X46393900Y-46764600D03*
%TO.P,U6,5,VCC*%
%TO.N,/MP2636/VCC*%
X46393900Y-47164600D03*
%TO.P,U6,6,ILIM*%
%TO.N,Net-(R40-Pad1)*%
X46393900Y-47564600D03*
%TO.P,U6,7,PWIN*%
%TO.N,Net-(R33-Pad2)*%
X46393900Y-47964600D03*
%TO.P,U6,8,TMR*%
%TO.N,Net-(C27-Pad1)*%
X46393900Y-48364600D03*
D31*
%TO.P,U6,8_1,TMR*%
X46593900Y-48714600D03*
D32*
%TO.P,U6,9,REG*%
%TO.N,Net-(R34-Pad2)*%
X47293900Y-48864600D03*
%TO.P,U6,10,~{ACOK}*%
%TO.N,Net-(D12-Pad1)*%
X47693900Y-48864600D03*
%TO.P,U6,11,FB*%
%TO.N,/MP2636/FB*%
X48093900Y-48864600D03*
%TO.P,U6,12,NTC*%
%TO.N,unconnected-(U6-Pad12)*%
X48493900Y-48864600D03*
%TO.P,U6,13,ISET*%
%TO.N,Net-(R38-Pad1)*%
X48893900Y-48864600D03*
%TO.P,U6,14,OLIM*%
%TO.N,/MP2636/OLIM*%
X49293900Y-48864600D03*
D30*
%TO.P,U6,15,AGND*%
%TO.N,GND*%
X50193900Y-48364600D03*
D31*
%TO.P,U6,15_1,AGND*%
X49993900Y-48714600D03*
D30*
%TO.P,U6,16,VB*%
%TO.N,/MP2636/VB*%
X50193900Y-47964600D03*
%TO.P,U6,17,BATT*%
%TO.N,/MP2636/BATT*%
X50193900Y-47564600D03*
%TO.P,U6,18,CSP*%
%TO.N,Net-(L3-Pad2)*%
X50193900Y-47164600D03*
%TO.P,U6,19,VIN*%
%TO.N,/MP2636/VIN*%
X50193900Y-46764600D03*
%TO.P,U6,20,SYS*%
%TO.N,+5V*%
X50193900Y-46364600D03*
%TO.P,U6,21,SW*%
%TO.N,Net-(L3-Pad1)*%
X50193900Y-45964600D03*
%TO.P,U6,22,~{BOOST}*%
%TO.N,Net-(D11-Pad1)*%
X50193900Y-45564600D03*
D31*
%TO.P,U6,22_1,~{BOOST}*%
X49993900Y-45214600D03*
D32*
%TO.P,U6,23,~{CHG}*%
%TO.N,Net-(D10-Pad1)*%
X49293900Y-45064600D03*
%TO.P,U6,24,MODE*%
%TO.N,Net-(R37-Pad2)*%
X48893900Y-45064600D03*
%TO.P,U6,25,EN*%
%TO.N,Net-(R39-Pad2)*%
X48493900Y-45064600D03*
%TO.P,U6,26,FREQ*%
%TO.N,GND*%
X48093900Y-45064600D03*
%TO.P,U6,27,PGND*%
X47693900Y-45064600D03*
%TO.P,U6,28,PGND*%
X47293900Y-45064600D03*
D33*
%TO.P,U6,29,SYS*%
%TO.N,+5V*%
X48293900Y-46364600D03*
%TO.P,U6,30,VIN*%
%TO.N,/MP2636/VIN*%
X48293900Y-46964600D03*
%TD*%
D27*
%TO.P,C13,1*%
%TO.N,/SIM7020E/PWRKEY*%
X81140000Y-42875200D03*
%TO.P,C13,2*%
%TO.N,GND*%
X82690000Y-42875200D03*
%TD*%
D29*
%TO.P,D12,1,K*%
%TO.N,Net-(D12-Pad1)*%
X37465000Y-61315500D03*
%TO.P,D12,2,A*%
%TO.N,Net-(D12-Pad2)*%
X37465000Y-62890500D03*
%TD*%
D15*
%TO.P,C19,1*%
%TO.N,/SIM7020E/SIM_DATA*%
X78613000Y-65925400D03*
%TO.P,C19,2*%
%TO.N,GND*%
X78613000Y-67475400D03*
%TD*%
D34*
%TO.P,C17,1*%
%TO.N,/SIM7020E/SIM_CLK*%
X83325000Y-66217800D03*
%TO.P,C17,2*%
%TO.N,GND*%
X81775000Y-66217800D03*
%TD*%
D27*
%TO.P,C10,1*%
%TO.N,+3V3*%
X87159800Y-41351200D03*
%TO.P,C10,2*%
%TO.N,GND*%
X88709800Y-41351200D03*
%TD*%
D35*
%TO.P,U7,+*%
%TO.N,+3V3*%
X88442800Y-33680400D03*
%TO.P,U7,-*%
%TO.N,GND*%
X94792800Y-33680400D03*
%TD*%
D29*
%TO.P,D12,1,K*%
%TO.N,Net-(D12-Pad1)*%
X37465000Y-61315500D03*
%TO.P,D12,2,A*%
%TO.N,Net-(D12-Pad2)*%
X37465000Y-62890500D03*
%TD*%
D36*
%TO.P,J2,C1,C1*%
%TO.N,/SIM7020E/SC_VCC*%
X85648796Y-70290000D03*
%TO.P,J2,C2,C2*%
%TO.N,/SIM7020E/RST_SC*%
X83648796Y-70290000D03*
%TO.P,J2,C3,C3*%
%TO.N,/SIM7020E/CLK_SC*%
X79458796Y-70290000D03*
%TO.P,J2,C5,C5*%
%TO.N,GND*%
X86648796Y-70290000D03*
%TO.P,J2,C6,C6*%
%TO.N,unconnected-(J2-PadC6)*%
X84648796Y-70290000D03*
%TO.P,J2,C7,C7*%
%TO.N,/SIM7020E/I{slash}O_SC*%
X80458796Y-70290000D03*
D37*
%TO.P,J2,DL1,DL1*%
%TO.N,unconnected-(J2-PadDL1)*%
X89013796Y-71015000D03*
D36*
%TO.P,J2,DS1,DS1*%
%TO.N,unconnected-(J2-PadDS1)*%
X81863796Y-70290000D03*
D38*
%TO.P,J2,G1,G1*%
%TO.N,GND*%
X90913796Y-85090000D03*
%TO.P,J2,G2,G2*%
X90913796Y-79790000D03*
D39*
%TO.P,J2,G3,G3*%
X90913796Y-71140000D03*
%TO.P,J2,G4,G4*%
X75813796Y-71140000D03*
D38*
%TO.P,J2,G5,G5*%
X75813796Y-79790000D03*
%TO.P,J2,G6,G6*%
X75813796Y-85090000D03*
%TD*%
D18*
%TO.P,R29,1*%
%TO.N,+3V3*%
X68542400Y-66040000D03*
%TO.P,R29,2*%
%TO.N,/STM32L431_MCU/TMP451_SCL*%
X70192400Y-66040000D03*
%TD*%
D40*
%TO.P,L3,1,1*%
%TO.N,Net-(L3-Pad1)*%
X55778400Y-43674200D03*
%TO.P,L3,2,2*%
%TO.N,Net-(L3-Pad2)*%
X55778400Y-38774200D03*
%TD*%
D14*
%TO.P,C2,1*%
%TO.N,/STM32L431_MCU/VDDA*%
X54660800Y-62547800D03*
%TO.P,C2,2*%
%TO.N,GND*%
X54660800Y-60997800D03*
%TD*%
D28*
%TO.P,R10,1*%
%TO.N,SIM68M_RXD{slash}MCU_TX*%
X60960000Y-65088000D03*
%TO.P,R10,2*%
%TO.N,Net-(R10-Pad2)*%
X60960000Y-66738000D03*
%TD*%
D15*
%TO.P,C16,1*%
%TO.N,/SIM7020E/SIM_RST*%
X84785200Y-66179400D03*
%TO.P,C16,2*%
%TO.N,GND*%
X84785200Y-67729400D03*
%TD*%
D28*
%TO.P,R37,1*%
%TO.N,/MP2636/VCC*%
X48590200Y-40018200D03*
%TO.P,R37,2*%
%TO.N,Net-(R37-Pad2)*%
X48590200Y-41668200D03*
%TD*%
D16*
%TO.P,R30,1*%
%TO.N,+3V3*%
X73215000Y-66040000D03*
%TO.P,R30,2*%
%TO.N,/STM32L431_MCU/TMP451_SDA*%
X71565000Y-66040000D03*
%TD*%
D35*
%TO.P,U8,+*%
%TO.N,+3V3*%
X88544400Y-38557200D03*
%TO.P,U8,-*%
%TO.N,GND*%
X94894400Y-38557200D03*
%TD*%
D41*
%TO.P,IC3,1,NC*%
%TO.N,unconnected-(IC3-Pad1)*%
X40825800Y-31567200D03*
%TO.P,IC3,2,COUT*%
%TO.N,Net-(IC3-Pad2)*%
X41325800Y-31567200D03*
%TO.P,IC3,3,DOUT*%
%TO.N,Net-(IC3-Pad3)*%
X41825800Y-31567200D03*
%TO.P,IC3,4,VSS*%
%TO.N,GND*%
X41825800Y-30307200D03*
%TO.P,IC3,5,BAT*%
%TO.N,Net-(C34-Pad1)*%
X41325800Y-30307200D03*
%TO.P,IC3,6,V-*%
%TO.N,Net-(IC3-Pad6)*%
X40825800Y-30307200D03*
%TD*%
D42*
%TO.P,U2,1,UART1_TXD*%
%TO.N,/SIM7020E/UART1_TXD*%
X75716000Y-48306000D03*
%TO.P,U2,2,UART1_RXD*%
%TO.N,/SIM7020E/UART1_RDX*%
X75716000Y-49406000D03*
%TO.P,U2,3,UART1_RTS*%
%TO.N,unconnected-(U2-Pad3)*%
X75716000Y-50506000D03*
%TO.P,U2,4,UART1_CTS*%
%TO.N,unconnected-(U2-Pad4)*%
X75716000Y-51606000D03*
%TO.P,U2,5,UART1_DCD*%
%TO.N,unconnected-(U2-Pad5)*%
X75716000Y-52706000D03*
%TO.P,U2,6,UART1_DTR*%
%TO.N,unconnected-(U2-Pad6)*%
X75716000Y-53806000D03*
%TO.P,U2,7,UART1_RI*%
%TO.N,unconnected-(U2-Pad7)*%
X75716000Y-54906000D03*
%TO.P,U2,8,GND*%
%TO.N,GND*%
X75716000Y-56006000D03*
%TO.P,U2,9,VDD_3V3*%
%TO.N,unconnected-(U2-Pad9)*%
X75716000Y-57106000D03*
%TO.P,U2,10,GPIO0*%
%TO.N,unconnected-(U2-Pad10)*%
X75716000Y-58206000D03*
%TO.P,U2,11,RTC_GPIO0*%
%TO.N,unconnected-(U2-Pad11)*%
X75716000Y-59306000D03*
%TO.P,U2,12,RTC_EINT*%
%TO.N,SIM7020E_RTC_EINT*%
X75716000Y-60406000D03*
D43*
%TO.P,U2,13,GND*%
%TO.N,GND*%
X79166000Y-63156000D03*
%TO.P,U2,14,SIM_DET*%
%TO.N,unconnected-(U2-Pad14)*%
X80266000Y-63156000D03*
%TO.P,U2,15,SIM_DATA*%
%TO.N,/SIM7020E/SIM_DATA*%
X81366000Y-63156000D03*
%TO.P,U2,16,SIM_CLK*%
%TO.N,/SIM7020E/SIM_CLK*%
X82466000Y-63156000D03*
%TO.P,U2,17,SIM_RST*%
%TO.N,/SIM7020E/SIM_RST*%
X83566000Y-63156000D03*
%TO.P,U2,18,SIM_VDD*%
%TO.N,/SIM7020E/SC_VCC*%
X84666000Y-63156000D03*
%TO.P,U2,19,GND*%
%TO.N,GND*%
X85766000Y-63156000D03*
%TO.P,U2,20,NC*%
%TO.N,unconnected-(U2-Pad20)*%
X86866000Y-63156000D03*
%TO.P,U2,21,GND*%
%TO.N,GND*%
X87966000Y-63156000D03*
D42*
%TO.P,U2,22,UART2_TXD*%
%TO.N,/SIM7020E/UART2_TXD*%
X91416000Y-60406000D03*
%TO.P,U2,23,UART2_RXD*%
%TO.N,/SIM7020E/UART2_RDX*%
X91416000Y-59306000D03*
%TO.P,U2,24,USB_VBUS*%
%TO.N,unconnected-(U2-Pad24)*%
X91416000Y-58206000D03*
%TO.P,U2,25,USB_DP*%
%TO.N,/SIM7020E/SIM7020E_D+*%
X91416000Y-57106000D03*
%TO.P,U2,26,USB_DM*%
%TO.N,/SIM7020E/SIM7020E_D-*%
X91416000Y-56006000D03*
%TO.P,U2,27,GND*%
%TO.N,GND*%
X91416000Y-54906000D03*
%TO.P,U2,28,~{RESET}*%
%TO.N,unconnected-(U2-Pad28)*%
X91416000Y-53806000D03*
%TO.P,U2,29,GPIO1*%
%TO.N,SIM7020E_GPIO1*%
X91416000Y-52706000D03*
%TO.P,U2,30,GND*%
%TO.N,GND*%
X91416000Y-51606000D03*
%TO.P,U2,31,GND*%
X91416000Y-50506000D03*
%TO.P,U2,32,ANT*%
%TO.N,/SIM7020E/ANT*%
X91416000Y-49406000D03*
%TO.P,U2,33,GND*%
%TO.N,GND*%
X91416000Y-48306000D03*
D43*
%TO.P,U2,34,VBAT*%
%TO.N,+3V3*%
X87966000Y-45556000D03*
%TO.P,U2,35,VBAT*%
X86866000Y-45556000D03*
%TO.P,U2,36,GND*%
%TO.N,GND*%
X85766000Y-45556000D03*
%TO.P,U2,37,GND*%
X84666000Y-45556000D03*
%TO.P,U2,38,ADC*%
%TO.N,unconnected-(U2-Pad38)*%
X83566000Y-45556000D03*
%TO.P,U2,39,~{PWRKEY}*%
%TO.N,/SIM7020E/PWRKEY*%
X82466000Y-45556000D03*
%TO.P,U2,40,VDD_EXT*%
%TO.N,/SIM7020E/VDD_EXT*%
X81366000Y-45556000D03*
%TO.P,U2,41,NETLIGHT*%
%TO.N,/SIM7020E/NETLIGHT*%
X80266000Y-45556000D03*
%TO.P,U2,42,STATUS*%
%TO.N,/SIM7020E/STATUS*%
X79166000Y-45556000D03*
%TD*%
D44*
%TO.P,R15,1*%
%TO.N,GND*%
X38076500Y-33274000D03*
%TO.P,R15,2*%
%TO.N,Net-(IC3-Pad2)*%
X39901500Y-33274000D03*
%TD*%
D18*
%TO.P,R8,1*%
%TO.N,/SIM7020E/ANT*%
X93790000Y-49428400D03*
%TO.P,R8,2*%
%TO.N,Net-(D3-Pad1)*%
X95440000Y-49428400D03*
%TD*%
D15*
%TO.P,C20,1*%
%TO.N,GND*%
X43053000Y-44259200D03*
%TO.P,C20,2*%
%TO.N,/MP2636/VIN*%
X43053000Y-45809200D03*
%TD*%
D45*
%TO.P,S2,1*%
%TO.N,GND*%
X76130600Y-37466400D03*
%TO.P,S2,2*%
X83330600Y-37466400D03*
%TO.P,S2,3*%
%TO.N,/SIM7020E/PWRKEY*%
X76130600Y-34466400D03*
%TO.P,S2,4*%
X83330600Y-34466400D03*
%TD*%
D17*
%TO.P,C38,1*%
%TO.N,/MP2636/BATT*%
X47015400Y-34389800D03*
%TO.P,C38,2*%
%TO.N,GND*%
X47015400Y-37339800D03*
%TD*%
D27*
%TO.P,C6,1*%
%TO.N,+3V3*%
X56248000Y-54991000D03*
%TO.P,C6,2*%
%TO.N,GND*%
X57798000Y-54991000D03*
%TD*%
D19*
%TO.P,Q1,1,D*%
%TO.N,Net-(Q1-Pad1)*%
X42148400Y-36794200D03*
%TO.P,Q1,2,D*%
X42148400Y-36144200D03*
%TO.P,Q1,3,G*%
%TO.N,Net-(IC3-Pad3)*%
X42148400Y-35494200D03*
%TO.P,Q1,4,S*%
%TO.N,GND*%
X40198400Y-35494200D03*
%TO.P,Q1,5,D*%
%TO.N,Net-(Q1-Pad1)*%
X40198400Y-36144200D03*
%TO.P,Q1,6,D*%
X40198400Y-36794200D03*
D20*
%TO.P,Q1,7,S*%
%TO.N,GND*%
X41078400Y-35494200D03*
D21*
%TO.P,Q1,8,D*%
%TO.N,Net-(Q1-Pad1)*%
X41173400Y-36469200D03*
%TD*%
D28*
%TO.P,R12,1*%
%TO.N,Net-(R12-Pad1)*%
X55702200Y-80886800D03*
%TO.P,R12,2*%
%TO.N,Net-(J3-Pad1)*%
X55702200Y-82536800D03*
%TD*%
D46*
%TO.P,J4,1,Pin_1*%
%TO.N,GND*%
X34061400Y-66573400D03*
D47*
%TO.P,J4,2,Pin_2*%
%TO.N,+3V3*%
X34061400Y-69113400D03*
%TO.P,J4,3,Pin_3*%
%TO.N,/STM32L431_MCU/GPIO01*%
X34061400Y-71653400D03*
%TO.P,J4,4,Pin_4*%
%TO.N,/STM32L431_MCU/GPIO02*%
X34061400Y-74193400D03*
%TO.P,J4,5,Pin_5*%
%TO.N,/STM32L431_MCU/GPIO03*%
X34061400Y-76733400D03*
%TO.P,J4,6,Pin_6*%
%TO.N,/STM32L431_MCU/GPIO05*%
X34061400Y-79273400D03*
%TD*%
D28*
%TO.P,R38,1*%
%TO.N,Net-(R38-Pad1)*%
X50038000Y-52184800D03*
%TO.P,R38,2*%
%TO.N,GND*%
X50038000Y-53834800D03*
%TD*%
D11*
%TO.P,R50,1*%
%TO.N,Net-(R49-Pad2)*%
X48564800Y-53860200D03*
%TO.P,R50,2*%
%TO.N,/MP2636/FB*%
X48564800Y-52210200D03*
%TD*%
%TO.P,R47,1*%
%TO.N,/MP2636/IB*%
X43103800Y-42633400D03*
%TO.P,R47,2*%
%TO.N,GND*%
X43103800Y-40983400D03*
%TD*%
D48*
%TO.P,U3,1,VCCA*%
%TO.N,/SIM7020E/VDD_EXT*%
X72003200Y-52230100D03*
%TO.P,U3,2,A1*%
%TO.N,/SIM7020E/UART1_TXD*%
X71353200Y-52230100D03*
%TO.P,U3,3,A2*%
%TO.N,/SIM7020E/UART1_RDX*%
X70703200Y-52230100D03*
%TO.P,U3,4,A3*%
%TO.N,/SIM7020E/UART2_TXD*%
X70053200Y-52230100D03*
%TO.P,U3,5,A4*%
%TO.N,/SIM7020E/UART2_RDX*%
X69403200Y-52230100D03*
%TO.P,U3,6,NC*%
%TO.N,unconnected-(U3-Pad6)*%
X68753200Y-52230100D03*
%TO.P,U3,7,GND*%
%TO.N,GND*%
X68103200Y-52230100D03*
%TO.P,U3,8,OE*%
%TO.N,/SIM7020E/VDD_EXT*%
X68103200Y-57955100D03*
%TO.P,U3,9,NC*%
%TO.N,unconnected-(U3-Pad9)*%
X68753200Y-57955100D03*
%TO.P,U3,10,B4*%
%TO.N,SIM7020E_UART2_RXD{slash}u_TX*%
X69403200Y-57955100D03*
%TO.P,U3,11,B3*%
%TO.N,SIM7020E_UART2_TXD{slash}u_RX*%
X70053200Y-57955100D03*
%TO.P,U3,12,B2*%
%TO.N,SIM7020E_RXD{slash}MCU_TX*%
X70703200Y-57955100D03*
%TO.P,U3,13,B1*%
%TO.N,SIM7020E_TXD{slash}MCU_RX*%
X71353200Y-57955100D03*
%TO.P,U3,14,VCCB*%
%TO.N,+3V3*%
X72003200Y-57955100D03*
%TD*%
D49*
%TO.P,Q2,1,B*%
%TO.N,Net-(Q2-Pad1)*%
X75872100Y-40071000D03*
%TO.P,Q2,2,E*%
%TO.N,GND*%
X75872100Y-41971000D03*
%TO.P,Q2,3,C*%
%TO.N,/SIM7020E/PWRKEY*%
X77747100Y-41021000D03*
%TD*%
D46*
%TO.P,J7,1,Pin_1*%
%TO.N,/STM32L431_MCU/SWDIO*%
X67244200Y-31242000D03*
D47*
%TO.P,J7,2,Pin_2*%
%TO.N,/STM32L431_MCU/SWCLK*%
X64704200Y-31242000D03*
%TO.P,J7,3,Pin_3*%
%TO.N,/STM32L431_MCU/SWO*%
X62164200Y-31242000D03*
%TD*%
D16*
%TO.P,R40,1*%
%TO.N,Net-(R40-Pad1)*%
X42354000Y-48717200D03*
%TO.P,R40,2*%
%TO.N,GND*%
X40704000Y-48717200D03*
%TD*%
D28*
%TO.P,R7,1*%
%TO.N,/SIM7020E/SIM_DATA*%
X80213200Y-65875400D03*
%TO.P,R7,2*%
%TO.N,/SIM7020E/I{slash}O_SC*%
X80213200Y-67525400D03*
%TD*%
D11*
%TO.P,R34,1*%
%TO.N,GND*%
X46634400Y-53834800D03*
%TO.P,R34,2*%
%TO.N,Net-(R34-Pad2)*%
X46634400Y-52184800D03*
%TD*%
D15*
%TO.P,C18,1*%
%TO.N,GND*%
X41071800Y-41058800D03*
%TO.P,C18,2*%
%TO.N,/MP2636/VIN*%
X41071800Y-42608800D03*
%TD*%
D50*
%TO.P,D2,1,K*%
%TO.N,GND*%
X70487300Y-38354000D03*
%TO.P,D2,2,A*%
%TO.N,Net-(D2-Pad2)*%
X72362300Y-38354000D03*
%TD*%
D22*
%TO.P,C8,1*%
%TO.N,+3V3*%
X87277000Y-43637200D03*
%TO.P,C8,2*%
%TO.N,GND*%
X88237000Y-43637200D03*
%TD*%
D28*
%TO.P,R5,1*%
%TO.N,/SIM7020E/SIM_RST*%
X86309200Y-66129400D03*
%TO.P,R5,2*%
%TO.N,/SIM7020E/RST_SC*%
X86309200Y-67779400D03*
%TD*%
D51*
%TO.P,U1,1,VBAT*%
%TO.N,unconnected-(U1-Pad1)*%
X56311500Y-57132000D03*
%TO.P,U1,2,PC13*%
%TO.N,unconnected-(U1-Pad2)*%
X56311500Y-57632000D03*
%TO.P,U1,3,PC14*%
%TO.N,unconnected-(U1-Pad3)*%
X56311500Y-58132000D03*
%TO.P,U1,4,PC15*%
%TO.N,unconnected-(U1-Pad4)*%
X56311500Y-58632000D03*
%TO.P,U1,5,PH0*%
%TO.N,unconnected-(U1-Pad5)*%
X56311500Y-59132000D03*
%TO.P,U1,6,PH1*%
%TO.N,unconnected-(U1-Pad6)*%
X56311500Y-59632000D03*
%TO.P,U1,7,NRST*%
%TO.N,/STM32L431_MCU/NRST*%
X56311500Y-60132000D03*
%TO.P,U1,8,VSSA*%
%TO.N,GND*%
X56311500Y-60632000D03*
%TO.P,U1,9,VDDA*%
%TO.N,/STM32L431_MCU/VDDA*%
X56311500Y-61132000D03*
%TO.P,U1,10,PA0*%
%TO.N,unconnected-(U1-Pad10)*%
X56311500Y-61632000D03*
%TO.P,U1,11,PA1*%
%TO.N,unconnected-(U1-Pad11)*%
X56311500Y-62132000D03*
%TO.P,U1,12,PA2*%
%TO.N,SIM7020E_UART2_RXD{slash}u_TX*%
X56311500Y-62632000D03*
D52*
%TO.P,U1,13,PA3*%
%TO.N,SIM7020E_UART2_TXD{slash}u_RX*%
X56999000Y-63319500D03*
%TO.P,U1,14,PA4*%
%TO.N,/STM32L431_MCU/GPIO01*%
X57499000Y-63319500D03*
%TO.P,U1,15,PA5*%
%TO.N,/STM32L431_MCU/GPIO02*%
X57999000Y-63319500D03*
%TO.P,U1,16,PA6*%
%TO.N,/STM32L431_MCU/GPIO03*%
X58499000Y-63319500D03*
%TO.P,U1,17,PA7*%
%TO.N,/STM32L431_MCU/MCU_LED*%
X58999000Y-63319500D03*
%TO.P,U1,18,PB0*%
%TO.N,/STM32L431_MCU/GPIO05*%
X59499000Y-63319500D03*
%TO.P,U1,19,PB1*%
%TO.N,unconnected-(U1-Pad19)*%
X59999000Y-63319500D03*
%TO.P,U1,20,PB2*%
%TO.N,SIM68M_EXTINT*%
X60499000Y-63319500D03*
%TO.P,U1,21,PB10*%
%TO.N,SIM68M_RXD{slash}MCU_TX*%
X60999000Y-63319500D03*
%TO.P,U1,22,PB11*%
%TO.N,SIM68M_TXD{slash}MCU_RX*%
X61499000Y-63319500D03*
%TO.P,U1,23,VSS*%
%TO.N,GND*%
X61999000Y-63319500D03*
%TO.P,U1,24,VDD*%
%TO.N,+3V3*%
X62499000Y-63319500D03*
D51*
%TO.P,U1,25,PB12*%
%TO.N,unconnected-(U1-Pad25)*%
X63186500Y-62632000D03*
%TO.P,U1,26,PB13*%
%TO.N,/STM32L431_MCU/TMP451_SCL*%
X63186500Y-62132000D03*
%TO.P,U1,27,PB14*%
%TO.N,/STM32L431_MCU/TMP451_SDA*%
X63186500Y-61632000D03*
%TO.P,U1,28,PB15*%
%TO.N,SIM7020E_RST*%
X63186500Y-61132000D03*
%TO.P,U1,29,PA8*%
%TO.N,SIM7020E_RTC_EINT*%
X63186500Y-60632000D03*
%TO.P,U1,30,PA9*%
%TO.N,SIM7020E_RXD{slash}MCU_TX*%
X63186500Y-60132000D03*
%TO.P,U1,31,PA10*%
%TO.N,SIM7020E_TXD{slash}MCU_RX*%
X63186500Y-59632000D03*
%TO.P,U1,32,PA11*%
%TO.N,SIM7020E_GPIO1*%
X63186500Y-59132000D03*
%TO.P,U1,33,PA12*%
%TO.N,SIM7020E_PWR*%
X63186500Y-58632000D03*
%TO.P,U1,34,PA13*%
%TO.N,/STM32L431_MCU/SWDIO*%
X63186500Y-58132000D03*
%TO.P,U1,35,VSS*%
%TO.N,GND*%
X63186500Y-57632000D03*
%TO.P,U1,36,VDD*%
%TO.N,+3V3*%
X63186500Y-57132000D03*
D52*
%TO.P,U1,37,PA14*%
%TO.N,/STM32L431_MCU/SWCLK*%
X62499000Y-56444500D03*
%TO.P,U1,38,PA15*%
%TO.N,unconnected-(U1-Pad38)*%
X61999000Y-56444500D03*
%TO.P,U1,39,PB3*%
%TO.N,/STM32L431_MCU/SWO*%
X61499000Y-56444500D03*
%TO.P,U1,40,PB4*%
%TO.N,PMIC_INT*%
X60999000Y-56444500D03*
%TO.P,U1,41,PB5*%
%TO.N,PMIC_CE*%
X60499000Y-56444500D03*
%TO.P,U1,42,PB6*%
%TO.N,PMIC_SCL*%
X59999000Y-56444500D03*
%TO.P,U1,43,PB7*%
%TO.N,PMIC_SDA*%
X59499000Y-56444500D03*
%TO.P,U1,44,PH3*%
%TO.N,unconnected-(U1-Pad44)*%
X58999000Y-56444500D03*
%TO.P,U1,45,PB8*%
%TO.N,Signal_VOUT*%
X58499000Y-56444500D03*
%TO.P,U1,46,PB9*%
%TO.N,unconnected-(U1-Pad46)*%
X57999000Y-56444500D03*
%TO.P,U1,47,VSS*%
%TO.N,GND*%
X57499000Y-56444500D03*
%TO.P,U1,48,VDD*%
%TO.N,+3V3*%
X56999000Y-56444500D03*
D53*
%TO.P,U1,49,VSS*%
%TO.N,GND*%
X59749000Y-59882000D03*
%TD*%
D54*
%TO.P,D3,1*%
%TO.N,Net-(D3-Pad1)*%
X98752800Y-51054000D03*
%TO.P,D3,2*%
%TO.N,GND*%
X99722800Y-51054000D03*
%TD*%
D29*
%TO.P,D10,1,K*%
%TO.N,Net-(D10-Pad1)*%
X34442400Y-61315500D03*
%TO.P,D10,2,A*%
%TO.N,Net-(D10-Pad2)*%
X34442400Y-62890500D03*
%TD*%
D50*
%TO.P,D5,1,K*%
%TO.N,GND*%
X41711400Y-79171800D03*
%TO.P,D5,2,A*%
%TO.N,Net-(D5-Pad2)*%
X43586400Y-79171800D03*
%TD*%
D12*
%TO.P,D9,A*%
%TO.N,GND*%
X96342200Y-71648600D03*
%TO.P,D9,C*%
%TO.N,/SIM7020E/SIM7020E_D-*%
X96342200Y-72808600D03*
%TD*%
D46*
%TO.P,BT2,1,+*%
%TO.N,/MP2636/BATT*%
X48077200Y-31064200D03*
D47*
%TO.P,BT2,2,-*%
%TO.N,GND*%
X50617200Y-31064200D03*
%TD*%
D11*
%TO.P,R48,1*%
%TO.N,GND*%
X51536600Y-53911000D03*
%TO.P,R48,2*%
%TO.N,/MP2636/OLIM*%
X51536600Y-52261000D03*
%TD*%
%TO.P,R4,1*%
%TO.N,GND*%
X74091800Y-42481000D03*
%TO.P,R4,2*%
%TO.N,Net-(Q2-Pad1)*%
X74091800Y-40831000D03*
%TD*%
D15*
%TO.P,C27,1*%
%TO.N,Net-(C27-Pad1)*%
X44348400Y-52184000D03*
%TO.P,C27,2*%
%TO.N,GND*%
X44348400Y-53734000D03*
%TD*%
D28*
%TO.P,R9,1*%
%TO.N,SIM68M_TXD{slash}MCU_RX*%
X62484000Y-65088000D03*
%TO.P,R9,2*%
%TO.N,Net-(R9-Pad2)*%
X62484000Y-66738000D03*
%TD*%
D11*
%TO.P,R24,1*%
%TO.N,GND*%
X96367600Y-79184000D03*
%TO.P,R24,2*%
%TO.N,Net-(J5-PadSH1)*%
X96367600Y-77534000D03*
%TD*%
D50*
%TO.P,D1,1,K*%
%TO.N,GND*%
X70512700Y-34467800D03*
%TO.P,D1,2,A*%
%TO.N,Net-(D1-Pad2)*%
X72387700Y-34467800D03*
%TD*%
D44*
%TO.P,R16,1*%
%TO.N,Net-(C34-Pad1)*%
X43181900Y-31419800D03*
%TO.P,R16,2*%
%TO.N,/MP2636/BATT*%
X45006900Y-31419800D03*
%TD*%
D55*
%TO.P,J5,1,1*%
%TO.N,unconnected-(J5-Pad1)*%
X98175800Y-72461600D03*
%TO.P,J5,2,2*%
%TO.N,/SIM7020E/SIM7020E_D-*%
X98175800Y-73111600D03*
%TO.P,J5,3,3*%
%TO.N,/SIM7020E/SIM7020E_D+*%
X98175800Y-73761600D03*
%TO.P,J5,4,4*%
%TO.N,unconnected-(J5-Pad4)*%
X98175800Y-74411600D03*
%TO.P,J5,5,5*%
%TO.N,GND*%
X98175800Y-75061600D03*
D56*
%TO.P,J5,SH1,SHIELD*%
%TO.N,Net-(J5-PadSH1)*%
X100835800Y-77711600D03*
D57*
%TO.P,J5,SH2,SHIELD*%
X98535800Y-76224100D03*
D58*
%TO.P,J5,SH3,SHIELD*%
X100835800Y-74699100D03*
%TO.P,J5,SH4,SHIELD*%
X100835800Y-72824100D03*
D57*
%TO.P,J5,SH5,SHIELD*%
X98535800Y-71299100D03*
D56*
%TO.P,J5,SH6,SHIELD*%
X100835800Y-69811600D03*
%TD*%
D28*
%TO.P,R39,1*%
%TO.N,/MP2636/VCC*%
X47040800Y-40018200D03*
%TO.P,R39,2*%
%TO.N,Net-(R39-Pad2)*%
X47040800Y-41668200D03*
%TD*%
D59*
%TO.P,IC2,1,V+*%
%TO.N,+3V3*%
X69785800Y-71713600D03*
%TO.P,IC2,2,D+*%
%TO.N,GND*%
X70285800Y-71713600D03*
%TO.P,IC2,3,D-*%
X70785800Y-71713600D03*
%TO.P,IC2,4,~{THERM}*%
%TO.N,unconnected-(IC2-Pad4)*%
X71285800Y-71713600D03*
%TO.P,IC2,5,GND*%
%TO.N,GND*%
X71285800Y-69713600D03*
%TO.P,IC2,6,~{ALERT}/~{THERM}*%
%TO.N,unconnected-(IC2-Pad6)*%
X70785800Y-69713600D03*
%TO.P,IC2,7,SDA*%
%TO.N,/STM32L431_MCU/TMP451_SDA*%
X70285800Y-69713600D03*
%TO.P,IC2,8,SCL*%
%TO.N,/STM32L431_MCU/TMP451_SCL*%
X69785800Y-69713600D03*
%TD*%
D25*
%TO.P,J3,1*%
%TO.N,Net-(J3-Pad1)*%
X49326800Y-84099400D03*
D26*
%TO.P,J3,G1*%
%TO.N,GND*%
X46926800Y-81699400D03*
%TO.P,J3,G2*%
X46926800Y-86499400D03*
%TO.P,J3,G3*%
X51726800Y-86499400D03*
%TO.P,J3,G4*%
X51726800Y-81699400D03*
%TD*%
D44*
%TO.P,C34,1*%
%TO.N,Net-(C34-Pad1)*%
X43181900Y-29413200D03*
%TO.P,C34,2*%
%TO.N,GND*%
X45006900Y-29413200D03*
%TD*%
D27*
%TO.P,C11,1*%
%TO.N,+3V3*%
X69506800Y-73660000D03*
%TO.P,C11,2*%
%TO.N,GND*%
X71056800Y-73660000D03*
%TD*%
%TO.P,C1,1*%
%TO.N,/STM32L431_MCU/NRST*%
X45173600Y-64643000D03*
%TO.P,C1,2*%
%TO.N,GND*%
X46723600Y-64643000D03*
%TD*%
D60*
%TO.P,J8,A5,CC1*%
%TO.N,unconnected-(J8-PadA5)*%
X36689788Y-43111800D03*
D61*
%TO.P,J8,A9,VBUS*%
%TO.N,/MP2636/VIN*%
X36689788Y-45131800D03*
D62*
%TO.P,J8,A12,GND*%
%TO.N,GND*%
X36689788Y-46361800D03*
D60*
%TO.P,J8,B5,CC2*%
%TO.N,unconnected-(J8-PadB5)*%
X36689788Y-44111800D03*
D61*
%TO.P,J8,B9,VBUS*%
%TO.N,/MP2636/VIN*%
X36689788Y-42091800D03*
D62*
%TO.P,J8,B12,GND*%
%TO.N,GND*%
X36689788Y-40861800D03*
D63*
%TO.P,J8,S1,SHIELD*%
X36609788Y-39291800D03*
%TO.P,J8,S2,SHIELD*%
X36609788Y-47931800D03*
%TO.P,J8,S3,SHIELD*%
X32809788Y-39291800D03*
%TO.P,J8,S4,SHIELD*%
X32809788Y-47931800D03*
%TD*%
D18*
%TO.P,R25,1*%
%TO.N,/STM32L431_MCU/MCU_LED*%
X41773100Y-77393800D03*
%TO.P,R25,2*%
%TO.N,Net-(D5-Pad2)*%
X43423100Y-77393800D03*
%TD*%
D28*
%TO.P,R1,1*%
%TO.N,+3V3*%
X51663600Y-60947800D03*
%TO.P,R1,2*%
%TO.N,/STM32L431_MCU/VDDA*%
X51663600Y-62597800D03*
%TD*%
D64*
%TO.P,L1,1,1*%
%TO.N,Net-(L1-Pad1)*%
X58775700Y-82448400D03*
%TO.P,L1,2,2*%
%TO.N,Net-(J3-Pad1)*%
X57200700Y-82448400D03*
%TD*%
D65*
%TO.P,S1,1*%
%TO.N,/STM32L431_MCU/NRST*%
X45213400Y-73670100D03*
%TO.P,S1,2*%
X45213400Y-66470100D03*
%TO.P,S1,3*%
%TO.N,GND*%
X42213400Y-73670100D03*
%TO.P,S1,4*%
X42213400Y-66470100D03*
%TD*%
D16*
%TO.P,R36,1*%
%TO.N,Net-(R34-Pad2)*%
X42379400Y-53263800D03*
%TO.P,R36,2*%
%TO.N,/MP2636/VIN*%
X40729400Y-53263800D03*
%TD*%
D15*
%TO.P,C5,1*%
%TO.N,+3V3*%
X64643000Y-63868000D03*
%TO.P,C5,2*%
%TO.N,GND*%
X64643000Y-65418000D03*
%TD*%
D16*
%TO.P,R35,1*%
%TO.N,Net-(R33-Pad2)*%
X42404800Y-51765200D03*
%TO.P,R35,2*%
%TO.N,/MP2636/VIN*%
X40754800Y-51765200D03*
%TD*%
D17*
%TO.P,C12,1*%
%TO.N,GND*%
X39166800Y-39622200D03*
%TO.P,C12,2*%
%TO.N,/MP2636/VIN*%
X39166800Y-42572200D03*
%TD*%
D66*
%TO.N,GND*%
X89560400Y-41503600D03*
X98933000Y-49047400D03*
X79146400Y-61874400D03*
X69469000Y-38379400D03*
X54914800Y-51790600D03*
X89814400Y-78638400D03*
X46634400Y-54762400D03*
X66040000Y-68783200D03*
X32054800Y-46863000D03*
X69977000Y-49961800D03*
X82702400Y-42011600D03*
X71780400Y-69697600D03*
X42595800Y-39344600D03*
X57175400Y-80238600D03*
X96342200Y-70688200D03*
X54610000Y-84759800D03*
X46329600Y-85064600D03*
X68148200Y-51079400D03*
X40614600Y-39319200D03*
X37896800Y-31750000D03*
X91897200Y-70205600D03*
X43891200Y-44297600D03*
X101371400Y-54102000D03*
X44373800Y-54559200D03*
X47675800Y-38557200D03*
X75996800Y-43434000D03*
X50571400Y-83388200D03*
X65278000Y-69342000D03*
X58826400Y-73837800D03*
X97790000Y-48742600D03*
X45008800Y-34340800D03*
X75107800Y-43434000D03*
X52197000Y-84759800D03*
X82448400Y-74269600D03*
X32816800Y-66497200D03*
X92837000Y-51892200D03*
X47548800Y-44246800D03*
X97891600Y-53009800D03*
X46482000Y-38531800D03*
X96799400Y-48742600D03*
X96824800Y-50139600D03*
X64363600Y-66649600D03*
X100507800Y-58928000D03*
X48133000Y-87452200D03*
X50241200Y-38531800D03*
X47625000Y-64693800D03*
X50495200Y-84759800D03*
X81788000Y-65227200D03*
X96342200Y-76225400D03*
X57429400Y-77063600D03*
X52603400Y-30759400D03*
X85648800Y-43459400D03*
X35712400Y-46405800D03*
X37084000Y-34747200D03*
X33934400Y-65151000D03*
X45059600Y-33223200D03*
X45897800Y-29006800D03*
X99314000Y-53949600D03*
X96520000Y-59029600D03*
X51358800Y-51079400D03*
X53797200Y-84785200D03*
X77292200Y-37515800D03*
X76962000Y-78536800D03*
X65379600Y-66598800D03*
X50190400Y-49580800D03*
X89306400Y-43586400D03*
X51358800Y-84759800D03*
X76911200Y-80619600D03*
X54229000Y-77978000D03*
X36474400Y-57429400D03*
X56210200Y-51790600D03*
X99288600Y-50241200D03*
X55524400Y-84734400D03*
X86664800Y-71170800D03*
X39852600Y-47294800D03*
X71094600Y-74701400D03*
X65278000Y-68199000D03*
X74015600Y-50927000D03*
X76911200Y-86156800D03*
X93980000Y-42672000D03*
X42240200Y-72466200D03*
X46126400Y-83134200D03*
X95148400Y-42621200D03*
X99314000Y-53035200D03*
X33604200Y-53416200D03*
X77673200Y-67513200D03*
X95631000Y-54127400D03*
X89865200Y-80568800D03*
X70586600Y-50673000D03*
X39776400Y-50165000D03*
X97891600Y-53924200D03*
X96291400Y-80187800D03*
X76784200Y-56489600D03*
X54356000Y-60147200D03*
X76911200Y-84023200D03*
X53898800Y-83388200D03*
X90195400Y-54940200D03*
X70002400Y-56616600D03*
X57810400Y-73863200D03*
X35560000Y-40843200D03*
X42189400Y-67716400D03*
X74726800Y-70307200D03*
X52984400Y-84759800D03*
X92659200Y-50495200D03*
X82143600Y-37566600D03*
X59537600Y-50241200D03*
X53213000Y-81864200D03*
X97891600Y-51155600D03*
X56184800Y-84175600D03*
X52552600Y-29692600D03*
X50266600Y-86029800D03*
X97917000Y-52095400D03*
X101371400Y-59004200D03*
X39827200Y-48717200D03*
X64109600Y-57454800D03*
X57607200Y-51790600D03*
X35763200Y-34721800D03*
X50012600Y-54762400D03*
X92811600Y-48310800D03*
X50317400Y-80873600D03*
X58420000Y-50241200D03*
X54737000Y-83362800D03*
X45923200Y-29819600D03*
X89306400Y-42595800D03*
X31978600Y-40233600D03*
X42011600Y-29413200D03*
X60756800Y-50241200D03*
X37312600Y-33274000D03*
X54254400Y-79044800D03*
X89712800Y-83769200D03*
X34569400Y-40817800D03*
X48336200Y-80848200D03*
X96494600Y-54203600D03*
X53060600Y-83413600D03*
X87934800Y-61874400D03*
X84683600Y-68732400D03*
X100507800Y-54025800D03*
X41605200Y-39319200D03*
X97129600Y-75082400D03*
X52247800Y-83388200D03*
X50292000Y-87249000D03*
X39827200Y-34798000D03*
X66395600Y-66598800D03*
X74244200Y-43434000D03*
X96316800Y-42570400D03*
X89662000Y-85953600D03*
X51435000Y-83388200D03*
X40667700Y-79222600D03*
X95656400Y-58953400D03*
X41097200Y-34747200D03*
X32283400Y-49174400D03*
X97891600Y-50266600D03*
X58902600Y-80238600D03*
X52654200Y-31978600D03*
X69545200Y-34544000D03*
X99339400Y-52120800D03*
X33223200Y-49199800D03*
X74676000Y-71882000D03*
X72085200Y-73228200D03*
X53035200Y-60147200D03*
X48920400Y-38531800D03*
X91948000Y-71882000D03*
X92710000Y-42722800D03*
X85801200Y-61823600D03*
X100457000Y-51079400D03*
X35306000Y-39624000D03*
X51536600Y-54813200D03*
X84582000Y-43510200D03*
%TO.N,/SIM7020E/VDD_EXT*%
X68427600Y-55753000D03*
X71983600Y-53365400D03*
X71932800Y-48666400D03*
X72085200Y-51003200D03*
%TO.N,Net-(C26-Pad2)*%
X59207400Y-77012800D03*
%TO.N,Net-(D1-Pad2)*%
X73304400Y-34493200D03*
%TO.N,Net-(D2-Pad2)*%
X71780400Y-39624000D03*
D67*
%TO.N,/STM32L431_MCU/GPIO01*%
X47091600Y-70535800D03*
%TO.N,/STM32L431_MCU/GPIO02*%
X47625000Y-73355200D03*
%TO.N,/STM32L431_MCU/GPIO03*%
X45516800Y-77343000D03*
D66*
%TO.N,/STM32L431_MCU/GPIO05*%
X58268886Y-66740832D03*
%TO.N,/STM32L431_MCU/MCU_LED*%
X57454800Y-66641900D03*
X41759900Y-75895200D03*
%TO.N,/SIM7020E/NETLIGHT*%
X79502000Y-43434000D03*
%TO.N,/SIM7020E/STATUS*%
X78079600Y-43484800D03*
%TO.N,SIM7020E_UART2_RXD{slash}u_TX*%
X56210200Y-63500000D03*
X68656200Y-59385200D03*
%TO.N,SIM7020E_UART2_TXD{slash}u_RX*%
X55575200Y-65227200D03*
X69620152Y-59434752D03*
%TO.N,SIM7020E_GPIO1*%
X81051400Y-57150000D03*
X66802000Y-58420000D03*
%TO.N,SIM7020E_TXD{slash}MCU_RX*%
X66446400Y-60553600D03*
X65532000Y-59385200D03*
%TO.N,/SIM7020E/UART2_TXD*%
X88036400Y-60350400D03*
X73228200Y-54864000D03*
%TO.N,/SIM7020E/UART2_RDX*%
X73710800Y-55651400D03*
X86004400Y-59309000D03*
%TO.N,/SIM7020E/I{slash}O_SC*%
X80975200Y-71424800D03*
%TO.N,/SIM7020E/CLK_SC*%
X78587600Y-70307200D03*
%TO.N,/SIM7020E/RST_SC*%
X83820000Y-71170800D03*
%TO.N,/SIM7020E/SC_VCC*%
X85598000Y-71170800D03*
%TO.N,+3V3*%
X85394800Y-39598600D03*
X56083200Y-55981600D03*
X67538600Y-42849800D03*
X85394800Y-33502600D03*
X73507600Y-46710600D03*
X85394800Y-37211000D03*
X68529200Y-66979800D03*
X85394800Y-36017200D03*
X68834000Y-72009000D03*
X69113400Y-44373800D03*
X68072000Y-63500000D03*
X56311800Y-73837800D03*
X67589400Y-44399200D03*
X69113400Y-42900600D03*
X64033400Y-56489600D03*
X69392800Y-74752200D03*
X71958200Y-45364400D03*
X55346600Y-73837800D03*
X67564000Y-41021000D03*
X51714400Y-60096400D03*
X85394800Y-38328600D03*
X73507600Y-45364400D03*
X69113400Y-41046400D03*
X35433000Y-69570600D03*
X73253600Y-66954400D03*
X56337200Y-70307200D03*
X72694800Y-57810400D03*
X67360800Y-64033400D03*
X85394800Y-34645600D03*
X71958200Y-46634400D03*
X32943800Y-68122800D03*
X74599800Y-46050200D03*
%TO.N,Signal_VOUT*%
X43332400Y-57429400D03*
X41960800Y-56108600D03*
X47447200Y-58547000D03*
%TO.N,/MP2636/BATT*%
X60375800Y-35560000D03*
X54940200Y-34493200D03*
%TO.N,/MP2636/VIN*%
X34798000Y-45110400D03*
%TO.N,/MP2636/VCC*%
X44323000Y-47548800D03*
X45593000Y-43332400D03*
%TO.N,+5V*%
X52273200Y-46228000D03*
X56134000Y-45974000D03*
X53441600Y-45974000D03*
X54711600Y-45974000D03*
%TO.N,Net-(D10-Pad1)*%
X44958000Y-56565800D03*
X50469800Y-44069000D03*
%TO.N,Net-(D10-Pad2)*%
X33705800Y-63779400D03*
%TO.N,Net-(D11-Pad1)*%
X51231800Y-41706800D03*
X46202600Y-57810400D03*
%TO.N,Net-(D11-Pad2)*%
X39751000Y-63754000D03*
%TO.N,Net-(D12-Pad2)*%
X36753800Y-63703200D03*
D68*
%TO.N,/MP2636/VB*%
X50190400Y-42722800D03*
D66*
X51079400Y-48615600D03*
%TO.N,Net-(R49-Pad2)*%
X53467000Y-52832000D03*
%TD*%
D69*
%TO.N,/STM32L431_MCU/NRST*%
X45173600Y-66430300D02*
X45213400Y-66470100D01*
X45173600Y-63817800D02*
X45173600Y-64643000D01*
X54762400Y-59182000D02*
X49809400Y-59182000D01*
X56311500Y-60132000D02*
X55712400Y-60132000D01*
X45173600Y-64643000D02*
X45173600Y-66430300D01*
X55712400Y-60132000D02*
X54762400Y-59182000D01*
X49809400Y-59182000D02*
X45173600Y-63817800D01*
D70*
%TO.N,GND*%
X46926800Y-82333800D02*
X46126400Y-83134200D01*
D69*
X96202800Y-52845000D02*
X96202800Y-53555600D01*
X70487300Y-38354000D02*
X69494400Y-38354000D01*
X59749000Y-59520400D02*
X57499000Y-57270400D01*
D71*
X45516800Y-29413200D02*
X45923200Y-29819600D01*
D70*
X46926800Y-85661800D02*
X46329600Y-85064600D01*
D69*
X87966000Y-63156000D02*
X87966000Y-61905600D01*
X101002800Y-53530800D02*
X100507800Y-54025800D01*
X101002800Y-52845000D02*
X101002800Y-53733400D01*
X57429400Y-77063600D02*
X57425900Y-77067100D01*
D71*
X41825800Y-30307200D02*
X41825800Y-29599000D01*
D70*
X53048200Y-81699400D02*
X53213000Y-81864200D01*
X51726800Y-81699400D02*
X51143200Y-81699400D01*
D69*
X101002800Y-52845000D02*
X101002800Y-53530800D01*
D71*
X82690000Y-42024000D02*
X82690000Y-42875200D01*
D69*
X99722800Y-51054000D02*
X100431600Y-51054000D01*
D72*
X49993900Y-48714600D02*
X49993900Y-48564600D01*
X35638200Y-39291800D02*
X35306000Y-39624000D01*
D69*
X63186500Y-57632000D02*
X63954111Y-57632000D01*
X90229600Y-54906000D02*
X90195400Y-54940200D01*
X96202800Y-57645000D02*
X96202800Y-58407000D01*
X69494400Y-38354000D02*
X69469000Y-38379400D01*
D73*
X47293900Y-45064600D02*
X47293900Y-44501700D01*
D69*
X70512700Y-34467800D02*
X69621400Y-34467800D01*
D70*
X47485000Y-81699400D02*
X48336200Y-80848200D01*
D69*
X97150400Y-75061600D02*
X97129600Y-75082400D01*
D72*
X37960800Y-31686000D02*
X37896800Y-31750000D01*
X32809788Y-39402412D02*
X31978600Y-40233600D01*
D69*
X101002800Y-58635600D02*
X101371400Y-59004200D01*
X96342200Y-75306800D02*
X96342200Y-76225400D01*
X55026600Y-60632000D02*
X54660800Y-60997800D01*
X56311500Y-60632000D02*
X55026600Y-60632000D01*
X57499000Y-57270400D02*
X57499000Y-56444500D01*
D70*
X51726800Y-86499400D02*
X51041600Y-86499400D01*
D72*
X50038000Y-53834800D02*
X50038000Y-54737000D01*
D69*
X42213400Y-66470100D02*
X42213400Y-67692400D01*
X100431600Y-51054000D02*
X100457000Y-51079400D01*
D73*
X47693900Y-44391900D02*
X47548800Y-44246800D01*
D69*
X79166000Y-61894000D02*
X79146400Y-61874400D01*
D73*
X48093900Y-45064600D02*
X48093900Y-44791900D01*
D72*
X36609788Y-39291800D02*
X35638200Y-39291800D01*
D69*
X42213400Y-72493000D02*
X42240200Y-72466200D01*
X76300600Y-56006000D02*
X76784200Y-56489600D01*
D72*
X50038000Y-54737000D02*
X50012600Y-54762400D01*
D69*
X81775000Y-65240200D02*
X81788000Y-65227200D01*
D72*
X50113880Y-48444620D02*
X50193900Y-48444620D01*
D69*
X77242800Y-37466400D02*
X77292200Y-37515800D01*
X101002800Y-53733400D02*
X101371400Y-54102000D01*
X91416000Y-51606000D02*
X92550800Y-51606000D01*
X87966000Y-61905600D02*
X87934800Y-61874400D01*
D72*
X32809788Y-39291800D02*
X32809788Y-39402412D01*
D69*
X101002800Y-57645000D02*
X101002800Y-58635600D01*
X69621400Y-34467800D02*
X69545200Y-34544000D01*
D72*
X43852800Y-44259200D02*
X43891200Y-44297600D01*
D69*
X57302400Y-60655200D02*
X56334700Y-60655200D01*
D70*
X51726800Y-86499400D02*
X50736200Y-86499400D01*
D71*
X45006900Y-29413200D02*
X45516800Y-29413200D01*
D69*
X59980600Y-59882000D02*
X62230600Y-57632000D01*
X57499000Y-55290000D02*
X57798000Y-54991000D01*
X91416000Y-54906000D02*
X90229600Y-54906000D01*
D72*
X46634400Y-53834800D02*
X46634400Y-54762400D01*
D70*
X46926800Y-86499400D02*
X46926800Y-85661800D01*
D69*
X84785200Y-67729400D02*
X84785200Y-68630800D01*
X68103200Y-52230100D02*
X68103200Y-51124400D01*
X41711400Y-79171800D02*
X40718500Y-79171800D01*
D73*
X47693900Y-45064600D02*
X47693900Y-44391900D01*
D72*
X49993900Y-48564600D02*
X50113880Y-48444620D01*
D70*
X51143200Y-81699400D02*
X50317400Y-80873600D01*
D71*
X45923200Y-29819600D02*
X45923200Y-29032200D01*
X45669200Y-29235400D02*
X45897800Y-29006800D01*
D69*
X54660800Y-60997800D02*
X53187600Y-60997800D01*
X82243800Y-37466400D02*
X82143600Y-37566600D01*
D72*
X44348400Y-54533800D02*
X44373800Y-54559200D01*
D71*
X82702400Y-42011600D02*
X82690000Y-42024000D01*
D69*
X85766000Y-61858800D02*
X85801200Y-61823600D01*
X96202800Y-52845000D02*
X96202800Y-53911800D01*
D71*
X45923200Y-29819600D02*
X45669200Y-29565600D01*
D69*
X78613000Y-67475400D02*
X77711000Y-67475400D01*
X86648800Y-70290000D02*
X86648800Y-71154800D01*
D70*
X47180200Y-86499400D02*
X48133000Y-87452200D01*
D69*
X63954111Y-57632000D02*
X64109600Y-57476511D01*
D73*
X48093900Y-44791900D02*
X47548800Y-44246800D01*
D69*
X96367600Y-80111600D02*
X96291400Y-80187800D01*
X91416000Y-50506000D02*
X92648400Y-50506000D01*
D71*
X45006900Y-29413200D02*
X45491400Y-29413200D01*
D70*
X46926800Y-81699400D02*
X46926800Y-82333800D01*
X51726800Y-81699400D02*
X53048200Y-81699400D01*
D69*
X46723600Y-64643000D02*
X47574200Y-64643000D01*
D72*
X43053000Y-44259200D02*
X43852800Y-44259200D01*
D69*
X92550800Y-51606000D02*
X92837000Y-51892200D01*
X59749000Y-59882000D02*
X58075600Y-59882000D01*
X96202800Y-58407000D02*
X95656400Y-58953400D01*
D73*
X47293900Y-44501700D02*
X47548800Y-44246800D01*
D69*
X85766000Y-63156000D02*
X85766000Y-61858800D01*
X59749000Y-59882000D02*
X59749000Y-59520400D01*
D72*
X49993900Y-49384300D02*
X50190400Y-49580800D01*
D69*
X92806800Y-48306000D02*
X92811600Y-48310800D01*
X96202800Y-57645000D02*
X96202800Y-58712400D01*
X79166000Y-63156000D02*
X79166000Y-61894000D01*
X91416000Y-48306000D02*
X92806800Y-48306000D01*
X98175800Y-75061600D02*
X97150400Y-75061600D01*
D72*
X49993900Y-48714600D02*
X49993900Y-49384300D01*
D69*
X57499000Y-56444500D02*
X57499000Y-55290000D01*
D71*
X45669200Y-29565600D02*
X45669200Y-29235400D01*
D69*
X42213400Y-73670100D02*
X42213400Y-72493000D01*
D71*
X41825800Y-29599000D02*
X42011600Y-29413200D01*
D70*
X50736200Y-86499400D02*
X50266600Y-86029800D01*
D69*
X77711000Y-67475400D02*
X77673200Y-67513200D01*
D70*
X46926800Y-81699400D02*
X47485000Y-81699400D01*
D69*
X59749000Y-59882000D02*
X59980600Y-59882000D01*
X58075600Y-59882000D02*
X57302400Y-60655200D01*
X101002800Y-57645000D02*
X101002800Y-58433000D01*
X75716000Y-56006000D02*
X76300600Y-56006000D01*
X76130600Y-37466400D02*
X77242800Y-37466400D01*
X56334700Y-60655200D02*
X56311500Y-60632000D01*
X42213400Y-67692400D02*
X42189400Y-67716400D01*
X47574200Y-64643000D02*
X47625000Y-64693800D01*
D74*
X57425900Y-77067100D02*
X57425900Y-78510000D01*
D69*
X62230600Y-57632000D02*
X63186500Y-57632000D01*
X92648400Y-50506000D02*
X92659200Y-50495200D01*
X96367600Y-79184000D02*
X96367600Y-80111600D01*
X40718500Y-79171800D02*
X40667700Y-79222600D01*
D71*
X45923200Y-29032200D02*
X45897800Y-29006800D01*
D72*
X51536600Y-53911000D02*
X51536600Y-54813200D01*
D69*
X101002800Y-58433000D02*
X100507800Y-58928000D01*
X96202800Y-58712400D02*
X96520000Y-59029600D01*
D72*
X37960800Y-30810200D02*
X37960800Y-31686000D01*
D71*
X45491400Y-29413200D02*
X45669200Y-29235400D01*
D69*
X96202800Y-53911800D02*
X96494600Y-54203600D01*
X83330600Y-37466400D02*
X82243800Y-37466400D01*
X96202800Y-53555600D02*
X95631000Y-54127400D01*
D70*
X46926800Y-86499400D02*
X47180200Y-86499400D01*
D69*
X86648800Y-71154800D02*
X86664800Y-71170800D01*
X81775000Y-66217800D02*
X81775000Y-65240200D01*
D72*
X38164000Y-33274000D02*
X37312600Y-33274000D01*
D70*
X51041600Y-86499400D02*
X50292000Y-87249000D01*
D72*
X44348400Y-53734000D02*
X44348400Y-54533800D01*
D69*
X68103200Y-51124400D02*
X68148200Y-51079400D01*
X84785200Y-68630800D02*
X84683600Y-68732400D01*
X96342200Y-71581400D02*
X96342200Y-70688200D01*
%TO.N,/SIM7020E/PWRKEY*%
X79401800Y-34466400D02*
X76130600Y-34466400D01*
X77747100Y-41021000D02*
X77747100Y-40820100D01*
X79576200Y-34466400D02*
X79489000Y-34379200D01*
X78864700Y-42138600D02*
X77747100Y-41021000D01*
X82466000Y-45556000D02*
X82466000Y-44201200D01*
X82466000Y-45556000D02*
X82466000Y-45128000D01*
X83330600Y-34466400D02*
X79576200Y-34466400D01*
X80403400Y-42138600D02*
X78864700Y-42138600D01*
X79489000Y-39078200D02*
X79489000Y-34379200D01*
X79489000Y-34379200D02*
X79401800Y-34466400D01*
X82466000Y-44201200D02*
X80403400Y-42138600D01*
X77747100Y-40820100D02*
X79489000Y-39078200D01*
D72*
%TO.N,/SIM7020E/VDD_EXT*%
X68103200Y-56077400D02*
X68427600Y-55753000D01*
X72003200Y-52230100D02*
X72003200Y-51085200D01*
X71932800Y-48666400D02*
X73198589Y-47400611D01*
X80021389Y-47400611D02*
X81366000Y-46056000D01*
X68103200Y-57955100D02*
X68103200Y-56077400D01*
X72003200Y-53345800D02*
X72003200Y-52230100D01*
X72003200Y-51085200D02*
X72085200Y-51003200D01*
D69*
X81366000Y-46056000D02*
X81366000Y-45556000D01*
D72*
X73198589Y-47400611D02*
X80021389Y-47400611D01*
X71983600Y-53365400D02*
X72003200Y-53345800D01*
D69*
%TO.N,/SIM7020E/SIM_RST*%
X86309200Y-66129400D02*
X84835200Y-66129400D01*
X83566000Y-63156000D02*
X83566000Y-64109600D01*
X84785200Y-65328800D02*
X84785200Y-66179400D01*
X84835200Y-66129400D02*
X84785200Y-66179400D01*
X83566000Y-64109600D02*
X84785200Y-65328800D01*
%TO.N,/SIM7020E/SIM_CLK*%
X82466000Y-64432000D02*
X83325000Y-65291000D01*
X83325000Y-65291000D02*
X83325000Y-66217800D01*
X82466000Y-63156000D02*
X82466000Y-64432000D01*
X83375000Y-67665600D02*
X83375000Y-66267800D01*
X83375000Y-66267800D02*
X83325000Y-66217800D01*
D74*
%TO.N,/SIM7020E/ANT*%
X91416000Y-49406000D02*
X93767600Y-49406000D01*
D69*
X93767600Y-49406000D02*
X93790000Y-49428400D01*
%TO.N,/SIM7020E/SIM_DATA*%
X81366000Y-63972800D02*
X80213200Y-65125600D01*
X80213200Y-65125600D02*
X80213200Y-65875400D01*
X80213200Y-65875400D02*
X78663000Y-65875400D01*
X81366000Y-63156000D02*
X81366000Y-63972800D01*
X78663000Y-65875400D02*
X78613000Y-65925400D01*
D74*
%TO.N,Net-(C26-Pad2)*%
X59207400Y-77012800D02*
X59625900Y-77431300D01*
X59625900Y-77431300D02*
X59625900Y-78510000D01*
X59625900Y-78510000D02*
X59625900Y-80263900D01*
X59625900Y-80263900D02*
X60274200Y-80912200D01*
D69*
%TO.N,Net-(D1-Pad2)*%
X73279000Y-34467800D02*
X73304400Y-34493200D01*
X72387700Y-34467800D02*
X73279000Y-34467800D01*
%TO.N,Net-(D2-Pad2)*%
X72362300Y-38354000D02*
X72362300Y-39042100D01*
X72362300Y-39042100D02*
X71780400Y-39624000D01*
%TO.N,Net-(D5-Pad2)*%
X43586400Y-77557100D02*
X43423100Y-77393800D01*
X43586400Y-79171800D02*
X43586400Y-77557100D01*
%TO.N,/STM32L431_MCU/GPIO01*%
X53416200Y-66167000D02*
X55549800Y-66167000D01*
X57499000Y-64217800D02*
X57499000Y-63319500D01*
X47091600Y-70535800D02*
X48641000Y-68986400D01*
X55549800Y-66167000D02*
X57499000Y-64217800D01*
X48641000Y-68986400D02*
X50596800Y-68986400D01*
X50596800Y-68986400D02*
X53416200Y-66167000D01*
%TO.N,/STM32L431_MCU/GPIO02*%
X53609299Y-67106169D02*
X55220231Y-67106169D01*
X47625000Y-73355200D02*
X47625000Y-73090468D01*
X55220231Y-67106169D02*
X57999000Y-64327400D01*
X57999000Y-64327400D02*
X57999000Y-63319500D01*
X47625000Y-73090468D02*
X53609299Y-67106169D01*
%TO.N,/STM32L431_MCU/GPIO03*%
X49555400Y-71729600D02*
X49555400Y-72009000D01*
X55387043Y-67508889D02*
X53776111Y-67508889D01*
X49555400Y-72009000D02*
X49555400Y-73304400D01*
X49784000Y-71501000D02*
X49555400Y-71729600D01*
X49555400Y-73304400D02*
X45516800Y-77343000D01*
X53776111Y-67508889D02*
X49784000Y-71501000D01*
X58499000Y-64396932D02*
X55387043Y-67508889D01*
X58499000Y-63319500D02*
X58499000Y-64396932D01*
%TO.N,/STM32L431_MCU/GPIO05*%
X58268886Y-65784714D02*
X58268886Y-66740832D01*
X59499000Y-63319500D02*
X59499000Y-64554600D01*
X59499000Y-64554600D02*
X58268886Y-65784714D01*
%TO.N,/STM32L431_MCU/SWCLK*%
X62499000Y-55788800D02*
X62499000Y-56444500D01*
X64704200Y-31242000D02*
X64704200Y-53583600D01*
X64704200Y-53583600D02*
X62499000Y-55788800D01*
%TO.N,/STM32L431_MCU/SWDIO*%
X66040000Y-56413400D02*
X64321400Y-58132000D01*
X67244200Y-31242000D02*
X67244200Y-37937200D01*
X67244200Y-37937200D02*
X66040000Y-39141400D01*
X66040000Y-39141400D02*
X66040000Y-56413400D01*
X64321400Y-58132000D02*
X63186500Y-58132000D01*
%TO.N,/STM32L431_MCU/SWO*%
X62966600Y-53619400D02*
X61499000Y-55087000D01*
X62164200Y-36891200D02*
X62966600Y-37693600D01*
X61499000Y-55087000D02*
X61499000Y-56444500D01*
X62966600Y-37693600D02*
X62966600Y-53619400D01*
X62164200Y-31242000D02*
X62164200Y-36891200D01*
%TO.N,Net-(L1-Pad1)*%
X60160400Y-82448400D02*
X60274200Y-82562200D01*
D74*
X58775700Y-82448400D02*
X60160400Y-82448400D01*
D69*
%TO.N,Net-(Q2-Pad1)*%
X74851800Y-40071000D02*
X74091800Y-40831000D01*
X74091800Y-40831000D02*
X72593200Y-40831000D01*
X75872100Y-40071000D02*
X74851800Y-40071000D01*
%TO.N,SIM7020E_PWR*%
X67284600Y-47789600D02*
X72593200Y-42481000D01*
X64405600Y-58632000D02*
X67284600Y-55753000D01*
X67284600Y-55753000D02*
X67284600Y-47789600D01*
X63186500Y-58632000D02*
X64405600Y-58632000D01*
%TO.N,SIM68M_TXD{slash}MCU_RX*%
X61499000Y-64103000D02*
X61499000Y-63319500D01*
X62484000Y-65088000D02*
X61499000Y-64103000D01*
%TO.N,Net-(R9-Pad2)*%
X62925900Y-68810000D02*
X62925900Y-67179900D01*
X62925900Y-67179900D02*
X62484000Y-66738000D01*
%TO.N,SIM68M_RXD{slash}MCU_TX*%
X60999000Y-65049000D02*
X60960000Y-65088000D01*
X60999000Y-63319500D02*
X60999000Y-65049000D01*
%TO.N,Net-(R10-Pad2)*%
X61825900Y-68810000D02*
X61825900Y-67603900D01*
X61825900Y-67603900D02*
X60960000Y-66738000D01*
%TO.N,/STM32L431_MCU/MCU_LED*%
X41759900Y-77380600D02*
X41773100Y-77393800D01*
X57785000Y-65680464D02*
X58999000Y-64466464D01*
X57785000Y-66311700D02*
X57785000Y-65680464D01*
X41759900Y-75895200D02*
X41759900Y-77380600D01*
X58999000Y-64466464D02*
X58999000Y-63319500D01*
X57454800Y-66641900D02*
X57785000Y-66311700D01*
%TO.N,/SIM7020E/NETLIGHT*%
X80266000Y-44198000D02*
X79502000Y-43434000D01*
X80266000Y-45556000D02*
X80266000Y-44198000D01*
%TO.N,/SIM7020E/STATUS*%
X79166000Y-45556000D02*
X79166000Y-44571200D01*
X79166000Y-44571200D02*
X78079600Y-43484800D01*
%TO.N,SIM7020E_UART2_RXD{slash}u_TX*%
X69403200Y-58645790D02*
X68663790Y-59385200D01*
X56210200Y-62733300D02*
X56311500Y-62632000D01*
X56210200Y-63500000D02*
X56210200Y-62733300D01*
X69403200Y-57955100D02*
X69403200Y-58645790D01*
X68663790Y-59385200D02*
X68656200Y-59385200D01*
%TO.N,SIM7020E_UART2_TXD{slash}u_RX*%
X55651400Y-65227200D02*
X56999000Y-63879600D01*
X70053200Y-57955100D02*
X70053200Y-59001704D01*
X55575200Y-65227200D02*
X55651400Y-65227200D01*
X56999000Y-63879600D02*
X56999000Y-63319500D01*
X70053200Y-59001704D02*
X69620152Y-59434752D01*
%TO.N,SIM7020E_GPIO1*%
X65303400Y-58420000D02*
X66802000Y-58420000D01*
X63186500Y-59132000D02*
X64591400Y-59132000D01*
X64591400Y-59132000D02*
X65303400Y-58420000D01*
X90143600Y-52706000D02*
X91416000Y-52706000D01*
X81051400Y-57150000D02*
X85699600Y-57150000D01*
X85699600Y-57150000D02*
X90143600Y-52706000D01*
%TO.N,SIM68M_EXTINT*%
X59690000Y-65141217D02*
X59690000Y-68745900D01*
X60467737Y-64363480D02*
X59690000Y-65141217D01*
X59690000Y-68745900D02*
X59625900Y-68810000D01*
X60499000Y-64363480D02*
X60467737Y-64363480D01*
X60499000Y-63319500D02*
X60499000Y-64363480D01*
%TO.N,SIM7020E_RTC_EINT*%
X71903720Y-61395480D02*
X72893200Y-60406000D01*
X65848490Y-61395480D02*
X71903720Y-61395480D01*
X72893200Y-60406000D02*
X75716000Y-60406000D01*
X65085010Y-60632000D02*
X65848490Y-61395480D01*
X63186500Y-60632000D02*
X65085010Y-60632000D01*
%TO.N,SIM7020E_RXD{slash}MCU_TX*%
X68288700Y-59867800D02*
X65899500Y-59867800D01*
X70703200Y-57955100D02*
X70703200Y-59370200D01*
X70037537Y-60035863D02*
X68456763Y-60035863D01*
X70703200Y-59370200D02*
X70037537Y-60035863D01*
X68456763Y-60035863D02*
X68288700Y-59867800D01*
X65899500Y-59867800D02*
X65635300Y-60132000D01*
X65635300Y-60132000D02*
X63186500Y-60132000D01*
%TO.N,SIM7020E_TXD{slash}MCU_RX*%
X64907732Y-59385200D02*
X64660932Y-59632000D01*
X64660932Y-59632000D02*
X63186500Y-59632000D01*
X70104000Y-60807600D02*
X71348600Y-59563000D01*
X65532000Y-59385200D02*
X64907732Y-59385200D01*
X71348600Y-59563000D02*
X71348600Y-57959700D01*
X66700400Y-60807600D02*
X70104000Y-60807600D01*
X66446400Y-60553600D02*
X66700400Y-60807600D01*
X71348600Y-57959700D02*
X71353200Y-57955100D01*
%TO.N,/SIM7020E/UART2_TXD*%
X73152000Y-54940200D02*
X73228200Y-54864000D01*
X70053200Y-52230100D02*
X70053200Y-54559200D01*
X88036400Y-60350400D02*
X88092000Y-60406000D01*
X70053200Y-54559200D02*
X70434200Y-54940200D01*
X88092000Y-60406000D02*
X91416000Y-60406000D01*
X70434200Y-54940200D02*
X73152000Y-54940200D01*
%TO.N,/SIM7020E/UART2_RDX*%
X86007400Y-59306000D02*
X91416000Y-59306000D01*
X69403200Y-52230100D02*
X69403200Y-54696600D01*
X70358000Y-55651400D02*
X73710800Y-55651400D01*
X70078600Y-55372000D02*
X70358000Y-55651400D01*
X69403200Y-54696600D02*
X70078600Y-55372000D01*
X86004400Y-59309000D02*
X86007400Y-59306000D01*
%TO.N,/SIM7020E/UART1_TXD*%
X73410800Y-48306000D02*
X71353200Y-50363600D01*
X75716000Y-48306000D02*
X73410800Y-48306000D01*
X71353200Y-50363600D02*
X71353200Y-52230100D01*
%TO.N,/SIM7020E/UART1_RDX*%
X72999600Y-54025800D02*
X73329800Y-53695600D01*
X70703200Y-52230100D02*
X70703200Y-53101000D01*
X73329800Y-50114200D02*
X74038000Y-49406000D01*
X71628000Y-54025800D02*
X72999600Y-54025800D01*
X70703200Y-53101000D02*
X71628000Y-54025800D01*
X73329800Y-53695600D02*
X73329800Y-50114200D01*
X74038000Y-49406000D02*
X75716000Y-49406000D01*
D75*
%TO.N,/SIM7020E/SIM7020E_D+*%
X93747844Y-57195364D02*
X93340636Y-56788156D01*
X98175800Y-73761600D02*
X97140799Y-73761600D01*
X92533844Y-56788156D02*
X92216000Y-57106000D01*
X92216000Y-57106000D02*
X91416000Y-57106000D01*
X93340636Y-56788156D02*
X92533844Y-56788156D01*
X97140799Y-73761600D02*
X97047955Y-73668756D01*
X93747844Y-72206764D02*
X93747844Y-57195364D01*
X95209836Y-73668756D02*
X93747844Y-72206764D01*
X97047955Y-73668756D02*
X95209836Y-73668756D01*
D69*
%TO.N,/SIM7020E/I{slash}O_SC*%
X80458800Y-70908400D02*
X80975200Y-71424800D01*
X80458800Y-70290000D02*
X80458800Y-70908400D01*
X80228800Y-71120000D02*
X78333600Y-71120000D01*
X78333600Y-71120000D02*
X77978000Y-70764400D01*
X80458800Y-70890000D02*
X80228800Y-71120000D01*
X77978000Y-69760600D02*
X80213200Y-67525400D01*
X77978000Y-70764400D02*
X77978000Y-69760600D01*
X80458800Y-70290000D02*
X80458800Y-70890000D01*
%TO.N,/SIM7020E/CLK_SC*%
X79959200Y-69189600D02*
X81229200Y-69189600D01*
X79458800Y-69690000D02*
X79959200Y-69189600D01*
X81229200Y-69189600D02*
X81725000Y-68693800D01*
X81725000Y-68693800D02*
X81725000Y-67665600D01*
X78604800Y-70290000D02*
X78587600Y-70307200D01*
X79458800Y-70290000D02*
X79458800Y-69690000D01*
X79458800Y-70290000D02*
X78604800Y-70290000D01*
%TO.N,/SIM7020E/RST_SC*%
X83648800Y-70290000D02*
X83648800Y-70999600D01*
X83648800Y-70290000D02*
X83648800Y-69665600D01*
X83648800Y-69665600D02*
X83921600Y-69392800D01*
X83921600Y-69392800D02*
X85445600Y-69392800D01*
X86309200Y-68529200D02*
X86309200Y-67779400D01*
X83648800Y-70999600D02*
X83820000Y-71170800D01*
X85445600Y-69392800D02*
X86309200Y-68529200D01*
%TO.N,/SIM7020E/SC_VCC*%
X85648800Y-71120000D02*
X85598000Y-71170800D01*
X85648800Y-69940978D02*
X86603378Y-68986400D01*
X84666000Y-64295200D02*
X84666000Y-63156000D01*
X87884000Y-68681600D02*
X87884000Y-65633600D01*
X87884000Y-65633600D02*
X87223600Y-64973200D01*
X86603378Y-68986400D02*
X87579200Y-68986400D01*
X87579200Y-68986400D02*
X87884000Y-68681600D01*
X85648800Y-70290000D02*
X85648800Y-69940978D01*
X85344000Y-64973200D02*
X84666000Y-64295200D01*
X87223600Y-64973200D02*
X85344000Y-64973200D01*
X85648800Y-70290000D02*
X85648800Y-71120000D01*
%TO.N,+3V3*%
X68542400Y-66966600D02*
X68529200Y-66979800D01*
X63186500Y-57132000D02*
X63186500Y-56853900D01*
X73215000Y-66040000D02*
X73215000Y-66915800D01*
X56999000Y-56444500D02*
X56999000Y-55742000D01*
X63186500Y-56853900D02*
X63550800Y-56489600D01*
X63550800Y-56489600D02*
X64033400Y-56489600D01*
D72*
X72550100Y-57955100D02*
X72694800Y-57810400D01*
D71*
X69785800Y-73381000D02*
X69506800Y-73660000D01*
D69*
X73215000Y-66915800D02*
X73253600Y-66954400D01*
X51663600Y-60947800D02*
X51663600Y-60147200D01*
D72*
X56325900Y-70295900D02*
X56337200Y-70307200D01*
D69*
X56248000Y-55816800D02*
X56083200Y-55981600D01*
X68542400Y-66040000D02*
X68542400Y-66966600D01*
D72*
X56325900Y-68810000D02*
X56325900Y-70295900D01*
D69*
X56248000Y-54991000D02*
X56248000Y-55816800D01*
D71*
X69785800Y-71713600D02*
X69785800Y-73381000D01*
D72*
X72003200Y-57955100D02*
X72550100Y-57955100D01*
D69*
X51663600Y-60147200D02*
X51714400Y-60096400D01*
X56999000Y-55742000D02*
X56248000Y-54991000D01*
%TO.N,Signal_VOUT*%
X58953400Y-55118000D02*
X58499000Y-55572400D01*
X43281600Y-57429400D02*
X41960800Y-56108600D01*
X52298600Y-58547000D02*
X54889400Y-55956200D01*
X55956200Y-53441600D02*
X58623200Y-53441600D01*
X54889400Y-54508400D02*
X55956200Y-53441600D01*
X43332400Y-57429400D02*
X43281600Y-57429400D01*
X58953400Y-53771800D02*
X58953400Y-55118000D01*
X58623200Y-53441600D02*
X58953400Y-53771800D01*
X54889400Y-55956200D02*
X54889400Y-54508400D01*
X47447200Y-58547000D02*
X52298600Y-58547000D01*
X58499000Y-55572400D02*
X58499000Y-56444500D01*
D75*
%TO.N,/SIM7020E/SIM7020E_D-*%
X94212156Y-57003036D02*
X93532964Y-56323844D01*
X93532964Y-56323844D02*
X92533844Y-56323844D01*
X97047955Y-73204444D02*
X95402164Y-73204444D01*
X98175800Y-73111600D02*
X97140799Y-73111600D01*
X92216000Y-56006000D02*
X91416000Y-56006000D01*
X95402164Y-73204444D02*
X94212156Y-72014436D01*
X97140799Y-73111600D02*
X97047955Y-73204444D01*
X92533844Y-56323844D02*
X92216000Y-56006000D01*
X94212156Y-72014436D02*
X94212156Y-57003036D01*
D69*
%TO.N,Net-(J5-PadSH1)*%
X98535800Y-76224100D02*
X99310800Y-76224100D01*
X100023300Y-69811600D02*
X100835800Y-69811600D01*
X97225900Y-77534000D02*
X98535800Y-76224100D01*
X100835800Y-77711600D02*
X100023300Y-77711600D01*
X98535800Y-71299100D02*
X100023300Y-69811600D01*
X96367600Y-77534000D02*
X97225900Y-77534000D01*
X99310800Y-71299100D02*
X100835800Y-72824100D01*
X98535800Y-71299100D02*
X99310800Y-71299100D01*
X99310800Y-76224100D02*
X100835800Y-74699100D01*
X100023300Y-77711600D02*
X98535800Y-76224100D01*
X100835800Y-72824100D02*
X100835800Y-74699100D01*
D74*
%TO.N,Net-(D3-Pad1)*%
X98196400Y-49428400D02*
X95440000Y-49428400D01*
X98602800Y-49834800D02*
X98196400Y-49428400D01*
X98602800Y-55245000D02*
X98602800Y-49834800D01*
%TO.N,Net-(J3-Pad1)*%
X55219600Y-84099400D02*
X55702200Y-83616800D01*
X49326800Y-84099400D02*
X55219600Y-84099400D01*
D69*
X57112300Y-82536800D02*
X57200700Y-82448400D01*
D74*
X55702200Y-82536800D02*
X57112300Y-82536800D01*
X55702200Y-83616800D02*
X55702200Y-82536800D01*
%TO.N,Net-(R12-Pad1)*%
X56325900Y-80263100D02*
X55702200Y-80886800D01*
X56325900Y-78510000D02*
X56325900Y-80263100D01*
D73*
%TO.N,/STM32L431_MCU/TMP451_SDA*%
X70285800Y-69713600D02*
X70285800Y-68296600D01*
D76*
X71565000Y-66040000D02*
X71565000Y-64910200D01*
X68808600Y-62153800D02*
X65100200Y-62153800D01*
X71565000Y-64910200D02*
X68808600Y-62153800D01*
X65100200Y-62153800D02*
X64578400Y-61632000D01*
X64578400Y-61632000D02*
X63186500Y-61632000D01*
D73*
X71565000Y-67017400D02*
X71565000Y-66040000D01*
D69*
X63225700Y-61671200D02*
X63186500Y-61632000D01*
D73*
X70285800Y-68296600D02*
X71565000Y-67017400D01*
D76*
%TO.N,/STM32L431_MCU/TMP451_SCL*%
X64291000Y-62132000D02*
X63186500Y-62132000D01*
D73*
X69785800Y-69713600D02*
X69785800Y-67983800D01*
X70192400Y-67577200D02*
X70192400Y-66040000D01*
D76*
X70192400Y-66040000D02*
X70192400Y-64299600D01*
X64820800Y-62661800D02*
X64291000Y-62132000D01*
X70192392Y-64299592D02*
X68554600Y-62661800D01*
D73*
X69785800Y-67983800D02*
X70192400Y-67577200D01*
D76*
X68554600Y-62661800D02*
X64820800Y-62661800D01*
D69*
X63186500Y-62132000D02*
X63190100Y-62128400D01*
D73*
%TO.N,/MP2636/BATT*%
X50863278Y-47564600D02*
X50193900Y-47564600D01*
X53416200Y-34493200D02*
X52536500Y-35372900D01*
X52536500Y-35372900D02*
X52536500Y-36068000D01*
X61341000Y-47752000D02*
X60604400Y-48488600D01*
X54940200Y-34493200D02*
X53416200Y-34493200D01*
X60604400Y-48488600D02*
X51787278Y-48488600D01*
X51787278Y-48488600D02*
X50863278Y-47564600D01*
X61341000Y-41198800D02*
X61341000Y-47752000D01*
X60401200Y-40259000D02*
X61341000Y-41198800D01*
X60375800Y-35560000D02*
X60401200Y-35585400D01*
X60401200Y-35585400D02*
X60401200Y-40259000D01*
D72*
%TO.N,Net-(C27-Pad1)*%
X46593900Y-49138700D02*
X44348400Y-51384200D01*
D71*
X46609000Y-48699500D02*
X46593900Y-48714600D01*
X46586600Y-48364600D02*
X46609000Y-48387000D01*
D72*
X46593900Y-48714600D02*
X46593900Y-49138700D01*
D71*
X46393900Y-48364600D02*
X46586600Y-48364600D01*
X46609000Y-48387000D02*
X46609000Y-48699500D01*
D72*
X44348400Y-51384200D02*
X44348400Y-52184000D01*
D69*
%TO.N,/MP2636/VCC*%
X48590200Y-40018200D02*
X47040800Y-40018200D01*
X45593000Y-43332400D02*
X45593000Y-43002200D01*
X47040800Y-40018200D02*
X45516800Y-40018200D01*
X45516800Y-40018200D02*
X45491400Y-39992800D01*
X50114200Y-40018200D02*
X48590200Y-40018200D01*
X44424600Y-41833800D02*
X44424600Y-41059600D01*
X45593000Y-43002200D02*
X44424600Y-41833800D01*
X44424600Y-41059600D02*
X45491400Y-39992800D01*
D70*
X42304000Y-47244000D02*
X42383400Y-47164600D01*
D73*
%TO.N,Net-(D10-Pad1)*%
X50469800Y-44069000D02*
X49631600Y-44069000D01*
X44958000Y-56565800D02*
X44958000Y-56642000D01*
X43307000Y-58293000D02*
X35534600Y-58293000D01*
X49293900Y-44406700D02*
X49293900Y-45064600D01*
X35534600Y-58293000D02*
X34442400Y-59385200D01*
X34442400Y-59385200D02*
X34442400Y-61315500D01*
X49631600Y-44069000D02*
X49293900Y-44406700D01*
X44958000Y-56642000D02*
X43307000Y-58293000D01*
%TO.N,Net-(D10-Pad2)*%
X34213800Y-63855600D02*
X34442400Y-63627000D01*
X33782000Y-63855600D02*
X34213800Y-63855600D01*
X33705800Y-63779400D02*
X33782000Y-63855600D01*
X34442400Y-63627000D02*
X34442400Y-62890500D01*
%TO.N,Net-(D11-Pad1)*%
X40817800Y-60528200D02*
X41122600Y-60223400D01*
X51231800Y-44907200D02*
X50924400Y-45214600D01*
X46177200Y-57835800D02*
X46202600Y-57810400D01*
X51231800Y-41706800D02*
X51231800Y-44907200D01*
X40487600Y-60858400D02*
X40817800Y-60528200D01*
X50924400Y-45214600D02*
X49993900Y-45214600D01*
X46177200Y-58572400D02*
X46177200Y-57835800D01*
X50193900Y-45564600D02*
X49958800Y-45564600D01*
X49958800Y-45564600D02*
X49936400Y-45542200D01*
X41122600Y-60223400D02*
X44551600Y-60223400D01*
X44551600Y-60223400D02*
X46177200Y-58597800D01*
X49936400Y-45542200D02*
X49936400Y-45272100D01*
X49936400Y-45272100D02*
X49993900Y-45214600D01*
X40487600Y-61366300D02*
X40487600Y-60858400D01*
X46177200Y-58597800D02*
X46177200Y-58572400D01*
%TO.N,Net-(D11-Pad2)*%
X39751000Y-63754000D02*
X40309800Y-63754000D01*
X40309800Y-63754000D02*
X40487600Y-63576200D01*
X40487600Y-63576200D02*
X40487600Y-62941300D01*
%TO.N,Net-(D12-Pad1)*%
X47693900Y-55099900D02*
X43535600Y-59258200D01*
X47693900Y-48864600D02*
X47693900Y-55099900D01*
X37465000Y-60502800D02*
X37465000Y-61315500D01*
X38709600Y-59258200D02*
X37465000Y-60502800D01*
X43535600Y-59258200D02*
X38709600Y-59258200D01*
%TO.N,Net-(D12-Pad2)*%
X36753800Y-63703200D02*
X37388800Y-63703200D01*
X37465000Y-63627000D02*
X37465000Y-62890500D01*
X37388800Y-63703200D02*
X37465000Y-63627000D01*
%TO.N,Net-(L3-Pad2)*%
X60706000Y-47701200D02*
X60706000Y-41859200D01*
X56907600Y-39903400D02*
X55778400Y-38774200D01*
X50193900Y-47164600D02*
X51050800Y-47164600D01*
X60706000Y-41859200D02*
X58750200Y-39903400D01*
X51816000Y-47929800D02*
X60477400Y-47929800D01*
X58750200Y-39903400D02*
X56907600Y-39903400D01*
X51050800Y-47164600D02*
X51816000Y-47929800D01*
X60477400Y-47929800D02*
X60706000Y-47701200D01*
D72*
%TO.N,Net-(R34-Pad2)*%
X42379400Y-53263800D02*
X42379400Y-54165000D01*
X45542200Y-52959000D02*
X46316400Y-52184800D01*
X42379400Y-54165000D02*
X43738800Y-55524400D01*
X43738800Y-55524400D02*
X44653200Y-55524400D01*
X46316400Y-52184800D02*
X46634400Y-52184800D01*
X45542200Y-54635400D02*
X45542200Y-52959000D01*
X44653200Y-55524400D02*
X45542200Y-54635400D01*
D73*
%TO.N,Net-(R37-Pad2)*%
X48893900Y-43128100D02*
X48893900Y-45064600D01*
X48873420Y-43107620D02*
X48893900Y-43128100D01*
X48590200Y-41668200D02*
X48590200Y-42062400D01*
X48590200Y-42062400D02*
X48873420Y-42345620D01*
X48873420Y-42345620D02*
X48873420Y-43107620D01*
%TO.N,Net-(R38-Pad1)*%
X48893900Y-48864600D02*
X48893900Y-49909900D01*
X50038000Y-51054000D02*
X50038000Y-52184800D01*
X48893900Y-49909900D02*
X50038000Y-51054000D01*
%TO.N,Net-(R39-Pad2)*%
X47040800Y-41668200D02*
X47040800Y-42265600D01*
X48493900Y-43718700D02*
X48493900Y-45064600D01*
X47040800Y-42265600D02*
X48493900Y-43718700D01*
%TO.N,Net-(R40-Pad1)*%
X42608000Y-48463200D02*
X44958000Y-48463200D01*
X44958000Y-48463200D02*
X45856600Y-47564600D01*
X45856600Y-47564600D02*
X46393900Y-47564600D01*
X42354000Y-48717200D02*
X42608000Y-48463200D01*
D71*
%TO.N,Net-(IC3-Pad3)*%
X41825800Y-32871800D02*
X42177200Y-33223200D01*
X42138600Y-35484400D02*
X42148400Y-35494200D01*
X42177200Y-33223200D02*
X42357400Y-33403400D01*
X42357400Y-34960200D02*
X42138600Y-35179000D01*
X41825800Y-31574500D02*
X41825800Y-32871800D01*
X42138600Y-35179000D02*
X42138600Y-35484400D01*
X42357400Y-33403400D02*
X42357400Y-34960200D01*
D73*
%TO.N,/MP2636/VB*%
X51079400Y-48615600D02*
X51063378Y-48599578D01*
X50190400Y-42722800D02*
X50190400Y-41744400D01*
X51063378Y-48301422D02*
X50726556Y-47964600D01*
X50726556Y-47964600D02*
X50193900Y-47964600D01*
X51063378Y-48599578D02*
X51063378Y-48301422D01*
X50190400Y-41744400D02*
X50114200Y-41668200D01*
%TO.N,/MP2636/IB*%
X46593900Y-45364600D02*
X46393900Y-45564600D01*
X43903400Y-42633400D02*
X43103800Y-42633400D01*
X46393900Y-45564600D02*
X45590000Y-45564600D01*
X45008800Y-44983400D02*
X45008800Y-43738800D01*
X46593900Y-45214600D02*
X46593900Y-45364600D01*
X45008800Y-43738800D02*
X43903400Y-42633400D01*
X45590000Y-45564600D02*
X45008800Y-44983400D01*
%TO.N,/MP2636/OLIM*%
X50723800Y-51203078D02*
X50723800Y-51448200D01*
X49293900Y-48864600D02*
X49293900Y-49773178D01*
X50723800Y-51448200D02*
X51536600Y-52261000D01*
X49293900Y-49773178D02*
X50723800Y-51203078D01*
D72*
%TO.N,Net-(R49-Pad2)*%
X49250600Y-56159400D02*
X53086000Y-56159400D01*
X53467000Y-55778400D02*
X53467000Y-52832000D01*
X53086000Y-56159400D02*
X53390800Y-55854600D01*
X48564800Y-55473600D02*
X49250600Y-56159400D01*
X53390800Y-55854600D02*
X53467000Y-55778400D01*
X48564800Y-53860200D02*
X48564800Y-55473600D01*
D71*
%TO.N,Net-(IC3-Pad2)*%
X38328600Y-34759400D02*
X38328600Y-35459000D01*
X39814000Y-33274000D02*
X38328600Y-34759400D01*
X38328600Y-35459000D02*
X38338400Y-35468800D01*
X41325800Y-32136524D02*
X40188324Y-33274000D01*
X40188324Y-33274000D02*
X39814000Y-33274000D01*
X41325800Y-31574500D02*
X41325800Y-32136524D01*
%TO.N,Net-(IC3-Pad6)*%
X40106600Y-29743400D02*
X39610800Y-30239200D01*
X39610800Y-30239200D02*
X39610800Y-30810200D01*
X40825800Y-30307200D02*
X40825800Y-29903800D01*
X40665400Y-29743400D02*
X40106600Y-29743400D01*
X40825800Y-29903800D02*
X40665400Y-29743400D01*
%TO.N,Net-(C34-Pad1)*%
X41325800Y-28930600D02*
X41529000Y-28727400D01*
X41529000Y-28727400D02*
X42496100Y-28727400D01*
X43181900Y-29413200D02*
X43181900Y-31419800D01*
X42496100Y-28727400D02*
X43181900Y-29413200D01*
X41325800Y-30307200D02*
X41325800Y-28930600D01*
D72*
%TO.N,Net-(Q1-Pad1)*%
X42148400Y-36794200D02*
X41498400Y-36794200D01*
X37688400Y-36118800D02*
X37363400Y-36443800D01*
X40848400Y-36794200D02*
X41173400Y-36469200D01*
X42148400Y-36144200D02*
X41498400Y-36144200D01*
X36388400Y-36118800D02*
X36388400Y-36768800D01*
X38338400Y-36118800D02*
X37688400Y-36118800D01*
X37038400Y-36768800D02*
X37363400Y-36443800D01*
X41498400Y-36794200D02*
X41173400Y-36469200D01*
X40848400Y-36144200D02*
X41173400Y-36469200D01*
X36388400Y-36768800D02*
X37038400Y-36768800D01*
X40198400Y-36144200D02*
X40848400Y-36144200D01*
X38338400Y-36768800D02*
X37688400Y-36768800D01*
X41498400Y-36144200D02*
X41173400Y-36469200D01*
X40198400Y-36794200D02*
X40848400Y-36794200D01*
X37038400Y-36118800D02*
X37363400Y-36443800D01*
X37688400Y-36768800D02*
X37363400Y-36443800D01*
X38338400Y-36118800D02*
X38338400Y-36768800D01*
X36388400Y-36118800D02*
X37038400Y-36118800D01*
%TD*%
%TA.AperFunction,Conductor*%
%TO.N,GND*%
G36*
X45605848Y-32739766D02*
G01*
X45621861Y-32743793D01*
X45634540Y-32754368D01*
X45641375Y-32769398D01*
X45642096Y-32778520D01*
X45572307Y-34331327D01*
X45543807Y-34965443D01*
X45539413Y-34981359D01*
X45528550Y-34993792D01*
X45513367Y-35000281D01*
X45506411Y-35000875D01*
X43733345Y-34984756D01*
X42784963Y-34976134D01*
X42768900Y-34972314D01*
X42756085Y-34961903D01*
X42749057Y-34946962D01*
X42748200Y-34939036D01*
X42748200Y-34331327D01*
X42751874Y-34315230D01*
X42759747Y-34304430D01*
X43253169Y-33835679D01*
X43256200Y-33832800D01*
X43327094Y-32769398D01*
X43330040Y-32725203D01*
X43334777Y-32709386D01*
X43345907Y-32697191D01*
X43361227Y-32691032D01*
X43367873Y-32690580D01*
X45605848Y-32739766D01*
G37*
%TD.AperFunction*%
%TD*%
%TA.AperFunction,Conductor*%
%TO.N,Net-(R40-Pad1)*%
G36*
X46791197Y-47450874D02*
G01*
X46804106Y-47461169D01*
X46811270Y-47476044D01*
X46812200Y-47484300D01*
X46812200Y-47638700D01*
X46808526Y-47654797D01*
X46798231Y-47667706D01*
X46783356Y-47674870D01*
X46775100Y-47675800D01*
X45999400Y-47675800D01*
X45872400Y-47752000D01*
X45871195Y-47753042D01*
X45871191Y-47753045D01*
X44939738Y-48558626D01*
X44925159Y-48566377D01*
X44923378Y-48566812D01*
X43537107Y-48869271D01*
X43537105Y-48869272D01*
X43535600Y-48869600D01*
X42526235Y-49273346D01*
X42512456Y-49276000D01*
X41972500Y-49276000D01*
X41956403Y-49272326D01*
X41943494Y-49262031D01*
X41936330Y-49247156D01*
X41935400Y-49238900D01*
X41935400Y-48270593D01*
X41939074Y-48254496D01*
X41949369Y-48241587D01*
X41964244Y-48234423D01*
X41971376Y-48233510D01*
X42773039Y-48209217D01*
X42774163Y-48209200D01*
X44958000Y-48209200D01*
X45836580Y-47456132D01*
X45851191Y-47448445D01*
X45860723Y-47447200D01*
X46775100Y-47447200D01*
X46791197Y-47450874D01*
G37*
%TD.AperFunction*%
%TD*%
%TA.AperFunction,Conductor*%
%TO.N,GND*%
G36*
X76659342Y-41533118D02*
G01*
X76681345Y-41545025D01*
X76698290Y-41563432D01*
X76708339Y-41586343D01*
X76710617Y-41602287D01*
X76733373Y-42239450D01*
X76733412Y-42240994D01*
X76757613Y-43814031D01*
X76753875Y-43838768D01*
X76742308Y-43860952D01*
X76724164Y-43878178D01*
X76701410Y-43888579D01*
X76681622Y-43891200D01*
X73532800Y-43891200D01*
X73508123Y-43887082D01*
X73486120Y-43875175D01*
X73469175Y-43856768D01*
X73459126Y-43833857D01*
X73456800Y-43815200D01*
X73456800Y-41882062D01*
X73460918Y-41857385D01*
X73472825Y-41835382D01*
X73491232Y-41818437D01*
X73514143Y-41808388D01*
X73530424Y-41806099D01*
X74269600Y-41783000D01*
X74942627Y-41533731D01*
X74969022Y-41529000D01*
X76634665Y-41529000D01*
X76659342Y-41533118D01*
G37*
%TD.AperFunction*%
%TD*%
%TA.AperFunction,Conductor*%
%TO.N,+3V3*%
G36*
X91072694Y-31906400D02*
G01*
X91081993Y-31917132D01*
X91084270Y-31927730D01*
X91041003Y-40346443D01*
X91036932Y-40360046D01*
X91026154Y-40369289D01*
X91016730Y-40371496D01*
X87586479Y-40497608D01*
X87630000Y-44373800D01*
X87632069Y-44374214D01*
X87878722Y-44423544D01*
X88372028Y-44522206D01*
X88384602Y-44528800D01*
X88391616Y-44541146D01*
X88392283Y-44546565D01*
X88394501Y-44706275D01*
X88417045Y-46329450D01*
X88413234Y-46343128D01*
X88402633Y-46352575D01*
X88391847Y-46355000D01*
X86385200Y-46355000D01*
X86371576Y-46351000D01*
X86362277Y-46340268D01*
X86360000Y-46329800D01*
X86360000Y-44706275D01*
X86360406Y-44701767D01*
X86512155Y-43867149D01*
X86512155Y-43867147D01*
X86512400Y-43865800D01*
X86461619Y-42545494D01*
X86461600Y-42544525D01*
X86461600Y-40309800D01*
X85986796Y-40295835D01*
X84758859Y-40259719D01*
X84745358Y-40255320D01*
X84736379Y-40244320D01*
X84734400Y-40234530D01*
X84734400Y-31927600D01*
X84738400Y-31913976D01*
X84749132Y-31904677D01*
X84759600Y-31902400D01*
X91059070Y-31902400D01*
X91072694Y-31906400D01*
G37*
%TD.AperFunction*%
%TD*%
%TA.AperFunction,Conductor*%
%TO.N,GND*%
G36*
X70832635Y-71123959D02*
G01*
X70862001Y-71135585D01*
X70887553Y-71154150D01*
X70907685Y-71178486D01*
X70921133Y-71207064D01*
X70927051Y-71238088D01*
X70927300Y-71246000D01*
X70927301Y-72333508D01*
X70927364Y-72334772D01*
X70935446Y-72374855D01*
X70951159Y-72412604D01*
X70953293Y-72415792D01*
X70963963Y-72443590D01*
X70967600Y-72473643D01*
X70967600Y-72517000D01*
X71346102Y-72540656D01*
X71778441Y-72567678D01*
X71778455Y-72567678D01*
X71780400Y-72567800D01*
X72365600Y-72567800D01*
X72396935Y-72571759D01*
X72426301Y-72583385D01*
X72451853Y-72601950D01*
X72471985Y-72626286D01*
X72485433Y-72654864D01*
X72491351Y-72685888D01*
X72491600Y-72693800D01*
X72491600Y-75033947D01*
X72487641Y-75065282D01*
X72476015Y-75094648D01*
X72457450Y-75120200D01*
X72433114Y-75140332D01*
X72404536Y-75153780D01*
X72373512Y-75159698D01*
X72366955Y-75159940D01*
X70257554Y-75182622D01*
X70226178Y-75179000D01*
X70196689Y-75167690D01*
X70170939Y-75149401D01*
X70150546Y-75125283D01*
X70136791Y-75096851D01*
X70130540Y-75065892D01*
X70130201Y-75055842D01*
X70136254Y-74087370D01*
X70140409Y-74056060D01*
X70142216Y-74049849D01*
X70152470Y-74017719D01*
X70153770Y-74013646D01*
X70163933Y-73955419D01*
X70165300Y-73929332D01*
X70165300Y-73390668D01*
X70163933Y-73364581D01*
X70153770Y-73306354D01*
X70152467Y-73302271D01*
X70152464Y-73302259D01*
X70147466Y-73286598D01*
X70141710Y-73255543D01*
X70141503Y-73247503D01*
X70145654Y-72583385D01*
X70154017Y-71245210D01*
X70158172Y-71213903D01*
X70169982Y-71184610D01*
X70188706Y-71159175D01*
X70213167Y-71139195D01*
X70241829Y-71125926D01*
X70272889Y-71120202D01*
X70280015Y-71120000D01*
X70801300Y-71120000D01*
X70832635Y-71123959D01*
G37*
%TD.AperFunction*%
%TD*%
%TA.AperFunction,Conductor*%
%TO.N,GND*%
G36*
X89993410Y-40771118D02*
G01*
X90015413Y-40783025D01*
X90032358Y-40801432D01*
X90042407Y-40824343D01*
X90044713Y-40841247D01*
X90117427Y-43992156D01*
X90113879Y-44016921D01*
X90102483Y-44039193D01*
X90084472Y-44056558D01*
X90061799Y-44067133D01*
X90042341Y-44069904D01*
X88037094Y-44093495D01*
X88012370Y-44089667D01*
X87990229Y-44078020D01*
X87973069Y-44059814D01*
X87962750Y-44037022D01*
X87960200Y-44017500D01*
X87960200Y-40843000D01*
X87964318Y-40818323D01*
X87976225Y-40796320D01*
X87994632Y-40779375D01*
X88017543Y-40769326D01*
X88036200Y-40767000D01*
X89968733Y-40767000D01*
X89993410Y-40771118D01*
G37*
%TD.AperFunction*%
%TD*%
%TA.AperFunction,Conductor*%
%TO.N,GND*%
G36*
X97129417Y-32033518D02*
G01*
X97151420Y-32045425D01*
X97168365Y-32063832D01*
X97178414Y-32086743D01*
X97180739Y-32105056D01*
X97230868Y-43308989D01*
X97226861Y-43333684D01*
X97215052Y-43355740D01*
X97196721Y-43372767D01*
X97173855Y-43382919D01*
X97157019Y-43385299D01*
X91924550Y-43533388D01*
X91899766Y-43529969D01*
X91877435Y-43518689D01*
X91859977Y-43500769D01*
X91849283Y-43478152D01*
X91846400Y-43457418D01*
X91846400Y-32105400D01*
X91850518Y-32080723D01*
X91862425Y-32058720D01*
X91880832Y-32041775D01*
X91903743Y-32031726D01*
X91922400Y-32029400D01*
X97104740Y-32029400D01*
X97129417Y-32033518D01*
G37*
%TD.AperFunction*%
%TD*%
%TA.AperFunction,Conductor*%
%TO.N,GND*%
G36*
X77467546Y-83064295D02*
G01*
X77490016Y-83075295D01*
X77507697Y-83092996D01*
X77518673Y-83115478D01*
X77521815Y-83136135D01*
X77550092Y-85313516D01*
X77570515Y-86886068D01*
X77566718Y-86910797D01*
X77555097Y-86932952D01*
X77536912Y-86950134D01*
X77514133Y-86960481D01*
X77488337Y-86962803D01*
X75151235Y-86772019D01*
X75126975Y-86765907D01*
X75106014Y-86752249D01*
X75090623Y-86732525D01*
X75082471Y-86708872D01*
X75081427Y-86697341D01*
X75032642Y-83233589D01*
X75036411Y-83208857D01*
X75048008Y-83186688D01*
X75066174Y-83169486D01*
X75088941Y-83159115D01*
X75105533Y-83156582D01*
X76663398Y-83092996D01*
X77442722Y-83061187D01*
X77467546Y-83064295D01*
G37*
%TD.AperFunction*%
%TD*%
%TA.AperFunction,Conductor*%
%TO.N,/MP2636/FB*%
G36*
X48188746Y-48441474D02*
G01*
X48201655Y-48451769D01*
X48208819Y-48466644D01*
X48209745Y-48474346D01*
X48213771Y-48744078D01*
X48234600Y-50139600D01*
X48236245Y-50142420D01*
X48589321Y-50747693D01*
X48590936Y-50750788D01*
X49069361Y-51783179D01*
X49072800Y-51798778D01*
X49072800Y-52566300D01*
X49069126Y-52582397D01*
X49058831Y-52595306D01*
X49043956Y-52602470D01*
X49035700Y-52603400D01*
X48119300Y-52603400D01*
X48103203Y-52599726D01*
X48090294Y-52589431D01*
X48083130Y-52574556D01*
X48082200Y-52566300D01*
X48082200Y-51739800D01*
X48060405Y-51521851D01*
X48006148Y-50979275D01*
X48005971Y-50976325D01*
X47984407Y-49898150D01*
X47984400Y-49897408D01*
X47984400Y-48852485D01*
X47984112Y-48848972D01*
X47981607Y-48818512D01*
X47981482Y-48816991D01*
X47969844Y-48770661D01*
X47964395Y-48758128D01*
X47961326Y-48744081D01*
X47955957Y-48475642D01*
X47959309Y-48459474D01*
X47969343Y-48446362D01*
X47984073Y-48438902D01*
X47993050Y-48437800D01*
X48172649Y-48437800D01*
X48188746Y-48441474D01*
G37*
%TD.AperFunction*%
%TD*%
%TA.AperFunction,Conductor*%
%TO.N,Net-(L3-Pad2)*%
G36*
X57887198Y-33426419D02*
G01*
X59450877Y-33476060D01*
X59466850Y-33480243D01*
X59479425Y-33490942D01*
X59486114Y-33506037D01*
X59486800Y-33513141D01*
X59486800Y-37404478D01*
X59483126Y-37420575D01*
X59472831Y-37433484D01*
X59457956Y-37440648D01*
X59451734Y-37441521D01*
X58354315Y-37501654D01*
X57636775Y-37540971D01*
X57636774Y-37540971D01*
X57632600Y-37541200D01*
X57632600Y-40120300D01*
X57628926Y-40136397D01*
X57618631Y-40149306D01*
X57603756Y-40156470D01*
X57595500Y-40157400D01*
X53859299Y-40157400D01*
X53843202Y-40153726D01*
X53830293Y-40143431D01*
X53823129Y-40128556D01*
X53822201Y-40120703D01*
X53797202Y-37820784D01*
X53797200Y-37820381D01*
X53797200Y-37493560D01*
X53797733Y-37487291D01*
X53948990Y-36604956D01*
X53950888Y-36598018D01*
X54141078Y-36098771D01*
X54150241Y-36085036D01*
X54164457Y-36076638D01*
X54180909Y-36075239D01*
X54184740Y-36075985D01*
X54254400Y-36093400D01*
X54256530Y-36093433D01*
X54256532Y-36093433D01*
X57552220Y-36144136D01*
X57552221Y-36144136D01*
X57556400Y-36144200D01*
X57531306Y-33484281D01*
X57534828Y-33468152D01*
X57545000Y-33455147D01*
X57559808Y-33447843D01*
X57563154Y-33447207D01*
X57706189Y-33426773D01*
X57711436Y-33426400D01*
X57886021Y-33426400D01*
X57887198Y-33426419D01*
G37*
%TD.AperFunction*%
%TD*%
%TA.AperFunction,Conductor*%
%TO.N,GND*%
G36*
X37366564Y-45927048D02*
G01*
X37379553Y-45937242D01*
X37386833Y-45952061D01*
X37387817Y-45961550D01*
X37364312Y-46878216D01*
X37360226Y-46894214D01*
X37349604Y-46906854D01*
X37334550Y-46913635D01*
X37327808Y-46914360D01*
X35660357Y-46940620D01*
X34175282Y-46964007D01*
X34159131Y-46960587D01*
X34146062Y-46950497D01*
X34138665Y-46935736D01*
X34137600Y-46926912D01*
X34137600Y-45985411D01*
X34141274Y-45969314D01*
X34151569Y-45956405D01*
X34166444Y-45949241D01*
X34174406Y-45948312D01*
X36018556Y-45933905D01*
X37350439Y-45923500D01*
X37366564Y-45927048D01*
G37*
%TD.AperFunction*%
%TD*%
%TA.AperFunction,Conductor*%
%TO.N,GND*%
G36*
X37624335Y-34268559D02*
G01*
X37653701Y-34280185D01*
X37679253Y-34298750D01*
X37699385Y-34323086D01*
X37712833Y-34351664D01*
X37718751Y-34382688D01*
X37719000Y-34390600D01*
X37719000Y-35535600D01*
X37715041Y-35566935D01*
X37703415Y-35596301D01*
X37684850Y-35621853D01*
X37660514Y-35641985D01*
X37631936Y-35655433D01*
X37600912Y-35661351D01*
X37593000Y-35661600D01*
X35305000Y-35661600D01*
X35273665Y-35657641D01*
X35244299Y-35646015D01*
X35218747Y-35627450D01*
X35198615Y-35603114D01*
X35185167Y-35574536D01*
X35179249Y-35543512D01*
X35179000Y-35535600D01*
X35179000Y-34390600D01*
X35182959Y-34359265D01*
X35194585Y-34329899D01*
X35213150Y-34304347D01*
X35237486Y-34284215D01*
X35266064Y-34270767D01*
X35297088Y-34264849D01*
X35305000Y-34264600D01*
X37593000Y-34264600D01*
X37624335Y-34268559D01*
G37*
%TD.AperFunction*%
%TD*%
%TA.AperFunction,Conductor*%
%TO.N,GND*%
G36*
X41505974Y-34341955D02*
G01*
X41537263Y-34346261D01*
X41566498Y-34358214D01*
X41591842Y-34377061D01*
X41611703Y-34401619D01*
X41624832Y-34430345D01*
X41630406Y-34461433D01*
X41630574Y-34467945D01*
X41630597Y-35627180D01*
X41626639Y-35658515D01*
X41615013Y-35687881D01*
X41596449Y-35713433D01*
X41572113Y-35733566D01*
X41543536Y-35747014D01*
X41512511Y-35752933D01*
X41501630Y-35753147D01*
X41484392Y-35752741D01*
X41484391Y-35752741D01*
X41479934Y-35752636D01*
X41464525Y-35754460D01*
X41458619Y-35755018D01*
X41455092Y-35755268D01*
X41443167Y-35756112D01*
X41438800Y-35757052D01*
X41436502Y-35757379D01*
X41431646Y-35758187D01*
X41429371Y-35758621D01*
X41424946Y-35759145D01*
X41420635Y-35760288D01*
X41417071Y-35760968D01*
X41393458Y-35763200D01*
X40953353Y-35763200D01*
X40934012Y-35761064D01*
X40933925Y-35761643D01*
X40933912Y-35761641D01*
X40930655Y-35761151D01*
X40922439Y-35759517D01*
X40920123Y-35759113D01*
X40915796Y-35758038D01*
X40907708Y-35757209D01*
X40900380Y-35756458D01*
X40894501Y-35755716D01*
X40885804Y-35754409D01*
X40879156Y-35753410D01*
X40870995Y-35753346D01*
X40870429Y-35753341D01*
X40869768Y-35753322D01*
X40868579Y-35753200D01*
X40852971Y-35753200D01*
X40851979Y-35753196D01*
X40827500Y-35753003D01*
X40827494Y-35753003D01*
X40823786Y-35752974D01*
X40822366Y-35753165D01*
X40821249Y-35753200D01*
X40184292Y-35753200D01*
X40182081Y-35753357D01*
X40182068Y-35753357D01*
X40159116Y-35754983D01*
X40143167Y-35756112D01*
X40124312Y-35760171D01*
X40123352Y-35760378D01*
X40096833Y-35763200D01*
X39470598Y-35763200D01*
X39439263Y-35759241D01*
X39409897Y-35747615D01*
X39384345Y-35729050D01*
X39364213Y-35704714D01*
X39350765Y-35676136D01*
X39344847Y-35645112D01*
X39344598Y-35637203D01*
X39344586Y-35059227D01*
X39344574Y-34445346D01*
X39348532Y-34414015D01*
X39360158Y-34384648D01*
X39378722Y-34359096D01*
X39403058Y-34338963D01*
X39431635Y-34325515D01*
X39462660Y-34319596D01*
X39471974Y-34319355D01*
X41505974Y-34341955D01*
G37*
%TD.AperFunction*%
%TD*%
%TA.AperFunction,Conductor*%
%TO.N,GND*%
G36*
X55574677Y-77474118D02*
G01*
X55596680Y-77486025D01*
X55613625Y-77504432D01*
X55623674Y-77527343D01*
X55626000Y-77546000D01*
X55626000Y-79527600D01*
X55621882Y-79552277D01*
X55609975Y-79574280D01*
X55591568Y-79591225D01*
X55568657Y-79601274D01*
X55550000Y-79603600D01*
X53820612Y-79603600D01*
X53795935Y-79599482D01*
X53773932Y-79587575D01*
X53756987Y-79569168D01*
X53746938Y-79546257D01*
X53744634Y-79529409D01*
X53697453Y-77547809D01*
X53700982Y-77523041D01*
X53712362Y-77500761D01*
X53730360Y-77483383D01*
X53753026Y-77472791D01*
X53773431Y-77470000D01*
X55550000Y-77470000D01*
X55574677Y-77474118D01*
G37*
%TD.AperFunction*%
%TD*%
%TA.AperFunction,Conductor*%
%TO.N,GND*%
G36*
X40077200Y-46732168D02*
G01*
X41137521Y-46760443D01*
X41153513Y-46764545D01*
X41166143Y-46775180D01*
X41172908Y-46790242D01*
X41173630Y-46797292D01*
X41198549Y-50684537D01*
X41198558Y-50685980D01*
X41194987Y-50702100D01*
X41184776Y-50715075D01*
X41169946Y-50722334D01*
X41160983Y-50723315D01*
X40633712Y-50716555D01*
X39254692Y-50698876D01*
X39238646Y-50694996D01*
X39225870Y-50684537D01*
X39218897Y-50669570D01*
X39218073Y-50661306D01*
X39267921Y-46748217D01*
X39271800Y-46732168D01*
X39282258Y-46719392D01*
X39297224Y-46712418D01*
X39306007Y-46711603D01*
X40077200Y-46732168D01*
G37*
%TD.AperFunction*%
%TD*%
%TA.AperFunction,Conductor*%
%TO.N,Net-(L3-Pad1)*%
G36*
X57662094Y-41939074D02*
G01*
X57675003Y-41949369D01*
X57682167Y-41964244D01*
X57683096Y-41972802D01*
X57658301Y-45022620D01*
X57654496Y-45038686D01*
X57644097Y-45051511D01*
X57629163Y-45058554D01*
X57621021Y-45059418D01*
X53552150Y-45039374D01*
X52505869Y-45034220D01*
X52501800Y-45034200D01*
X52171600Y-45186600D01*
X50882289Y-46054406D01*
X50860193Y-46069278D01*
X50844787Y-46075218D01*
X50839477Y-46075600D01*
X49808517Y-46075600D01*
X49792420Y-46071926D01*
X49789030Y-46069222D01*
X49784000Y-46066799D01*
X49784000Y-45821600D01*
X49812511Y-45821600D01*
X49828864Y-45825405D01*
X49830103Y-45826147D01*
X49831521Y-45826706D01*
X49831522Y-45826706D01*
X49843279Y-45831337D01*
X49845292Y-45832200D01*
X49858147Y-45838167D01*
X49864633Y-45839965D01*
X49868309Y-45841196D01*
X49873123Y-45843093D01*
X49873132Y-45843096D01*
X49874549Y-45843654D01*
X49888392Y-45846622D01*
X49890519Y-45847144D01*
X49904179Y-45850933D01*
X49905687Y-45851094D01*
X49905691Y-45851095D01*
X49908716Y-45851418D01*
X49910866Y-45851648D01*
X49914696Y-45852262D01*
X49915734Y-45852484D01*
X49919766Y-45853349D01*
X49919773Y-45853350D01*
X49921257Y-45853668D01*
X49922773Y-45853740D01*
X49922777Y-45853740D01*
X49931882Y-45854169D01*
X49935406Y-45854335D01*
X49937590Y-45854503D01*
X49943172Y-45855100D01*
X49950733Y-45855100D01*
X49952481Y-45855141D01*
X49967461Y-45855848D01*
X49967465Y-45855848D01*
X49968973Y-45855919D01*
X49970469Y-45855743D01*
X49970476Y-45855743D01*
X49973791Y-45855353D01*
X49978120Y-45855100D01*
X50206015Y-45855100D01*
X50206777Y-45855037D01*
X50206786Y-45855037D01*
X50236647Y-45852582D01*
X50241509Y-45852182D01*
X50287839Y-45840544D01*
X50324331Y-45824677D01*
X50339124Y-45821600D01*
X50571400Y-45821600D01*
X50573194Y-45821241D01*
X50573196Y-45821241D01*
X50821990Y-45771482D01*
X50825400Y-45770800D01*
X51181000Y-45542200D01*
X52265346Y-44558724D01*
X52279736Y-44550632D01*
X52283627Y-44549704D01*
X53670200Y-44297600D01*
X53695205Y-41972099D01*
X53699052Y-41956044D01*
X53709485Y-41943247D01*
X53724437Y-41936244D01*
X53732303Y-41935400D01*
X57645997Y-41935400D01*
X57662094Y-41939074D01*
G37*
%TD.AperFunction*%
%TD*%
%TA.AperFunction,Conductor*%
%TO.N,GND*%
G36*
X51058766Y-36579674D02*
G01*
X51071675Y-36589969D01*
X51078839Y-36604844D01*
X51079767Y-36612729D01*
X51104427Y-39078707D01*
X51100914Y-39094840D01*
X51090749Y-39107851D01*
X51075946Y-39115163D01*
X51067507Y-39116178D01*
X45834224Y-39141218D01*
X45818109Y-39137621D01*
X45805151Y-39127388D01*
X45797916Y-39112546D01*
X45796953Y-39103383D01*
X45846280Y-36612365D01*
X45850272Y-36596344D01*
X45860820Y-36583642D01*
X45875835Y-36576774D01*
X45883373Y-36576000D01*
X51042669Y-36576000D01*
X51058766Y-36579674D01*
G37*
%TD.AperFunction*%
%TD*%
%TA.AperFunction,Conductor*%
%TO.N,GND*%
G36*
X72069296Y-69091698D02*
G01*
X72098715Y-69103190D01*
X72124352Y-69121637D01*
X72144596Y-69145881D01*
X72151459Y-69160295D01*
X72174194Y-70251577D01*
X72170770Y-70260781D01*
X72152742Y-70286714D01*
X72129496Y-70306774D01*
X71202196Y-70310926D01*
X71184459Y-70298160D01*
X71164218Y-70273915D01*
X71150642Y-70245397D01*
X71144585Y-70214400D01*
X71144300Y-70205925D01*
X71144299Y-69217405D01*
X71148257Y-69186070D01*
X71159884Y-69156704D01*
X71178449Y-69131152D01*
X71202785Y-69111020D01*
X71231363Y-69097572D01*
X71262387Y-69091654D01*
X71269710Y-69091406D01*
X71667168Y-69089583D01*
X72037943Y-69087883D01*
X72069296Y-69091698D01*
G37*
%TD.AperFunction*%
%TD*%
%TA.AperFunction,Conductor*%
%TO.N,/MP2636/VCC*%
G36*
X42748437Y-46739668D02*
G01*
X42759483Y-46747283D01*
X43078400Y-47066200D01*
X46749700Y-47066200D01*
X46765797Y-47069874D01*
X46778706Y-47080169D01*
X46785870Y-47095044D01*
X46786800Y-47103300D01*
X46786800Y-47232300D01*
X46783126Y-47248397D01*
X46772831Y-47261306D01*
X46757956Y-47268470D01*
X46749700Y-47269400D01*
X45567600Y-47269400D01*
X45032099Y-47737964D01*
X44765290Y-47971421D01*
X44750756Y-47979256D01*
X44740859Y-47980600D01*
X41845500Y-47980600D01*
X41829403Y-47976926D01*
X41816494Y-47966631D01*
X41809330Y-47951756D01*
X41808400Y-47943500D01*
X41808400Y-46797510D01*
X41812074Y-46781413D01*
X41822369Y-46768504D01*
X41837244Y-46761340D01*
X41844494Y-46760424D01*
X42732248Y-46736431D01*
X42748437Y-46739668D01*
G37*
%TD.AperFunction*%
%TD*%
%TA.AperFunction,Conductor*%
%TO.N,GND*%
G36*
X76453477Y-69803318D02*
G01*
X76475480Y-69815225D01*
X76492425Y-69833632D01*
X76502474Y-69856543D01*
X76504800Y-69875200D01*
X76504800Y-72370035D01*
X76500682Y-72394712D01*
X76488775Y-72416715D01*
X76470368Y-72433660D01*
X76447457Y-72443709D01*
X76434217Y-72445842D01*
X74451143Y-72587490D01*
X74426237Y-72585141D01*
X74403441Y-72574831D01*
X74385229Y-72557678D01*
X74373572Y-72535542D01*
X74369743Y-72513065D01*
X74321807Y-69876582D01*
X74325475Y-69851834D01*
X74336981Y-69829618D01*
X74355076Y-69812342D01*
X74377801Y-69801877D01*
X74397794Y-69799200D01*
X76428800Y-69799200D01*
X76453477Y-69803318D01*
G37*
%TD.AperFunction*%
%TD*%
%TA.AperFunction,Conductor*%
%TO.N,/SIM7020E/PWRKEY*%
G36*
X84182535Y-33811359D02*
G01*
X84211901Y-33822985D01*
X84237453Y-33841550D01*
X84257585Y-33865886D01*
X84271033Y-33894464D01*
X84276951Y-33925488D01*
X84277200Y-33933400D01*
X84277200Y-35103800D01*
X84273241Y-35135135D01*
X84261615Y-35164501D01*
X84243050Y-35190053D01*
X84218714Y-35210185D01*
X84190136Y-35223633D01*
X84159112Y-35229551D01*
X84151200Y-35229800D01*
X75335400Y-35229800D01*
X75304065Y-35225841D01*
X75274699Y-35214215D01*
X75249147Y-35195650D01*
X75229015Y-35171314D01*
X75215567Y-35142736D01*
X75209649Y-35111712D01*
X75209400Y-35103800D01*
X75209400Y-33933400D01*
X75213359Y-33902065D01*
X75224985Y-33872699D01*
X75243550Y-33847147D01*
X75267886Y-33827015D01*
X75296464Y-33813567D01*
X75327488Y-33807649D01*
X75335400Y-33807400D01*
X84151200Y-33807400D01*
X84182535Y-33811359D01*
G37*
%TD.AperFunction*%
%TD*%
%TA.AperFunction,Conductor*%
%TO.N,/STM32L431_MCU/VDDA*%
G36*
X56722597Y-61014474D02*
G01*
X56735506Y-61024769D01*
X56742670Y-61039644D01*
X56743600Y-61047900D01*
X56743600Y-61270003D01*
X56739926Y-61286100D01*
X56729631Y-61299009D01*
X56714756Y-61306173D01*
X56703266Y-61306962D01*
X56697987Y-61306500D01*
X56311975Y-61306500D01*
X55925014Y-61306501D01*
X55920255Y-61306917D01*
X55892274Y-61309364D01*
X55892269Y-61309365D01*
X55890656Y-61309506D01*
X55889089Y-61309926D01*
X55889088Y-61309926D01*
X55869737Y-61315111D01*
X55860168Y-61316375D01*
X55785743Y-61316440D01*
X55785742Y-61316440D01*
X55781561Y-61316444D01*
X55780573Y-61320149D01*
X55780572Y-61320151D01*
X55771018Y-61355981D01*
X55763321Y-61370588D01*
X55761405Y-61372656D01*
X55734260Y-61399801D01*
X55707865Y-61437498D01*
X55707182Y-61438963D01*
X55707179Y-61438968D01*
X55696741Y-61461352D01*
X55688416Y-61479205D01*
X55676506Y-61523656D01*
X55673500Y-61558013D01*
X55673501Y-61705986D01*
X55673572Y-61706798D01*
X55673966Y-61711305D01*
X55672854Y-61724095D01*
X55644161Y-61831694D01*
X55580969Y-62068664D01*
X55573272Y-62083271D01*
X55571153Y-62085540D01*
X55321200Y-62331600D01*
X55272709Y-63058968D01*
X55267972Y-63074785D01*
X55256842Y-63086980D01*
X55241522Y-63093139D01*
X55235691Y-63093600D01*
X50989500Y-63093600D01*
X50973403Y-63089926D01*
X50960494Y-63079631D01*
X50953330Y-63064756D01*
X50952400Y-63056500D01*
X50952400Y-61860700D01*
X50956074Y-61844603D01*
X50966369Y-61831694D01*
X50981244Y-61824530D01*
X50989500Y-61823600D01*
X55067200Y-61823600D01*
X55321200Y-61518800D01*
X55322286Y-61516086D01*
X55515072Y-61034121D01*
X55524461Y-61020540D01*
X55538814Y-61012378D01*
X55549518Y-61010800D01*
X56706500Y-61010800D01*
X56722597Y-61014474D01*
G37*
%TD.AperFunction*%
%TD*%
%TA.AperFunction,Conductor*%
%TO.N,GND*%
G36*
X54795160Y-59795274D02*
G01*
X54808069Y-59805569D01*
X54815233Y-59820444D01*
X54816035Y-59825618D01*
X54864000Y-60401200D01*
X55565017Y-60401200D01*
X55578913Y-60403901D01*
X55582198Y-60405228D01*
X55585823Y-60406925D01*
X55591061Y-60409734D01*
X55592474Y-60410221D01*
X55592475Y-60410221D01*
X55605641Y-60414755D01*
X55607454Y-60415432D01*
X55621766Y-60421214D01*
X55627550Y-60422528D01*
X55631408Y-60423627D01*
X55635620Y-60425077D01*
X55637026Y-60425561D01*
X55638482Y-60425813D01*
X55638488Y-60425814D01*
X55647433Y-60427359D01*
X55652251Y-60428191D01*
X55654124Y-60428565D01*
X55669172Y-60431984D01*
X55674990Y-60432350D01*
X55675095Y-60432357D01*
X55679073Y-60432824D01*
X55684931Y-60433836D01*
X55686089Y-60433889D01*
X55686093Y-60433889D01*
X55688004Y-60433975D01*
X55690746Y-60434100D01*
X55701629Y-60434100D01*
X55703959Y-60434173D01*
X55716209Y-60434944D01*
X55716211Y-60434944D01*
X55717690Y-60435037D01*
X55725441Y-60434277D01*
X55729061Y-60434100D01*
X55819786Y-60434100D01*
X55835466Y-60437576D01*
X55846205Y-60442584D01*
X55890656Y-60454494D01*
X55892261Y-60454634D01*
X55892264Y-60454635D01*
X55908378Y-60456045D01*
X55925013Y-60457500D01*
X56311025Y-60457500D01*
X56697986Y-60457499D01*
X56703268Y-60457037D01*
X56719623Y-60459295D01*
X56733380Y-60468425D01*
X56741813Y-60482620D01*
X56743600Y-60493996D01*
X56743600Y-60719700D01*
X56739926Y-60735797D01*
X56729631Y-60748706D01*
X56714756Y-60755870D01*
X56706500Y-60756800D01*
X55372000Y-60756800D01*
X55371005Y-60759189D01*
X55120824Y-61359623D01*
X55112812Y-61371588D01*
X55027266Y-61457134D01*
X55013285Y-61465918D01*
X55001032Y-61468000D01*
X52664793Y-61468000D01*
X52648696Y-61464326D01*
X52635787Y-61454031D01*
X52628623Y-61439156D01*
X52627710Y-61432024D01*
X52598177Y-60457429D01*
X52579158Y-59829823D01*
X52582343Y-59813623D01*
X52592242Y-59800408D01*
X52606894Y-59792797D01*
X52616241Y-59791600D01*
X54779063Y-59791600D01*
X54795160Y-59795274D01*
G37*
%TD.AperFunction*%
%TD*%
%TA.AperFunction,Conductor*%
%TO.N,+3V3*%
G36*
X69832635Y-71123959D02*
G01*
X69862001Y-71135585D01*
X69887553Y-71154150D01*
X69907685Y-71178486D01*
X69921133Y-71207064D01*
X69927051Y-71238088D01*
X69927300Y-71246000D01*
X69927301Y-72333508D01*
X69927364Y-72334772D01*
X69935446Y-72374855D01*
X69937812Y-72380538D01*
X69941925Y-72390419D01*
X69950312Y-72420869D01*
X69951600Y-72438840D01*
X69951600Y-75058000D01*
X69947641Y-75089335D01*
X69936015Y-75118701D01*
X69917450Y-75144253D01*
X69893114Y-75164385D01*
X69864536Y-75177833D01*
X69833512Y-75183751D01*
X69825600Y-75184000D01*
X68426600Y-75184000D01*
X68395265Y-75180041D01*
X68365899Y-75168415D01*
X68340347Y-75149850D01*
X68320215Y-75125514D01*
X68306767Y-75096936D01*
X68300849Y-75065912D01*
X68300600Y-75058000D01*
X68300600Y-71246000D01*
X68304559Y-71214665D01*
X68316185Y-71185299D01*
X68334750Y-71159747D01*
X68359086Y-71139615D01*
X68387664Y-71126167D01*
X68418688Y-71120249D01*
X68426600Y-71120000D01*
X69801300Y-71120000D01*
X69832635Y-71123959D01*
G37*
%TD.AperFunction*%
%TD*%
%TA.AperFunction,Conductor*%
%TO.N,GND*%
G36*
X91468415Y-83309289D02*
G01*
X91492921Y-83314317D01*
X91514468Y-83327031D01*
X91530720Y-83346052D01*
X91539914Y-83369320D01*
X91541600Y-83385237D01*
X91541600Y-86844247D01*
X91537482Y-86868924D01*
X91525575Y-86890927D01*
X91507168Y-86907872D01*
X91484257Y-86917921D01*
X91467061Y-86920233D01*
X88975396Y-86968150D01*
X88950645Y-86964507D01*
X88928417Y-86953025D01*
X88911121Y-86934948D01*
X88900633Y-86912234D01*
X88897963Y-86894217D01*
X88801552Y-83327031D01*
X88800589Y-83291399D01*
X88804038Y-83266621D01*
X88815347Y-83244304D01*
X88833289Y-83226869D01*
X88855920Y-83216204D01*
X88879374Y-83213399D01*
X91468415Y-83309289D01*
G37*
%TD.AperFunction*%
%TD*%
%TA.AperFunction,Conductor*%
%TO.N,GND*%
G36*
X72124352Y-69121637D02*
G01*
X72144596Y-69145881D01*
X72158174Y-69174397D01*
X72164235Y-69205394D01*
X72164494Y-69211258D01*
X72185088Y-70199769D01*
X72181783Y-70231179D01*
X72170770Y-70260781D01*
X72152742Y-70286714D01*
X72128830Y-70307349D01*
X72100539Y-70321389D01*
X72069644Y-70327952D01*
X72059679Y-70328392D01*
X71270864Y-70331924D01*
X71239512Y-70328106D01*
X71210094Y-70316610D01*
X71184459Y-70298160D01*
X71164218Y-70273915D01*
X71150642Y-70245397D01*
X71144585Y-70214400D01*
X71144300Y-70205925D01*
X71144299Y-69217405D01*
X71148257Y-69186070D01*
X71159884Y-69156704D01*
X71178449Y-69131152D01*
X71200354Y-69113031D01*
X72106615Y-69108875D01*
X72124352Y-69121637D01*
G37*
%TD.AperFunction*%
%TD*%
%TA.AperFunction,Conductor*%
%TO.N,GND*%
G36*
X66369677Y-67695118D02*
G01*
X66391680Y-67707025D01*
X66408625Y-67725432D01*
X66418674Y-67748343D01*
X66421000Y-67767000D01*
X66421000Y-69774000D01*
X66416882Y-69798677D01*
X66404975Y-69820680D01*
X66386568Y-69837625D01*
X66363657Y-69847674D01*
X66345000Y-69850000D01*
X63703000Y-69850000D01*
X63678323Y-69845882D01*
X63656320Y-69833975D01*
X63639375Y-69815568D01*
X63629326Y-69792657D01*
X63627000Y-69774000D01*
X63627000Y-67767000D01*
X63631118Y-67742323D01*
X63643025Y-67720320D01*
X63661432Y-67703375D01*
X63684343Y-67693326D01*
X63703000Y-67691000D01*
X66345000Y-67691000D01*
X66369677Y-67695118D01*
G37*
%TD.AperFunction*%
%TD*%
%TA.AperFunction,Conductor*%
%TO.N,GND*%
G36*
X86033671Y-42751874D02*
G01*
X86046580Y-42762169D01*
X86053744Y-42777044D01*
X86054670Y-42785822D01*
X86029800Y-44551600D01*
X86029800Y-46343300D01*
X86026126Y-46359397D01*
X86015831Y-46372306D01*
X86000956Y-46379470D01*
X85992700Y-46380400D01*
X84365100Y-46380400D01*
X84349003Y-46376726D01*
X84336094Y-46366431D01*
X84328930Y-46351556D01*
X84328000Y-46343300D01*
X84328000Y-44856400D01*
X84106646Y-44561261D01*
X84099927Y-44546179D01*
X84099230Y-44539523D01*
X84074530Y-42785822D01*
X84077977Y-42769675D01*
X84088088Y-42756623D01*
X84102862Y-42749250D01*
X84111626Y-42748200D01*
X86017574Y-42748200D01*
X86033671Y-42751874D01*
G37*
%TD.AperFunction*%
%TD*%
%TA.AperFunction,Conductor*%
%TO.N,GND*%
G36*
X37341164Y-40288248D02*
G01*
X37354153Y-40298442D01*
X37361433Y-40313261D01*
X37362417Y-40322750D01*
X37338912Y-41239416D01*
X37334826Y-41255414D01*
X37324204Y-41268054D01*
X37309150Y-41274835D01*
X37302408Y-41275560D01*
X35634957Y-41301820D01*
X34149882Y-41325207D01*
X34133731Y-41321787D01*
X34120662Y-41311697D01*
X34113265Y-41296936D01*
X34112200Y-41288112D01*
X34112200Y-40346611D01*
X34115874Y-40330514D01*
X34126169Y-40317605D01*
X34141044Y-40310441D01*
X34149006Y-40309512D01*
X35993156Y-40295105D01*
X37325039Y-40284700D01*
X37341164Y-40288248D01*
G37*
%TD.AperFunction*%
%TD*%
%TA.AperFunction,Conductor*%
%TO.N,GND*%
G36*
X53801597Y-28985074D02*
G01*
X53814506Y-28995369D01*
X53821670Y-29010244D01*
X53822600Y-29018500D01*
X53822600Y-32500300D01*
X53818926Y-32516397D01*
X53808631Y-32529306D01*
X53793756Y-32536470D01*
X53785500Y-32537400D01*
X49643300Y-32537400D01*
X49627203Y-32533726D01*
X49614294Y-32523431D01*
X49607130Y-32508556D01*
X49606200Y-32500300D01*
X49606200Y-29018500D01*
X49609874Y-29002403D01*
X49620169Y-28989494D01*
X49635044Y-28982330D01*
X49643300Y-28981400D01*
X53785500Y-28981400D01*
X53801597Y-28985074D01*
G37*
%TD.AperFunction*%
%TD*%
%TA.AperFunction,Conductor*%
%TO.N,+3V3*%
G36*
X68503611Y-63041423D02*
G01*
X68525674Y-63053219D01*
X68542712Y-63071540D01*
X68552877Y-63094400D01*
X68555252Y-63110775D01*
X68600478Y-64405109D01*
X68597224Y-64429915D01*
X68586092Y-64452320D01*
X68568288Y-64469897D01*
X68545742Y-64480741D01*
X68522824Y-64483744D01*
X64307533Y-64389450D01*
X64282954Y-64384781D01*
X64270134Y-64378641D01*
X63906400Y-64160400D01*
X62738000Y-63754000D01*
X62731620Y-63754001D01*
X62731618Y-63754001D01*
X62458527Y-63754058D01*
X62433849Y-63749945D01*
X62411843Y-63738042D01*
X62394895Y-63719639D01*
X62384840Y-63696730D01*
X62382511Y-63677947D01*
X62383291Y-63143774D01*
X62387445Y-63119103D01*
X62399385Y-63097117D01*
X62417816Y-63080200D01*
X62440742Y-63070183D01*
X62458907Y-63067886D01*
X68478915Y-63037430D01*
X68503611Y-63041423D01*
G37*
%TD.AperFunction*%
%TD*%
%TA.AperFunction,Conductor*%
%TO.N,GND*%
G36*
X77471617Y-77982118D02*
G01*
X77493620Y-77994025D01*
X77510565Y-78012432D01*
X77520614Y-78035343D01*
X77522909Y-78051829D01*
X77620167Y-81455829D01*
X77616756Y-81480614D01*
X77605481Y-81502948D01*
X77587566Y-81520412D01*
X77564951Y-81531112D01*
X77544198Y-81534000D01*
X75160602Y-81534000D01*
X75135925Y-81529882D01*
X75113922Y-81517975D01*
X75096977Y-81499568D01*
X75086928Y-81476657D01*
X75084633Y-81455829D01*
X75181891Y-78051829D01*
X75186712Y-78027280D01*
X75199243Y-78005626D01*
X75218126Y-77989214D01*
X75241315Y-77979823D01*
X75257860Y-77978000D01*
X77446940Y-77978000D01*
X77471617Y-77982118D01*
G37*
%TD.AperFunction*%
%TD*%
%TA.AperFunction,Conductor*%
%TO.N,Net-(R34-Pad2)*%
G36*
X47400797Y-48466874D02*
G01*
X47413706Y-48477169D01*
X47420870Y-48492044D01*
X47421800Y-48500300D01*
X47421800Y-48753711D01*
X47419995Y-48763853D01*
X47420333Y-48763947D01*
X47407567Y-48809979D01*
X47403400Y-48848972D01*
X47403400Y-49379424D01*
X47403146Y-49383759D01*
X47371401Y-49653593D01*
X47369980Y-49660278D01*
X47015400Y-50800000D01*
X47100188Y-51656425D01*
X47115105Y-51807102D01*
X47115268Y-51809633D01*
X47139471Y-52608352D01*
X47136286Y-52624553D01*
X47126387Y-52637768D01*
X47111735Y-52645379D01*
X47102408Y-52646576D01*
X46595532Y-52646809D01*
X46163042Y-52647008D01*
X46146943Y-52643341D01*
X46134030Y-52633053D01*
X46126859Y-52618180D01*
X46125937Y-52610859D01*
X46101862Y-51671931D01*
X46105122Y-51655745D01*
X46112222Y-51645250D01*
X46580621Y-51158694D01*
X46583600Y-51155600D01*
X46694471Y-50803706D01*
X47166947Y-49304109D01*
X47166947Y-49304106D01*
X47167800Y-49301400D01*
X47167800Y-48500300D01*
X47171474Y-48484203D01*
X47181769Y-48471294D01*
X47196644Y-48464130D01*
X47204900Y-48463200D01*
X47384700Y-48463200D01*
X47400797Y-48466874D01*
G37*
%TD.AperFunction*%
%TD*%
%TA.AperFunction,Conductor*%
%TO.N,GND*%
G36*
X43590797Y-38738674D02*
G01*
X43603706Y-38748969D01*
X43610870Y-38763844D01*
X43611800Y-38772100D01*
X43611800Y-41441100D01*
X43608126Y-41457197D01*
X43597831Y-41470106D01*
X43582956Y-41477270D01*
X43574700Y-41478200D01*
X40454762Y-41478200D01*
X40438665Y-41474526D01*
X40425660Y-41464111D01*
X39575793Y-40389280D01*
X39573200Y-40386000D01*
X39413161Y-40369154D01*
X38158616Y-40237096D01*
X38142992Y-40231757D01*
X38131232Y-40220168D01*
X38125665Y-40204624D01*
X38125400Y-40200200D01*
X38125400Y-38772100D01*
X38129074Y-38756003D01*
X38139369Y-38743094D01*
X38154244Y-38735930D01*
X38162500Y-38735000D01*
X43574700Y-38735000D01*
X43590797Y-38738674D01*
G37*
%TD.AperFunction*%
%TD*%
%TA.AperFunction,Conductor*%
%TO.N,/MP2636/VIN*%
G36*
X40336016Y-41681436D02*
G01*
X40720715Y-41698408D01*
X40725458Y-41698924D01*
X40777219Y-41707958D01*
X40778334Y-41708016D01*
X40778339Y-41708017D01*
X40802348Y-41709275D01*
X40802358Y-41709275D01*
X40802830Y-41709300D01*
X40966781Y-41709300D01*
X40968416Y-41709336D01*
X42027188Y-41756047D01*
X42043108Y-41760427D01*
X42055550Y-41771280D01*
X42062052Y-41786458D01*
X42062652Y-41792843D01*
X42074815Y-43495734D01*
X42082902Y-44627813D01*
X42087800Y-45313600D01*
X42925863Y-45283125D01*
X43461731Y-45263639D01*
X43477951Y-45266725D01*
X43491225Y-45276544D01*
X43495744Y-45283125D01*
X43638892Y-45548971D01*
X44196000Y-46583600D01*
X45941218Y-46583600D01*
X45951569Y-46585073D01*
X45973796Y-46591531D01*
X45981027Y-46592100D01*
X45981764Y-46592100D01*
X46399867Y-46592099D01*
X46806772Y-46592099D01*
X46807483Y-46592043D01*
X46807487Y-46592043D01*
X46808697Y-46591948D01*
X46814004Y-46591531D01*
X46836231Y-46585073D01*
X46846582Y-46583600D01*
X46955842Y-46583600D01*
X46972434Y-46587517D01*
X47320200Y-46761400D01*
X49225200Y-46761400D01*
X49727984Y-46610565D01*
X49738644Y-46609000D01*
X50610500Y-46609000D01*
X50626597Y-46612674D01*
X50639506Y-46622969D01*
X50646670Y-46637844D01*
X50647600Y-46646100D01*
X50647600Y-46837000D01*
X50643926Y-46853097D01*
X50633631Y-46866006D01*
X50618756Y-46873170D01*
X50610500Y-46874100D01*
X50181785Y-46874100D01*
X50181023Y-46874163D01*
X50181014Y-46874163D01*
X50151153Y-46876618D01*
X50146291Y-46877018D01*
X50099961Y-46888656D01*
X50077535Y-46898407D01*
X50057553Y-46907095D01*
X50057550Y-46907096D01*
X50056153Y-46907704D01*
X50054874Y-46908532D01*
X50054873Y-46908532D01*
X50019909Y-46931151D01*
X50004397Y-46936810D01*
X49999757Y-46937101D01*
X49781028Y-46937101D01*
X49780317Y-46937157D01*
X49780313Y-46937157D01*
X49778669Y-46937286D01*
X49773796Y-46937669D01*
X49771979Y-46938197D01*
X49770104Y-46938539D01*
X49770048Y-46938233D01*
X49763244Y-46939200D01*
X49758600Y-46939200D01*
X49756687Y-46940591D01*
X49756491Y-46940636D01*
X49755816Y-46941039D01*
X49755745Y-46940920D01*
X49745766Y-46945813D01*
X49742861Y-46946657D01*
X49715133Y-46963055D01*
X49692355Y-46985833D01*
X49692283Y-46985956D01*
X49686190Y-46991861D01*
X49482582Y-47139940D01*
X49482581Y-47139941D01*
X49479200Y-47142400D01*
X49479182Y-47146959D01*
X49476821Y-47744883D01*
X49473083Y-47760966D01*
X49462738Y-47773834D01*
X49447834Y-47780939D01*
X49440142Y-47781835D01*
X48093761Y-47796962D01*
X47252275Y-47806417D01*
X47236137Y-47802924D01*
X47223114Y-47792775D01*
X47215783Y-47777980D01*
X47214782Y-47770646D01*
X47193350Y-47171980D01*
X47193350Y-47171978D01*
X47193200Y-47167800D01*
X46925641Y-47026151D01*
X46913134Y-47015372D01*
X46911066Y-47012247D01*
X46896634Y-46987844D01*
X46895445Y-46985833D01*
X46872667Y-46963055D01*
X46844939Y-46946657D01*
X46814004Y-46937669D01*
X46806773Y-46937100D01*
X46482298Y-46937100D01*
X46482019Y-46937099D01*
X43866132Y-46917431D01*
X43413382Y-46914027D01*
X43397313Y-46910232D01*
X43384482Y-46899841D01*
X43377281Y-46884204D01*
X43358619Y-46790896D01*
X43357800Y-46786800D01*
X42595800Y-46355000D01*
X40727787Y-46266047D01*
X39929076Y-46228013D01*
X39929064Y-46228013D01*
X39928800Y-46228000D01*
X39928573Y-46227995D01*
X39928540Y-46227994D01*
X38994041Y-46208112D01*
X38735000Y-46202600D01*
X38811200Y-51104800D01*
X41517300Y-51104800D01*
X41533397Y-51108474D01*
X41546306Y-51118769D01*
X41553470Y-51133644D01*
X41554400Y-51141900D01*
X41554400Y-54090129D01*
X41550726Y-54106226D01*
X41540431Y-54119135D01*
X41525556Y-54126299D01*
X41517130Y-54127229D01*
X36054507Y-54102171D01*
X36038427Y-54098423D01*
X36025565Y-54088069D01*
X36018470Y-54073161D01*
X36017579Y-54064694D01*
X36067627Y-49134923D01*
X36071464Y-49118864D01*
X36081889Y-49106061D01*
X36096837Y-49099048D01*
X36104725Y-49098200D01*
X37693600Y-49098200D01*
X37693600Y-45618400D01*
X34196953Y-45578230D01*
X34180900Y-45574371D01*
X34168110Y-45563929D01*
X34161118Y-45548971D01*
X34160294Y-45540130D01*
X34183703Y-44673984D01*
X34187810Y-44657992D01*
X34198450Y-44645366D01*
X34213514Y-44638606D01*
X34220675Y-44637886D01*
X34318315Y-44637585D01*
X35974266Y-44632477D01*
X35991562Y-44636697D01*
X36014945Y-44648921D01*
X36054099Y-44660149D01*
X36055850Y-44660305D01*
X36055854Y-44660306D01*
X36077382Y-44662227D01*
X36077386Y-44662227D01*
X36078202Y-44662300D01*
X37301374Y-44662300D01*
X37302190Y-44662227D01*
X37302194Y-44662227D01*
X37323722Y-44660306D01*
X37323726Y-44660305D01*
X37325477Y-44660149D01*
X37364631Y-44648921D01*
X37379986Y-44640894D01*
X37396504Y-44632259D01*
X37413578Y-44628037D01*
X37486220Y-44627813D01*
X37490400Y-44627800D01*
X37486039Y-44511501D01*
X37487450Y-44499885D01*
X37487651Y-44499184D01*
X37487651Y-44499183D01*
X37488137Y-44497489D01*
X37488755Y-44490571D01*
X37490215Y-44474206D01*
X37490215Y-44474202D01*
X37490288Y-44473386D01*
X37490288Y-43750214D01*
X37488137Y-43726111D01*
X37476909Y-43686957D01*
X37458038Y-43650859D01*
X37458361Y-43650690D01*
X37453439Y-43637552D01*
X37453132Y-43633985D01*
X37451656Y-43594634D01*
X37454724Y-43578410D01*
X37457330Y-43573609D01*
X37458038Y-43572741D01*
X37458907Y-43571078D01*
X37458910Y-43571074D01*
X37476040Y-43538305D01*
X37476909Y-43536643D01*
X37488137Y-43497489D01*
X37490288Y-43473386D01*
X37490288Y-42750214D01*
X37488137Y-42726111D01*
X37479251Y-42695125D01*
X37477425Y-42688756D01*
X37477425Y-42688755D01*
X37476909Y-42686957D01*
X37458038Y-42650859D01*
X37455015Y-42647152D01*
X37433483Y-42620751D01*
X37433479Y-42620747D01*
X37432294Y-42619294D01*
X37425248Y-42613547D01*
X37415097Y-42600529D01*
X37414295Y-42598330D01*
X37414200Y-42595800D01*
X37412092Y-42595922D01*
X37397387Y-42591803D01*
X37366293Y-42575548D01*
X37364631Y-42574679D01*
X37325477Y-42563451D01*
X37323726Y-42563295D01*
X37323722Y-42563294D01*
X37302194Y-42561373D01*
X37302190Y-42561373D01*
X37301374Y-42561300D01*
X36078202Y-42561300D01*
X36077386Y-42561373D01*
X36077382Y-42561373D01*
X36055854Y-42563294D01*
X36055850Y-42563295D01*
X36054099Y-42563451D01*
X36014945Y-42574679D01*
X35978847Y-42593550D01*
X35947282Y-42619294D01*
X35921538Y-42650859D01*
X35914311Y-42664683D01*
X35903599Y-42677245D01*
X35888496Y-42683916D01*
X35883588Y-42684531D01*
X35700846Y-42695125D01*
X35684564Y-42692388D01*
X35671081Y-42682858D01*
X35663069Y-42668422D01*
X35661600Y-42658087D01*
X35661600Y-41743900D01*
X35665274Y-41727803D01*
X35675569Y-41714894D01*
X35690444Y-41707730D01*
X35698700Y-41706800D01*
X36068000Y-41706800D01*
X36068177Y-41706796D01*
X36068218Y-41706796D01*
X37312208Y-41681408D01*
X37312965Y-41681400D01*
X40334381Y-41681400D01*
X40336016Y-41681436D01*
G37*
%TD.AperFunction*%
%TD*%
%TA.AperFunction,Conductor*%
%TO.N,GND*%
G36*
X47555564Y-43849238D02*
G01*
X48080472Y-43862041D01*
X48111701Y-43866763D01*
X48140775Y-43879102D01*
X48165867Y-43898284D01*
X48185400Y-43923104D01*
X48198147Y-43952001D01*
X48203307Y-43983161D01*
X48203400Y-43988004D01*
X48203400Y-45076715D01*
X48203612Y-45079288D01*
X48203612Y-45079299D01*
X48204977Y-45095893D01*
X48206318Y-45112209D01*
X48217956Y-45158539D01*
X48220017Y-45163279D01*
X48220019Y-45163285D01*
X48224149Y-45172783D01*
X48233014Y-45203097D01*
X48234600Y-45223026D01*
X48234600Y-45340000D01*
X48230641Y-45371335D01*
X48219015Y-45400701D01*
X48200450Y-45426253D01*
X48176114Y-45446385D01*
X48147536Y-45459833D01*
X48116512Y-45465751D01*
X48108600Y-45466000D01*
X47319200Y-45466000D01*
X47287865Y-45462041D01*
X47258499Y-45450415D01*
X47232947Y-45431850D01*
X47212815Y-45407514D01*
X47199367Y-45378936D01*
X47193449Y-45347912D01*
X47193200Y-45340000D01*
X47193200Y-43969511D01*
X47197159Y-43938176D01*
X47208785Y-43908810D01*
X47227350Y-43883258D01*
X47251686Y-43863126D01*
X47280264Y-43849678D01*
X47311288Y-43843760D01*
X47322270Y-43843548D01*
X47555564Y-43849238D01*
G37*
%TD.AperFunction*%
%TD*%
%TA.AperFunction,Conductor*%
%TO.N,Net-(Q1-Pad1)*%
G36*
X42624941Y-35970074D02*
G01*
X42637850Y-35980369D01*
X42645014Y-35995244D01*
X42645938Y-36004151D01*
X42621847Y-37377326D01*
X42617891Y-37393356D01*
X42607372Y-37406082D01*
X42592373Y-37412984D01*
X42584324Y-37413773D01*
X36079269Y-37338425D01*
X36063217Y-37334564D01*
X36050428Y-37324121D01*
X36043437Y-37309163D01*
X36042600Y-37301327D01*
X36042600Y-36003500D01*
X36046274Y-35987403D01*
X36056569Y-35974494D01*
X36071444Y-35967330D01*
X36079700Y-35966400D01*
X42608844Y-35966400D01*
X42624941Y-35970074D01*
G37*
%TD.AperFunction*%
%TD*%
%TA.AperFunction,Conductor*%
%TO.N,+5V*%
G36*
X53451002Y-45453317D02*
G01*
X57010972Y-45516140D01*
X57026999Y-45520096D01*
X57039725Y-45530617D01*
X57046625Y-45545617D01*
X57047402Y-45554222D01*
X56998568Y-47385488D01*
X56994466Y-47401481D01*
X56983831Y-47414111D01*
X56968769Y-47420876D01*
X56961275Y-47421598D01*
X55493223Y-47413442D01*
X52431284Y-47396432D01*
X52420189Y-47394668D01*
X52045915Y-47274901D01*
X51796401Y-47195056D01*
X51785700Y-47189589D01*
X50828763Y-46484478D01*
X50825400Y-46482000D01*
X49758600Y-46482000D01*
X49383312Y-46607096D01*
X49371580Y-46609000D01*
X47505614Y-46609000D01*
X47491000Y-46606000D01*
X47320200Y-46532800D01*
X47183084Y-46503418D01*
X46966516Y-46457010D01*
X46966511Y-46457009D01*
X46964600Y-46456600D01*
X45985700Y-46456600D01*
X45969603Y-46452926D01*
X45956694Y-46442631D01*
X45949530Y-46427756D01*
X45948600Y-46419500D01*
X45948600Y-46265100D01*
X45952274Y-46249003D01*
X45962569Y-46236094D01*
X45977444Y-46228930D01*
X45985700Y-46228000D01*
X46863000Y-46228000D01*
X47007241Y-46131839D01*
X47022673Y-46125967D01*
X47025178Y-46125702D01*
X47369684Y-46101094D01*
X47372327Y-46101000D01*
X48891652Y-46101000D01*
X48898289Y-46101598D01*
X49174400Y-46151800D01*
X49758600Y-46228000D01*
X50901600Y-46228000D01*
X51485800Y-45999400D01*
X51917600Y-45821600D01*
X52722607Y-45444253D01*
X52739008Y-45440752D01*
X53451002Y-45453317D01*
G37*
%TD.AperFunction*%
%TD*%
%TA.AperFunction,Conductor*%
%TO.N,GND*%
G36*
X62077077Y-62894518D02*
G01*
X62099080Y-62906425D01*
X62116025Y-62924832D01*
X62126074Y-62947743D01*
X62128400Y-62966400D01*
X62128400Y-63906400D01*
X62396647Y-63983042D01*
X63184891Y-64208255D01*
X63204292Y-64216883D01*
X64002659Y-64715862D01*
X64008000Y-64719200D01*
X64012025Y-64719265D01*
X64012026Y-64719265D01*
X67082826Y-64768794D01*
X67107433Y-64773309D01*
X67129241Y-64785570D01*
X67145887Y-64804247D01*
X67155566Y-64827318D01*
X67157600Y-64844784D01*
X67157600Y-67234000D01*
X67153482Y-67258677D01*
X67141575Y-67280680D01*
X67123168Y-67297625D01*
X67100257Y-67307674D01*
X67081600Y-67310000D01*
X63626800Y-67310000D01*
X63602123Y-67305882D01*
X63580120Y-67293975D01*
X63563175Y-67275568D01*
X63553126Y-67252657D01*
X63550800Y-67234000D01*
X63550800Y-64973200D01*
X62941200Y-64465200D01*
X62361405Y-64416884D01*
X62337156Y-64410731D01*
X62316217Y-64397038D01*
X62311482Y-64392270D01*
X61871210Y-63907971D01*
X61843364Y-63877340D01*
X61829812Y-63856313D01*
X61823822Y-63832022D01*
X61823600Y-63826219D01*
X61823600Y-63773670D01*
X61825009Y-63759103D01*
X61831384Y-63726458D01*
X61831889Y-63723874D01*
X61832500Y-63712593D01*
X61832499Y-62966400D01*
X61836617Y-62941723D01*
X61848524Y-62919720D01*
X61866931Y-62902775D01*
X61889842Y-62892726D01*
X61908499Y-62890400D01*
X62052400Y-62890400D01*
X62077077Y-62894518D01*
G37*
%TD.AperFunction*%
%TD*%
%TA.AperFunction,Conductor*%
%TO.N,/MP2636/BATT*%
G36*
X49127997Y-29950274D02*
G01*
X49140906Y-29960569D01*
X49148070Y-29975444D01*
X49149000Y-29983700D01*
X49149000Y-33299400D01*
X51218926Y-33287079D01*
X53378615Y-33274224D01*
X53394734Y-33277802D01*
X53407704Y-33288019D01*
X53414956Y-33302852D01*
X53415935Y-33311584D01*
X53391063Y-36843439D01*
X53387276Y-36859510D01*
X53376891Y-36872346D01*
X53361965Y-36879405D01*
X53353443Y-36880274D01*
X52523299Y-36868582D01*
X51623978Y-36855915D01*
X51607934Y-36852015D01*
X51595171Y-36841540D01*
X51588217Y-36826564D01*
X51587400Y-36818819D01*
X51587400Y-35407600D01*
X51420587Y-35421501D01*
X51283951Y-35432887D01*
X51281234Y-35433013D01*
X48342508Y-35461824D01*
X46138463Y-35483433D01*
X46122331Y-35479917D01*
X46109322Y-35469750D01*
X46102013Y-35454945D01*
X46101000Y-35446335D01*
X46101000Y-35026600D01*
X45974000Y-32131000D01*
X44436913Y-32131000D01*
X44420816Y-32127326D01*
X44407907Y-32117031D01*
X44400743Y-32102156D01*
X44399818Y-32093292D01*
X44423767Y-30632400D01*
X44423989Y-30618859D01*
X44427926Y-30602825D01*
X44438431Y-30590087D01*
X44453422Y-30583168D01*
X44461855Y-30582376D01*
X46213080Y-30618860D01*
X46858821Y-30632313D01*
X46863000Y-30632400D01*
X46887077Y-29982327D01*
X46891345Y-29966377D01*
X46902110Y-29953858D01*
X46917241Y-29947249D01*
X46924152Y-29946600D01*
X49111900Y-29946600D01*
X49127997Y-29950274D01*
G37*
%TD.AperFunction*%
%TD*%
%TA.AperFunction,Conductor*%
%TO.N,/STM32L431_MCU/NRST*%
G36*
X45801224Y-64115315D02*
G01*
X45830797Y-64126406D01*
X45856682Y-64144503D01*
X45877253Y-64168469D01*
X45891219Y-64196798D01*
X45897700Y-64227710D01*
X45898113Y-64237598D01*
X45922891Y-74371892D01*
X45919009Y-74403236D01*
X45907454Y-74432631D01*
X45888952Y-74458228D01*
X45864665Y-74478420D01*
X45836120Y-74491938D01*
X45805110Y-74497932D01*
X45796891Y-74498200D01*
X44626800Y-74498200D01*
X44595465Y-74494241D01*
X44566099Y-74482615D01*
X44540547Y-74464050D01*
X44520415Y-74439714D01*
X44506967Y-74411136D01*
X44501049Y-74380112D01*
X44500800Y-74372200D01*
X44500800Y-64258730D01*
X44504759Y-64227395D01*
X44516385Y-64198029D01*
X44534950Y-64172477D01*
X44559286Y-64152345D01*
X44587864Y-64138897D01*
X44618888Y-64132979D01*
X44624509Y-64132751D01*
X45769822Y-64111927D01*
X45801224Y-64115315D01*
G37*
%TD.AperFunction*%
%TD*%
%TA.AperFunction,Conductor*%
%TO.N,Net-(L3-Pad1)*%
G36*
X49049923Y-45720348D02*
G01*
X49701024Y-45810155D01*
X49784000Y-45821600D01*
X49812511Y-45821600D01*
X49828864Y-45825405D01*
X49830103Y-45826147D01*
X49831521Y-45826706D01*
X49831522Y-45826706D01*
X49843279Y-45831337D01*
X49845292Y-45832200D01*
X49858147Y-45838167D01*
X49864633Y-45839965D01*
X49868309Y-45841196D01*
X49873123Y-45843093D01*
X49873132Y-45843096D01*
X49874549Y-45843654D01*
X49888392Y-45846622D01*
X49890519Y-45847144D01*
X49904179Y-45850933D01*
X49905687Y-45851094D01*
X49905691Y-45851095D01*
X49908716Y-45851418D01*
X49910866Y-45851648D01*
X49914696Y-45852262D01*
X49915734Y-45852484D01*
X49919766Y-45853349D01*
X49919773Y-45853350D01*
X49921257Y-45853668D01*
X49922773Y-45853740D01*
X49922777Y-45853740D01*
X49931882Y-45854169D01*
X49935406Y-45854335D01*
X49937590Y-45854503D01*
X49943172Y-45855100D01*
X49950733Y-45855100D01*
X49952481Y-45855141D01*
X49967461Y-45855848D01*
X49967465Y-45855848D01*
X49968973Y-45855919D01*
X49970469Y-45855743D01*
X49970476Y-45855743D01*
X49973791Y-45855353D01*
X49978120Y-45855100D01*
X50206015Y-45855100D01*
X50206777Y-45855037D01*
X50206786Y-45855037D01*
X50236647Y-45852582D01*
X50241509Y-45852182D01*
X50287839Y-45840544D01*
X50324331Y-45824677D01*
X50339124Y-45821600D01*
X50596800Y-45821600D01*
X50596800Y-46075600D01*
X49860200Y-46075600D01*
X49781075Y-46065390D01*
X49781074Y-46065390D01*
X49084448Y-45975503D01*
X49072800Y-45974000D01*
X46990000Y-45974000D01*
X46987595Y-45975503D01*
X46795822Y-46095361D01*
X46780224Y-46100777D01*
X46776159Y-46101000D01*
X46011100Y-46101000D01*
X45995003Y-46097326D01*
X45982094Y-46087031D01*
X45974930Y-46072156D01*
X45974000Y-46063900D01*
X45974000Y-45892200D01*
X45977674Y-45876103D01*
X45987969Y-45863194D01*
X46002844Y-45856030D01*
X46011100Y-45855100D01*
X46370592Y-45855100D01*
X46373581Y-45855312D01*
X46373583Y-45855278D01*
X46375102Y-45855368D01*
X46376613Y-45855583D01*
X46397452Y-45855110D01*
X46398293Y-45855100D01*
X46406015Y-45855100D01*
X46406773Y-45855038D01*
X46406788Y-45855037D01*
X46408025Y-45854935D01*
X46410223Y-45854820D01*
X46422844Y-45854534D01*
X46422849Y-45854533D01*
X46424370Y-45854499D01*
X46426173Y-45854158D01*
X46430969Y-45853253D01*
X46434811Y-45852733D01*
X46436638Y-45852583D01*
X46441509Y-45852182D01*
X46455237Y-45848734D01*
X46457386Y-45848261D01*
X46471308Y-45845630D01*
X46472726Y-45845111D01*
X46472737Y-45845108D01*
X46477621Y-45843320D01*
X46481333Y-45842178D01*
X46487839Y-45840544D01*
X46489233Y-45839938D01*
X46489236Y-45839937D01*
X46500823Y-45834899D01*
X46502866Y-45834082D01*
X46514734Y-45829739D01*
X46514743Y-45829735D01*
X46516169Y-45829213D01*
X46521127Y-45826408D01*
X46536948Y-45821681D01*
X46539394Y-45821600D01*
X46786800Y-45821600D01*
X47034165Y-45722654D01*
X47047944Y-45720000D01*
X49044854Y-45720000D01*
X49049923Y-45720348D01*
G37*
%TD.AperFunction*%
%TD*%
%TA.AperFunction,Conductor*%
%TO.N,GND*%
G36*
X91488743Y-77932443D02*
G01*
X91510994Y-77943880D01*
X91528326Y-77961922D01*
X91538861Y-77984614D01*
X91541600Y-78004834D01*
X91541600Y-81515122D01*
X91537482Y-81539799D01*
X91525575Y-81561802D01*
X91507168Y-81578747D01*
X91484257Y-81588796D01*
X91472184Y-81590836D01*
X89286287Y-81780914D01*
X89261346Y-81778950D01*
X89238394Y-81768993D01*
X89219919Y-81752124D01*
X89207922Y-81730169D01*
X89203710Y-81706213D01*
X89155005Y-78053392D01*
X89158793Y-78028662D01*
X89170406Y-78006503D01*
X89188585Y-77989314D01*
X89211361Y-77978960D01*
X89229380Y-77976396D01*
X91463986Y-77928851D01*
X91488743Y-77932443D01*
G37*
%TD.AperFunction*%
%TD*%
%TA.AperFunction,Conductor*%
%TO.N,Net-(R33-Pad2)*%
G36*
X46791197Y-47857274D02*
G01*
X46804106Y-47867569D01*
X46811270Y-47882444D01*
X46812200Y-47890700D01*
X46812200Y-48045100D01*
X46808526Y-48061197D01*
X46798231Y-48074106D01*
X46783356Y-48081270D01*
X46775100Y-48082200D01*
X46763024Y-48082200D01*
X46746927Y-48078526D01*
X46743651Y-48076739D01*
X46735742Y-48071893D01*
X46709919Y-48061197D01*
X46689462Y-48052723D01*
X46689456Y-48052721D01*
X46688116Y-48052166D01*
X46637991Y-48040131D01*
X46636544Y-48040017D01*
X46636543Y-48040017D01*
X46588049Y-48036201D01*
X46586600Y-48036087D01*
X46575174Y-48036986D01*
X46572266Y-48037100D01*
X46381030Y-48037100D01*
X46380312Y-48037157D01*
X46380300Y-48037157D01*
X46355325Y-48039123D01*
X46342509Y-48040132D01*
X46341094Y-48040472D01*
X46341092Y-48040472D01*
X46293804Y-48051825D01*
X46292384Y-48052166D01*
X46291040Y-48052723D01*
X46291033Y-48052725D01*
X46270581Y-48061197D01*
X46244758Y-48071893D01*
X46236858Y-48076734D01*
X46221216Y-48082011D01*
X46217476Y-48082200D01*
X45974000Y-48082200D01*
X45454274Y-48680673D01*
X45135966Y-49047209D01*
X45135574Y-49047652D01*
X43357800Y-51028600D01*
X43357627Y-51028801D01*
X43357604Y-51028828D01*
X43272185Y-51128484D01*
X43205400Y-51206400D01*
X43205400Y-52235335D01*
X43201726Y-52251432D01*
X43191431Y-52264341D01*
X43176556Y-52271505D01*
X43167543Y-52272427D01*
X42498743Y-52258778D01*
X41997142Y-52248542D01*
X41981124Y-52244541D01*
X41968428Y-52233985D01*
X41961569Y-52218966D01*
X41960800Y-52211450D01*
X41960800Y-49821100D01*
X41964474Y-49805003D01*
X41974769Y-49792094D01*
X41989644Y-49784930D01*
X41997900Y-49784000D01*
X43078400Y-49784000D01*
X44011406Y-49052725D01*
X44026648Y-49045621D01*
X44344202Y-48978768D01*
X44979308Y-48845062D01*
X44979310Y-48845061D01*
X44983400Y-48844200D01*
X45150064Y-48681703D01*
X45151165Y-48680673D01*
X45151607Y-48680276D01*
X45152364Y-48679665D01*
X45157722Y-48674307D01*
X45158988Y-48673100D01*
X45171187Y-48662000D01*
X45172758Y-48660011D01*
X45175968Y-48656447D01*
X45987056Y-47865636D01*
X46001147Y-47857030D01*
X46012956Y-47855100D01*
X46406015Y-47855100D01*
X46406777Y-47855037D01*
X46406786Y-47855037D01*
X46422741Y-47853725D01*
X46425781Y-47853600D01*
X46775100Y-47853600D01*
X46791197Y-47857274D01*
G37*
%TD.AperFunction*%
%TD*%
%TA.AperFunction,Conductor*%
%TO.N,GND*%
G36*
X92380689Y-69652233D02*
G01*
X92394561Y-69661828D01*
X92402896Y-69676492D01*
X92404501Y-69688059D01*
X92402007Y-69835226D01*
X92355017Y-72607619D01*
X92350985Y-72623998D01*
X92340247Y-72637005D01*
X92324928Y-72644064D01*
X92318024Y-72644866D01*
X90258927Y-72693892D01*
X90242398Y-72690531D01*
X90228964Y-72680332D01*
X90221286Y-72665314D01*
X90220131Y-72656668D01*
X90219558Y-72623998D01*
X90170632Y-69835226D01*
X90174096Y-69818718D01*
X90184380Y-69805349D01*
X90199446Y-69797765D01*
X90205948Y-69796749D01*
X92364029Y-69649607D01*
X92380689Y-69652233D01*
G37*
%TD.AperFunction*%
%TD*%
M02*
