%TF.GenerationSoftware,KiCad,Pcbnew,(6.0.2)*%
%TF.CreationDate,2022-09-17T14:06:50-08:00*%
%TF.ProjectId,HERTZ200,48455254-5a32-4303-902e-6b696361645f,VERSION 1*%
%TF.SameCoordinates,Original*%
%TF.FileFunction,Copper,L4,Bot*%
%TF.FilePolarity,Positive*%
%FSLAX46Y46*%
G04 Gerber Fmt 4.6, Leading zero omitted, Abs format (unit mm)*
G04 Created by KiCad (PCBNEW (6.0.2)) date 2022-09-17 14:06:50*
%MOMM*%
%LPD*%
G01*
G04 APERTURE LIST*
G04 Aperture macros list*
%AMRoundRect*
0 Rectangle with rounded corners*
0 $1 Rounding radius*
0 $2 $3 $4 $5 $6 $7 $8 $9 X,Y pos of 4 corners*
0 Add a 4 corners polygon primitive as box body*
4,1,4,$2,$3,$4,$5,$6,$7,$8,$9,$2,$3,0*
0 Add four circle primitives for the rounded corners*
1,1,$1+$1,$2,$3*
1,1,$1+$1,$4,$5*
1,1,$1+$1,$6,$7*
1,1,$1+$1,$8,$9*
0 Add four rect primitives between the rounded corners*
20,1,$1+$1,$2,$3,$4,$5,0*
20,1,$1+$1,$4,$5,$6,$7,0*
20,1,$1+$1,$6,$7,$8,$9,0*
20,1,$1+$1,$8,$9,$2,$3,0*%
G04 Aperture macros list end*
%TA.AperFunction,EtchedComponent*%
%ADD10C,0.010000*%
%TD*%
%TA.AperFunction,ComponentPad*%
%ADD11C,1.508000*%
%TD*%
%TA.AperFunction,ComponentPad*%
%ADD12C,1.920000*%
%TD*%
%TA.AperFunction,ComponentPad*%
%ADD13R,1.700000X1.700000*%
%TD*%
%TA.AperFunction,ComponentPad*%
%ADD14O,1.700000X1.700000*%
%TD*%
%TA.AperFunction,ComponentPad*%
%ADD15O,2.416000X1.208000*%
%TD*%
%TA.AperFunction,ComponentPad*%
%ADD16O,1.600000X0.800000*%
%TD*%
%TA.AperFunction,SMDPad,CuDef*%
%ADD17RoundRect,0.225000X-0.250000X0.225000X-0.250000X-0.225000X0.250000X-0.225000X0.250000X0.225000X0*%
%TD*%
%TA.AperFunction,SMDPad,CuDef*%
%ADD18RoundRect,0.225000X0.250000X-0.225000X0.250000X0.225000X-0.250000X0.225000X-0.250000X-0.225000X0*%
%TD*%
%TA.AperFunction,SMDPad,CuDef*%
%ADD19RoundRect,0.250000X-0.650000X0.325000X-0.650000X-0.325000X0.650000X-0.325000X0.650000X0.325000X0*%
%TD*%
%TA.AperFunction,SMDPad,CuDef*%
%ADD20RoundRect,0.200000X0.275000X-0.200000X0.275000X0.200000X-0.275000X0.200000X-0.275000X-0.200000X0*%
%TD*%
%TA.AperFunction,SMDPad,CuDef*%
%ADD21RoundRect,0.225000X-0.225000X-0.250000X0.225000X-0.250000X0.225000X0.250000X-0.225000X0.250000X0*%
%TD*%
%TA.AperFunction,SMDPad,CuDef*%
%ADD22RoundRect,0.225000X0.225000X0.250000X-0.225000X0.250000X-0.225000X-0.250000X0.225000X-0.250000X0*%
%TD*%
%TA.AperFunction,SMDPad,CuDef*%
%ADD23RoundRect,0.250000X0.262500X0.450000X-0.262500X0.450000X-0.262500X-0.450000X0.262500X-0.450000X0*%
%TD*%
%TA.AperFunction,SMDPad,CuDef*%
%ADD24R,0.400000X1.230000*%
%TD*%
%TA.AperFunction,SMDPad,CuDef*%
%ADD25R,1.525000X0.700000*%
%TD*%
%TA.AperFunction,SMDPad,CuDef*%
%ADD26RoundRect,0.200000X-0.275000X0.200000X-0.275000X-0.200000X0.275000X-0.200000X0.275000X0.200000X0*%
%TD*%
%TA.AperFunction,SMDPad,CuDef*%
%ADD27RoundRect,0.250000X-0.475000X0.250000X-0.475000X-0.250000X0.475000X-0.250000X0.475000X0.250000X0*%
%TD*%
%TA.AperFunction,SMDPad,CuDef*%
%ADD28R,1.329200X0.665800*%
%TD*%
%TA.AperFunction,SMDPad,CuDef*%
%ADD29R,1.350000X0.600000*%
%TD*%
%TA.AperFunction,SMDPad,CuDef*%
%ADD30R,1.380000X0.665800*%
%TD*%
%TA.AperFunction,SMDPad,CuDef*%
%ADD31RoundRect,0.200000X0.200000X0.275000X-0.200000X0.275000X-0.200000X-0.275000X0.200000X-0.275000X0*%
%TD*%
%TA.AperFunction,ViaPad*%
%ADD32C,0.600000*%
%TD*%
%TA.AperFunction,ViaPad*%
%ADD33C,0.800000*%
%TD*%
%TA.AperFunction,ViaPad*%
%ADD34C,0.500000*%
%TD*%
%TA.AperFunction,Conductor*%
%ADD35C,0.381000*%
%TD*%
%TA.AperFunction,Conductor*%
%ADD36C,0.203200*%
%TD*%
%TA.AperFunction,Conductor*%
%ADD37C,0.293370*%
%TD*%
%TA.AperFunction,Conductor*%
%ADD38C,0.250000*%
%TD*%
%TA.AperFunction,Conductor*%
%ADD39C,0.180000*%
%TD*%
%TA.AperFunction,Conductor*%
%ADD40C,0.635000*%
%TD*%
G04 APERTURE END LIST*
D10*
%TO.C,J8*%
X33659788Y-47931800D02*
X33658788Y-47902800D01*
X33658788Y-47902800D02*
X33656788Y-47874800D01*
X33656788Y-47874800D02*
X33652788Y-47845800D01*
X33652788Y-47845800D02*
X33647788Y-47817800D01*
X33647788Y-47817800D02*
X33640788Y-47789800D01*
X33640788Y-47789800D02*
X33632788Y-47761800D01*
X33632788Y-47761800D02*
X33622788Y-47734800D01*
X33622788Y-47734800D02*
X33611788Y-47707800D01*
X33611788Y-47707800D02*
X33599788Y-47681800D01*
X33599788Y-47681800D02*
X33585788Y-47656800D01*
X33585788Y-47656800D02*
X33570788Y-47631800D01*
X33570788Y-47631800D02*
X33554788Y-47608800D01*
X33554788Y-47608800D02*
X33536788Y-47585800D01*
X33536788Y-47585800D02*
X33518788Y-47563800D01*
X33518788Y-47563800D02*
X33498788Y-47542800D01*
X33498788Y-47542800D02*
X33477788Y-47522800D01*
X33477788Y-47522800D02*
X33455788Y-47504800D01*
X33455788Y-47504800D02*
X33432788Y-47486800D01*
X33432788Y-47486800D02*
X33409788Y-47470800D01*
X33409788Y-47470800D02*
X33384788Y-47455800D01*
X33384788Y-47455800D02*
X33359788Y-47441800D01*
X33359788Y-47441800D02*
X33333788Y-47429800D01*
X33333788Y-47429800D02*
X33306788Y-47418800D01*
X33306788Y-47418800D02*
X33279788Y-47408800D01*
X33279788Y-47408800D02*
X33251788Y-47400800D01*
X33251788Y-47400800D02*
X33223788Y-47393800D01*
X33223788Y-47393800D02*
X33195788Y-47388800D01*
X33195788Y-47388800D02*
X33166788Y-47384800D01*
X33166788Y-47384800D02*
X33138788Y-47382800D01*
X33138788Y-47382800D02*
X33109788Y-47381800D01*
X33109788Y-47381800D02*
X32509788Y-47381800D01*
X32509788Y-47381800D02*
X32480788Y-47382800D01*
X32480788Y-47382800D02*
X32452788Y-47384800D01*
X32452788Y-47384800D02*
X32423788Y-47388800D01*
X32423788Y-47388800D02*
X32395788Y-47393800D01*
X32395788Y-47393800D02*
X32367788Y-47400800D01*
X32367788Y-47400800D02*
X32339788Y-47408800D01*
X32339788Y-47408800D02*
X32312788Y-47418800D01*
X32312788Y-47418800D02*
X32285788Y-47429800D01*
X32285788Y-47429800D02*
X32259788Y-47441800D01*
X32259788Y-47441800D02*
X32234788Y-47455800D01*
X32234788Y-47455800D02*
X32209788Y-47470800D01*
X32209788Y-47470800D02*
X32186788Y-47486800D01*
X32186788Y-47486800D02*
X32163788Y-47504800D01*
X32163788Y-47504800D02*
X32141788Y-47522800D01*
X32141788Y-47522800D02*
X32120788Y-47542800D01*
X32120788Y-47542800D02*
X32100788Y-47563800D01*
X32100788Y-47563800D02*
X32082788Y-47585800D01*
X32082788Y-47585800D02*
X32064788Y-47608800D01*
X32064788Y-47608800D02*
X32048788Y-47631800D01*
X32048788Y-47631800D02*
X32033788Y-47656800D01*
X32033788Y-47656800D02*
X32019788Y-47681800D01*
X32019788Y-47681800D02*
X32007788Y-47707800D01*
X32007788Y-47707800D02*
X31996788Y-47734800D01*
X31996788Y-47734800D02*
X31986788Y-47761800D01*
X31986788Y-47761800D02*
X31978788Y-47789800D01*
X31978788Y-47789800D02*
X31971788Y-47817800D01*
X31971788Y-47817800D02*
X31966788Y-47845800D01*
X31966788Y-47845800D02*
X31962788Y-47874800D01*
X31962788Y-47874800D02*
X31960788Y-47902800D01*
X31960788Y-47902800D02*
X31959788Y-47931800D01*
X31959788Y-47931800D02*
X31960788Y-47960800D01*
X31960788Y-47960800D02*
X31962788Y-47988800D01*
X31962788Y-47988800D02*
X31966788Y-48017800D01*
X31966788Y-48017800D02*
X31971788Y-48045800D01*
X31971788Y-48045800D02*
X31978788Y-48073800D01*
X31978788Y-48073800D02*
X31986788Y-48101800D01*
X31986788Y-48101800D02*
X31996788Y-48128800D01*
X31996788Y-48128800D02*
X32007788Y-48155800D01*
X32007788Y-48155800D02*
X32019788Y-48181800D01*
X32019788Y-48181800D02*
X32033788Y-48206800D01*
X32033788Y-48206800D02*
X32048788Y-48231800D01*
X32048788Y-48231800D02*
X32064788Y-48254800D01*
X32064788Y-48254800D02*
X32082788Y-48277800D01*
X32082788Y-48277800D02*
X32100788Y-48299800D01*
X32100788Y-48299800D02*
X32120788Y-48320800D01*
X32120788Y-48320800D02*
X32141788Y-48340800D01*
X32141788Y-48340800D02*
X32163788Y-48358800D01*
X32163788Y-48358800D02*
X32186788Y-48376800D01*
X32186788Y-48376800D02*
X32209788Y-48392800D01*
X32209788Y-48392800D02*
X32234788Y-48407800D01*
X32234788Y-48407800D02*
X32259788Y-48421800D01*
X32259788Y-48421800D02*
X32285788Y-48433800D01*
X32285788Y-48433800D02*
X32312788Y-48444800D01*
X32312788Y-48444800D02*
X32339788Y-48454800D01*
X32339788Y-48454800D02*
X32367788Y-48462800D01*
X32367788Y-48462800D02*
X32395788Y-48469800D01*
X32395788Y-48469800D02*
X32423788Y-48474800D01*
X32423788Y-48474800D02*
X32452788Y-48478800D01*
X32452788Y-48478800D02*
X32480788Y-48480800D01*
X32480788Y-48480800D02*
X32509788Y-48481800D01*
X32509788Y-48481800D02*
X33109788Y-48481800D01*
X33109788Y-48481800D02*
X33138788Y-48480800D01*
X33138788Y-48480800D02*
X33166788Y-48478800D01*
X33166788Y-48478800D02*
X33195788Y-48474800D01*
X33195788Y-48474800D02*
X33223788Y-48469800D01*
X33223788Y-48469800D02*
X33251788Y-48462800D01*
X33251788Y-48462800D02*
X33279788Y-48454800D01*
X33279788Y-48454800D02*
X33306788Y-48444800D01*
X33306788Y-48444800D02*
X33333788Y-48433800D01*
X33333788Y-48433800D02*
X33359788Y-48421800D01*
X33359788Y-48421800D02*
X33384788Y-48407800D01*
X33384788Y-48407800D02*
X33409788Y-48392800D01*
X33409788Y-48392800D02*
X33432788Y-48376800D01*
X33432788Y-48376800D02*
X33455788Y-48358800D01*
X33455788Y-48358800D02*
X33477788Y-48340800D01*
X33477788Y-48340800D02*
X33498788Y-48320800D01*
X33498788Y-48320800D02*
X33518788Y-48299800D01*
X33518788Y-48299800D02*
X33536788Y-48277800D01*
X33536788Y-48277800D02*
X33554788Y-48254800D01*
X33554788Y-48254800D02*
X33570788Y-48231800D01*
X33570788Y-48231800D02*
X33585788Y-48206800D01*
X33585788Y-48206800D02*
X33599788Y-48181800D01*
X33599788Y-48181800D02*
X33611788Y-48155800D01*
X33611788Y-48155800D02*
X33622788Y-48128800D01*
X33622788Y-48128800D02*
X33632788Y-48101800D01*
X33632788Y-48101800D02*
X33640788Y-48073800D01*
X33640788Y-48073800D02*
X33647788Y-48045800D01*
X33647788Y-48045800D02*
X33652788Y-48017800D01*
X33652788Y-48017800D02*
X33656788Y-47988800D01*
X33656788Y-47988800D02*
X33658788Y-47960800D01*
X33658788Y-47960800D02*
X33659788Y-47931800D01*
X33659788Y-47931800D02*
X33659788Y-47931800D01*
G36*
X33138788Y-47382800D02*
G01*
X33166788Y-47384800D01*
X33195788Y-47388800D01*
X33223788Y-47393800D01*
X33251788Y-47400800D01*
X33279788Y-47408800D01*
X33306788Y-47418800D01*
X33333788Y-47429800D01*
X33359788Y-47441800D01*
X33384788Y-47455800D01*
X33409788Y-47470800D01*
X33432788Y-47486800D01*
X33455788Y-47504800D01*
X33477788Y-47522800D01*
X33498788Y-47542800D01*
X33518788Y-47563800D01*
X33536788Y-47585800D01*
X33554788Y-47608800D01*
X33570788Y-47631800D01*
X33585788Y-47656800D01*
X33599788Y-47681800D01*
X33611788Y-47707800D01*
X33622788Y-47734800D01*
X33632788Y-47761800D01*
X33640788Y-47789800D01*
X33647788Y-47817800D01*
X33652788Y-47845800D01*
X33656788Y-47874800D01*
X33658788Y-47902800D01*
X33659788Y-47931800D01*
X33658788Y-47960800D01*
X33656788Y-47988800D01*
X33652788Y-48017800D01*
X33647788Y-48045800D01*
X33640788Y-48073800D01*
X33632788Y-48101800D01*
X33622788Y-48128800D01*
X33611788Y-48155800D01*
X33599788Y-48181800D01*
X33585788Y-48206800D01*
X33570788Y-48231800D01*
X33554788Y-48254800D01*
X33536788Y-48277800D01*
X33518788Y-48299800D01*
X33498788Y-48320800D01*
X33477788Y-48340800D01*
X33455788Y-48358800D01*
X33432788Y-48376800D01*
X33409788Y-48392800D01*
X33384788Y-48407800D01*
X33359788Y-48421800D01*
X33333788Y-48433800D01*
X33306788Y-48444800D01*
X33279788Y-48454800D01*
X33251788Y-48462800D01*
X33223788Y-48469800D01*
X33195788Y-48474800D01*
X33166788Y-48478800D01*
X33138788Y-48480800D01*
X33109788Y-48481800D01*
X32509788Y-48481800D01*
X32480788Y-48480800D01*
X32452788Y-48478800D01*
X32423788Y-48474800D01*
X32395788Y-48469800D01*
X32367788Y-48462800D01*
X32339788Y-48454800D01*
X32312788Y-48444800D01*
X32285788Y-48433800D01*
X32259788Y-48421800D01*
X32234788Y-48407800D01*
X32209788Y-48392800D01*
X32186788Y-48376800D01*
X32163788Y-48358800D01*
X32141788Y-48340800D01*
X32120788Y-48320800D01*
X32100788Y-48299800D01*
X32082788Y-48277800D01*
X32064788Y-48254800D01*
X32048788Y-48231800D01*
X32033788Y-48206800D01*
X32019788Y-48181800D01*
X32007788Y-48155800D01*
X31996788Y-48128800D01*
X31986788Y-48101800D01*
X31978788Y-48073800D01*
X31971788Y-48045800D01*
X31966788Y-48017800D01*
X31962788Y-47988800D01*
X31960788Y-47960800D01*
X31959788Y-47931800D01*
X31960788Y-47902800D01*
X31962788Y-47874800D01*
X31966788Y-47845800D01*
X31971788Y-47817800D01*
X31978788Y-47789800D01*
X31986788Y-47761800D01*
X31996788Y-47734800D01*
X32007788Y-47707800D01*
X32019788Y-47681800D01*
X32033788Y-47656800D01*
X32048788Y-47631800D01*
X32064788Y-47608800D01*
X32082788Y-47585800D01*
X32100788Y-47563800D01*
X32120788Y-47542800D01*
X32141788Y-47522800D01*
X32163788Y-47504800D01*
X32186788Y-47486800D01*
X32209788Y-47470800D01*
X32234788Y-47455800D01*
X32259788Y-47441800D01*
X32285788Y-47429800D01*
X32312788Y-47418800D01*
X32339788Y-47408800D01*
X32367788Y-47400800D01*
X32395788Y-47393800D01*
X32423788Y-47388800D01*
X32452788Y-47384800D01*
X32480788Y-47382800D01*
X32509788Y-47381800D01*
X33109788Y-47381800D01*
X33138788Y-47382800D01*
G37*
X33138788Y-47382800D02*
X33166788Y-47384800D01*
X33195788Y-47388800D01*
X33223788Y-47393800D01*
X33251788Y-47400800D01*
X33279788Y-47408800D01*
X33306788Y-47418800D01*
X33333788Y-47429800D01*
X33359788Y-47441800D01*
X33384788Y-47455800D01*
X33409788Y-47470800D01*
X33432788Y-47486800D01*
X33455788Y-47504800D01*
X33477788Y-47522800D01*
X33498788Y-47542800D01*
X33518788Y-47563800D01*
X33536788Y-47585800D01*
X33554788Y-47608800D01*
X33570788Y-47631800D01*
X33585788Y-47656800D01*
X33599788Y-47681800D01*
X33611788Y-47707800D01*
X33622788Y-47734800D01*
X33632788Y-47761800D01*
X33640788Y-47789800D01*
X33647788Y-47817800D01*
X33652788Y-47845800D01*
X33656788Y-47874800D01*
X33658788Y-47902800D01*
X33659788Y-47931800D01*
X33658788Y-47960800D01*
X33656788Y-47988800D01*
X33652788Y-48017800D01*
X33647788Y-48045800D01*
X33640788Y-48073800D01*
X33632788Y-48101800D01*
X33622788Y-48128800D01*
X33611788Y-48155800D01*
X33599788Y-48181800D01*
X33585788Y-48206800D01*
X33570788Y-48231800D01*
X33554788Y-48254800D01*
X33536788Y-48277800D01*
X33518788Y-48299800D01*
X33498788Y-48320800D01*
X33477788Y-48340800D01*
X33455788Y-48358800D01*
X33432788Y-48376800D01*
X33409788Y-48392800D01*
X33384788Y-48407800D01*
X33359788Y-48421800D01*
X33333788Y-48433800D01*
X33306788Y-48444800D01*
X33279788Y-48454800D01*
X33251788Y-48462800D01*
X33223788Y-48469800D01*
X33195788Y-48474800D01*
X33166788Y-48478800D01*
X33138788Y-48480800D01*
X33109788Y-48481800D01*
X32509788Y-48481800D01*
X32480788Y-48480800D01*
X32452788Y-48478800D01*
X32423788Y-48474800D01*
X32395788Y-48469800D01*
X32367788Y-48462800D01*
X32339788Y-48454800D01*
X32312788Y-48444800D01*
X32285788Y-48433800D01*
X32259788Y-48421800D01*
X32234788Y-48407800D01*
X32209788Y-48392800D01*
X32186788Y-48376800D01*
X32163788Y-48358800D01*
X32141788Y-48340800D01*
X32120788Y-48320800D01*
X32100788Y-48299800D01*
X32082788Y-48277800D01*
X32064788Y-48254800D01*
X32048788Y-48231800D01*
X32033788Y-48206800D01*
X32019788Y-48181800D01*
X32007788Y-48155800D01*
X31996788Y-48128800D01*
X31986788Y-48101800D01*
X31978788Y-48073800D01*
X31971788Y-48045800D01*
X31966788Y-48017800D01*
X31962788Y-47988800D01*
X31960788Y-47960800D01*
X31959788Y-47931800D01*
X31960788Y-47902800D01*
X31962788Y-47874800D01*
X31966788Y-47845800D01*
X31971788Y-47817800D01*
X31978788Y-47789800D01*
X31986788Y-47761800D01*
X31996788Y-47734800D01*
X32007788Y-47707800D01*
X32019788Y-47681800D01*
X32033788Y-47656800D01*
X32048788Y-47631800D01*
X32064788Y-47608800D01*
X32082788Y-47585800D01*
X32100788Y-47563800D01*
X32120788Y-47542800D01*
X32141788Y-47522800D01*
X32163788Y-47504800D01*
X32186788Y-47486800D01*
X32209788Y-47470800D01*
X32234788Y-47455800D01*
X32259788Y-47441800D01*
X32285788Y-47429800D01*
X32312788Y-47418800D01*
X32339788Y-47408800D01*
X32367788Y-47400800D01*
X32395788Y-47393800D01*
X32423788Y-47388800D01*
X32452788Y-47384800D01*
X32480788Y-47382800D01*
X32509788Y-47381800D01*
X33109788Y-47381800D01*
X33138788Y-47382800D01*
X37459788Y-39291800D02*
X37458788Y-39262800D01*
X37458788Y-39262800D02*
X37456788Y-39234800D01*
X37456788Y-39234800D02*
X37452788Y-39205800D01*
X37452788Y-39205800D02*
X37447788Y-39177800D01*
X37447788Y-39177800D02*
X37440788Y-39149800D01*
X37440788Y-39149800D02*
X37432788Y-39121800D01*
X37432788Y-39121800D02*
X37422788Y-39094800D01*
X37422788Y-39094800D02*
X37411788Y-39067800D01*
X37411788Y-39067800D02*
X37399788Y-39041800D01*
X37399788Y-39041800D02*
X37385788Y-39016800D01*
X37385788Y-39016800D02*
X37370788Y-38991800D01*
X37370788Y-38991800D02*
X37354788Y-38968800D01*
X37354788Y-38968800D02*
X37336788Y-38945800D01*
X37336788Y-38945800D02*
X37318788Y-38923800D01*
X37318788Y-38923800D02*
X37298788Y-38902800D01*
X37298788Y-38902800D02*
X37277788Y-38882800D01*
X37277788Y-38882800D02*
X37255788Y-38864800D01*
X37255788Y-38864800D02*
X37232788Y-38846800D01*
X37232788Y-38846800D02*
X37209788Y-38830800D01*
X37209788Y-38830800D02*
X37184788Y-38815800D01*
X37184788Y-38815800D02*
X37159788Y-38801800D01*
X37159788Y-38801800D02*
X37133788Y-38789800D01*
X37133788Y-38789800D02*
X37106788Y-38778800D01*
X37106788Y-38778800D02*
X37079788Y-38768800D01*
X37079788Y-38768800D02*
X37051788Y-38760800D01*
X37051788Y-38760800D02*
X37023788Y-38753800D01*
X37023788Y-38753800D02*
X36995788Y-38748800D01*
X36995788Y-38748800D02*
X36966788Y-38744800D01*
X36966788Y-38744800D02*
X36938788Y-38742800D01*
X36938788Y-38742800D02*
X36909788Y-38741800D01*
X36909788Y-38741800D02*
X36309788Y-38741800D01*
X36309788Y-38741800D02*
X36280788Y-38742800D01*
X36280788Y-38742800D02*
X36252788Y-38744800D01*
X36252788Y-38744800D02*
X36223788Y-38748800D01*
X36223788Y-38748800D02*
X36195788Y-38753800D01*
X36195788Y-38753800D02*
X36167788Y-38760800D01*
X36167788Y-38760800D02*
X36139788Y-38768800D01*
X36139788Y-38768800D02*
X36112788Y-38778800D01*
X36112788Y-38778800D02*
X36085788Y-38789800D01*
X36085788Y-38789800D02*
X36059788Y-38801800D01*
X36059788Y-38801800D02*
X36034788Y-38815800D01*
X36034788Y-38815800D02*
X36009788Y-38830800D01*
X36009788Y-38830800D02*
X35986788Y-38846800D01*
X35986788Y-38846800D02*
X35963788Y-38864800D01*
X35963788Y-38864800D02*
X35941788Y-38882800D01*
X35941788Y-38882800D02*
X35920788Y-38902800D01*
X35920788Y-38902800D02*
X35900788Y-38923800D01*
X35900788Y-38923800D02*
X35882788Y-38945800D01*
X35882788Y-38945800D02*
X35864788Y-38968800D01*
X35864788Y-38968800D02*
X35848788Y-38991800D01*
X35848788Y-38991800D02*
X35833788Y-39016800D01*
X35833788Y-39016800D02*
X35819788Y-39041800D01*
X35819788Y-39041800D02*
X35807788Y-39067800D01*
X35807788Y-39067800D02*
X35796788Y-39094800D01*
X35796788Y-39094800D02*
X35786788Y-39121800D01*
X35786788Y-39121800D02*
X35778788Y-39149800D01*
X35778788Y-39149800D02*
X35771788Y-39177800D01*
X35771788Y-39177800D02*
X35766788Y-39205800D01*
X35766788Y-39205800D02*
X35762788Y-39234800D01*
X35762788Y-39234800D02*
X35760788Y-39262800D01*
X35760788Y-39262800D02*
X35759788Y-39291800D01*
X35759788Y-39291800D02*
X35760788Y-39320800D01*
X35760788Y-39320800D02*
X35762788Y-39348800D01*
X35762788Y-39348800D02*
X35766788Y-39377800D01*
X35766788Y-39377800D02*
X35771788Y-39405800D01*
X35771788Y-39405800D02*
X35778788Y-39433800D01*
X35778788Y-39433800D02*
X35786788Y-39461800D01*
X35786788Y-39461800D02*
X35796788Y-39488800D01*
X35796788Y-39488800D02*
X35807788Y-39515800D01*
X35807788Y-39515800D02*
X35819788Y-39541800D01*
X35819788Y-39541800D02*
X35833788Y-39566800D01*
X35833788Y-39566800D02*
X35848788Y-39591800D01*
X35848788Y-39591800D02*
X35864788Y-39614800D01*
X35864788Y-39614800D02*
X35882788Y-39637800D01*
X35882788Y-39637800D02*
X35900788Y-39659800D01*
X35900788Y-39659800D02*
X35920788Y-39680800D01*
X35920788Y-39680800D02*
X35941788Y-39700800D01*
X35941788Y-39700800D02*
X35963788Y-39718800D01*
X35963788Y-39718800D02*
X35986788Y-39736800D01*
X35986788Y-39736800D02*
X36009788Y-39752800D01*
X36009788Y-39752800D02*
X36034788Y-39767800D01*
X36034788Y-39767800D02*
X36059788Y-39781800D01*
X36059788Y-39781800D02*
X36085788Y-39793800D01*
X36085788Y-39793800D02*
X36112788Y-39804800D01*
X36112788Y-39804800D02*
X36139788Y-39814800D01*
X36139788Y-39814800D02*
X36167788Y-39822800D01*
X36167788Y-39822800D02*
X36195788Y-39829800D01*
X36195788Y-39829800D02*
X36223788Y-39834800D01*
X36223788Y-39834800D02*
X36252788Y-39838800D01*
X36252788Y-39838800D02*
X36280788Y-39840800D01*
X36280788Y-39840800D02*
X36309788Y-39841800D01*
X36309788Y-39841800D02*
X36909788Y-39841800D01*
X36909788Y-39841800D02*
X36938788Y-39840800D01*
X36938788Y-39840800D02*
X36966788Y-39838800D01*
X36966788Y-39838800D02*
X36995788Y-39834800D01*
X36995788Y-39834800D02*
X37023788Y-39829800D01*
X37023788Y-39829800D02*
X37051788Y-39822800D01*
X37051788Y-39822800D02*
X37079788Y-39814800D01*
X37079788Y-39814800D02*
X37106788Y-39804800D01*
X37106788Y-39804800D02*
X37133788Y-39793800D01*
X37133788Y-39793800D02*
X37159788Y-39781800D01*
X37159788Y-39781800D02*
X37184788Y-39767800D01*
X37184788Y-39767800D02*
X37209788Y-39752800D01*
X37209788Y-39752800D02*
X37232788Y-39736800D01*
X37232788Y-39736800D02*
X37255788Y-39718800D01*
X37255788Y-39718800D02*
X37277788Y-39700800D01*
X37277788Y-39700800D02*
X37298788Y-39680800D01*
X37298788Y-39680800D02*
X37318788Y-39659800D01*
X37318788Y-39659800D02*
X37336788Y-39637800D01*
X37336788Y-39637800D02*
X37354788Y-39614800D01*
X37354788Y-39614800D02*
X37370788Y-39591800D01*
X37370788Y-39591800D02*
X37385788Y-39566800D01*
X37385788Y-39566800D02*
X37399788Y-39541800D01*
X37399788Y-39541800D02*
X37411788Y-39515800D01*
X37411788Y-39515800D02*
X37422788Y-39488800D01*
X37422788Y-39488800D02*
X37432788Y-39461800D01*
X37432788Y-39461800D02*
X37440788Y-39433800D01*
X37440788Y-39433800D02*
X37447788Y-39405800D01*
X37447788Y-39405800D02*
X37452788Y-39377800D01*
X37452788Y-39377800D02*
X37456788Y-39348800D01*
X37456788Y-39348800D02*
X37458788Y-39320800D01*
X37458788Y-39320800D02*
X37459788Y-39291800D01*
X37459788Y-39291800D02*
X37459788Y-39291800D01*
G36*
X36938788Y-38742800D02*
G01*
X36966788Y-38744800D01*
X36995788Y-38748800D01*
X37023788Y-38753800D01*
X37051788Y-38760800D01*
X37079788Y-38768800D01*
X37106788Y-38778800D01*
X37133788Y-38789800D01*
X37159788Y-38801800D01*
X37184788Y-38815800D01*
X37209788Y-38830800D01*
X37232788Y-38846800D01*
X37255788Y-38864800D01*
X37277788Y-38882800D01*
X37298788Y-38902800D01*
X37318788Y-38923800D01*
X37336788Y-38945800D01*
X37354788Y-38968800D01*
X37370788Y-38991800D01*
X37385788Y-39016800D01*
X37399788Y-39041800D01*
X37411788Y-39067800D01*
X37422788Y-39094800D01*
X37432788Y-39121800D01*
X37440788Y-39149800D01*
X37447788Y-39177800D01*
X37452788Y-39205800D01*
X37456788Y-39234800D01*
X37458788Y-39262800D01*
X37459788Y-39291800D01*
X37458788Y-39320800D01*
X37456788Y-39348800D01*
X37452788Y-39377800D01*
X37447788Y-39405800D01*
X37440788Y-39433800D01*
X37432788Y-39461800D01*
X37422788Y-39488800D01*
X37411788Y-39515800D01*
X37399788Y-39541800D01*
X37385788Y-39566800D01*
X37370788Y-39591800D01*
X37354788Y-39614800D01*
X37336788Y-39637800D01*
X37318788Y-39659800D01*
X37298788Y-39680800D01*
X37277788Y-39700800D01*
X37255788Y-39718800D01*
X37232788Y-39736800D01*
X37209788Y-39752800D01*
X37184788Y-39767800D01*
X37159788Y-39781800D01*
X37133788Y-39793800D01*
X37106788Y-39804800D01*
X37079788Y-39814800D01*
X37051788Y-39822800D01*
X37023788Y-39829800D01*
X36995788Y-39834800D01*
X36966788Y-39838800D01*
X36938788Y-39840800D01*
X36909788Y-39841800D01*
X36309788Y-39841800D01*
X36280788Y-39840800D01*
X36252788Y-39838800D01*
X36223788Y-39834800D01*
X36195788Y-39829800D01*
X36167788Y-39822800D01*
X36139788Y-39814800D01*
X36112788Y-39804800D01*
X36085788Y-39793800D01*
X36059788Y-39781800D01*
X36034788Y-39767800D01*
X36009788Y-39752800D01*
X35986788Y-39736800D01*
X35963788Y-39718800D01*
X35941788Y-39700800D01*
X35920788Y-39680800D01*
X35900788Y-39659800D01*
X35882788Y-39637800D01*
X35864788Y-39614800D01*
X35848788Y-39591800D01*
X35833788Y-39566800D01*
X35819788Y-39541800D01*
X35807788Y-39515800D01*
X35796788Y-39488800D01*
X35786788Y-39461800D01*
X35778788Y-39433800D01*
X35771788Y-39405800D01*
X35766788Y-39377800D01*
X35762788Y-39348800D01*
X35760788Y-39320800D01*
X35759788Y-39291800D01*
X35760788Y-39262800D01*
X35762788Y-39234800D01*
X35766788Y-39205800D01*
X35771788Y-39177800D01*
X35778788Y-39149800D01*
X35786788Y-39121800D01*
X35796788Y-39094800D01*
X35807788Y-39067800D01*
X35819788Y-39041800D01*
X35833788Y-39016800D01*
X35848788Y-38991800D01*
X35864788Y-38968800D01*
X35882788Y-38945800D01*
X35900788Y-38923800D01*
X35920788Y-38902800D01*
X35941788Y-38882800D01*
X35963788Y-38864800D01*
X35986788Y-38846800D01*
X36009788Y-38830800D01*
X36034788Y-38815800D01*
X36059788Y-38801800D01*
X36085788Y-38789800D01*
X36112788Y-38778800D01*
X36139788Y-38768800D01*
X36167788Y-38760800D01*
X36195788Y-38753800D01*
X36223788Y-38748800D01*
X36252788Y-38744800D01*
X36280788Y-38742800D01*
X36309788Y-38741800D01*
X36909788Y-38741800D01*
X36938788Y-38742800D01*
G37*
X36938788Y-38742800D02*
X36966788Y-38744800D01*
X36995788Y-38748800D01*
X37023788Y-38753800D01*
X37051788Y-38760800D01*
X37079788Y-38768800D01*
X37106788Y-38778800D01*
X37133788Y-38789800D01*
X37159788Y-38801800D01*
X37184788Y-38815800D01*
X37209788Y-38830800D01*
X37232788Y-38846800D01*
X37255788Y-38864800D01*
X37277788Y-38882800D01*
X37298788Y-38902800D01*
X37318788Y-38923800D01*
X37336788Y-38945800D01*
X37354788Y-38968800D01*
X37370788Y-38991800D01*
X37385788Y-39016800D01*
X37399788Y-39041800D01*
X37411788Y-39067800D01*
X37422788Y-39094800D01*
X37432788Y-39121800D01*
X37440788Y-39149800D01*
X37447788Y-39177800D01*
X37452788Y-39205800D01*
X37456788Y-39234800D01*
X37458788Y-39262800D01*
X37459788Y-39291800D01*
X37458788Y-39320800D01*
X37456788Y-39348800D01*
X37452788Y-39377800D01*
X37447788Y-39405800D01*
X37440788Y-39433800D01*
X37432788Y-39461800D01*
X37422788Y-39488800D01*
X37411788Y-39515800D01*
X37399788Y-39541800D01*
X37385788Y-39566800D01*
X37370788Y-39591800D01*
X37354788Y-39614800D01*
X37336788Y-39637800D01*
X37318788Y-39659800D01*
X37298788Y-39680800D01*
X37277788Y-39700800D01*
X37255788Y-39718800D01*
X37232788Y-39736800D01*
X37209788Y-39752800D01*
X37184788Y-39767800D01*
X37159788Y-39781800D01*
X37133788Y-39793800D01*
X37106788Y-39804800D01*
X37079788Y-39814800D01*
X37051788Y-39822800D01*
X37023788Y-39829800D01*
X36995788Y-39834800D01*
X36966788Y-39838800D01*
X36938788Y-39840800D01*
X36909788Y-39841800D01*
X36309788Y-39841800D01*
X36280788Y-39840800D01*
X36252788Y-39838800D01*
X36223788Y-39834800D01*
X36195788Y-39829800D01*
X36167788Y-39822800D01*
X36139788Y-39814800D01*
X36112788Y-39804800D01*
X36085788Y-39793800D01*
X36059788Y-39781800D01*
X36034788Y-39767800D01*
X36009788Y-39752800D01*
X35986788Y-39736800D01*
X35963788Y-39718800D01*
X35941788Y-39700800D01*
X35920788Y-39680800D01*
X35900788Y-39659800D01*
X35882788Y-39637800D01*
X35864788Y-39614800D01*
X35848788Y-39591800D01*
X35833788Y-39566800D01*
X35819788Y-39541800D01*
X35807788Y-39515800D01*
X35796788Y-39488800D01*
X35786788Y-39461800D01*
X35778788Y-39433800D01*
X35771788Y-39405800D01*
X35766788Y-39377800D01*
X35762788Y-39348800D01*
X35760788Y-39320800D01*
X35759788Y-39291800D01*
X35760788Y-39262800D01*
X35762788Y-39234800D01*
X35766788Y-39205800D01*
X35771788Y-39177800D01*
X35778788Y-39149800D01*
X35786788Y-39121800D01*
X35796788Y-39094800D01*
X35807788Y-39067800D01*
X35819788Y-39041800D01*
X35833788Y-39016800D01*
X35848788Y-38991800D01*
X35864788Y-38968800D01*
X35882788Y-38945800D01*
X35900788Y-38923800D01*
X35920788Y-38902800D01*
X35941788Y-38882800D01*
X35963788Y-38864800D01*
X35986788Y-38846800D01*
X36009788Y-38830800D01*
X36034788Y-38815800D01*
X36059788Y-38801800D01*
X36085788Y-38789800D01*
X36112788Y-38778800D01*
X36139788Y-38768800D01*
X36167788Y-38760800D01*
X36195788Y-38753800D01*
X36223788Y-38748800D01*
X36252788Y-38744800D01*
X36280788Y-38742800D01*
X36309788Y-38741800D01*
X36909788Y-38741800D01*
X36938788Y-38742800D01*
X33659788Y-39291800D02*
X33658788Y-39262800D01*
X33658788Y-39262800D02*
X33656788Y-39234800D01*
X33656788Y-39234800D02*
X33652788Y-39205800D01*
X33652788Y-39205800D02*
X33647788Y-39177800D01*
X33647788Y-39177800D02*
X33640788Y-39149800D01*
X33640788Y-39149800D02*
X33632788Y-39121800D01*
X33632788Y-39121800D02*
X33622788Y-39094800D01*
X33622788Y-39094800D02*
X33611788Y-39067800D01*
X33611788Y-39067800D02*
X33599788Y-39041800D01*
X33599788Y-39041800D02*
X33585788Y-39016800D01*
X33585788Y-39016800D02*
X33570788Y-38991800D01*
X33570788Y-38991800D02*
X33554788Y-38968800D01*
X33554788Y-38968800D02*
X33536788Y-38945800D01*
X33536788Y-38945800D02*
X33518788Y-38923800D01*
X33518788Y-38923800D02*
X33498788Y-38902800D01*
X33498788Y-38902800D02*
X33477788Y-38882800D01*
X33477788Y-38882800D02*
X33455788Y-38864800D01*
X33455788Y-38864800D02*
X33432788Y-38846800D01*
X33432788Y-38846800D02*
X33409788Y-38830800D01*
X33409788Y-38830800D02*
X33384788Y-38815800D01*
X33384788Y-38815800D02*
X33359788Y-38801800D01*
X33359788Y-38801800D02*
X33333788Y-38789800D01*
X33333788Y-38789800D02*
X33306788Y-38778800D01*
X33306788Y-38778800D02*
X33279788Y-38768800D01*
X33279788Y-38768800D02*
X33251788Y-38760800D01*
X33251788Y-38760800D02*
X33223788Y-38753800D01*
X33223788Y-38753800D02*
X33195788Y-38748800D01*
X33195788Y-38748800D02*
X33166788Y-38744800D01*
X33166788Y-38744800D02*
X33138788Y-38742800D01*
X33138788Y-38742800D02*
X33109788Y-38741800D01*
X33109788Y-38741800D02*
X32509788Y-38741800D01*
X32509788Y-38741800D02*
X32480788Y-38742800D01*
X32480788Y-38742800D02*
X32452788Y-38744800D01*
X32452788Y-38744800D02*
X32423788Y-38748800D01*
X32423788Y-38748800D02*
X32395788Y-38753800D01*
X32395788Y-38753800D02*
X32367788Y-38760800D01*
X32367788Y-38760800D02*
X32339788Y-38768800D01*
X32339788Y-38768800D02*
X32312788Y-38778800D01*
X32312788Y-38778800D02*
X32285788Y-38789800D01*
X32285788Y-38789800D02*
X32259788Y-38801800D01*
X32259788Y-38801800D02*
X32234788Y-38815800D01*
X32234788Y-38815800D02*
X32209788Y-38830800D01*
X32209788Y-38830800D02*
X32186788Y-38846800D01*
X32186788Y-38846800D02*
X32163788Y-38864800D01*
X32163788Y-38864800D02*
X32141788Y-38882800D01*
X32141788Y-38882800D02*
X32120788Y-38902800D01*
X32120788Y-38902800D02*
X32100788Y-38923800D01*
X32100788Y-38923800D02*
X32082788Y-38945800D01*
X32082788Y-38945800D02*
X32064788Y-38968800D01*
X32064788Y-38968800D02*
X32048788Y-38991800D01*
X32048788Y-38991800D02*
X32033788Y-39016800D01*
X32033788Y-39016800D02*
X32019788Y-39041800D01*
X32019788Y-39041800D02*
X32007788Y-39067800D01*
X32007788Y-39067800D02*
X31996788Y-39094800D01*
X31996788Y-39094800D02*
X31986788Y-39121800D01*
X31986788Y-39121800D02*
X31978788Y-39149800D01*
X31978788Y-39149800D02*
X31971788Y-39177800D01*
X31971788Y-39177800D02*
X31966788Y-39205800D01*
X31966788Y-39205800D02*
X31962788Y-39234800D01*
X31962788Y-39234800D02*
X31960788Y-39262800D01*
X31960788Y-39262800D02*
X31959788Y-39291800D01*
X31959788Y-39291800D02*
X31960788Y-39320800D01*
X31960788Y-39320800D02*
X31962788Y-39348800D01*
X31962788Y-39348800D02*
X31966788Y-39377800D01*
X31966788Y-39377800D02*
X31971788Y-39405800D01*
X31971788Y-39405800D02*
X31978788Y-39433800D01*
X31978788Y-39433800D02*
X31986788Y-39461800D01*
X31986788Y-39461800D02*
X31996788Y-39488800D01*
X31996788Y-39488800D02*
X32007788Y-39515800D01*
X32007788Y-39515800D02*
X32019788Y-39541800D01*
X32019788Y-39541800D02*
X32033788Y-39566800D01*
X32033788Y-39566800D02*
X32048788Y-39591800D01*
X32048788Y-39591800D02*
X32064788Y-39614800D01*
X32064788Y-39614800D02*
X32082788Y-39637800D01*
X32082788Y-39637800D02*
X32100788Y-39659800D01*
X32100788Y-39659800D02*
X32120788Y-39680800D01*
X32120788Y-39680800D02*
X32141788Y-39700800D01*
X32141788Y-39700800D02*
X32163788Y-39718800D01*
X32163788Y-39718800D02*
X32186788Y-39736800D01*
X32186788Y-39736800D02*
X32209788Y-39752800D01*
X32209788Y-39752800D02*
X32234788Y-39767800D01*
X32234788Y-39767800D02*
X32259788Y-39781800D01*
X32259788Y-39781800D02*
X32285788Y-39793800D01*
X32285788Y-39793800D02*
X32312788Y-39804800D01*
X32312788Y-39804800D02*
X32339788Y-39814800D01*
X32339788Y-39814800D02*
X32367788Y-39822800D01*
X32367788Y-39822800D02*
X32395788Y-39829800D01*
X32395788Y-39829800D02*
X32423788Y-39834800D01*
X32423788Y-39834800D02*
X32452788Y-39838800D01*
X32452788Y-39838800D02*
X32480788Y-39840800D01*
X32480788Y-39840800D02*
X32509788Y-39841800D01*
X32509788Y-39841800D02*
X33109788Y-39841800D01*
X33109788Y-39841800D02*
X33138788Y-39840800D01*
X33138788Y-39840800D02*
X33166788Y-39838800D01*
X33166788Y-39838800D02*
X33195788Y-39834800D01*
X33195788Y-39834800D02*
X33223788Y-39829800D01*
X33223788Y-39829800D02*
X33251788Y-39822800D01*
X33251788Y-39822800D02*
X33279788Y-39814800D01*
X33279788Y-39814800D02*
X33306788Y-39804800D01*
X33306788Y-39804800D02*
X33333788Y-39793800D01*
X33333788Y-39793800D02*
X33359788Y-39781800D01*
X33359788Y-39781800D02*
X33384788Y-39767800D01*
X33384788Y-39767800D02*
X33409788Y-39752800D01*
X33409788Y-39752800D02*
X33432788Y-39736800D01*
X33432788Y-39736800D02*
X33455788Y-39718800D01*
X33455788Y-39718800D02*
X33477788Y-39700800D01*
X33477788Y-39700800D02*
X33498788Y-39680800D01*
X33498788Y-39680800D02*
X33518788Y-39659800D01*
X33518788Y-39659800D02*
X33536788Y-39637800D01*
X33536788Y-39637800D02*
X33554788Y-39614800D01*
X33554788Y-39614800D02*
X33570788Y-39591800D01*
X33570788Y-39591800D02*
X33585788Y-39566800D01*
X33585788Y-39566800D02*
X33599788Y-39541800D01*
X33599788Y-39541800D02*
X33611788Y-39515800D01*
X33611788Y-39515800D02*
X33622788Y-39488800D01*
X33622788Y-39488800D02*
X33632788Y-39461800D01*
X33632788Y-39461800D02*
X33640788Y-39433800D01*
X33640788Y-39433800D02*
X33647788Y-39405800D01*
X33647788Y-39405800D02*
X33652788Y-39377800D01*
X33652788Y-39377800D02*
X33656788Y-39348800D01*
X33656788Y-39348800D02*
X33658788Y-39320800D01*
X33658788Y-39320800D02*
X33659788Y-39291800D01*
X33659788Y-39291800D02*
X33659788Y-39291800D01*
G36*
X33138788Y-38742800D02*
G01*
X33166788Y-38744800D01*
X33195788Y-38748800D01*
X33223788Y-38753800D01*
X33251788Y-38760800D01*
X33279788Y-38768800D01*
X33306788Y-38778800D01*
X33333788Y-38789800D01*
X33359788Y-38801800D01*
X33384788Y-38815800D01*
X33409788Y-38830800D01*
X33432788Y-38846800D01*
X33455788Y-38864800D01*
X33477788Y-38882800D01*
X33498788Y-38902800D01*
X33518788Y-38923800D01*
X33536788Y-38945800D01*
X33554788Y-38968800D01*
X33570788Y-38991800D01*
X33585788Y-39016800D01*
X33599788Y-39041800D01*
X33611788Y-39067800D01*
X33622788Y-39094800D01*
X33632788Y-39121800D01*
X33640788Y-39149800D01*
X33647788Y-39177800D01*
X33652788Y-39205800D01*
X33656788Y-39234800D01*
X33658788Y-39262800D01*
X33659788Y-39291800D01*
X33658788Y-39320800D01*
X33656788Y-39348800D01*
X33652788Y-39377800D01*
X33647788Y-39405800D01*
X33640788Y-39433800D01*
X33632788Y-39461800D01*
X33622788Y-39488800D01*
X33611788Y-39515800D01*
X33599788Y-39541800D01*
X33585788Y-39566800D01*
X33570788Y-39591800D01*
X33554788Y-39614800D01*
X33536788Y-39637800D01*
X33518788Y-39659800D01*
X33498788Y-39680800D01*
X33477788Y-39700800D01*
X33455788Y-39718800D01*
X33432788Y-39736800D01*
X33409788Y-39752800D01*
X33384788Y-39767800D01*
X33359788Y-39781800D01*
X33333788Y-39793800D01*
X33306788Y-39804800D01*
X33279788Y-39814800D01*
X33251788Y-39822800D01*
X33223788Y-39829800D01*
X33195788Y-39834800D01*
X33166788Y-39838800D01*
X33138788Y-39840800D01*
X33109788Y-39841800D01*
X32509788Y-39841800D01*
X32480788Y-39840800D01*
X32452788Y-39838800D01*
X32423788Y-39834800D01*
X32395788Y-39829800D01*
X32367788Y-39822800D01*
X32339788Y-39814800D01*
X32312788Y-39804800D01*
X32285788Y-39793800D01*
X32259788Y-39781800D01*
X32234788Y-39767800D01*
X32209788Y-39752800D01*
X32186788Y-39736800D01*
X32163788Y-39718800D01*
X32141788Y-39700800D01*
X32120788Y-39680800D01*
X32100788Y-39659800D01*
X32082788Y-39637800D01*
X32064788Y-39614800D01*
X32048788Y-39591800D01*
X32033788Y-39566800D01*
X32019788Y-39541800D01*
X32007788Y-39515800D01*
X31996788Y-39488800D01*
X31986788Y-39461800D01*
X31978788Y-39433800D01*
X31971788Y-39405800D01*
X31966788Y-39377800D01*
X31962788Y-39348800D01*
X31960788Y-39320800D01*
X31959788Y-39291800D01*
X31960788Y-39262800D01*
X31962788Y-39234800D01*
X31966788Y-39205800D01*
X31971788Y-39177800D01*
X31978788Y-39149800D01*
X31986788Y-39121800D01*
X31996788Y-39094800D01*
X32007788Y-39067800D01*
X32019788Y-39041800D01*
X32033788Y-39016800D01*
X32048788Y-38991800D01*
X32064788Y-38968800D01*
X32082788Y-38945800D01*
X32100788Y-38923800D01*
X32120788Y-38902800D01*
X32141788Y-38882800D01*
X32163788Y-38864800D01*
X32186788Y-38846800D01*
X32209788Y-38830800D01*
X32234788Y-38815800D01*
X32259788Y-38801800D01*
X32285788Y-38789800D01*
X32312788Y-38778800D01*
X32339788Y-38768800D01*
X32367788Y-38760800D01*
X32395788Y-38753800D01*
X32423788Y-38748800D01*
X32452788Y-38744800D01*
X32480788Y-38742800D01*
X32509788Y-38741800D01*
X33109788Y-38741800D01*
X33138788Y-38742800D01*
G37*
X33138788Y-38742800D02*
X33166788Y-38744800D01*
X33195788Y-38748800D01*
X33223788Y-38753800D01*
X33251788Y-38760800D01*
X33279788Y-38768800D01*
X33306788Y-38778800D01*
X33333788Y-38789800D01*
X33359788Y-38801800D01*
X33384788Y-38815800D01*
X33409788Y-38830800D01*
X33432788Y-38846800D01*
X33455788Y-38864800D01*
X33477788Y-38882800D01*
X33498788Y-38902800D01*
X33518788Y-38923800D01*
X33536788Y-38945800D01*
X33554788Y-38968800D01*
X33570788Y-38991800D01*
X33585788Y-39016800D01*
X33599788Y-39041800D01*
X33611788Y-39067800D01*
X33622788Y-39094800D01*
X33632788Y-39121800D01*
X33640788Y-39149800D01*
X33647788Y-39177800D01*
X33652788Y-39205800D01*
X33656788Y-39234800D01*
X33658788Y-39262800D01*
X33659788Y-39291800D01*
X33658788Y-39320800D01*
X33656788Y-39348800D01*
X33652788Y-39377800D01*
X33647788Y-39405800D01*
X33640788Y-39433800D01*
X33632788Y-39461800D01*
X33622788Y-39488800D01*
X33611788Y-39515800D01*
X33599788Y-39541800D01*
X33585788Y-39566800D01*
X33570788Y-39591800D01*
X33554788Y-39614800D01*
X33536788Y-39637800D01*
X33518788Y-39659800D01*
X33498788Y-39680800D01*
X33477788Y-39700800D01*
X33455788Y-39718800D01*
X33432788Y-39736800D01*
X33409788Y-39752800D01*
X33384788Y-39767800D01*
X33359788Y-39781800D01*
X33333788Y-39793800D01*
X33306788Y-39804800D01*
X33279788Y-39814800D01*
X33251788Y-39822800D01*
X33223788Y-39829800D01*
X33195788Y-39834800D01*
X33166788Y-39838800D01*
X33138788Y-39840800D01*
X33109788Y-39841800D01*
X32509788Y-39841800D01*
X32480788Y-39840800D01*
X32452788Y-39838800D01*
X32423788Y-39834800D01*
X32395788Y-39829800D01*
X32367788Y-39822800D01*
X32339788Y-39814800D01*
X32312788Y-39804800D01*
X32285788Y-39793800D01*
X32259788Y-39781800D01*
X32234788Y-39767800D01*
X32209788Y-39752800D01*
X32186788Y-39736800D01*
X32163788Y-39718800D01*
X32141788Y-39700800D01*
X32120788Y-39680800D01*
X32100788Y-39659800D01*
X32082788Y-39637800D01*
X32064788Y-39614800D01*
X32048788Y-39591800D01*
X32033788Y-39566800D01*
X32019788Y-39541800D01*
X32007788Y-39515800D01*
X31996788Y-39488800D01*
X31986788Y-39461800D01*
X31978788Y-39433800D01*
X31971788Y-39405800D01*
X31966788Y-39377800D01*
X31962788Y-39348800D01*
X31960788Y-39320800D01*
X31959788Y-39291800D01*
X31960788Y-39262800D01*
X31962788Y-39234800D01*
X31966788Y-39205800D01*
X31971788Y-39177800D01*
X31978788Y-39149800D01*
X31986788Y-39121800D01*
X31996788Y-39094800D01*
X32007788Y-39067800D01*
X32019788Y-39041800D01*
X32033788Y-39016800D01*
X32048788Y-38991800D01*
X32064788Y-38968800D01*
X32082788Y-38945800D01*
X32100788Y-38923800D01*
X32120788Y-38902800D01*
X32141788Y-38882800D01*
X32163788Y-38864800D01*
X32186788Y-38846800D01*
X32209788Y-38830800D01*
X32234788Y-38815800D01*
X32259788Y-38801800D01*
X32285788Y-38789800D01*
X32312788Y-38778800D01*
X32339788Y-38768800D01*
X32367788Y-38760800D01*
X32395788Y-38753800D01*
X32423788Y-38748800D01*
X32452788Y-38744800D01*
X32480788Y-38742800D01*
X32509788Y-38741800D01*
X33109788Y-38741800D01*
X33138788Y-38742800D01*
X37459788Y-47931800D02*
X37458788Y-47902800D01*
X37458788Y-47902800D02*
X37456788Y-47874800D01*
X37456788Y-47874800D02*
X37452788Y-47845800D01*
X37452788Y-47845800D02*
X37447788Y-47817800D01*
X37447788Y-47817800D02*
X37440788Y-47789800D01*
X37440788Y-47789800D02*
X37432788Y-47761800D01*
X37432788Y-47761800D02*
X37422788Y-47734800D01*
X37422788Y-47734800D02*
X37411788Y-47707800D01*
X37411788Y-47707800D02*
X37399788Y-47681800D01*
X37399788Y-47681800D02*
X37385788Y-47656800D01*
X37385788Y-47656800D02*
X37370788Y-47631800D01*
X37370788Y-47631800D02*
X37354788Y-47608800D01*
X37354788Y-47608800D02*
X37336788Y-47585800D01*
X37336788Y-47585800D02*
X37318788Y-47563800D01*
X37318788Y-47563800D02*
X37298788Y-47542800D01*
X37298788Y-47542800D02*
X37277788Y-47522800D01*
X37277788Y-47522800D02*
X37255788Y-47504800D01*
X37255788Y-47504800D02*
X37232788Y-47486800D01*
X37232788Y-47486800D02*
X37209788Y-47470800D01*
X37209788Y-47470800D02*
X37184788Y-47455800D01*
X37184788Y-47455800D02*
X37159788Y-47441800D01*
X37159788Y-47441800D02*
X37133788Y-47429800D01*
X37133788Y-47429800D02*
X37106788Y-47418800D01*
X37106788Y-47418800D02*
X37079788Y-47408800D01*
X37079788Y-47408800D02*
X37051788Y-47400800D01*
X37051788Y-47400800D02*
X37023788Y-47393800D01*
X37023788Y-47393800D02*
X36995788Y-47388800D01*
X36995788Y-47388800D02*
X36966788Y-47384800D01*
X36966788Y-47384800D02*
X36938788Y-47382800D01*
X36938788Y-47382800D02*
X36909788Y-47381800D01*
X36909788Y-47381800D02*
X36309788Y-47381800D01*
X36309788Y-47381800D02*
X36280788Y-47382800D01*
X36280788Y-47382800D02*
X36252788Y-47384800D01*
X36252788Y-47384800D02*
X36223788Y-47388800D01*
X36223788Y-47388800D02*
X36195788Y-47393800D01*
X36195788Y-47393800D02*
X36167788Y-47400800D01*
X36167788Y-47400800D02*
X36139788Y-47408800D01*
X36139788Y-47408800D02*
X36112788Y-47418800D01*
X36112788Y-47418800D02*
X36085788Y-47429800D01*
X36085788Y-47429800D02*
X36059788Y-47441800D01*
X36059788Y-47441800D02*
X36034788Y-47455800D01*
X36034788Y-47455800D02*
X36009788Y-47470800D01*
X36009788Y-47470800D02*
X35986788Y-47486800D01*
X35986788Y-47486800D02*
X35963788Y-47504800D01*
X35963788Y-47504800D02*
X35941788Y-47522800D01*
X35941788Y-47522800D02*
X35920788Y-47542800D01*
X35920788Y-47542800D02*
X35900788Y-47563800D01*
X35900788Y-47563800D02*
X35882788Y-47585800D01*
X35882788Y-47585800D02*
X35864788Y-47608800D01*
X35864788Y-47608800D02*
X35848788Y-47631800D01*
X35848788Y-47631800D02*
X35833788Y-47656800D01*
X35833788Y-47656800D02*
X35819788Y-47681800D01*
X35819788Y-47681800D02*
X35807788Y-47707800D01*
X35807788Y-47707800D02*
X35796788Y-47734800D01*
X35796788Y-47734800D02*
X35786788Y-47761800D01*
X35786788Y-47761800D02*
X35778788Y-47789800D01*
X35778788Y-47789800D02*
X35771788Y-47817800D01*
X35771788Y-47817800D02*
X35766788Y-47845800D01*
X35766788Y-47845800D02*
X35762788Y-47874800D01*
X35762788Y-47874800D02*
X35760788Y-47902800D01*
X35760788Y-47902800D02*
X35759788Y-47931800D01*
X35759788Y-47931800D02*
X35760788Y-47960800D01*
X35760788Y-47960800D02*
X35762788Y-47988800D01*
X35762788Y-47988800D02*
X35766788Y-48017800D01*
X35766788Y-48017800D02*
X35771788Y-48045800D01*
X35771788Y-48045800D02*
X35778788Y-48073800D01*
X35778788Y-48073800D02*
X35786788Y-48101800D01*
X35786788Y-48101800D02*
X35796788Y-48128800D01*
X35796788Y-48128800D02*
X35807788Y-48155800D01*
X35807788Y-48155800D02*
X35819788Y-48181800D01*
X35819788Y-48181800D02*
X35833788Y-48206800D01*
X35833788Y-48206800D02*
X35848788Y-48231800D01*
X35848788Y-48231800D02*
X35864788Y-48254800D01*
X35864788Y-48254800D02*
X35882788Y-48277800D01*
X35882788Y-48277800D02*
X35900788Y-48299800D01*
X35900788Y-48299800D02*
X35920788Y-48320800D01*
X35920788Y-48320800D02*
X35941788Y-48340800D01*
X35941788Y-48340800D02*
X35963788Y-48358800D01*
X35963788Y-48358800D02*
X35986788Y-48376800D01*
X35986788Y-48376800D02*
X36009788Y-48392800D01*
X36009788Y-48392800D02*
X36034788Y-48407800D01*
X36034788Y-48407800D02*
X36059788Y-48421800D01*
X36059788Y-48421800D02*
X36085788Y-48433800D01*
X36085788Y-48433800D02*
X36112788Y-48444800D01*
X36112788Y-48444800D02*
X36139788Y-48454800D01*
X36139788Y-48454800D02*
X36167788Y-48462800D01*
X36167788Y-48462800D02*
X36195788Y-48469800D01*
X36195788Y-48469800D02*
X36223788Y-48474800D01*
X36223788Y-48474800D02*
X36252788Y-48478800D01*
X36252788Y-48478800D02*
X36280788Y-48480800D01*
X36280788Y-48480800D02*
X36309788Y-48481800D01*
X36309788Y-48481800D02*
X36909788Y-48481800D01*
X36909788Y-48481800D02*
X36938788Y-48480800D01*
X36938788Y-48480800D02*
X36966788Y-48478800D01*
X36966788Y-48478800D02*
X36995788Y-48474800D01*
X36995788Y-48474800D02*
X37023788Y-48469800D01*
X37023788Y-48469800D02*
X37051788Y-48462800D01*
X37051788Y-48462800D02*
X37079788Y-48454800D01*
X37079788Y-48454800D02*
X37106788Y-48444800D01*
X37106788Y-48444800D02*
X37133788Y-48433800D01*
X37133788Y-48433800D02*
X37159788Y-48421800D01*
X37159788Y-48421800D02*
X37184788Y-48407800D01*
X37184788Y-48407800D02*
X37209788Y-48392800D01*
X37209788Y-48392800D02*
X37232788Y-48376800D01*
X37232788Y-48376800D02*
X37255788Y-48358800D01*
X37255788Y-48358800D02*
X37277788Y-48340800D01*
X37277788Y-48340800D02*
X37298788Y-48320800D01*
X37298788Y-48320800D02*
X37318788Y-48299800D01*
X37318788Y-48299800D02*
X37336788Y-48277800D01*
X37336788Y-48277800D02*
X37354788Y-48254800D01*
X37354788Y-48254800D02*
X37370788Y-48231800D01*
X37370788Y-48231800D02*
X37385788Y-48206800D01*
X37385788Y-48206800D02*
X37399788Y-48181800D01*
X37399788Y-48181800D02*
X37411788Y-48155800D01*
X37411788Y-48155800D02*
X37422788Y-48128800D01*
X37422788Y-48128800D02*
X37432788Y-48101800D01*
X37432788Y-48101800D02*
X37440788Y-48073800D01*
X37440788Y-48073800D02*
X37447788Y-48045800D01*
X37447788Y-48045800D02*
X37452788Y-48017800D01*
X37452788Y-48017800D02*
X37456788Y-47988800D01*
X37456788Y-47988800D02*
X37458788Y-47960800D01*
X37458788Y-47960800D02*
X37459788Y-47931800D01*
X37459788Y-47931800D02*
X37459788Y-47931800D01*
G36*
X36938788Y-47382800D02*
G01*
X36966788Y-47384800D01*
X36995788Y-47388800D01*
X37023788Y-47393800D01*
X37051788Y-47400800D01*
X37079788Y-47408800D01*
X37106788Y-47418800D01*
X37133788Y-47429800D01*
X37159788Y-47441800D01*
X37184788Y-47455800D01*
X37209788Y-47470800D01*
X37232788Y-47486800D01*
X37255788Y-47504800D01*
X37277788Y-47522800D01*
X37298788Y-47542800D01*
X37318788Y-47563800D01*
X37336788Y-47585800D01*
X37354788Y-47608800D01*
X37370788Y-47631800D01*
X37385788Y-47656800D01*
X37399788Y-47681800D01*
X37411788Y-47707800D01*
X37422788Y-47734800D01*
X37432788Y-47761800D01*
X37440788Y-47789800D01*
X37447788Y-47817800D01*
X37452788Y-47845800D01*
X37456788Y-47874800D01*
X37458788Y-47902800D01*
X37459788Y-47931800D01*
X37458788Y-47960800D01*
X37456788Y-47988800D01*
X37452788Y-48017800D01*
X37447788Y-48045800D01*
X37440788Y-48073800D01*
X37432788Y-48101800D01*
X37422788Y-48128800D01*
X37411788Y-48155800D01*
X37399788Y-48181800D01*
X37385788Y-48206800D01*
X37370788Y-48231800D01*
X37354788Y-48254800D01*
X37336788Y-48277800D01*
X37318788Y-48299800D01*
X37298788Y-48320800D01*
X37277788Y-48340800D01*
X37255788Y-48358800D01*
X37232788Y-48376800D01*
X37209788Y-48392800D01*
X37184788Y-48407800D01*
X37159788Y-48421800D01*
X37133788Y-48433800D01*
X37106788Y-48444800D01*
X37079788Y-48454800D01*
X37051788Y-48462800D01*
X37023788Y-48469800D01*
X36995788Y-48474800D01*
X36966788Y-48478800D01*
X36938788Y-48480800D01*
X36909788Y-48481800D01*
X36309788Y-48481800D01*
X36280788Y-48480800D01*
X36252788Y-48478800D01*
X36223788Y-48474800D01*
X36195788Y-48469800D01*
X36167788Y-48462800D01*
X36139788Y-48454800D01*
X36112788Y-48444800D01*
X36085788Y-48433800D01*
X36059788Y-48421800D01*
X36034788Y-48407800D01*
X36009788Y-48392800D01*
X35986788Y-48376800D01*
X35963788Y-48358800D01*
X35941788Y-48340800D01*
X35920788Y-48320800D01*
X35900788Y-48299800D01*
X35882788Y-48277800D01*
X35864788Y-48254800D01*
X35848788Y-48231800D01*
X35833788Y-48206800D01*
X35819788Y-48181800D01*
X35807788Y-48155800D01*
X35796788Y-48128800D01*
X35786788Y-48101800D01*
X35778788Y-48073800D01*
X35771788Y-48045800D01*
X35766788Y-48017800D01*
X35762788Y-47988800D01*
X35760788Y-47960800D01*
X35759788Y-47931800D01*
X35760788Y-47902800D01*
X35762788Y-47874800D01*
X35766788Y-47845800D01*
X35771788Y-47817800D01*
X35778788Y-47789800D01*
X35786788Y-47761800D01*
X35796788Y-47734800D01*
X35807788Y-47707800D01*
X35819788Y-47681800D01*
X35833788Y-47656800D01*
X35848788Y-47631800D01*
X35864788Y-47608800D01*
X35882788Y-47585800D01*
X35900788Y-47563800D01*
X35920788Y-47542800D01*
X35941788Y-47522800D01*
X35963788Y-47504800D01*
X35986788Y-47486800D01*
X36009788Y-47470800D01*
X36034788Y-47455800D01*
X36059788Y-47441800D01*
X36085788Y-47429800D01*
X36112788Y-47418800D01*
X36139788Y-47408800D01*
X36167788Y-47400800D01*
X36195788Y-47393800D01*
X36223788Y-47388800D01*
X36252788Y-47384800D01*
X36280788Y-47382800D01*
X36309788Y-47381800D01*
X36909788Y-47381800D01*
X36938788Y-47382800D01*
G37*
X36938788Y-47382800D02*
X36966788Y-47384800D01*
X36995788Y-47388800D01*
X37023788Y-47393800D01*
X37051788Y-47400800D01*
X37079788Y-47408800D01*
X37106788Y-47418800D01*
X37133788Y-47429800D01*
X37159788Y-47441800D01*
X37184788Y-47455800D01*
X37209788Y-47470800D01*
X37232788Y-47486800D01*
X37255788Y-47504800D01*
X37277788Y-47522800D01*
X37298788Y-47542800D01*
X37318788Y-47563800D01*
X37336788Y-47585800D01*
X37354788Y-47608800D01*
X37370788Y-47631800D01*
X37385788Y-47656800D01*
X37399788Y-47681800D01*
X37411788Y-47707800D01*
X37422788Y-47734800D01*
X37432788Y-47761800D01*
X37440788Y-47789800D01*
X37447788Y-47817800D01*
X37452788Y-47845800D01*
X37456788Y-47874800D01*
X37458788Y-47902800D01*
X37459788Y-47931800D01*
X37458788Y-47960800D01*
X37456788Y-47988800D01*
X37452788Y-48017800D01*
X37447788Y-48045800D01*
X37440788Y-48073800D01*
X37432788Y-48101800D01*
X37422788Y-48128800D01*
X37411788Y-48155800D01*
X37399788Y-48181800D01*
X37385788Y-48206800D01*
X37370788Y-48231800D01*
X37354788Y-48254800D01*
X37336788Y-48277800D01*
X37318788Y-48299800D01*
X37298788Y-48320800D01*
X37277788Y-48340800D01*
X37255788Y-48358800D01*
X37232788Y-48376800D01*
X37209788Y-48392800D01*
X37184788Y-48407800D01*
X37159788Y-48421800D01*
X37133788Y-48433800D01*
X37106788Y-48444800D01*
X37079788Y-48454800D01*
X37051788Y-48462800D01*
X37023788Y-48469800D01*
X36995788Y-48474800D01*
X36966788Y-48478800D01*
X36938788Y-48480800D01*
X36909788Y-48481800D01*
X36309788Y-48481800D01*
X36280788Y-48480800D01*
X36252788Y-48478800D01*
X36223788Y-48474800D01*
X36195788Y-48469800D01*
X36167788Y-48462800D01*
X36139788Y-48454800D01*
X36112788Y-48444800D01*
X36085788Y-48433800D01*
X36059788Y-48421800D01*
X36034788Y-48407800D01*
X36009788Y-48392800D01*
X35986788Y-48376800D01*
X35963788Y-48358800D01*
X35941788Y-48340800D01*
X35920788Y-48320800D01*
X35900788Y-48299800D01*
X35882788Y-48277800D01*
X35864788Y-48254800D01*
X35848788Y-48231800D01*
X35833788Y-48206800D01*
X35819788Y-48181800D01*
X35807788Y-48155800D01*
X35796788Y-48128800D01*
X35786788Y-48101800D01*
X35778788Y-48073800D01*
X35771788Y-48045800D01*
X35766788Y-48017800D01*
X35762788Y-47988800D01*
X35760788Y-47960800D01*
X35759788Y-47931800D01*
X35760788Y-47902800D01*
X35762788Y-47874800D01*
X35766788Y-47845800D01*
X35771788Y-47817800D01*
X35778788Y-47789800D01*
X35786788Y-47761800D01*
X35796788Y-47734800D01*
X35807788Y-47707800D01*
X35819788Y-47681800D01*
X35833788Y-47656800D01*
X35848788Y-47631800D01*
X35864788Y-47608800D01*
X35882788Y-47585800D01*
X35900788Y-47563800D01*
X35920788Y-47542800D01*
X35941788Y-47522800D01*
X35963788Y-47504800D01*
X35986788Y-47486800D01*
X36009788Y-47470800D01*
X36034788Y-47455800D01*
X36059788Y-47441800D01*
X36085788Y-47429800D01*
X36112788Y-47418800D01*
X36139788Y-47408800D01*
X36167788Y-47400800D01*
X36195788Y-47393800D01*
X36223788Y-47388800D01*
X36252788Y-47384800D01*
X36280788Y-47382800D01*
X36309788Y-47381800D01*
X36909788Y-47381800D01*
X36938788Y-47382800D01*
%TD*%
D11*
%TO.P,J1,1*%
%TO.N,Net-(D3-Pad1)*%
X98602800Y-55245000D03*
D12*
%TO.P,J1,G1*%
%TO.N,GND*%
X96202800Y-52845000D03*
%TO.P,J1,G2*%
X96202800Y-57645000D03*
%TO.P,J1,G3*%
X101002800Y-57645000D03*
%TO.P,J1,G4*%
X101002800Y-52845000D03*
%TD*%
D13*
%TO.P,J4,1,Pin_1*%
%TO.N,GND*%
X34061400Y-66573400D03*
D14*
%TO.P,J4,2,Pin_2*%
%TO.N,+3V3*%
X34061400Y-69113400D03*
%TO.P,J4,3,Pin_3*%
%TO.N,/STM32L431_MCU/GPIO01*%
X34061400Y-71653400D03*
%TO.P,J4,4,Pin_4*%
%TO.N,/STM32L431_MCU/GPIO02*%
X34061400Y-74193400D03*
%TO.P,J4,5,Pin_5*%
%TO.N,/STM32L431_MCU/GPIO03*%
X34061400Y-76733400D03*
%TO.P,J4,6,Pin_6*%
%TO.N,/STM32L431_MCU/GPIO05*%
X34061400Y-79273400D03*
%TD*%
D13*
%TO.P,J7,1,Pin_1*%
%TO.N,/STM32L431_MCU/SWDIO*%
X67244200Y-31242000D03*
D14*
%TO.P,J7,2,Pin_2*%
%TO.N,/STM32L431_MCU/SWCLK*%
X64704200Y-31242000D03*
%TO.P,J7,3,Pin_3*%
%TO.N,/STM32L431_MCU/SWO*%
X62164200Y-31242000D03*
%TD*%
D13*
%TO.P,BT2,1,+*%
%TO.N,/MP2636/BATT*%
X48077200Y-31064200D03*
D14*
%TO.P,BT2,2,-*%
%TO.N,GND*%
X50617200Y-31064200D03*
%TD*%
D15*
%TO.P,J5,SH1,SHIELD*%
%TO.N,Net-(J5-PadSH1)*%
X100835800Y-77711600D03*
%TO.P,J5,SH6,SHIELD*%
X100835800Y-69811600D03*
%TD*%
D11*
%TO.P,J3,1*%
%TO.N,Net-(J3-Pad1)*%
X49326800Y-84099400D03*
D12*
%TO.P,J3,G1*%
%TO.N,GND*%
X46926800Y-81699400D03*
%TO.P,J3,G2*%
X46926800Y-86499400D03*
%TO.P,J3,G3*%
X51726800Y-86499400D03*
%TO.P,J3,G4*%
X51726800Y-81699400D03*
%TD*%
D16*
%TO.P,J8,S1,SHIELD*%
%TO.N,GND*%
X36609788Y-39291800D03*
%TO.P,J8,S2,SHIELD*%
X36609788Y-47931800D03*
%TO.P,J8,S3,SHIELD*%
X32809788Y-39291800D03*
%TO.P,J8,S4,SHIELD*%
X32809788Y-47931800D03*
%TD*%
D17*
%TO.P,C47,1*%
%TO.N,+5V*%
X58318400Y-47281800D03*
%TO.P,C47,2*%
%TO.N,GND*%
X58318400Y-48831800D03*
%TD*%
D18*
%TO.P,C32,1*%
%TO.N,GND*%
X37414200Y-57493200D03*
%TO.P,C32,2*%
%TO.N,Net-(C32-Pad2)*%
X37414200Y-55943200D03*
%TD*%
D19*
%TO.P,C45,1*%
%TO.N,+5V*%
X54102000Y-47521600D03*
%TO.P,C45,2*%
%TO.N,GND*%
X54102000Y-50471600D03*
%TD*%
D18*
%TO.P,C30,1*%
%TO.N,GND*%
X70281800Y-48806400D03*
%TO.P,C30,2*%
%TO.N,+3V3*%
X70281800Y-47256400D03*
%TD*%
%TO.P,C33,1*%
%TO.N,GND*%
X61264800Y-48806400D03*
%TO.P,C33,2*%
%TO.N,+5V*%
X61264800Y-47256400D03*
%TD*%
D20*
%TO.P,R43,1*%
%TO.N,Net-(D11-Pad2)*%
X39014400Y-62978800D03*
%TO.P,R43,2*%
%TO.N,/MP2636/VCC*%
X39014400Y-61328800D03*
%TD*%
D19*
%TO.P,C46,1*%
%TO.N,+5V*%
X56438800Y-47445400D03*
%TO.P,C46,2*%
%TO.N,GND*%
X56438800Y-50395400D03*
%TD*%
D20*
%TO.P,R26,1*%
%TO.N,/SIM7020E/NETLIGHT*%
X73914000Y-36867600D03*
%TO.P,R26,2*%
%TO.N,Net-(D1-Pad2)*%
X73914000Y-35217600D03*
%TD*%
D18*
%TO.P,C31,1*%
%TO.N,Net-(C31-Pad1)*%
X38938200Y-52311600D03*
%TO.P,C31,2*%
%TO.N,GND*%
X38938200Y-50761600D03*
%TD*%
D21*
%TO.P,C24,1*%
%TO.N,+3V3*%
X56197200Y-71272400D03*
%TO.P,C24,2*%
%TO.N,GND*%
X57747200Y-71272400D03*
%TD*%
D22*
%TO.P,C21,1*%
%TO.N,GND*%
X86982600Y-72186800D03*
%TO.P,C21,2*%
%TO.N,/SIM7020E/SC_VCC*%
X85432600Y-72186800D03*
%TD*%
D21*
%TO.P,C14,1*%
%TO.N,/SIM7020E/VDD_EXT*%
X72072200Y-49987200D03*
%TO.P,C14,2*%
%TO.N,GND*%
X73622200Y-49987200D03*
%TD*%
%TO.P,C26,1*%
%TO.N,GND*%
X57594200Y-75920600D03*
%TO.P,C26,2*%
%TO.N,Net-(C26-Pad2)*%
X59144200Y-75920600D03*
%TD*%
%TO.P,C22,1*%
%TO.N,+3V3*%
X56171800Y-72796400D03*
%TO.P,C22,2*%
%TO.N,GND*%
X57721800Y-72796400D03*
%TD*%
D23*
%TO.P,R2,1*%
%TO.N,Signal_VOUT*%
X40790500Y-56108600D03*
%TO.P,R2,2*%
%TO.N,Net-(C32-Pad2)*%
X38965500Y-56108600D03*
%TD*%
D24*
%TO.P,D4,1*%
%TO.N,/SIM7020E/SC_VCC*%
X83098400Y-73076000D03*
%TO.P,D4,2*%
%TO.N,GND*%
X82448400Y-73076000D03*
%TO.P,D4,3*%
%TO.N,/SIM7020E/CLK_SC*%
X81798400Y-73076000D03*
%TO.P,D4,4*%
%TO.N,/SIM7020E/I{slash}O_SC*%
X81798400Y-71196000D03*
%TO.P,D4,5*%
%TO.N,/SIM7020E/RST_SC*%
X83098400Y-71196000D03*
%TD*%
D17*
%TO.P,C48,1*%
%TO.N,+5V*%
X59791600Y-47281800D03*
%TO.P,C48,2*%
%TO.N,GND*%
X59791600Y-48831800D03*
%TD*%
D25*
%TO.P,IC1,1,VO*%
%TO.N,+3V3*%
X68498000Y-46177200D03*
%TO.P,IC1,2,FB/VO_S*%
X68498000Y-47447200D03*
%TO.P,IC1,3,GND*%
%TO.N,GND*%
X68498000Y-48717200D03*
%TO.P,IC1,4,N.C._1*%
%TO.N,unconnected-(IC1-Pad4)*%
X68498000Y-49987200D03*
%TO.P,IC1,5,EN*%
%TO.N,+5V*%
X63074000Y-49987200D03*
%TO.P,IC1,6,N.C._2*%
%TO.N,unconnected-(IC1-Pad6)*%
X63074000Y-48717200D03*
%TO.P,IC1,7,N.C._3*%
%TO.N,unconnected-(IC1-Pad7)*%
X63074000Y-47447200D03*
%TO.P,IC1,8,VCC*%
%TO.N,+5V*%
X63074000Y-46177200D03*
%TD*%
D26*
%TO.P,R49,1*%
%TO.N,+5V*%
X52120800Y-47384200D03*
%TO.P,R49,2*%
%TO.N,Net-(R49-Pad2)*%
X52120800Y-49034200D03*
%TD*%
D27*
%TO.P,C29,1*%
%TO.N,GND*%
X32867600Y-50256400D03*
%TO.P,C29,2*%
%TO.N,/MP2636/VIN*%
X32867600Y-52156400D03*
%TD*%
D28*
%TO.P,PS1,1,VIN*%
%TO.N,/MP2636/VIN*%
X34802200Y-54257100D03*
D29*
%TO.P,PS1,2,GND*%
%TO.N,GND*%
X34791800Y-53340000D03*
D30*
%TO.P,PS1,3,CONTROL*%
%TO.N,/MP2636/VIN*%
X34776800Y-52422900D03*
%TO.P,PS1,4,NOISE*%
%TO.N,Net-(C31-Pad1)*%
X37206800Y-52422900D03*
%TO.P,PS1,5,VOUT*%
%TO.N,Net-(C32-Pad2)*%
X37206800Y-54257100D03*
%TD*%
D17*
%TO.P,C4,1*%
%TO.N,+3V3*%
X65125600Y-56324200D03*
%TO.P,C4,2*%
%TO.N,GND*%
X65125600Y-57874200D03*
%TD*%
D20*
%TO.P,R44,1*%
%TO.N,Net-(D10-Pad2)*%
X32969200Y-62928000D03*
%TO.P,R44,2*%
%TO.N,/MP2636/VCC*%
X32969200Y-61278000D03*
%TD*%
%TO.P,R45,1*%
%TO.N,Net-(D12-Pad2)*%
X35941000Y-62928000D03*
%TO.P,R45,2*%
%TO.N,/MP2636/VCC*%
X35941000Y-61278000D03*
%TD*%
D22*
%TO.P,C15,1*%
%TO.N,+3V3*%
X72555400Y-56769000D03*
%TO.P,C15,2*%
%TO.N,GND*%
X71005400Y-56769000D03*
%TD*%
D31*
%TO.P,R51,1*%
%TO.N,Net-(R49-Pad2)*%
X52234600Y-50469800D03*
%TO.P,R51,2*%
%TO.N,GND*%
X50584600Y-50469800D03*
%TD*%
D20*
%TO.P,R27,1*%
%TO.N,/SIM7020E/STATUS*%
X72618600Y-40753800D03*
%TO.P,R27,2*%
%TO.N,Net-(D2-Pad2)*%
X72618600Y-39103800D03*
%TD*%
D32*
%TO.N,GND*%
X89560400Y-41503600D03*
X98933000Y-49047400D03*
X79146400Y-61874400D03*
X69469000Y-38379400D03*
X54914800Y-51790600D03*
X89814400Y-78638400D03*
X46634400Y-54762400D03*
X66040000Y-68783200D03*
X32054800Y-46863000D03*
X69977000Y-49961800D03*
X82702400Y-42011600D03*
X71780400Y-69697600D03*
X42595800Y-39344600D03*
X57175400Y-80238600D03*
X96342200Y-70688200D03*
X54610000Y-84759800D03*
X46329600Y-85064600D03*
X68148200Y-51079400D03*
X40614600Y-39319200D03*
X37896800Y-31750000D03*
X91897200Y-70205600D03*
X43891200Y-44297600D03*
X101371400Y-54102000D03*
X44373800Y-54559200D03*
X47675800Y-38557200D03*
X75996800Y-43434000D03*
X50571400Y-83388200D03*
X65278000Y-69342000D03*
X58826400Y-73837800D03*
X97790000Y-48742600D03*
X45008800Y-34340800D03*
X75107800Y-43434000D03*
X52197000Y-84759800D03*
X82448400Y-74269600D03*
X32816800Y-66497200D03*
X92837000Y-51892200D03*
X47548800Y-44246800D03*
X97891600Y-53009800D03*
X46482000Y-38531800D03*
X96799400Y-48742600D03*
X96824800Y-50139600D03*
X64363600Y-66649600D03*
X100507800Y-58928000D03*
X48133000Y-87452200D03*
X50241200Y-38531800D03*
X47625000Y-64693800D03*
X50495200Y-84759800D03*
X81788000Y-65227200D03*
X96342200Y-76225400D03*
X57429400Y-77063600D03*
X52603400Y-30759400D03*
X85648800Y-43459400D03*
X35712400Y-46405800D03*
X37084000Y-34747200D03*
X33934400Y-65151000D03*
X45059600Y-33223200D03*
X45897800Y-29006800D03*
X99314000Y-53949600D03*
X96520000Y-59029600D03*
X51358800Y-51079400D03*
X53797200Y-84785200D03*
X77292200Y-37515800D03*
X76962000Y-78536800D03*
X65379600Y-66598800D03*
X50190400Y-49580800D03*
X89306400Y-43586400D03*
X51358800Y-84759800D03*
X76911200Y-80619600D03*
X54229000Y-77978000D03*
X36474400Y-57429400D03*
X56210200Y-51790600D03*
X99288600Y-50241200D03*
X55524400Y-84734400D03*
X86664800Y-71170800D03*
X39852600Y-47294800D03*
X71094600Y-74701400D03*
X65278000Y-68199000D03*
X74015600Y-50927000D03*
X76911200Y-86156800D03*
X93980000Y-42672000D03*
X42240200Y-72466200D03*
X46126400Y-83134200D03*
X95148400Y-42621200D03*
X99314000Y-53035200D03*
X33604200Y-53416200D03*
X77673200Y-67513200D03*
X95631000Y-54127400D03*
X89865200Y-80568800D03*
X70586600Y-50673000D03*
X39776400Y-50165000D03*
X97891600Y-53924200D03*
X96291400Y-80187800D03*
X76784200Y-56489600D03*
X54356000Y-60147200D03*
X76911200Y-84023200D03*
X53898800Y-83388200D03*
X90195400Y-54940200D03*
X70002400Y-56616600D03*
X57810400Y-73863200D03*
X35560000Y-40843200D03*
X42189400Y-67716400D03*
X74726800Y-70307200D03*
X52984400Y-84759800D03*
X92659200Y-50495200D03*
X82143600Y-37566600D03*
X59537600Y-50241200D03*
X53213000Y-81864200D03*
X97891600Y-51155600D03*
X56184800Y-84175600D03*
X52552600Y-29692600D03*
X50266600Y-86029800D03*
X97917000Y-52095400D03*
X101371400Y-59004200D03*
X39827200Y-48717200D03*
X64109600Y-57454800D03*
X57607200Y-51790600D03*
X35763200Y-34721800D03*
X50012600Y-54762400D03*
X92811600Y-48310800D03*
X50317400Y-80873600D03*
X58420000Y-50241200D03*
X54737000Y-83362800D03*
X45923200Y-29819600D03*
X89306400Y-42595800D03*
X31978600Y-40233600D03*
X42011600Y-29413200D03*
X60756800Y-50241200D03*
X37312600Y-33274000D03*
X54254400Y-79044800D03*
X89712800Y-83769200D03*
X34569400Y-40817800D03*
X48336200Y-80848200D03*
X96494600Y-54203600D03*
X53060600Y-83413600D03*
X87934800Y-61874400D03*
X84683600Y-68732400D03*
X100507800Y-54025800D03*
X41605200Y-39319200D03*
X97129600Y-75082400D03*
X52247800Y-83388200D03*
X50292000Y-87249000D03*
X39827200Y-34798000D03*
X66395600Y-66598800D03*
X74244200Y-43434000D03*
X96316800Y-42570400D03*
X89662000Y-85953600D03*
X51435000Y-83388200D03*
X40667700Y-79222600D03*
X95656400Y-58953400D03*
X41097200Y-34747200D03*
X32283400Y-49174400D03*
X97891600Y-50266600D03*
X58902600Y-80238600D03*
X52654200Y-31978600D03*
X69545200Y-34544000D03*
X99339400Y-52120800D03*
X33223200Y-49199800D03*
X74676000Y-71882000D03*
X72085200Y-73228200D03*
X53035200Y-60147200D03*
X48920400Y-38531800D03*
X91948000Y-71882000D03*
X92710000Y-42722800D03*
X85801200Y-61823600D03*
X100457000Y-51079400D03*
X35306000Y-39624000D03*
X51536600Y-54813200D03*
X84582000Y-43510200D03*
%TO.N,/SIM7020E/VDD_EXT*%
X68427600Y-55753000D03*
X71983600Y-53365400D03*
X71932800Y-48666400D03*
X72085200Y-51003200D03*
%TO.N,Net-(C26-Pad2)*%
X59207400Y-77012800D03*
%TO.N,Net-(D1-Pad2)*%
X73304400Y-34493200D03*
%TO.N,Net-(D2-Pad2)*%
X71780400Y-39624000D03*
D33*
%TO.N,/STM32L431_MCU/GPIO01*%
X47091600Y-70535800D03*
%TO.N,/STM32L431_MCU/GPIO02*%
X47625000Y-73355200D03*
%TO.N,/STM32L431_MCU/GPIO03*%
X45516800Y-77343000D03*
D32*
%TO.N,/STM32L431_MCU/GPIO05*%
X58268886Y-66740832D03*
%TO.N,/STM32L431_MCU/MCU_LED*%
X57454800Y-66641900D03*
X41759900Y-75895200D03*
%TO.N,/SIM7020E/NETLIGHT*%
X79502000Y-43434000D03*
%TO.N,/SIM7020E/STATUS*%
X78079600Y-43484800D03*
%TO.N,SIM7020E_UART2_RXD{slash}u_TX*%
X56210200Y-63500000D03*
X68656200Y-59385200D03*
%TO.N,SIM7020E_UART2_TXD{slash}u_RX*%
X55575200Y-65227200D03*
X69620152Y-59434752D03*
%TO.N,SIM7020E_GPIO1*%
X81051400Y-57150000D03*
X66802000Y-58420000D03*
%TO.N,SIM7020E_TXD{slash}MCU_RX*%
X66446400Y-60553600D03*
X65532000Y-59385200D03*
%TO.N,/SIM7020E/UART2_TXD*%
X88036400Y-60350400D03*
X73228200Y-54864000D03*
%TO.N,/SIM7020E/UART2_RDX*%
X73710800Y-55651400D03*
X86004400Y-59309000D03*
%TO.N,/SIM7020E/I{slash}O_SC*%
X80975200Y-71424800D03*
%TO.N,/SIM7020E/CLK_SC*%
X78587600Y-70307200D03*
%TO.N,/SIM7020E/RST_SC*%
X83820000Y-71170800D03*
%TO.N,/SIM7020E/SC_VCC*%
X85598000Y-71170800D03*
%TO.N,+3V3*%
X85394800Y-39598600D03*
X56083200Y-55981600D03*
X67538600Y-42849800D03*
X85394800Y-33502600D03*
X73507600Y-46710600D03*
X85394800Y-37211000D03*
X68529200Y-66979800D03*
X85394800Y-36017200D03*
X68834000Y-72009000D03*
X69113400Y-44373800D03*
X68072000Y-63500000D03*
X56311800Y-73837800D03*
X67589400Y-44399200D03*
X69113400Y-42900600D03*
X64033400Y-56489600D03*
X69392800Y-74752200D03*
X71958200Y-45364400D03*
X55346600Y-73837800D03*
X67564000Y-41021000D03*
X51714400Y-60096400D03*
X85394800Y-38328600D03*
X73507600Y-45364400D03*
X69113400Y-41046400D03*
X35433000Y-69570600D03*
X73253600Y-66954400D03*
X56337200Y-70307200D03*
X72694800Y-57810400D03*
X67360800Y-64033400D03*
X85394800Y-34645600D03*
X71958200Y-46634400D03*
X32943800Y-68122800D03*
X74599800Y-46050200D03*
%TO.N,Signal_VOUT*%
X43332400Y-57429400D03*
X41960800Y-56108600D03*
X47447200Y-58547000D03*
%TO.N,/MP2636/BATT*%
X60375800Y-35560000D03*
X54940200Y-34493200D03*
%TO.N,/MP2636/VIN*%
X34798000Y-45110400D03*
%TO.N,/MP2636/VCC*%
X44323000Y-47548800D03*
X45593000Y-43332400D03*
%TO.N,+5V*%
X52273200Y-46228000D03*
X56134000Y-45974000D03*
X53441600Y-45974000D03*
X54711600Y-45974000D03*
%TO.N,Net-(D10-Pad1)*%
X44958000Y-56565800D03*
X50469800Y-44069000D03*
%TO.N,Net-(D10-Pad2)*%
X33705800Y-63779400D03*
%TO.N,Net-(D11-Pad1)*%
X51231800Y-41706800D03*
X46202600Y-57810400D03*
%TO.N,Net-(D11-Pad2)*%
X39751000Y-63754000D03*
%TO.N,Net-(D12-Pad2)*%
X36753800Y-63703200D03*
D34*
%TO.N,/MP2636/VB*%
X50190400Y-42722800D03*
D32*
X51079400Y-48615600D03*
%TO.N,Net-(R49-Pad2)*%
X53467000Y-52832000D03*
%TD*%
D35*
%TO.N,GND*%
X36609788Y-47303188D02*
X35712400Y-46405800D01*
X73622200Y-50533600D02*
X74015600Y-50927000D01*
D36*
X82448400Y-73076000D02*
X82448400Y-74269600D01*
D35*
X32809788Y-47617988D02*
X32054800Y-46863000D01*
X73622200Y-49987200D02*
X73622200Y-50533600D01*
X32893000Y-66573400D02*
X32816800Y-66497200D01*
X50749200Y-50469800D02*
X51358800Y-51079400D01*
X32867600Y-49758600D02*
X32283400Y-49174400D01*
X32867600Y-50256400D02*
X32867600Y-49555400D01*
X34061400Y-65278000D02*
X33934400Y-65151000D01*
X34061400Y-66573400D02*
X32893000Y-66573400D01*
X33680400Y-53340000D02*
X33604200Y-53416200D01*
D37*
X57594200Y-76200000D02*
X57594200Y-76898800D01*
D35*
X70154800Y-56769000D02*
X70002400Y-56616600D01*
X32867600Y-49555400D02*
X33223200Y-49199800D01*
D36*
X57594200Y-76898800D02*
X57429400Y-77063600D01*
X65125600Y-57874200D02*
X64507289Y-57874200D01*
D35*
X50584600Y-50469800D02*
X50749200Y-50469800D01*
D36*
X86982600Y-72186800D02*
X86982600Y-71488600D01*
D35*
X32809788Y-47931800D02*
X32809788Y-47617988D01*
X39179800Y-50761600D02*
X39776400Y-50165000D01*
X34061400Y-66573400D02*
X34061400Y-65278000D01*
X71005400Y-56769000D02*
X70154800Y-56769000D01*
X36609788Y-47931800D02*
X36609788Y-47303188D01*
D36*
X64507289Y-57874200D02*
X64109600Y-57476511D01*
X86982600Y-71488600D02*
X86664800Y-71170800D01*
D35*
X38938200Y-50761600D02*
X39179800Y-50761600D01*
X34791800Y-53340000D02*
X33680400Y-53340000D01*
X36538200Y-57493200D02*
X36474400Y-57429400D01*
X37414200Y-57493200D02*
X36538200Y-57493200D01*
X32867600Y-50256400D02*
X32867600Y-49758600D01*
%TO.N,/SIM7020E/VDD_EXT*%
X72072200Y-49987200D02*
X72072200Y-50990200D01*
X72072200Y-48805800D02*
X71932800Y-48666400D01*
X70789800Y-53365400D02*
X69392800Y-54762400D01*
X69392800Y-54762400D02*
X69392800Y-54787800D01*
X71983600Y-53365400D02*
X70789800Y-53365400D01*
X72072200Y-49987200D02*
X72072200Y-48805800D01*
X72072200Y-50990200D02*
X72085200Y-51003200D01*
X69392800Y-54787800D02*
X68427600Y-55753000D01*
D36*
%TO.N,Net-(C26-Pad2)*%
X59144200Y-76949600D02*
X59207400Y-77012800D01*
D37*
X59144200Y-76200000D02*
X59144200Y-76949600D01*
D35*
%TO.N,Net-(C31-Pad1)*%
X38826900Y-52422900D02*
X38938200Y-52311600D01*
X37206800Y-52422900D02*
X38826900Y-52422900D01*
D36*
%TO.N,Net-(D1-Pad2)*%
X73304400Y-34493200D02*
X73914000Y-35102800D01*
X73914000Y-35102800D02*
X73914000Y-35217600D01*
%TO.N,Net-(D2-Pad2)*%
X72098400Y-39624000D02*
X72618600Y-39103800D01*
X71780400Y-39624000D02*
X72098400Y-39624000D01*
D38*
%TO.N,/STM32L431_MCU/GPIO01*%
X36906200Y-71653400D02*
X34061400Y-71653400D01*
X37744400Y-71653400D02*
X36779200Y-71653400D01*
X38862000Y-70535800D02*
X37744400Y-71653400D01*
X47091600Y-70535800D02*
X38862000Y-70535800D01*
%TO.N,/STM32L431_MCU/GPIO02*%
X34594800Y-74726800D02*
X34061400Y-74193400D01*
X47625000Y-73355200D02*
X47625000Y-73406000D01*
X47625000Y-73406000D02*
X46304200Y-74726800D01*
X46304200Y-74726800D02*
X34594800Y-74726800D01*
D36*
%TO.N,/STM32L431_MCU/GPIO03*%
X38150800Y-77343000D02*
X37541200Y-76733400D01*
X37541200Y-76733400D02*
X34061400Y-76733400D01*
X45516800Y-77343000D02*
X38150800Y-77343000D01*
%TO.N,/STM32L431_MCU/GPIO05*%
X58268886Y-66740832D02*
X58252568Y-66740832D01*
X36179600Y-78613000D02*
X35519200Y-79273400D01*
X35519200Y-79273400D02*
X34061400Y-79273400D01*
X58252568Y-66740832D02*
X46380400Y-78613000D01*
X46380400Y-78613000D02*
X36179600Y-78613000D01*
%TO.N,/STM32L431_MCU/MCU_LED*%
X47218600Y-75514200D02*
X42140900Y-75514200D01*
X57345500Y-66751200D02*
X55981600Y-66751200D01*
X57454800Y-66641900D02*
X57345500Y-66751200D01*
X42140900Y-75514200D02*
X41759900Y-75895200D01*
X55981600Y-66751200D02*
X47218600Y-75514200D01*
%TO.N,/SIM7020E/NETLIGHT*%
X79502000Y-43434000D02*
X73914000Y-37846000D01*
X73914000Y-37846000D02*
X73914000Y-36867600D01*
%TO.N,/SIM7020E/STATUS*%
X72656200Y-40716200D02*
X72618600Y-40753800D01*
X75311000Y-40716200D02*
X72656200Y-40716200D01*
X78079600Y-43484800D02*
X75311000Y-40716200D01*
%TO.N,SIM7020E_UART2_RXD{slash}u_TX*%
X56210200Y-65049400D02*
X56370289Y-65209489D01*
X56370289Y-65209489D02*
X62831911Y-65209489D01*
X62831911Y-65209489D02*
X68656200Y-59385200D01*
X56210200Y-63500000D02*
X56210200Y-65049400D01*
%TO.N,SIM7020E_UART2_TXD{slash}u_RX*%
X67670793Y-61412007D02*
X67670793Y-61384111D01*
X67670793Y-61384111D02*
X69620152Y-59434752D01*
X63195200Y-65887600D02*
X67670793Y-61412007D01*
X55905400Y-65887600D02*
X63195200Y-65887600D01*
X55575200Y-65227200D02*
X55575200Y-65557400D01*
X55575200Y-65557400D02*
X55905400Y-65887600D01*
%TO.N,SIM7020E_GPIO1*%
X66972111Y-58590111D02*
X77045889Y-58590111D01*
X77045889Y-58590111D02*
X77114400Y-58521600D01*
X78486000Y-57150000D02*
X81051400Y-57150000D01*
X77114400Y-58521600D02*
X78486000Y-57150000D01*
X66802000Y-58420000D02*
X66972111Y-58590111D01*
%TO.N,SIM7020E_TXD{slash}MCU_RX*%
X66446400Y-60299600D02*
X65532000Y-59385200D01*
X66446400Y-60553600D02*
X66446400Y-60299600D01*
%TO.N,/SIM7020E/UART2_TXD*%
X82550000Y-54864000D02*
X88036400Y-60350400D01*
X73228200Y-54864000D02*
X82550000Y-54864000D01*
%TO.N,/SIM7020E/UART2_RDX*%
X81991200Y-55651400D02*
X83439000Y-57099200D01*
X83439000Y-57099200D02*
X85648800Y-59309000D01*
X73710800Y-55651400D02*
X81991200Y-55651400D01*
X85648800Y-59309000D02*
X86004400Y-59309000D01*
%TO.N,/SIM7020E/I{slash}O_SC*%
X81204000Y-71196000D02*
X80975200Y-71424800D01*
X81798400Y-71196000D02*
X81204000Y-71196000D01*
%TO.N,/SIM7020E/CLK_SC*%
X80391200Y-73076000D02*
X78587600Y-71272400D01*
X78587600Y-71272400D02*
X78587600Y-70307200D01*
X81798400Y-73076000D02*
X80391200Y-73076000D01*
%TO.N,/SIM7020E/RST_SC*%
X83098400Y-71196000D02*
X83794800Y-71196000D01*
X83794800Y-71196000D02*
X83820000Y-71170800D01*
%TO.N,/SIM7020E/SC_VCC*%
X83098400Y-73076000D02*
X83642000Y-73076000D01*
X85432600Y-71336200D02*
X85598000Y-71170800D01*
X85432600Y-72186800D02*
X85432600Y-71336200D01*
X83642000Y-73076000D02*
X84531200Y-72186800D01*
X84531200Y-72186800D02*
X85432600Y-72186800D01*
D35*
%TO.N,+3V3*%
X34975800Y-69113400D02*
X35433000Y-69570600D01*
X72555400Y-56769000D02*
X72555400Y-57671000D01*
X34061400Y-69113400D02*
X34975800Y-69113400D01*
D36*
X64033400Y-56489600D02*
X64960200Y-56489600D01*
D35*
X56197200Y-71272400D02*
X56197200Y-70447200D01*
D36*
X64960200Y-56489600D02*
X65125600Y-56324200D01*
D35*
X34061400Y-69113400D02*
X33934400Y-69113400D01*
X72555400Y-57671000D02*
X72694800Y-57810400D01*
X33934400Y-69113400D02*
X32943800Y-68122800D01*
X56197200Y-70447200D02*
X56337200Y-70307200D01*
D36*
%TO.N,Signal_VOUT*%
X43332400Y-57429400D02*
X44450000Y-58547000D01*
X44450000Y-58547000D02*
X47447200Y-58547000D01*
X40790500Y-56108600D02*
X41960800Y-56108600D01*
D39*
%TO.N,/MP2636/BATT*%
X54965600Y-34518600D02*
X54940200Y-34493200D01*
X59334400Y-34518600D02*
X54965600Y-34518600D01*
X60375800Y-35560000D02*
X59334400Y-34518600D01*
D40*
%TO.N,/MP2636/VIN*%
X34798000Y-45110400D02*
X34768389Y-45140011D01*
X31851600Y-54864000D02*
X31851600Y-52552600D01*
X34802200Y-54257100D02*
X34261900Y-54257100D01*
X32247800Y-52156400D02*
X32867600Y-52156400D01*
X33502600Y-55016400D02*
X32004000Y-55016400D01*
X32004000Y-55016400D02*
X31851600Y-54864000D01*
X34261900Y-54257100D02*
X33502600Y-55016400D01*
X34768389Y-45140011D02*
X34768389Y-52414489D01*
X34510300Y-52156400D02*
X34776800Y-52422900D01*
X34768389Y-52414489D02*
X34776800Y-52422900D01*
X31851600Y-52552600D02*
X32247800Y-52156400D01*
X32867600Y-52156400D02*
X34510300Y-52156400D01*
D36*
%TO.N,/MP2636/VCC*%
X45593000Y-43738800D02*
X44577000Y-44754800D01*
X44577000Y-44754800D02*
X44577000Y-47294800D01*
X39014400Y-60502800D02*
X39014400Y-61328800D01*
X42875200Y-48996600D02*
X42875200Y-56642000D01*
X42875200Y-56642000D02*
X39014400Y-60502800D01*
X39014400Y-61328800D02*
X35991800Y-61328800D01*
X35941000Y-61278000D02*
X32969200Y-61278000D01*
X44323000Y-47548800D02*
X42875200Y-48996600D01*
X45593000Y-43332400D02*
X45593000Y-43738800D01*
X35991800Y-61328800D02*
X35941000Y-61278000D01*
X44577000Y-47294800D02*
X44323000Y-47548800D01*
D35*
%TO.N,Net-(C32-Pad2)*%
X37414200Y-55943200D02*
X38800100Y-55943200D01*
X37414200Y-54464500D02*
X37206800Y-54257100D01*
X37414200Y-55943200D02*
X37414200Y-54464500D01*
X38800100Y-55943200D02*
X38965500Y-56108600D01*
D39*
%TO.N,Net-(D10-Pad1)*%
X45415200Y-44678600D02*
X49504600Y-40589200D01*
X52578000Y-42595800D02*
X51104800Y-44069000D01*
X51841400Y-40589200D02*
X52578000Y-41325800D01*
X45415200Y-56108600D02*
X45415200Y-44678600D01*
X44958000Y-56565800D02*
X45415200Y-56108600D01*
X49504600Y-40589200D02*
X51841400Y-40589200D01*
X52578000Y-41325800D02*
X52578000Y-42595800D01*
X51104800Y-44069000D02*
X50469800Y-44069000D01*
%TO.N,Net-(D10-Pad2)*%
X33045400Y-63779400D02*
X32969200Y-63703200D01*
X32969200Y-63703200D02*
X32969200Y-62928000D01*
X33705800Y-63779400D02*
X33045400Y-63779400D01*
%TO.N,Net-(D11-Pad1)*%
X49250600Y-41706800D02*
X46044889Y-44912511D01*
X46044889Y-57652689D02*
X46202600Y-57810400D01*
X46044889Y-44912511D02*
X46044889Y-57652689D01*
X51231800Y-41706800D02*
X49250600Y-41706800D01*
%TO.N,Net-(D11-Pad2)*%
X39751000Y-63754000D02*
X39090600Y-63754000D01*
X39014400Y-63677800D02*
X39014400Y-62978800D01*
X39090600Y-63754000D02*
X39014400Y-63677800D01*
%TO.N,Net-(D12-Pad2)*%
X36753800Y-63703200D02*
X35991800Y-63703200D01*
X35941000Y-63652400D02*
X35941000Y-62928000D01*
X35991800Y-63703200D02*
X35941000Y-63652400D01*
%TO.N,/MP2636/VB*%
X51079400Y-48717200D02*
X50774600Y-49022000D01*
X49098200Y-44399200D02*
X50190400Y-43307000D01*
X50774600Y-49022000D02*
X50165000Y-49022000D01*
X49098200Y-47955200D02*
X49098200Y-44399200D01*
X51079400Y-48615600D02*
X51079400Y-48717200D01*
X50165000Y-49022000D02*
X49098200Y-47955200D01*
X50190400Y-43307000D02*
X50190400Y-42722800D01*
D35*
%TO.N,Net-(R49-Pad2)*%
X53467000Y-52832000D02*
X53467000Y-52654200D01*
X53467000Y-52654200D02*
X52234600Y-51421800D01*
X52234600Y-49148000D02*
X52120800Y-49034200D01*
X52234600Y-51421800D02*
X52234600Y-50469800D01*
X52234600Y-50469800D02*
X52234600Y-49148000D01*
%TD*%
%TA.AperFunction,Conductor*%
%TO.N,+3V3*%
G36*
X69955766Y-40161074D02*
G01*
X69968675Y-40171369D01*
X69975839Y-40186244D01*
X69976768Y-40194730D01*
X69951600Y-44246800D01*
X75552016Y-44246800D01*
X75568113Y-44250474D01*
X75581022Y-44260769D01*
X75588186Y-44275644D01*
X75589095Y-44285161D01*
X75464615Y-47944867D01*
X75460395Y-47960830D01*
X75449668Y-47973382D01*
X75434557Y-47980036D01*
X75427646Y-47980706D01*
X71442510Y-47992567D01*
X66966449Y-48005889D01*
X66950343Y-48002263D01*
X66937404Y-47992007D01*
X66930196Y-47977152D01*
X66929242Y-47968549D01*
X66929292Y-47960830D01*
X66979561Y-40194258D01*
X66983339Y-40178187D01*
X66993717Y-40165345D01*
X67008639Y-40158277D01*
X67016660Y-40157400D01*
X69939669Y-40157400D01*
X69955766Y-40161074D01*
G37*
%TD.AperFunction*%
%TD*%
%TA.AperFunction,Conductor*%
%TO.N,GND*%
G36*
X61654931Y-48238714D02*
G01*
X61668113Y-48248656D01*
X61675677Y-48263333D01*
X61676370Y-48266655D01*
X61773620Y-48869600D01*
X61795728Y-49006672D01*
X61794664Y-49023149D01*
X61789020Y-49034519D01*
X61518800Y-49403000D01*
X61536497Y-49641901D01*
X61617526Y-50735796D01*
X61615051Y-50752121D01*
X61605738Y-50765755D01*
X61591432Y-50773998D01*
X61581506Y-50775624D01*
X59064569Y-50841859D01*
X58728978Y-50850690D01*
X58724800Y-50850800D01*
X58724725Y-50853237D01*
X58675151Y-52464391D01*
X58670984Y-52480367D01*
X58660297Y-52492954D01*
X58645208Y-52499657D01*
X58636603Y-52500321D01*
X54193756Y-52324615D01*
X54177817Y-52320308D01*
X54167741Y-52312468D01*
X53197219Y-51242406D01*
X53189127Y-51228015D01*
X53187600Y-51217482D01*
X53187600Y-49641901D01*
X53191274Y-49625804D01*
X53201569Y-49612895D01*
X53216444Y-49605731D01*
X53223274Y-49604828D01*
X57145824Y-49453961D01*
X57145826Y-49453961D01*
X57150000Y-49453800D01*
X57632600Y-48869600D01*
X57901900Y-48355482D01*
X57912622Y-48342929D01*
X57927731Y-48336270D01*
X57933761Y-48335612D01*
X59168754Y-48302234D01*
X61638742Y-48235477D01*
X61654931Y-48238714D01*
G37*
%TD.AperFunction*%
%TD*%
%TA.AperFunction,Conductor*%
%TO.N,GND*%
G36*
X71022315Y-48314783D02*
G01*
X71035370Y-48324891D01*
X71042747Y-48339662D01*
X71043800Y-48348437D01*
X71043800Y-51118500D01*
X71040126Y-51134597D01*
X71029831Y-51147506D01*
X71014956Y-51154670D01*
X71006700Y-51155600D01*
X69581774Y-51155600D01*
X69565677Y-51151926D01*
X69552768Y-51141631D01*
X69545604Y-51126756D01*
X69544678Y-51119030D01*
X69519860Y-49381782D01*
X69519860Y-49381781D01*
X69519800Y-49377600D01*
X69517386Y-49377722D01*
X69517383Y-49377722D01*
X68353503Y-49436653D01*
X68351627Y-49436700D01*
X67723914Y-49436700D01*
X67723098Y-49436773D01*
X67723094Y-49436773D01*
X67701566Y-49438694D01*
X67701562Y-49438695D01*
X67699811Y-49438851D01*
X67660657Y-49450079D01*
X67658995Y-49450948D01*
X67626232Y-49468075D01*
X67626229Y-49468077D01*
X67624559Y-49468950D01*
X67624504Y-49468845D01*
X67610344Y-49474151D01*
X67607264Y-49474437D01*
X67552174Y-49477227D01*
X67535914Y-49474371D01*
X67522501Y-49464743D01*
X67514594Y-49450248D01*
X67513200Y-49440174D01*
X67513200Y-48398170D01*
X67516874Y-48382073D01*
X67527169Y-48369164D01*
X67542044Y-48362000D01*
X67549766Y-48361074D01*
X68264883Y-48350784D01*
X71006168Y-48311341D01*
X71022315Y-48314783D01*
G37*
%TD.AperFunction*%
%TD*%
%TA.AperFunction,Conductor*%
%TO.N,+3V3*%
G36*
X56650588Y-70770081D02*
G01*
X56680164Y-70781162D01*
X56706056Y-70799251D01*
X56726635Y-70823210D01*
X56740610Y-70851534D01*
X56747101Y-70882443D01*
X56747456Y-70888763D01*
X56755520Y-71148815D01*
X56845000Y-74034546D01*
X56844741Y-74047428D01*
X56828055Y-74281035D01*
X56821874Y-74312008D01*
X56808184Y-74340471D01*
X56787846Y-74364636D01*
X56762138Y-74382983D01*
X56732675Y-74394361D01*
X56703950Y-74398048D01*
X56208249Y-74404244D01*
X54919423Y-74420355D01*
X54888044Y-74416789D01*
X54858535Y-74405530D01*
X54832753Y-74387286D01*
X54812318Y-74363204D01*
X54798514Y-74334796D01*
X54792208Y-74303848D01*
X54791912Y-74290429D01*
X54888206Y-71208999D01*
X54893142Y-71177803D01*
X54905680Y-71148815D01*
X54911615Y-71139699D01*
X55110700Y-70860980D01*
X55132134Y-70837783D01*
X55158664Y-70820644D01*
X55188622Y-70810642D01*
X55199310Y-70808988D01*
X55366238Y-70790440D01*
X55377798Y-70789693D01*
X56569530Y-70767624D01*
X56619185Y-70766704D01*
X56650588Y-70770081D01*
G37*
%TD.AperFunction*%
%TD*%
%TA.AperFunction,Conductor*%
%TO.N,+5V*%
G36*
X65520467Y-45338834D02*
G01*
X65536547Y-45342581D01*
X65549410Y-45352933D01*
X65556507Y-45367841D01*
X65557400Y-45375934D01*
X65557400Y-50788032D01*
X65553726Y-50804129D01*
X65543431Y-50817038D01*
X65528556Y-50824202D01*
X65520033Y-50825131D01*
X62064362Y-50800270D01*
X62048292Y-50796480D01*
X62035457Y-50786093D01*
X62028401Y-50771166D01*
X62027536Y-50762444D01*
X62051521Y-49539220D01*
X62055510Y-49523198D01*
X62066056Y-49510493D01*
X62081069Y-49503622D01*
X62086782Y-49502892D01*
X64109600Y-49403000D01*
X64109600Y-46659800D01*
X64107395Y-46659829D01*
X64107391Y-46659829D01*
X62208779Y-46685144D01*
X62208778Y-46685144D01*
X62204600Y-46685200D01*
X62204234Y-46688190D01*
X62173364Y-46940298D01*
X62167761Y-46955829D01*
X62165297Y-46959227D01*
X62143250Y-46986259D01*
X62124379Y-47022357D01*
X62113151Y-47061511D01*
X62111000Y-47085614D01*
X62111000Y-47447337D01*
X62110725Y-47451846D01*
X62056095Y-47897987D01*
X62050492Y-47913518D01*
X62038705Y-47925080D01*
X62023068Y-47930383D01*
X62020158Y-47930567D01*
X58664192Y-48010950D01*
X57810400Y-48031400D01*
X57490704Y-48351096D01*
X57476723Y-48359880D01*
X57465351Y-48361951D01*
X54330828Y-48436141D01*
X53194564Y-48463035D01*
X53181048Y-48460826D01*
X51459462Y-47837063D01*
X51445579Y-47828125D01*
X51436949Y-47814049D01*
X51435000Y-47802182D01*
X51435000Y-45375989D01*
X51438674Y-45359892D01*
X51448969Y-45346983D01*
X51463844Y-45339819D01*
X51471987Y-45338889D01*
X54320988Y-45330359D01*
X59918433Y-45313601D01*
X59918711Y-45313601D01*
X65520467Y-45338834D01*
G37*
%TD.AperFunction*%
%TD*%
%TA.AperFunction,Conductor*%
%TO.N,GND*%
G36*
X59355919Y-70569958D02*
G01*
X59385783Y-70580239D01*
X59412151Y-70597624D01*
X59433368Y-70621021D01*
X59448100Y-70648959D01*
X59455420Y-70679683D01*
X59456062Y-70698201D01*
X59313839Y-74348599D01*
X59308664Y-74379756D01*
X59295903Y-74408648D01*
X59276357Y-74433457D01*
X59251256Y-74452627D01*
X59222176Y-74464952D01*
X59190945Y-74469658D01*
X59184746Y-74469654D01*
X57424389Y-74425088D01*
X57393164Y-74420337D01*
X57364102Y-74407971D01*
X57339028Y-74388766D01*
X57319518Y-74363928D01*
X57306798Y-74335019D01*
X57301667Y-74303855D01*
X57301581Y-74299974D01*
X57277825Y-70760345D01*
X57281573Y-70728984D01*
X57293002Y-70699540D01*
X57311395Y-70673864D01*
X57335595Y-70653569D01*
X57364083Y-70639930D01*
X57395067Y-70633804D01*
X57399886Y-70633560D01*
X58902196Y-70586613D01*
X58902244Y-70586611D01*
X58902600Y-70586600D01*
X58903040Y-70586580D01*
X59324437Y-70567426D01*
X59355919Y-70569958D01*
G37*
%TD.AperFunction*%
%TD*%
M02*
